<svg width="192" height="32" viewBox="0 0 192 32" fill="none" xmlns="http://www.w3.org/2000/svg">
<path d="M10.1871 3.73723V19.5426C10.1871 20.6326 9.33172 21.4891 8.16525 21.4891C7.07655 21.4891 6.14338 20.6326 6.14338 19.5426V3.73723H1.94411C0.855412 3.73723 4.74636e-06 2.88078 4.74636e-06 1.86861C4.74636e-06 0.856448 0.855412 -3.7126e-08 1.94411 -3.7126e-08H14.3864C15.4751 -3.7126e-08 16.3305 0.856448 16.3305 1.86861C16.3305 2.88078 15.4751 3.73723 14.3864 3.73723H10.1871Z" transform="translate(113.614 2.56934)" fill="#00B900"/>
<path d="M3.65492 1.83206C4.51033 0.819895 5.75455 0.274882 6.68773 0.0413057C7.93195 -0.192271 9.02065 0.586318 9.02065 1.83206C9.02065 2.68851 8.39854 3.4671 7.6209 3.62281C6.60996 3.85639 5.52126 4.16783 4.74362 5.41357C4.27703 6.1143 4.04375 6.97075 4.04375 7.82719V15.4574C4.04375 16.5474 3.11057 17.4817 2.02187 17.4817C0.933169 17.4817 4.74636e-06 16.5474 4.74636e-06 15.4574V1.90992C4.74636e-06 0.897753 0.777638 0.119164 1.78857 0.119164C3.49939 0.119164 3.65492 1.83206 3.65492 1.83206Z" transform="translate(130.333 6.42102)" fill="#00B900"/>
<path d="M13.7643 0.233576C14.853 0.233576 15.7862 1.09002 15.7862 2.10219V15.4939C15.7862 16.5061 14.9307 17.3625 13.7643 17.3625C12.0535 17.3625 11.7424 15.6496 11.7424 15.6496C10.6537 16.8954 9.33172 17.5961 7.6209 17.5961C3.42163 17.5961 0 13.6253 0 8.79805C0 3.9708 3.4994 2.97008e-07 7.8542 2.97008e-07C9.48725 2.97008e-07 10.7315 0.622871 11.7424 1.94647C11.7424 1.94647 12.0535 0.155718 13.6087 0.155718H13.7643V0.233576ZM11.7424 8.87591C11.7424 5.91727 10.1094 3.81509 7.8542 3.81509C5.6768 3.81509 3.96598 6.07299 3.96598 8.87591C3.96598 11.6788 5.6768 13.9367 7.8542 13.9367C10.1094 13.9367 11.7424 11.8345 11.7424 8.87591Z" transform="translate(139.198 6.30652)" fill="#00B900"/>
<path d="M10.0695 1.55908C10.3806 0.391198 11.6248 -0.231674 12.7135 0.079762C13.88 0.391198 14.5021 1.63694 14.1133 2.80482L10.0695 15.5737C9.68073 16.8194 8.4365 17.6759 7.19227 17.6759C5.87028 17.6759 4.70381 16.8194 4.23723 15.5737L0.115719 2.80482C-0.273103 1.63694 0.349014 0.469056 1.51548 0.079762C2.60418 -0.231674 3.8484 0.391198 4.15946 1.55908L7.1145 11.6807L10.0695 1.55908Z" transform="translate(156.346 6.30469)" fill="#00B900"/>
<path d="M13.531 12.3017C14.6975 13.0024 14.7752 14.4039 13.842 15.3382C12.3645 16.8175 10.7315 17.674 8.24302 17.674C3.42163 17.674 -2.37318e-06 14.0146 -2.37318e-06 8.87591C-2.37318e-06 3.89294 3.34386 2.97008e-07 7.77643 2.97008e-07C12.0535 2.97008e-07 15.5529 3.89294 15.5529 8.79805C15.5529 9.49878 14.9307 10.0438 14.3086 10.0438H4.51033C4.74362 12.3796 6.29891 13.8589 8.47631 13.8589C9.48725 13.8589 10.4982 13.3917 11.1981 12.5353C11.6646 11.8346 12.7533 11.8345 13.531 12.3017ZM10.9648 6.61801C10.5759 4.59367 9.40948 3.58151 7.77643 3.58151C6.14338 3.58151 4.89915 4.67153 4.51033 6.61801H10.9648Z" transform="translate(170.848 6.30652)" fill="#00B900"/>
<path d="M-2.37318e-06 2.02433C-2.37318e-06 0.934307 0.933174 -1.8563e-08 2.02187 -1.8563e-08C3.11057 -1.8563e-08 4.04374 0.934307 4.04374 2.02433V21.2555C4.04374 22.3455 3.11057 23.2798 2.02187 23.2798C0.933174 23.2798 -2.37318e-06 22.3455 -2.37318e-06 21.2555V2.02433Z" transform="translate(187.956 0.700806)" fill="#00B900"/>
<path d="M65.0887 0H2.96647e-07L5.21021 5.13869L65.0887 0Z" transform="translate(21.4629 26.8613)" fill="#00B900"/>
<path d="M11.8202 0.467153V1.24574C10.5759 0.467153 9.56501 7.4252e-08 8.00972 7.4252e-08C3.42163 7.4252e-08 5.93294e-07 4.12652 5.93294e-07 9.26521C5.93294e-07 14.4039 3.49939 18.5304 8.00972 18.5304C9.48724 18.5304 10.5759 18.0633 11.8202 17.2847V18.0633H15.7861V0.467153H11.8202ZM8.00972 14.326C5.75456 14.326 4.12151 12.146 4.12151 9.34307C4.12151 6.54015 5.75456 4.3601 8.00972 4.3601C10.2649 4.3601 11.8202 6.54015 11.8202 9.34307C11.8979 12.146 10.2649 14.326 8.00972 14.326Z" transform="translate(15.7085 5.37231)" fill="#00B900"/>
<path d="M10.5759 0V10.3552C10.5759 12.3017 9.25395 13.9367 7.30984 13.9367C5.36574 13.9367 4.04374 12.3017 4.04374 10.3552V0H0V10.3552C0 14.6375 2.87728 18.0633 7.15431 18.0633C9.09842 18.0633 10.5759 16.9732 10.5759 16.9732V17.5961H14.6197V0H10.5759Z" transform="translate(48.9915 5.83948)" fill="#00B900"/>
<path d="M4.04374 18.0633V7.70803C4.04374 5.76156 5.36574 4.12652 7.30985 4.12652C9.25395 4.12652 10.5759 5.76156 10.5759 7.70803V18.0633H14.6197V7.70803C14.6197 3.42579 11.7424 0 7.46537 0C5.52126 0 4.04374 1.09002 4.04374 1.09002V0.389294H1.18659e-06V18.0633H4.04374Z" transform="translate(92.8508 5.45007)" fill="#00B900"/>
<path d="M4.19927 22.1119V15.2603H7.15431L12.2868 22.1119H17.497L11.2758 13.8589C13.2199 12.4574 14.4642 10.1995 14.4642 7.63017C14.4642 3.42579 11.0425 -3.7126e-08 6.84326 -3.7126e-08H0V22.0341H4.19927V22.1119ZM4.19927 4.28224H6.92102C8.78736 4.28224 10.3426 5.83942 10.3426 7.70803C10.3426 9.57664 8.78736 11.1338 6.92102 11.1338H4.19927V4.28224Z" transform="translate(0 1.40149)" fill="#00B900"/>
<path d="M9.33171 17.9854C8.94289 18.219 8.55407 18.4526 8.00972 18.4526C7.38761 18.4526 6.14338 17.9854 6.14338 16.2725V8.72019H9.56501V4.43796H6.14338V-3.7126e-08H2.09964V4.43796H-2.37318e-06V8.64234H2.09964V16.2725C2.09964 20.2433 5.05468 22.5791 8.08748 22.5791C9.17618 22.5791 10.7315 22.1898 11.9757 21.4891L9.33171 17.9854Z" transform="translate(65.0886 1.40149)" fill="#00B900"/>
<path d="M7.6209 14.1703L14.5419 5.83942H8.94289L4.12151 11.9903V0H0V23.5134H4.12151V16.2725L10.0316 23.5134H15.6306L7.6209 14.1703Z" transform="translate(33.8276)" fill="#00B900"/>
<path d="M7.93196 0C3.2661 0 1.18659e-06 4.04866 1.18659e-06 9.26521C1.18659e-06 14.7153 4.19927 18.5304 8.32078 18.5304C10.4204 18.5304 13.1422 17.8297 15.3973 14.5596L11.8979 12.5353C9.17618 16.5839 4.58809 14.5596 4.04374 10.5109H15.5529C16.5638 4.12652 12.4423 0 7.93196 0ZM11.4313 6.92944H4.19927C5.05468 2.80292 10.6537 2.56934 11.4313 6.92944Z" transform="translate(75.7424 5.45007)" fill="#00B900"/>
</svg>
