<svg width="210" height="32" viewBox="0 0 210 32" fill="none" xmlns="http://www.w3.org/2000/svg">
<path d="M65.1 0H2.96699e-07L5.21111 5.13869L65.1 0Z" transform="translate(21.4666 26.8613)" fill="#BF0000"/>
<path d="M11.8222 0.467153V1.24574C10.5778 0.467153 9.56667 7.4252e-08 8.01111 7.4252e-08C3.42222 7.4252e-08 5.93397e-07 4.12652 5.93397e-07 9.26521C5.93397e-07 14.4039 3.5 18.5304 8.01111 18.5304C9.48889 18.5304 10.5778 18.0633 11.8222 17.2847V18.0633H15.7889V0.467153H11.8222ZM8.01111 14.326C5.75556 14.326 4.12222 12.146 4.12222 9.34307C4.12222 6.54015 5.75556 4.3601 8.01111 4.3601C10.2667 4.3601 11.8222 6.54015 11.8222 9.34307C11.9 12.146 10.2667 14.326 8.01111 14.326Z" transform="translate(15.7111 5.37225)" fill="#BF0000"/>
<path d="M10.5778 0V10.3552C10.5778 12.3017 9.25556 13.9367 7.31111 13.9367C5.36667 13.9367 4.04444 12.3017 4.04444 10.3552V0H0V10.3552C0 14.6375 2.87778 18.0633 7.15555 18.0633C9.1 18.0633 10.5778 16.9732 10.5778 16.9732V17.5961H14.6222V0H10.5778Z" transform="translate(49 5.83942)" fill="#BF0000"/>
<path d="M4.04444 18.0633V7.70803C4.04444 5.76156 5.36667 4.12652 7.31111 4.12652C9.25556 4.12652 10.5778 5.76156 10.5778 7.70803V18.0633H14.6222V7.70803C14.6222 3.42579 11.7444 0 7.46667 0C5.52222 0 4.04444 1.09002 4.04444 1.09002V0.389294H1.18679e-06V18.0633H4.04444Z" transform="translate(92.8666 5.45013)" fill="#BF0000"/>
<path d="M4.2 22.1119V15.2603H7.15556L12.2889 22.1119H17.5L11.2778 13.8589C13.2222 12.4574 14.4667 10.1995 14.4667 7.63017C14.4667 3.42579 11.0444 -3.7126e-08 6.84445 -3.7126e-08H0V22.0341H4.2V22.1119ZM4.2 4.28224H6.92222C8.78889 4.28224 10.3444 5.83942 10.3444 7.70803C10.3444 9.57664 8.78889 11.1338 6.92222 11.1338H4.2V4.28224Z" transform="translate(0 1.40146)" fill="#BF0000"/>
<path d="M9.33333 17.9854C8.94444 18.219 8.55556 18.4526 8.01111 18.4526C7.38889 18.4526 6.14444 17.9854 6.14444 16.2725V8.72019H9.56667V4.43796H6.14444V-3.7126e-08H2.1V4.43796H-2.37359e-06V8.64234H2.1V16.2725C2.1 20.2433 5.05555 22.5791 8.08889 22.5791C9.17778 22.5791 10.7333 22.1898 11.9778 21.4891L9.33333 17.9854Z" transform="translate(65.1 1.40146)" fill="#BF0000"/>
<path d="M7.62222 14.1703L14.5444 5.83942H8.94444L4.12222 11.9903V0H0V23.5134H4.12222V16.2725L10.0333 23.5134H15.6333L7.62222 14.1703Z" transform="translate(33.8333)" fill="#BF0000"/>
<path d="M7.93333 0C3.26667 0 1.18679e-06 4.04866 1.18679e-06 9.26521C1.18679e-06 14.7153 4.2 18.5304 8.32222 18.5304C10.4222 18.5304 13.1444 17.8297 15.4 14.5596L11.9 12.5353C9.17778 16.5839 4.58889 14.5596 4.04444 10.511H15.5556C16.5667 4.12652 12.4444 0 7.93333 0ZM11.4333 6.92944H4.2C5.05556 2.80292 10.6556 2.56934 11.4333 6.92944Z" transform="translate(75.7556 5.45013)" fill="#BF0000"/>
<path d="M6.3 9.42093C4.2 10.9781 1.55556 11.9903 0.777778 12.3017L0 9.26521C3.11111 8.25304 4.82223 7.16302 5.52223 6.618L6.3 9.42093ZM9.95556 11.6788H6.53333V1.55718H9.41112C9.56667 1.16788 9.64445 1.09002 9.95556 3.7126e-08H13.1444C12.9889 0.545012 12.7556 1.01217 12.6 1.55718H16.4889V11.6788H12.9111V12.8467H22.5556V15.5718H15.2444C16.8 16.6618 19.3667 18.0633 22.8667 19.1533L21.2333 22.0341C19.9889 21.489 16.1 19.7762 12.9111 16.6618V22.4234H10.0333V16.8954C7 19.6983 3.65556 21.1776 1.63334 22.0341L0.0777825 19.1533C4.43334 17.9075 7 16.2725 7.93333 15.5718H0.388889V12.8467H10.0333V11.6788H9.95556ZM1.94444 0.934307C3.42222 1.63504 4.97778 2.6472 6.22222 3.73723L4.51111 6.15085C3.26667 4.90511 1.94444 4.04866 0.388889 3.27007L1.94444 0.934307ZM9.25555 3.81509V5.52798H13.7667V3.81509H9.25555ZM9.25555 7.47445V9.26521H13.7667V7.47445H9.25555ZM18.0444 6.38443C19.2111 6.92944 21.3889 8.17518 23.1 9.6545L21.2333 12.3017C20.3 11.2895 18.9778 10.1995 16.4889 8.79805L18.0444 6.38443ZM22.5556 2.72506C21.5444 3.9708 19.9111 5.45012 18.7444 6.38443L16.8778 4.20438C19.2111 2.33577 20.0667 1.3236 20.5333 0.778589L22.5556 2.72506Z" transform="translate(113.944 1.71289)" fill="#BF0000"/>
<path d="M9.87777 7.78589C9.95555 7.08516 9.95556 6.77372 9.95556 5.91728V2.80292H0.466669V3.7126e-08H22.7111V2.80292H12.9889V5.83942C12.9889 6.69586 12.9889 6.92944 12.9111 7.78589H22.0111V10.5888H13.6111C14.8556 14.5596 18.7444 17.0511 23.0222 18.6083L21.2333 21.6448C16.4111 19.5426 12.9889 16.3504 11.5889 12.7689C9.48889 17.674 5.13333 20.1655 1.78889 21.6448L-2.37359e-06 18.6083C4.27778 17.3625 7.85556 15.0268 9.25556 10.5888H1.08889V7.78589H9.87777Z" transform="translate(138.211 2.49146)" fill="#BF0000"/>
<path d="M9.56666 20.6326C8.01111 20.944 3.65555 21.6448 0.622217 21.9562L0.311111 19.1533C1.08889 19.0754 1.94445 18.9976 4.27778 18.764V12.6131H0.388894V9.96594H4.27778V8.3309H2.1V6.92944C1.63334 7.31873 1.4 7.55231 0.855553 7.94161L4.74718e-06 4.98297C2.02223 3.58151 3.18889 2.18005 4.27778 -3.7126e-08H7.15556C8.24445 1.94647 9.1 2.95864 10.8111 4.20438L9.17777 6.61801C9.02222 6.46229 8.94444 6.46229 8.86667 6.38443V8.3309H6.76667V10.0438H10.1889V12.691H6.76667V18.4526C7.31111 18.3747 9.95555 17.9854 10.1889 17.9075L10.2667 19.309C10.5 19.309 10.6556 19.309 11.0444 19.2311V0.545012H21.9333V11.5231H17.7333C17.8111 12.2238 17.9667 13.0024 18.4333 14.1703C19.8333 13.236 20.5333 12.4574 21.0778 11.8345L22.7889 14.0925C22.4 14.4818 21.4667 15.3382 19.6 16.4282C20.7667 18.219 22.0889 19.2311 23.1 19.9319L21.3111 22.5012C19.9889 21.5669 16.3333 18.9197 15.2444 11.5231H14V18.764C15.7889 18.4526 16.4111 18.2968 17.2667 18.0633V20.7883C13.9222 21.6448 11.0444 22.0341 9.95555 22.2676L9.56666 20.6326ZM2.72223 13.6253C2.95556 14.4818 3.34444 16.3504 3.42222 17.674L1.24444 18.0633C1.24444 16.1168 0.699995 14.326 0.622217 13.9367L2.72223 13.6253ZM8.24444 5.83942C6.92222 4.59367 6.22222 3.42579 5.67777 2.56934C5.21111 3.34793 4.74444 4.20438 3.18889 5.83942H8.24444ZM9.87778 13.7032C9.72222 15.0268 9.48888 16.1946 9.17777 17.4404L7.38889 17.0511C7.7 15.5718 7.85556 14.7932 7.93334 13.3917L9.87778 13.7032ZM13.7667 3.11436V4.98297H19.0556V3.11436H13.7667ZM13.7667 7.16302V9.10949H19.0556V7.16302H13.7667Z" transform="translate(163.022 1.79074)" fill="#BF0000"/>
<path d="M7.62223 1.01217C6.76667 2.80292 4.58889 5.91727 1.55556 7.78589L2.37359e-06 4.90511C0.855558 4.43796 2.95556 3.19221 4.9 -1.8563e-08L7.62223 1.01217ZM8.32222 6.22871C7.93333 7.0073 7.38889 8.3309 5.75555 10.5109V22.6569H2.8V13.9367C1.94444 14.7153 1.55555 14.9489 1.08889 15.2603L0.155556 11.8346C2.64444 10.1217 4.51111 7.70803 5.91111 4.98297L8.32222 6.22871ZM22.7111 7.78589V10.6667H19.2889V20.5547C19.2889 22.1898 18.6667 22.7348 16.9556 22.7348H12.2111L11.6667 19.6204H15.5555C16.1 19.6204 16.3333 19.5426 16.3333 18.9197V10.6667H8.24444V7.78589H22.7111ZM21.8556 1.24574V4.12652H9.17778V1.24574H21.8556Z" transform="translate(187.289 1.47931)" fill="#BF0000"/>
</svg>
