<svg width="223" height="32" viewBox="0 0 223 32" fill="none" xmlns="http://www.w3.org/2000/svg">
<path d="M19.9107 7.24088H16.9436V8.87591H22.097V15.9611H17.8025C18.1929 16.8175 18.8957 18.2968 23.2682 19.6983L22.0189 22.4234C17.4902 20.8662 16.0848 18.219 15.6163 17.4404C13.5862 21.1776 10.2287 22.1898 9.13551 22.5012L7.65196 19.854C10.3067 18.9976 12.3368 17.9075 13.3519 15.8832H8.97935V12.0681L7.73005 14.6375C6.79307 13.4696 6.55883 13.0024 6.16842 12.0681V22.3455H3.43558V13.0803C2.4986 15.9611 1.79587 17.0511 1.09314 17.9854L4.7657e-06 14.1703C1.24931 12.3796 2.34244 10.4331 3.20133 6.92944H0.390411V4.20438H3.35749V-3.7126e-08H6.09034V4.20438H7.88621V4.90511C11.3999 3.19221 12.8053 1.55718 13.8985 -3.7126e-08H17.256C19.208 2.56934 20.5354 3.58151 23.3463 4.98297L21.9408 7.55231C21.3162 7.24088 20.7696 6.85158 19.8326 6.22871V7.24088H19.9107ZM11.478 6.22871C10.3848 7.08516 9.76016 7.39659 9.13551 7.63017L7.96429 5.21655V6.92944H6.16842V8.01947C7.4958 10.2774 8.51086 11.2895 9.05743 11.8345V8.87591H14.2108V7.24088H11.478V6.22871ZM14.0546 13.5474C14.2108 12.7689 14.2108 12.0681 14.2108 11.2117H11.6341V13.5474H14.0546ZM18.1149 4.82725C16.8656 3.73723 16.1628 2.88078 15.6943 2.18005C15.0697 2.88078 14.367 3.73723 13.1957 4.82725H18.1149ZM19.5203 13.5474V11.2117H16.9436C16.9436 12.3017 16.9436 12.7689 16.7875 13.5474H19.5203Z" transform="translate(175.761 1.79077)" fill="#00A0F0"/>
<path d="M9.53141e-06 13.7032C0.546579 13.7032 0.780813 13.7032 1.01506 13.7032C1.95203 13.7032 6.63691 13.7032 7.65197 13.7032C7.73005 13.6253 7.73006 13.6253 7.80814 13.5474C7.41773 13.3139 5.62185 11.9124 3.27941 10.9002L5.07529 8.79805C5.4657 8.95377 5.62184 9.10949 6.32458 9.49878C6.94923 8.87591 7.33964 8.3309 7.57388 7.94161H3.3575V10.3552H0.468478V5.52798H9.76017V4.12652H1.01506V1.55718H9.76017V3.7126e-08H12.7273V1.55718H21.4724V4.20438H12.7273V5.52798H22.0189V10.3552H18.9738V7.94161H11.1656C10.2287 9.26521 9.68209 9.81022 8.51087 10.9002C9.13552 11.2895 9.44783 11.5231 9.83823 11.8345C12.1026 9.73236 13.0396 8.64234 13.5081 8.01946L16.0067 9.49878C15.4601 10.1995 14.1327 11.6788 11.6341 13.7032C12.9615 13.6253 13.8985 13.6253 16.1628 13.5474C15.6163 13.1582 15.3039 12.8467 14.7574 12.4574L16.8656 10.5109C19.3642 12.4574 20.3011 13.236 22.3312 15.4939L20.2231 17.674C19.8327 17.129 19.5203 16.6618 18.6614 15.8054L12.7273 16.1168V22.5791H9.76017V16.1946C8.35471 16.2725 1.71779 16.4282 0.234244 16.4282L9.53141e-06 13.7032ZM7.80814 17.9854C5.77803 20.4769 2.65476 21.9562 1.71778 22.4234L9.53141e-06 19.9319C0.702741 19.6204 3.51367 18.4526 5.4657 16.3504L7.80814 17.9854ZM20.8477 22.3455C17.6464 21.0998 15.8505 19.6983 14.2108 17.9075L16.319 16.1946C18.1929 17.9075 19.8327 18.8418 22.5655 19.7762L20.8477 22.3455Z" transform="translate(200.435 1.71289)" fill="#00A0F0"/>
<path d="M7.73005 3.7126e-08H11.0095V3.42579H18.7395C18.7395 8.7202 18.5833 17.8297 7.33964 21.4112L5.4657 18.5304C13.1957 16.1168 15.0697 11.2117 15.2259 6.54015H3.27942V12.2238H4.7657e-06V3.42579H7.65196V3.7126e-08H7.73005Z" transform="translate(114.468 2.88086)" fill="#00A0F0"/>
<path d="M9.91633 10.6667H16.9436V13.5474H2.38285e-06V10.6667H7.02732V2.88078H1.2493V2.97008e-07H15.6943V2.88078H9.91633V10.6667Z" transform="translate(134.924 9.03162)" fill="#00A0F0"/>
<path d="M14.6793 3.9708L17.7245 7.47445C16.9436 11.8346 14.9135 18.9197 5.8561 23.0462L3.66982 20.3212C12.5711 16.6618 13.8204 9.73236 14.2889 7.16302H4.7657e-06V3.9708H14.6793ZM16.319 0.70073C17.4902 2.02433 18.271 3.34793 19.208 5.13869L17.4902 6.30657C16.6313 4.43796 15.9286 3.34793 14.7574 1.79075L16.319 0.70073ZM19.8327 -1.8563e-08C20.9258 1.40146 21.6285 2.56934 22.5655 4.51582L20.8477 5.60584C19.9888 3.65937 19.4422 2.72506 18.1929 1.01217L19.8327 -1.8563e-08Z" transform="translate(152.727 1.08997)" fill="#00A0F0"/>
<path d="M65.354 0H2.97857e-07L5.23145 5.13869L65.354 0Z" transform="translate(21.5503 26.8613)" fill="#00A0F0"/>
<path d="M11.8684 0.467153V1.24574C10.6191 0.467153 9.604 7.4252e-08 8.04237 7.4252e-08C3.43558 7.4252e-08 5.95713e-07 4.12652 5.95713e-07 9.26521C5.95713e-07 14.4039 3.51366 18.5304 8.04237 18.5304C9.52592 18.5304 10.6191 18.0633 11.8684 17.2847V18.0633H15.8505V0.467153H11.8684ZM8.04237 14.326C5.77802 14.326 4.13831 12.146 4.13831 9.34307C4.13831 6.54015 5.77802 4.3601 8.04237 4.3601C10.3067 4.3601 11.8684 6.54015 11.8684 9.34307C11.9464 12.146 10.3067 14.326 8.04237 14.326Z" transform="translate(15.7725 5.37231)" fill="#00A0F0"/>
<path d="M10.6191 0V10.3552C10.6191 12.3017 9.29168 13.9367 7.33964 13.9367C5.38761 13.9367 4.06023 12.3017 4.06023 10.3552V0H0V10.3552C0 14.6375 2.88901 18.0633 7.18348 18.0633C9.13551 18.0633 10.6191 16.9732 10.6191 16.9732V17.5961H14.6793V0H10.6191Z" transform="translate(49.1914 5.83948)" fill="#00A0F0"/>
<path d="M4.06023 18.0633V7.70803C4.06023 5.76156 5.38761 4.12652 7.33964 4.12652C9.29168 4.12652 10.6191 5.76156 10.6191 7.70803V18.0633H14.6793V7.70803C14.6793 3.42579 11.7903 0 7.49581 0C5.54377 0 4.06023 1.09002 4.06023 1.09002V0.389294H1.19143e-06V18.0633H4.06023Z" transform="translate(93.229 5.45007)" fill="#00A0F0"/>
<path d="M4.21639 22.1119V15.2603H7.18348L12.3368 22.1119H17.5683L11.3218 13.8589C13.2738 12.4574 14.5231 10.1995 14.5231 7.63017C14.5231 3.42579 11.0875 -3.7126e-08 6.87115 -3.7126e-08H0V22.0341H4.21639V22.1119ZM4.21639 4.28224H6.94923C8.82319 4.28224 10.3848 5.83942 10.3848 7.70803C10.3848 9.57664 8.82319 11.1338 6.94923 11.1338H4.21639V4.28224Z" transform="translate(0 1.40149)" fill="#00A0F0"/>
<path d="M9.36975 17.9854C8.97935 18.219 8.58894 18.4526 8.04237 18.4526C7.41772 18.4526 6.16842 17.9854 6.16842 16.2725V8.72019H9.604V4.43796H6.16842V-3.7126e-08H2.1082V4.43796H-2.38285e-06V8.64233H2.1082V16.2725C2.1082 20.2433 5.07528 22.5791 8.12045 22.5791C9.21359 22.5791 10.7752 22.1898 12.0245 21.489L9.36975 17.9854Z" transform="translate(65.354 1.40149)" fill="#00A0F0"/>
<path d="M7.65197 14.1703L14.6012 5.83942H8.97935L4.13831 11.9903V0H0V23.5134H4.13831V16.2725L10.0725 23.5134H15.6943L7.65197 14.1703Z" transform="translate(33.9658)" fill="#00A0F0"/>
<path d="M7.96429 0C3.27941 0 1.19143e-06 4.04866 1.19143e-06 9.26521C1.19143e-06 14.7153 4.21639 18.5304 8.3547 18.5304C10.4629 18.5304 13.1957 17.8297 15.4601 14.5596L11.9464 12.5353C9.21359 16.5839 4.6068 14.5596 4.06023 10.5109H15.6163C16.6313 4.12652 12.493 0 7.96429 0ZM11.478 6.92944H4.21639C5.07529 2.80292 10.6971 2.56934 11.478 6.92944Z" transform="translate(76.0513 5.45007)" fill="#00A0F0"/>
</svg>
