<svg width="104" height="32" viewBox="0 0 104 32" fill="none" xmlns="http://www.w3.org/2000/svg">
<g clip-path="url(#clip0)">
<path d="M56.1642 17.1733H13.9515L17.3182 20.4914L56.1642 17.1733Z" fill="#B71524"/>
<path d="M17.8633 3.75152V4.24973C17.1463 3.75295 16.2913 3.48675 15.4153 3.48747C12.4574 3.48747 10.2112 6.14791 10.2112 9.42114C10.2112 12.6944 12.4574 15.3498 15.4153 15.3498C16.2939 15.3474 17.1499 15.0739 17.8633 14.5676V15.0659H20.4628V3.75152H17.8633ZM15.4153 12.6097C13.9565 12.6097 12.8915 11.1948 12.8915 9.4062C12.8915 7.61762 13.9616 6.19773 15.4153 6.19773C16.869 6.19773 17.9037 7.61264 17.9037 9.4062C17.9037 11.1997 16.8942 12.6097 15.4153 12.6097Z" fill="#B71524"/>
<path d="M38.6896 3.75152V10.3927C38.7185 10.6859 38.685 10.982 38.5912 11.2617C38.4973 11.5415 38.3452 11.7987 38.1445 12.017C37.9439 12.2352 37.6993 12.4096 37.4263 12.529C37.1533 12.6483 36.8581 12.71 36.5595 12.71C36.261 12.71 35.9657 12.6483 35.6927 12.529C35.4197 12.4096 35.1751 12.2352 34.9745 12.017C34.7739 11.7987 34.6217 11.5415 34.5279 11.2617C34.434 10.982 34.4005 10.6859 34.4294 10.3927V3.75152H31.8299V10.3927C31.8299 13.1179 33.7177 15.3349 36.4787 15.3349C37.2693 15.323 38.0386 15.0803 38.6896 14.6374V15.0559H41.2891V3.75152H38.6896Z" fill="#B71524"/>
<path d="M62.9078 15.0559V8.41476C62.8788 8.12146 62.9124 7.82543 63.0062 7.54568C63.1001 7.26594 63.2522 7.00868 63.4528 6.79043C63.6534 6.57218 63.8981 6.39778 64.1711 6.27842C64.444 6.15907 64.7393 6.09742 65.0379 6.09742C65.3364 6.09742 65.6317 6.15907 65.9046 6.27842C66.1776 6.39778 66.4223 6.57218 66.6229 6.79043C66.8235 7.00868 66.9756 7.26594 67.0695 7.54568C67.1634 7.82543 67.1969 8.12146 67.1679 8.41476V15.0559H69.7674V8.41476C69.7674 5.68955 67.8796 3.47252 65.1186 3.47252C64.3281 3.48439 63.5588 3.7271 62.9078 4.17001V3.75152H60.3083V15.0559H62.9078Z" fill="#B71524"/>
<path d="M2.72064 15.0559V10.6766H4.64376L7.9701 15.0559H11.3722L7.33411 9.76989C8.18691 9.17309 8.82551 8.32423 9.1577 7.34587C9.48989 6.36751 9.49849 5.31026 9.18227 4.32676C8.86604 3.34325 8.24134 2.48438 7.39836 1.87414C6.55538 1.26389 5.53773 0.93385 4.49233 0.931652H0V15.0559H2.72064ZM2.72064 3.59707H4.49233C5.08002 3.59707 5.64364 3.8275 6.0592 4.23767C6.47475 4.64784 6.70821 5.20415 6.70821 5.78421C6.70821 6.36428 6.47475 6.92059 6.0592 7.33075C5.64364 7.74092 5.08002 7.97135 4.49233 7.97135H2.72064V3.59707Z" fill="#B71524"/>
<path d="M48.2951 12.3805C48.0384 12.5567 47.7345 12.6538 47.4219 12.6595C47.2472 12.6529 47.0758 12.6111 46.9183 12.5365C46.7607 12.4619 46.6203 12.3562 46.5058 12.2259C46.3913 12.0956 46.3051 11.9435 46.2526 11.779C46.2 11.6145 46.1823 11.4411 46.2004 11.2695V6.43189H48.4213V3.75152H46.2004V0.931652H43.6009V3.75152H42.2229V6.43189H43.6009V11.3094C43.5771 11.8255 43.6586 12.341 43.8405 12.8255C44.0223 13.31 44.3008 13.7535 44.6595 14.1298C45.0181 14.5061 45.4497 14.8076 45.9285 15.0163C46.4073 15.225 46.9237 15.3367 47.4471 15.3449C48.3353 15.3181 49.2027 15.0733 49.9709 14.6324L48.2951 12.3805Z" fill="#B71524"/>
<path d="M26.9237 9.04749L31.3858 3.75152H27.7414L24.622 7.68737V0H21.9468V15.0559H24.622V10.4126L28.4582 15.0559H32.0975L26.9237 9.04749Z" fill="#B71524"/>
<path d="M54.2966 3.48746C51.2681 3.48746 49.133 6.09808 49.133 9.4311C49.133 12.9186 51.8385 15.3698 54.5541 15.3698C55.927 15.3698 57.6836 14.9064 59.1574 12.8389L56.8659 11.5286C55.0891 14.1143 52.1312 12.804 51.788 10.2183H59.2735C59.9146 6.15787 57.2545 3.48746 54.2966 3.48746V3.48746ZM56.5681 7.97135H51.8839C52.4341 5.32088 56.0582 5.17141 56.5681 7.97135Z" fill="#B71524"/>
<path d="M83.4463 5.91873C83.0526 4.53869 82.139 3.75152 80.8771 3.75152C78.9792 3.75152 77.147 5.78421 76.6876 8.35497C76.2283 10.9257 77.3539 12.9534 79.2467 12.9534C80.5086 12.9534 81.6797 12.1862 82.6438 10.7514L84.5669 12.0666C83.0526 14.2837 81.185 15.3399 78.8026 15.3399C75.2087 15.3399 73.2048 12.4602 73.9367 8.36494C74.6484 4.37926 77.8082 1.39 81.3465 1.39C83.6432 1.39 85.2079 2.51596 85.8893 4.66324L83.4463 5.91873Z" fill="#B71524"/>
<path d="M92.5673 14.0844C92.194 14.4736 91.745 14.7845 91.2472 14.9985C90.7494 15.2125 90.2129 15.3252 89.67 15.3299C86.9443 15.3299 85.1877 12.789 85.7379 9.68519C86.2881 6.58134 89.0239 4.0604 91.795 4.0604C92.2606 4.03281 92.7248 4.13495 93.1344 4.35518C93.5441 4.57541 93.8827 4.90485 94.1118 5.30593L94.6166 4.30951H96.9132L94.9952 15.0509H92.749L92.5673 14.0844ZM88.3324 9.68519C88.0093 11.4937 88.8725 12.9435 90.2706 12.9435C91.6688 12.9435 93.0165 11.5933 93.3547 9.70512C93.6929 7.8169 92.8802 6.44683 91.4114 6.44683C89.9425 6.44683 88.6554 7.87669 88.3324 9.68519" fill="#B71524"/>
<path d="M100.618 5.30593C101.539 4.4732 102.752 4.02655 104 4.06041L103.571 6.44683C103.074 6.44264 102.582 6.5457 102.129 6.74879C101.677 6.95188 101.275 7.25011 100.951 7.62261C100.576 8.06944 100.325 8.60526 100.224 9.17702L99.1745 15.0559H96.5599L98.478 4.3145H100.553L100.618 5.30593Z" fill="#B71524"/>
<path d="M88.7614 20.7355H83.0122V21.3533H87.8932V27.3716H83.0122V28.0093H88.9885V29.9474H83.0122V31.8854H80.7964V29.9474H74.815V28.0093H80.7964V27.3716H75.9406V21.3533H80.7964V20.7355H75.0573V18.8423H80.7964V17.8807H83.0122V18.8423H88.7614V20.7355ZM78.1615 23.6749H80.8014V22.8628H78.1615V23.6749ZM78.1615 25.7774H80.8014V24.9354H78.1615V25.7774ZM83.0173 23.6749H85.7127V22.8628H83.0173V23.6749ZM83.0173 25.7774H85.7127V24.9354H83.0173V25.7774Z" fill="#B71524"/>
<path d="M101.961 22.5988H99.9973V23.381H103.192V27.9944H100.749C101.39 29.0606 102.844 29.6933 103.939 29.9573L103.026 31.9851C102.186 31.7551 101.4 31.3622 100.715 30.8293C100.031 30.2964 99.4606 29.6341 99.0382 28.8812C98.125 30.3742 96.688 31.4841 95.0002 32L93.92 30.047C94.5358 29.9025 96.3328 29.4741 97.2615 27.9944H94.8235V25.7325L94.0866 27.3268C93.7741 26.8866 93.4989 26.4217 93.2638 25.9368V31.9153H91.2095V26.5297C90.9092 27.547 90.4765 28.5217 89.9223 29.4292L89.2207 26.5297C89.6397 25.9966 90.4624 24.9304 91.0934 22.4194H89.5034V20.3618H91.2095V17.9355H93.2638V20.3867H94.238V20.6109C96.5296 19.6145 97.3221 18.6878 97.9227 17.9355H100.229C101.225 19.1818 102.524 20.1588 104.005 20.7753L103.061 22.7233C102.43 22.3846 102.223 22.2251 101.981 22.1056L101.961 22.5988ZM96.1662 22.0508C95.7728 22.3014 95.3612 22.5229 94.9346 22.7134L94.2178 21.0294V22.4194H93.2436V23.0422C93.6893 23.7325 94.2125 24.3709 94.8033 24.9454V23.381H97.9328V22.5988H96.1662V22.0508ZM97.9328 25.1247H96.7164V26.2507H97.8571C97.9095 25.9613 97.9348 25.6678 97.9328 25.3738V25.1247ZM100.315 20.8501C99.8651 20.4557 99.4481 20.0258 99.0685 19.5647C98.6766 20.0329 98.2406 20.4632 97.7663 20.8501H100.315ZM101.274 26.2507V25.1247H99.9973C100.007 25.501 99.9863 25.8774 99.9367 26.2507H101.274Z" fill="#B71524"/>
</g>
<defs>
<clipPath id="clip0">
<rect width="104" height="32" fill="white"/>
</clipPath>
</defs>
</svg>
