<svg width="146" height="32" viewBox="0 0 146 32" fill="none" xmlns="http://www.w3.org/2000/svg">
<g clip-path="url(#clip0)">
<path d="M86.8042 26.8613H21.5254L26.7508 32L86.8042 26.8613Z" fill="#F59600"/>
<path d="M27.6086 5.83947V6.61806C26.3607 5.83947 25.3469 5.37231 23.787 5.37231C19.1855 5.37231 15.7539 9.49884 15.7539 14.6375C15.7539 19.7762 19.2635 23.9027 23.787 23.9027C25.2689 23.9027 26.3607 23.4356 27.6086 22.657V23.4356H31.5862V5.83947H27.6086ZM23.787 19.6983C21.5253 19.6983 19.8875 17.5183 19.8875 14.7154C19.8875 11.9125 21.5253 9.73241 23.787 9.73241C26.0488 9.73241 27.6086 11.9125 27.6086 14.7154C27.6866 17.5183 26.0488 19.6983 23.787 19.6983Z" fill="#F59600"/>
<path d="M59.7416 5.83936V16.1946C59.7416 18.1411 58.4157 19.7761 56.466 19.7761C54.5162 19.7761 53.1903 18.1411 53.1903 16.1946V5.83936H49.1348V16.1946C49.1348 20.4768 52.0204 23.9026 56.31 23.9026C58.2598 23.9026 59.7416 22.8126 59.7416 22.8126V23.4355H63.7972V5.83936H59.7416Z" fill="#F59600"/>
<path d="M97.1775 23.5133V13.1581C97.1775 11.2116 98.5033 9.57659 100.453 9.57659C102.403 9.57659 103.729 11.2116 103.729 13.1581V23.5133H107.706V13.1581C107.706 8.87586 104.821 5.45007 100.531 5.45007C98.5813 5.45007 97.0995 6.5401 97.0995 6.5401V5.83937H93.0439V23.5133H97.1775Z" fill="#F59600"/>
<path d="M4.21154 23.5134V16.6618H7.17521L12.3226 23.5134H17.5481L11.3088 15.2604C13.2585 13.8589 14.5064 11.601 14.5064 9.03166C14.5064 4.82728 11.0748 1.40149 6.86325 1.40149H0V23.4356H4.21154V23.5134ZM4.21154 5.68373H6.94124C8.81303 5.68373 10.3729 7.24091 10.3729 9.10952C10.3729 10.9781 8.81303 12.5353 6.94124 12.5353H4.21154V5.68373Z" fill="#F59600"/>
<path d="M74.6373 19.3869C74.2473 19.6205 73.8574 19.854 73.3114 19.854C72.6875 19.854 71.4396 19.3869 71.4396 17.674V10.1217H74.8713V5.83945H71.4396V1.40149H67.3841V5.83945H65.2783V10.0438H67.3841V17.674C67.3841 21.6448 70.3478 23.9806 73.3894 23.9806C74.4813 23.9806 76.0411 23.5913 77.289 22.8905L74.6373 19.3869Z" fill="#F59600"/>
<path d="M41.5699 14.1703L48.5112 5.83942H42.8958L38.0603 11.9903V0H33.9268V23.5134H38.0603V16.2725L43.9877 23.5134H49.603L41.5699 14.1703Z" fill="#F59600"/>
<path d="M83.919 5.45007C79.2395 5.45007 75.9639 9.49874 75.9639 14.7153C75.9639 20.1654 80.1754 23.9805 84.3089 23.9805C86.4147 23.9805 89.1444 23.2798 91.4062 20.0097L87.8966 17.9854C85.1669 22.034 80.5654 20.0097 80.0194 15.961H91.5622C92.576 9.57659 88.4425 5.45007 83.919 5.45007ZM87.4286 12.3795H80.1754C81.0333 8.25299 86.6487 8.01942 87.4286 12.3795Z" fill="#F59600"/>
<path d="M134.535 9.96601L140.696 3.27014H135.627L130.947 9.96601H134.535Z" fill="#F59600"/>
<path d="M122.836 9.73243L121.744 3.27014H117.299L120.185 9.73243H122.836Z" fill="#F59600"/>
<path d="M144.674 13.0803L146 11.1339H128.608L131.649 1.47937H126.736L125.254 11.1339H115.973L114.569 13.0803H120.809L112.854 24.9928H117.689L125.488 13.0803H128.062L125.332 24.6035H136.251L137.577 20.8662H130.324L132.195 13.0803H144.674Z" fill="#F59600"/>
</g>
<defs>
<clipPath id="clip0">
<rect width="146" height="32" fill="white"/>
</clipPath>
</defs>
</svg>
