<svg width="149" height="22" viewBox="0 0 149 22" fill="none" xmlns="http://www.w3.org/2000/svg">
<path d="M57.8921 18.1004H14.3859L17.851 21.5976L57.8921 18.1004Z" fill="#002896"/>
<path d="M18.4129 3.95405V4.48441C17.6064 3.96456 16.878 3.66525 15.8895 3.66525C12.8406 3.66525 10.5254 6.46931 10.5254 9.91401C10.5254 13.3587 12.8406 16.1628 15.8895 16.1628C16.8832 16.1628 17.6064 15.8635 18.4129 15.3436V15.874H21.0923V3.95405H18.4129ZM15.8895 13.2905C14.3859 13.2905 13.2881 11.7991 13.2881 9.90876C13.2881 8.02363 14.3911 6.52708 15.8895 6.52708C17.3931 6.52708 18.4545 8.02363 18.4545 9.90876C18.4545 11.7991 17.3931 13.2905 15.8895 13.2905Z" fill="#002896"/>
<path d="M39.8798 3.95405V10.9537C39.8798 12.2665 38.9849 13.3745 37.6842 13.3745C36.3835 13.3745 35.4886 12.2665 35.4886 10.9537V3.95405H32.8092V10.9537C32.8092 13.8261 34.755 16.1628 37.601 16.1628C38.9173 16.1628 39.8798 15.4276 39.8798 15.4276V15.8687H42.5593V3.95405H39.8798Z" fill="#002896"/>
<path d="M64.8483 15.8687V8.86905C64.8483 7.55629 65.7432 6.44831 67.0439 6.44831C68.3446 6.44831 69.2395 7.55629 69.2395 8.86905V15.8687H71.919V8.86905C71.919 5.99672 69.9731 3.66 67.1271 3.66C65.8108 3.66 64.8483 4.39515 64.8483 4.39515V3.95406H62.1688V15.8687H64.8483Z" fill="#002896"/>
<path d="M2.80433 15.8687V11.253H4.78661L8.22049 15.8687H11.7272L7.58054 10.2973C8.87085 9.36265 9.71891 7.83984 9.71891 6.11224C9.71891 3.28192 7.43486 0.981949 4.63053 0.981949H-7.62939e-06V15.8687H2.80433ZM2.80433 3.81227H4.63053C5.88962 3.81227 6.91978 4.84673 6.91978 6.11749C6.91978 7.3935 5.88962 8.42796 4.63053 8.42796H2.80433V3.81227Z" fill="#002896"/>
<path d="M49.7808 13.0489C49.5415 13.2117 49.2345 13.343 48.886 13.343C48.4489 13.343 47.6217 13.0069 47.6217 11.8832V6.78438H49.9109V3.95405H47.6217V0.987198H44.9422V3.95405H43.527V6.78438H44.9422V11.9199C44.9422 14.5822 46.9297 16.168 48.9276 16.168C49.6716 16.168 50.707 15.9212 51.5498 15.4171L49.7808 13.0489Z" fill="#002896"/>
<path d="M27.7572 9.53594L32.3513 3.95405H28.5948L25.3795 8.1024V0H22.622V15.8687H25.3795V10.9747L29.3336 15.8687H33.0901L27.7572 9.53594Z" fill="#002896"/>
<path d="M55.9722 3.64949C52.8713 3.64949 50.6445 6.40105 50.6445 9.90876C50.6445 13.6003 53.4384 16.168 56.2376 16.168C57.6528 16.168 59.4633 15.6797 60.9826 13.5005L58.6153 12.1195C56.7839 14.8448 53.735 13.4585 53.3812 10.7384H61.097C61.763 6.46406 59.0211 3.64949 55.9722 3.64949ZM58.3083 8.3702H53.4801C54.0472 5.58188 57.788 5.42435 58.3083 8.3702Z" fill="#002896"/>
<path d="M84.3538 12.1825C85.2851 13.4795 86.1487 14.7765 86.7835 15.8372H83.5629C82.0281 13.2117 79.7388 10.1188 77.8346 7.82408H81.0239C81.5962 8.49622 82.231 9.31013 82.897 10.1818C85.1238 9.19986 86.5962 7.55628 87.1685 5.18279H76.1905V2.7463H90.2642V2.95109C90.0197 7.96586 87.6524 10.7962 84.3538 12.1825Z" fill="#002896"/>
<path d="M99.749 7.6088V16.2311H97.0227V9.04234C94.8999 9.91927 92.5951 10.4339 90.5816 10.7279V8.24418C97.132 7.08894 99.9311 4.69971 101.06 2.08993H103.911C103.219 4.54743 101.684 6.31179 99.749 7.6088Z" fill="#002896"/>
<path d="M114.359 15.7952H111.45V13.343H113.786C114.915 13.343 115.321 12.9071 115.321 11.7939V6.77912H111.435C111.096 11.8727 108.23 14.8553 104.931 15.937V13.3272C107.023 12.172 108.693 10.0295 108.818 6.77912H104.931V4.40564H108.818V1.9849H111.466V4.40564H118.016V11.9829C118.016 14.6242 116.898 15.7952 114.359 15.7952Z" fill="#002896"/>
<path d="M119.728 9.54644V7.06268H132.475V9.54644H119.728Z" fill="#002896"/>
<path d="M141.757 6.34329H139.494V6.93141H142.199V8.45422H139.494V9.05809H142.813V10.7909H133.906V9.05809H137.412V8.45422H134.754V6.93141H137.412V6.34329H135.165V5.72366H134.223V2.29472H137.277V1.27601H139.624V2.29472H142.803V5.72366H141.762V6.34329H141.757ZM142.277 11.3108V16.0893H134.707V11.3108H142.277ZM140.815 4.89924V4.07483H136.237V4.89924H137.418V4.35839H139.494V4.89924H140.815ZM140.014 12.9176H136.975V14.4247H140.014V12.9176ZM145.191 2.06892V12.5185H143.271V2.06892H145.191ZM148.255 14.2514C148.255 15.6954 147.86 16.3151 146.413 16.3151H144.098L143.609 13.8208H145.576C145.94 13.8208 146.034 13.742 146.034 13.3272V1.27601H148.25V14.2514H148.255Z" fill="#002896"/>
</svg>
