<svg width="191" height="29" viewBox="0 0 191 29" fill="none" xmlns="http://www.w3.org/2000/svg">
<path d="M112.409 20.5072H108.594V17.322H111.658C113.138 17.322 113.666 16.7541 113.666 15.3143V8.80276H108.573C108.127 15.4152 104.373 19.2903 100.052 20.6899V17.3023C102.791 15.801 104.982 13.0222 105.145 8.80276H100.052V5.71916H105.145V2.57556H108.614V5.71916H117.196V15.5583C117.197 18.9855 115.736 20.5072 112.409 20.5072Z" fill="#BF0000"/>
<path d="M119.442 12.3931V9.16833H136.149V12.3931H119.442Z" fill="#BF0000"/>
<path d="M138.43 12.0889V8.94467C141.19 9.0258 144.883 9.33055 147.621 9.69597V12.8607C144.72 12.4939 141.008 12.1489 138.43 12.0889ZM138.633 6.22649V3.10266C141.332 3.18379 144.943 3.4674 147.824 3.81237V7.01733C145.045 6.67236 141.21 6.30762 138.633 6.22649ZM138.877 20.5271V17.2008C147.44 16.9574 151.517 14.1779 152.268 6.06355H155.839C155.068 16.7338 148.697 20.4064 138.877 20.5271Z" fill="#BF0000"/>
<path d="M156.96 20.0069V17.1748H162.741V9.54593H157.885V6.7323H171.026V9.54593H165.862V17.1741H171.99V20.0062H156.96V20.0069Z" fill="#BF0000"/>
<path d="M181.829 14.8473C180.348 18.1941 177.487 20.0403 174.241 20.7507V17.5458C177.669 16.2675 179.617 13.7722 179.617 9.04556V8.09246H182.884V9.24872C182.884 9.99934 182.843 10.7097 182.762 11.3785C185.339 10.6075 186.698 8.78172 187.165 6.40851H173.632V3.24377H190.999V3.91258C190.878 11.0949 186.293 14.077 181.829 14.8473Z" fill="#BF0000"/>
<path d="M75.874 23.5016H18.8507L23.3927 28.0428L75.874 23.5016Z" fill="#BF0000"/>
<path d="M24.1332 5.13231V5.81883C23.0742 5.14457 22.1243 4.75256 20.824 4.75256C16.8295 4.75256 13.7944 8.39454 13.7944 12.8683C13.7944 17.3426 16.8295 20.9826 20.824 20.9826C22.1243 20.9826 23.0735 20.5919 24.1332 19.917V20.6028H27.6442V5.13231H24.1332ZM20.824 17.2574C18.854 17.2574 17.4118 15.3178 17.4118 12.8683C17.4118 10.42 18.854 8.48043 20.824 8.48043C22.7967 8.48043 24.1863 10.42 24.1863 12.8683C24.1863 15.3178 22.7967 17.2574 20.824 17.2574Z" fill="#BF0000"/>
<path d="M52.2644 5.1322V14.2201C52.2644 15.9245 51.0929 17.3644 49.3869 17.3644C47.6821 17.3644 46.51 15.9245 46.51 14.2201V5.1322H42.9983V14.2201C42.9983 17.9486 45.5499 20.9825 49.2798 20.9825C51.007 20.9825 52.2644 20.0273 52.2644 20.0273V20.6027H55.7761V5.1322H52.2644Z" fill="#BF0000"/>
<path d="M84.986 20.6028V11.515C84.986 9.81055 86.1574 8.37067 87.8635 8.37067C89.5682 8.37067 90.7404 9.81055 90.7404 11.515V20.6028H94.2521V11.515C94.2521 7.78572 91.7005 4.75256 87.9706 4.75256C86.2434 4.75256 84.986 5.70771 84.986 5.70771V5.13231H81.4742V20.6028H84.986Z" fill="#BF0000"/>
<path d="M3.67264 20.6028V14.6087H6.27062L10.7683 20.6028H15.3656L9.93097 13.3707C11.6248 12.1551 12.7369 10.1787 12.7369 7.94043C12.7369 4.2637 9.74686 1.27759 6.06946 1.27759H0V20.6035H3.67264V20.6028ZM3.67264 4.94683H6.06946C7.71894 4.94683 9.06771 6.28785 9.06771 7.94043C9.06771 9.59711 7.71894 10.9375 6.06946 10.9375H3.67264V4.94683Z" fill="#BF0000"/>
<path d="M65.2406 16.9423C64.9249 17.1564 64.5267 17.3228 64.0657 17.3228C63.4923 17.3228 62.4101 16.8844 62.4101 15.4247V8.80484H65.4131V5.13287H62.4101V1.2782H58.8984V5.13287H57.0403V8.80484H58.8984V15.4786C58.8977 18.9331 61.5005 20.9968 64.1196 20.9968C65.0954 20.9968 66.4496 20.677 67.555 20.0232L65.2406 16.9423Z" fill="#BF0000"/>
<path d="M36.3751 12.3842L42.3989 5.1323H37.4764L33.263 10.5216V0H29.647V20.6028H33.263V14.2481L38.4426 20.6028H43.3624L36.3751 12.3842Z" fill="#BF0000"/>
<path d="M73.3525 4.74023C69.2884 4.74023 66.3727 8.3113 66.3727 12.8675C66.3727 17.6589 70.0324 20.9968 73.7016 20.9968C75.5536 20.9968 77.9272 20.3614 79.9211 17.5335L76.8198 15.7425C74.421 19.2781 70.4231 17.4837 69.9614 13.9481L80.0772 13.9501C80.9418 8.39447 77.3483 4.74023 73.3525 4.74023ZM76.4182 10.8706H70.093C70.8322 7.24707 75.7336 7.03982 76.4182 10.8706Z" fill="#BF0000"/>
</svg>
