<svg height="56" viewBox="0 0 479 56" width="479" xmlns="http://www.w3.org/2000/svg"><path d="m434.58241 783.087234.357.357.000043-.376851-.346043.000851 1.071141-1.880734 1.879883.134277.241699-.402832 2.229004.2417v-.402833l.375976.402833 2.25586-.134278-.375977-.375976.375977-2.497559-.375977-4.243164.375977-1.12793-.375977-1.933593h-3.356934l-.537109-.375977h-4.833984l-.375977.268555h-1.477051c-.250651-.071615-1.244303-.09847-2.980957-.080567h-2.60498l-1.503906-.268554.59082.537109-1.477051-.268555-1.879883.375977v-.375977h-3.330078l-1.127929.026856v1.879883c-.250651.322265-.375977.9847-.375977 1.987304h.375977l-.375977 1.154785v.402832l.375977.375977-.107422 2.819824v.375977l.375976.375976h-.375976l.375976 1.12793 1.853028-.375977h.375976l5.102539.080567v.375976l-.375976.402832-.268555 20.061036v.778808l.375977.375977-.375977.402832v.375976h.375977l-.375977.375977v.349121h.751953l-.751953.778809.161133 3.061523 2.819824.107422h4.001465l3.356933-.053711.268555-6.552734-.751953-1.12793.751953-1.906738v-.402832l-.375976-.349122.375976-2.30957v-.375976l-.375976-.349121v-.402833l.375976-.375976v-8.029785l-.375976-1.879883.375976-.402832v-.349121l-.375976-.349121zm27.939758 26.513352c0-.19694-.062663-.358073-.187988-.483398l.322265-.026856 2.685547.510254v-.322266l.29541.080567.2417-.053711 1.342773.29541 4.699707-1.584473c7.251573-3.495985 10.99822-9.752414 11.239939-18.769287l.003889-.224592.062324-.007857c.041776-.003978.080567-.006962.116374-.008952l.09847-.002984v-.214843c-.046038 0-.122768-.023385-.23019-.070153l-.041978-.018211.003613-.395035-.375976-1.235351c.017904-.071615.026855-.14323.026855-.214844v-.214844l.349121-.29541c-1.844075-8.307292-6.123046-13.562012-12.836914-15.76416-.895182-.358073-2.139485-.707194-3.73291-1.047363v.161132c-.304362-.053711-.608724-.09847-.913086-.134277l-.053711-.026855h-.29541c-1.056315-.107422-2.157389-.161133-3.303222-.161133l-1.101075.161133h-.053711l-3.303222.402832v.107421l-.671387.107422.456543.402832v.187989c-.232747.017903-.456543.035807-.671387.053711l-.29541-.2417h-.456543v.349121c-.250651.053711-.501302.116374-.751953.187989l-.161133-.134278c-.322265.14323-.644531.304362-.966797.483399-2.792968 1.092122-5.442708 3.33903-7.949218 6.740723-.483399 2.363281-1.118978 3.544921-1.906739 3.544921l.483399.402832c-.375977.984701-.698242 2.246908-.966797 3.786621h.134277l-.134277.563965.161133.134278v.241699h-.161133l-.456543.429687.456543.375977v.402832l-.456543.375977v1.584472l.456543-.375976v.241699l.456543 1.960449v.402832l-.134278.268555-.322265.268554h.456543v.026856l-.456543.375977c0 3.4375 1.593424 6.982421 4.780273 10.634765 4.082032 3.688151 7.895508 5.532227 11.44043 5.532227h.053711c.465495.089518.993652.170084 1.584473.241699zm.939941-10.258789v-.375977l-.483398.375977c-4.046224-1.271159-6.069336-3.106283-6.069336-5.505371h-.510254l-.429687.349121.429687-1.12793-.456543-.429687v-.375977l.456543-.402832v-.375976l-.456543-.429688.456543-.375977-.456543-1.584472c0-1.539714.205892-2.900391.617676-4.082031 1.736654-3.115235 3.813476-4.672852 6.230469-4.672852h.483398l.483399.402832h.483398l.456543-.402832 2.84668 1.584473h.510254v.375976l.456542.429688.939942 1.154785 1.181641 4.350586-.456543.375976v.402832l.456543.375977-2.121583 6.713867c-1.038411 1.217448-2.2111 2.139486-3.518066 2.766113-.483398.179037-.993652.34017-1.530762.483399zm-.456543-15.039063c.214844 0 .358073-.39388.429688-1.18164h-.107422c-.572917.268554-.859375.626627-.859375 1.074218l.214844.107422zm18.288575-.134277h-.107422c-.161133 0-.268555-.214844-.322266-.644531.107422-.214844.214844-.322266.322266-.322266.214843.053711.322265.268555.322265.644531v.107422c0 .143229-.071614.214844-.214843.214844zm7.519531.859375c.78776-.107422 1.18164-.286458 1.18164-.537109l-.537109-.107422h-.644531c-.125326 0-.19694.071614-.214844.214844v.107421zm-4.511719.751953.107422-.214844v-.107421c0-.125326-.322266-.304362-.966797-.53711h-.214844l-.214843.107422c0 .143229.429687.39388 1.289062.751953zm1.396484 1.181641c.787761-.107422 1.181641-.250651 1.181641-.429688l-.107422-.214843c-.644531-.250652-.966797-.429688-.966797-.53711-.519205 0-.805664.107422-.859375.322266v.537109c.107422.214844.214844.322266.322266.322266zm8.164063.429687.751953-.751953-.751953-.751953-.644531.644531h-.214844l-.214844-.107422-.107422.214844v.107422h.322266c.429687 0 .716146.214844.859375.644531zm-5.048828-.751953v-.214844c0-.125325-.071615-.19694-.214844-.214843-.125325 0-.19694.071614-.214844.214843v.214844zm-3.867188 2.470703v-.214843c-.071614 0-.179036-.035808-.322265-.107422l-.214844.107422c0 .143229.071615.214843.214844.214843zm13.212891 1.611328v-.429687c-.214844-.268555-.322266-.483399-.322266-.644531h-.107422v.107422c0 .644531.107422.966796.322266.966796zm-13.991699 2.390137c.286458-.107422.429687-.214844.429687-.322266v-.107421c0-.14323-.071614-.214844-.214843-.214844h-.322266c-.143229 0-.214844.071614-.214844.214844zm-5.69336 2.900391h-.429687v-.107422c0-.143229.071614-.214844.214844-.214844.143229 0 .214843.071615.214843.214844zm-.322265.644531h-.322266v-.322266h.322266zm6.015625.644531c.286458-.107422.429687-.214843.429687-.322265v-.214844c0-.143229-.071614-.214844-.214843-.214844h-.107422l-.53711.107422v.429688c.107422 0 .250651.071614.429688.214843zm-23.095703 3.97461h-.429688v-.107422c0-.143229.071615-.214844.214844-.214844s.214844.071615.214844.214844zm16.005859.859375h-.322266c-.161132 0-.268554-.214844-.322265-.644532v-.107422c.107422-.214843.214844-.322265.322265-.322265h.214844l.322266.214844c-.143229.268554-.214844.555013-.214844.859375zm33.999023.832519.107422-.214844v-.214843c-.304362 0-.698242-.035808-1.18164-.107422-.143229.071614-.250651.107422-.322266.107422v.107422l.214844.322265.966797-.107422zm-17.939453 1.71875c.214844 0 .429688-.537109.644532-1.611328l-.107422-.537109h-.429688c-.429687.250651-.644531.680338-.644531 1.289062 0 .519206.107422.805664.322266.859375zm-16.166992-.939941h-.107422l-.322265-.214844c.143229-.644531.322265-.966797.537109-.966797.214844.161133.322266.268555.322266.322266v.107422c0 .375976-.14323.626627-.429688.751953zm.966797 3.4375c.143229 0 .214844-.071615.214844-.214844v-.644531l-.107422-.53711h-.107422c-.125325 0-.268555.214844-.429687.644532.214843.429687.322265.680338.322265.751953zm0 2.90039c.143229 0 .214844-.071614.214844-.214843v-1.503907l.107422-.751953c-.161133-.214843-.268555-.322265-.322266-.322265-.268555.143229-.555013.537109-.859375 1.18164.304362.089518.59082.626628.859375 1.611328zm-1.503906-1.611328v-.859375c0-.143229-.071615-.214843-.214844-.214843h-.107422c0 .071614-.035807.179036-.107422.322265.214844.304362.322266.555013.322266.751953zm0 .859375v-.322265h-.322266v.322265zm-15.791016 2.470703c.143229-.017903.214844-.089518.214844-.214843v-.214844h-.214844c-.143229 0-.214844.071614-.214844.214844.017904.143229.089519.214843.214844.214843zm16.435547 4.296875c.143229-.017903.214844-.089518.214844-.214843v-.107422l-.107422-.214844c-.125326.071615-.268555.107422-.429688.107422v.214844c.017904.143229.089519.214843.214844.214843zm23.599578-33.012375.357.357.000649-.376851-.346649.000851 1.071746-1.880734 1.879883.134277.241699-.402832 2.229004.2417v-.402833l.375977.402833 2.255859-.134278-.375976-.375976.375976-2.497559-.375976-4.243164.375976-1.12793-.375976-1.933593h-3.356934l-.537109-.375977h-4.833985l-.375976.268555h-1.477051c-.250651-.071615-1.244304-.09847-2.980957-.080567h-2.604981l-1.503906-.268554.59082.537109-1.47705-.268555-1.879883.375977v-.375977h-3.330078l-1.12793.026856v1.879883c-.250651.322265-.375977.9847-.375977 1.987304h.375977l-.375977 1.154785v.402832l.375977.375977-.107422 2.819824v.375977l.375977.375976h-.375977l.375977 1.12793 1.853027-.375977h.375977l5.102539.080567v.375976l-.375977.402832-.268555 20.061036v.778808l.375977.375977-.375977.402832v.375976h.375977l-.375977.375977v.349121h.751954l-.751954.778809.161133 3.061523 2.819824.107422h4.001465l3.356934-.053711.268555-6.552734-.751954-1.12793.751954-1.906738v-.402832l-.375977-.349122.375977-2.30957v-.375976l-.375977-.349121v-.402833l.375977-.375976v-8.029785l-.375977-1.879883.375977-.402832v-.349121l-.375977-.349121zm37.029 11.843.031562.090751c.209868.623514.436795 1.296069.680778 2.017664l.00366.012585-1.72114.70609c-.302373-.286458-.470358-.714377-.503955-1.283757l-.006299-.220149c0-.460824.489524-.895656 1.468572-1.304496zm-10.834242-.234433-1.853027-.778809-1.477051.402832h-1.477051l-.375977-.402832c.755209-3.256836 1.323761-5.082638 1.705656-5.477406l.000692-.000352-.095019-.000757.751953-3.168946h1.101074l.375977 2.792969-1.433985.295734.923731-.000324c.608724 0 1.209 1.993633 1.800829 5.980899zm10.834242.234433-.071951-.216919c-.816731-2.428668-1.360542-4.07269-1.631432-4.932065l-.349121-1.503906-.241699-.751953v-1.879883l-4.32373-13.964844h.349121l-.349121-1.101074h-9.560547l-.375977-.375977-1.477051.375977c-.555013 1.503906-1.047363 2.255859-1.47705 2.255859l.375976.375977-4.968262 15.46875-.510254 1.853027c-.179036 2.023112-1.011555 4.538574-2.497558 7.546387h.375976c-1.969401 4.458008-2.954101 7.224121-2.954101 8.29834l-.778809 2.255859h9.42627l.21432-.247555.000524-.155277.375976-.349121 1.853027-4.511719h8.889161l1.450195.375977c1.110026 3.258463 1.870931 4.887695 2.282715 4.887695h6.606445l.375977-.402832v.402832l.349121-.402832h.402832l.349121.402832h1.853027l.375977-.402832-1.477051-4.86084c-.7683-2.255859-1.443731-4.244721-2.026293-5.966584l-.119754-.352299 1.420949-.582972c1.969401-.143229 3.616537-.358073 4.941407-.644532.716145.071615 1.306966.107422 1.772461.107422h.510253c.913086 0 1.709799-.071614 2.390137-.214843.161133.071614.286459.107421.375977.107421l.88623-.107421v-.107422c0-.143229-.250651-.250651-.751953-.322266-.447591.071615-.698242.107422-.751953.107422-.143229 0-.232747-.071615-.268555-.214844-.501302 0-1.262207-.035807-2.282715-.107422-.143229 0-.349121.071615-.617675.214844-.751953-.089518-1.12793-.268555-1.12793-.537109-.483398.465495-.948893.751953-1.396484.859375-.304362 0-.519206-.214844-.644532-.644532.125326-.304362.34017-.519205.644532-.644531h.241699c.375976 0 .716146.071615 1.020508.214844.161132-.232747.241699-.447591.241699-.644531-.089518 0-.214844-.035808-.375977-.107422-3.616536.179036-5.424804.39388-5.424804.644531-.527769.144786-.986698.293227-1.376787.445324zm13.418395 15.851993-.966797-.644532c-.73405 0-1.163737-.250651-1.289063-.751953 0-.071614.107422-.429687.322266-1.074219l-.049801.146711 1.365719.068133.026855-.913086.456543.026856.429688.456543.429687.026855.483399-.429687-.053711.913086 1.369629-.402832 2.202148.563964-.429687-.456543.456543.026856 1.772461.080566 2.255859-.375976.429687.510254 4.055176-.725098-.026855.456543.429687.483398c.948894-.017903 1.799317-.456543 2.55127-1.315918l-.026856.913086.456543.026856v-.483399l-.375976-1.369629.510254-1.342773-.375977-3.679199.080566-1.369629-.429687-.483399.456543-.161132.026855-.456543-.429687-.483399c-1.020508-.017903-1.539714.277507-1.557617.886231l-.456543-.026856.026855-.456543.456543-.429687-1.342773.402832-.456543-.026856-.429688-.483398v.456543l-6.257324-.107422v-.483398l-.456543.456543-1.315918-.53711c-.895182-.035807-1.199544-3.106282-.913086-9.211426l.510254-1.342773-.778808-2.336426.456542-.456543.026856-.429687-.322266-2.792969.026856-.429688.456543-.429687-.563965-7.358398-.214844-2.792969-.456543-.026856-.456543.429688-1.396484-.483399-5.827637.161133c-2.076823-.107422-3.097331.259603-3.061523 1.101074l.483398 6.552735-.456543-.026856.349121 2.336426-.510254 1.342774.725098 3.249511-.456543.429688h.456543l-.483398.456543.241699 4.592285-.026856.456543-.456543.429687.429688.483399-.241699 5.021972.29541 3.222657-.456543.429687.537109 7.358399 3.571778.214843.456543-.456543.429687.483399.649828.033144-.0232.047422-.008952.053711v.429688c0 .572916.107422 1.038411.322265 1.396484 1.12793.161133 1.772461.304362 1.933594.429688zm-4.753418-38.215332v-.483399l.939941-.832519-.026855.429687zm1.503906 3.73291v-.2417l.241699-.241699h.483399v.241699zm8.029785 2.497558.241699-.241699v-.268555l-.241699-.993652h-.483398l.483398 1.262207-.241699.241699zm-.805664 33.273926.214844-.107422h.107422c0-.125325-.214844-.519206-.644532-1.18164.107422-.214844.214844-.322266.322266-.322266h.966797l.214844.107422.107422-.214844c-.125326-.304362-1.378581-.769857-3.759766-1.396484l-.537109.107422c.286458.411783.429687.734049.429687.966796 0 .429688-.39388.644532-1.181641.644532v.107422c0 .107421.322266.250651.966797.429687 1.32487.286458 2.25586.572917 2.792969.859375zm-1.181641-1.074219h-.107421c-.161133 0-.268555-.214843-.322266-.644531.107422-.214844.214844-.322266.322266-.322266.214843.053711.322265.268555.322265.644532v.107422c0 .143229-.071614.214843-.214844.214843zm7.519532.859375c.78776-.107422 1.18164-.286458 1.18164-.537109l-.537109-.107422h-.644531c-.125326 0-.19694.071615-.214844.214844v.107422zm8.271484 3.544922c.286458 0 .429688-.107422.429688-.322265v-.107422c-.268555-.895183-.626628-1.539714-1.074219-1.933594 0-.19694.071614-.411784.214844-.644531.161132 0 .304362.035807.429687.107422.375977-.071615.59082-.107422.644531-.107422.143229 0 .214844.071614.214844.214843l.537109-.107421c.214844.107421.322266.214843.322266.322265-.143229 1.038412-.214844 1.611328-.214844 1.71875v.53711c0 .143229.071615.214843.214844.214843h.107422c.179036-1.217448.465495-1.826172.859375-1.826172.214844-.572916.39388-.930989.537109-1.074218.125326 0 .304362.071614.53711.214843.017903-.089518.411784-.232747 1.18164-.429687 0-.161133-.322265-.304362-.966797-.429688l-.537109.214844c-.501302-.358073-3.258463-.572916-8.271484-.644531v.214844c0 .071614.035807.107422.107422.107422l1.503906.966796.214844-.322265.644531.107422.322265-.214844h.214844l.322266.214844c.358073 0 .537109.179036.537109.537109v.107422l-.107422.537109-.429687-.322265h-.107422l-.214844.107422c0 .125325.071615.304362.214844.537109.161133 0 .304362-.035807.429687-.107422l.214844.107422c0 1.002604.322266 1.503906.966797 1.503906zm-12.783203-2.792969.107422-.214843v-.107422c0-.125326-.322266-.304362-.966797-.53711h-.214844l-.214844.107422c0 .143229.429688.393881 1.289063.751953zm1.396484 1.181641c.787761-.107422 1.181641-.250651 1.181641-.429687l-.107422-.214844c-.644531-.250651-.966797-.429688-.966797-.53711-.519206 0-.805664.107422-.859375.322266v.537109c.107422.214844.214844.322266.322266.322266zm25.78125.107422.214844-.107422c0-.78776-.823568-1.181641-2.470703-1.181641-.143229.071615-.250651.107422-.322266.107422l.107422.214844c.53711 0 .93099.214844 1.181641.644531l.751953-.107422c.358073.179037.537109.322266.537109.429688zm-17.617187.322266.751953-.751954-.751953-.751953-.644531.644532h-.214844l-.214844-.107422-.107422.214843v.107422h.322266c.429687 0 .716146.214844.859375.644532zm-5.048828-.751954v-.214843c0-.125326-.071615-.19694-.214844-.214844-.125326 0-.19694.071615-.214844.214844v.214843zm-6.230469 2.470704c.39388-.071615.680338-.107422.859375-.107422v-.214844c-.161133 0-.698242-.286458-1.611328-.859375.501302-.572917.751953-.895182.751953-.966797-.107422-.214844-.214844-.322266-.322266-.322266h-.429687c-.501302 0-.751953.250651-.751953.751954 0 .286458.035807.429687.107422.429687 0 .859375.465494 1.289063 1.396484 1.289063zm26.586914.026855c.143229 0 .214844-.071615.214844-.214844v-.107422c-.071615 0-.179037-.035807-.322266-.107421-.304362.214843-.555013.322265-.751953.322265v.107422zm-24.223633-.026855v-.214844c-.071614 0-.179036-.035807-.322265-.107422l-.214844.107422c0 .143229.071614.214844.214844.214844zm22.827149.026855v-.322266h-.322266v.322266zm7.734375.859375.214843-.322266v-.214843c0-.107422-.107422-.214844-.322265-.322266h-.107422c-.429688.035807-.644531.143229-.644531.322266v.322265c.304362 0 .59082.071615.859375.214844zm-10.366211-.349121v-.214844c0-.143229-.071615-.214844-.214844-.214844-.143229.017904-.214844.089519-.214844.214844.017904.143229.089518.214844.214844.214844zm8.754882.456543c.053711 0 .161133-.107422.322266-.322266 0-.214843-.322266-.39388-.966797-.537109l-.214844.322266v.107421c.125326.286459.375977.429688.751954.429688zm-12.890625-.107422.214844-.107422c-.071614-.125325-.107422-.268555-.107422-.429687h-.214843c-.14323.017903-.214844.089518-.214844.214843v.107422c.017904.143229.089518.214844.214844.214844zm-2.846679.725098v-.429688c-.214844-.268555-.322266-.483398-.322266-.644531h-.107422v.107422c0 .644531.107422.966797.322266.966797zm11.010742.241699c.214844-.161133.322266-.268555.322266-.322266-.14323-.268554-.53711-.555013-1.181641-.859375-.089518.304362-.626628.590821-1.611328.859375 0 .143229.071614.214844.214844.214844h1.503906zm1.289062-.107422.53711-.107422v-.107422c0-.125325-.214844-.268554-.644531-.429687-.429688.214844-.680339.322265-.751954.322265v.107422c0 .143229.071615.214844.214844.214844zm9.990235 0v-.322266h-.322266v.322266zm.429687.322266c.14323 0 .214844-.071615.214844-.214844s-.071614-.214844-.214844-.214844h-.107422v.429688zm12.514649 1.047363v-.107422c-.268555-.572917-.626628-.859375-1.074219-.859375l-.107422.214844v.322265c0 .214844.39388.358073 1.181641.429688zm-5.366797-7.546387.751953-.107422c0 .071615.071615.107422.214844.107422.232747 0 .411784-.035807.537109-.107422l.429688.107422c1.414388-.071614 2.345377-.107422 2.792968-.107422h.107422v-.107422c0-.143229-.214843-.286458-.644531-.429687-.304362.143229-.519206.214844-.644531.214844-.501302-.358073-1.110026-.53711-1.826172-.53711v-.214843l.107422-.214844c.071614 0 .107422.035807.107422.107422.286458 0 .608724-.250651.966797-.751953v-.107422l-3.330079-.214844c-1.324869.071615-2.613932.107422-3.867187.107422-2.792969 0-4.189453-.071615-4.189453-.214844-.971912 0-1.984747-.140306-3.038505-.420918l-.255343-.071469 1.655664-.044722.644531.026855 1.047364-.080566 1.342773-.026856.322266.026856-.026856.537109h.322266l.59082-.187988.134278-.080567.107421.080567.966797.053711v-.29541l.375977-.268555.617676.026855.349121.322266c.089518-.017904.179036-.026855.268554-.026855v.026855c1.754558-.035807 2.640788-.187988 2.658692-.456543l.080566-1.369629.913086.026856v.080566h.322266c.017904 0 .035807-.008952.053711-.026855l-.026856.268554h.349121c1.32487-.59082 2.005209-1.110026 2.041016-1.557617l.429688.026856c1.056315.035807 2.094726-1.906739 3.115234-5.827637l.107422-2.685547c.161133-3.652344-1.369629-6.391602-4.592285-8.217773 2.70345-2.166342 3.992513-4.645997 3.867187-7.438965l-.134277-1.584473c-.465495-1.736654-.913086-3.079427-1.342774-4.02832l1.154786-.026856-.026856-.671386-1.477051.107421-.214843-.322265c-.393881-.590821-.787761-.877279-1.181641-.859375l-.053711.161133-1.71875-1.71875-.134277-.026856c-.017904-.035807-.035808-.062663-.053711-.080566l-2.01416-.563965c-.035808-.107422-.170085-.223796-.402833-.349121-.340169-.286459-1.163736-.599772-2.470703-.939942l-1.611328.053711v-.322265l-.966797.402832-.59082-.268555-.322266.026855-.993652.080567-1.933594-.080567-4.565429.134278-1.557618.053711-3.061523-.026856-.161133 1.530762-.053711.107422.026856.134277-.026856.241699.402832 1.853028-.268554.913086.026855.241699-.026855.080566v.107422l-.429688 2.25586.268555 5.048828-.214844 2.470703.375977.322265-.429688 5.639649.375977.349121.026855.322266-.349121.375976h.053711l-.053711.026856.510254.026855.187988 2.766113c-.035807 2.416993-.026855 4.341635.026856 5.773926l-.026856.402832c-.071614 1.199545.035808 2.11263.322266 2.739258l-.429688.751953.026856.134278-.026856.05371.2417.725098-.375977 1.584473.026855.134277-.026855.107422.053711.026855.134277.617676 4.74034.125578.019107.138044c.058461.379996.135191.686916.23019.920759l.059191.131537c1.665039 1.145834 4.529623 1.71875 8.59375 1.71875l.751954-.107422c0 .071615.071614.107422.214843.107422.161133 0 .304362-.035807.429688-.107422.125325.071615.268554.107422.429687.107422zm-7.143555-26.291504-.080566-.080566-.187988-.026856-.134278-.134277-1.71875-.134277-.026855-.241699.322265-.349122-.053711-.644531-.322265-.322265h.29541l-.29541-.295411c-.322266-2.363281-.241699-3.553873.241699-3.571777l2.01416-.080566c1.12793-.089519 1.987305.09847 2.578125.563965.304362.465494.483399 1.08317.53711 1.853027l-.913086 2.282715c-1.253256.286458-1.933594.626627-2.041016 1.020508l-.134277-.053711.107422.107421v.080567zm3.356934 11.950684c-.107422 1.987305-1.494955 2.891439-4.162598 2.712402l-.805664-.080566c-.250651-.59082-.313314-1.996257-.187988-4.216309l.349121-.375976h-.322266l.349121-.349121.026856-.751954-.214844-.241699 1.074219-.134277.563965.080566.349121-.29541.322265.026856c0 .411783.671387.760905 2.014161 1.047363zm3.706055 10.554199.671386-.537109v-.268555l-.644531.510254zm.349121.241699.671386-.537109v-.268555l-.644531.510254zm16.704101 4.296875v-.214843l-.537109-.751954v-.107421c0-.268555.143229-.555013.429687-.859375v-.107422c-.089518-.322266-.841471-.53711-2.255859-.644532h-1.181641c-.161133 0-.304362-.035807-.429687-.107421-.125326.071614-.268555.107421-.429688.107421h-1.933593c-.161133 0-.304362-.035807-.429688-.107421-.125325.071614-.268555.107421-.429687.107421h-1.611329c-.877278 0-1.700846-.071614-2.470703-.214843l-.214843.107422-1.289063-.214844c-.125325.071614-.268555.107422-.429687.107422v.214843l.214843.322266c.232748 0 .662435-.071614 1.289063-.214844.089518 0 .375976.179037.859375.53711 0-.071615.035807-.107422.107422-.107422h.214843c.214844 0 .501303.107422.859375.322265.071615 0 .179037-.035807.322266-.107421.143229 0 .358073.071614.644531.214843 0-.071614.107422-.143229.322266-.214843.214844 0 .322266.071614.322266.214843v.322266c-.107422.214844-.214844.322266-.322266.322266h-.214844v-.107422h-.537109l-.429688-.214844c-.250651.071615-.39388.107422-.429687.107422-.125326 0-.304362-.071615-.53711-.214844-.859375.214844-1.289062.39388-1.289062.537109 0 .161133.572917.34017 1.71875.53711.143229-.071615.250651-.107422.322266-.107422.161132 0 .304362.035807.429687.107422l.537109-.214844c1.110026.143229 2.184245.214844 3.222657.214844h1.074218l.53711.107422c0-.071615.358073-.143229 1.074219-.214844.179036 0 1.145833.179036 2.90039.537109zm-26.425781-1.611328c-.161133 0-.304362-.035807-.429688-.107422-.250651.071615-.39388.107422-.429687.107422-.107422 0-.250651-.071614-.429688-.214844h-.107421l-.322266.214844c-.214844-.053711-.322266-.340169-.322266-.859375v-.107422l.214844-.322265c.161133 0 .304362.035807.429688.107422l.429687-.107422c.143229 0 .214844.035807.214844.107422.644531.340169.966797.555013.966797.644531v.214844zm19.873047.644531c-.859375-.089518-1.289063-.304362-1.289063-.644531 0-.071614.035808-.179036.107422-.322265.572917-.071615.966797-.214844 1.181641-.429688h.214844c.572916.375977.859375.59082.859375.644531v.107422c-.017904.161133-.375977.375977-1.074219.644531zm3.330078-.214843c0-.071615-.035807-.107422-.107422-.107422h-1.074219l-.214843.107422c-.214844-.161133-.322266-.268555-.322266-.322266v-.429687h.429687c.14323 0 .214844.071614.214844.214843.644531-.089518 1.038412-.161132 1.181641-.214843.214844.161132.322265.268554.322265.322265v.107422c0 .107422-.143229.214844-.429687.322266zm2.148437.107422h-.214843c-.125326 0-.19694-.071615-.214844-.214844v-.322266h.214844c.143229 0 .214843.071615.214843.214844zm8.59375 3.330078-.322265-.53711c-1.020508-.465494-1.557617-.78776-1.611328-.966797v-.107421c0-.214844.39388-.322266 1.18164-.322266h.107422v-.107422c0-.161133-.716146-.447591-2.148437-.859375-1.52181-.572917-2.416993-.859375-2.685547-.859375-.071615 0-.179037.035807-.322266.107422l.859375.966797v.107422l-.107422.214843c-.716146.089519-1.074218.232748-1.074218.429688 0 .214844.572916.465495 1.71875.751953 2.11263.787761 3.509114 1.181641 4.189453 1.181641zm-6.201464-3.73291-.966797-.644532c-.73405 0-1.163737-.250651-1.289063-.751953 0-.071614.107422-.429687.322266-1.074219l-.049305.146711 1.365223.068133.026855-.913086.456543.026856.429688.456543.429687.026855.483399-.429687-.053711.913086 1.369629-.402832 2.202148.563964-.429687-.456543.456543.026856 1.77246.080566 2.25586-.375976.429687.510254 4.055176-.725098-.026855.456543.429687.483398c.948893-.017903 1.799317-.456543 2.55127-1.315918l-.026856.913086.456543.026856v-.483399l-.375976-1.369629.510254-1.342773-.375977-3.679199.080566-1.369629-.429687-.483399.456543-.161132.026855-.456543-.429687-.483399c-1.020508-.017903-1.539714.277507-1.557617.886231l-.456543-.026856.026855-.456543.456543-.429687-1.342773.402832-.456543-.026856-.429688-.483398v.456543l-6.257324-.107422v-.483398l-.456543.456543-1.315918-.53711c-.895182-.035807-1.199544-3.106282-.913086-9.211426l.510254-1.342773-.778809-2.336426.456543-.456543.026856-.429687-.322266-2.792969.026856-.429688.456543-.429687-.563965-7.358398-.214844-2.792969-.456543-.026856-.456543.429688-1.396484-.483399-5.827637.161133c-2.076823-.107422-3.097331.259603-3.061523 1.101074l.483398 6.552735-.456543-.026856.349121 2.336426-.510254 1.342774.725098 3.249511-.456543.429688h.456543l-.483399.456543.2417 4.592285-.026856.456543-.456543.429687.429688.483399-.241699 5.021972.29541 3.222657-.456543.429687.537109 7.358399 3.571777.214843.456543-.456543.429688.483399.650324.033144-.023696.047422-.008952.053711v.429688c0 .572916.107422 1.038411.322265 1.396484 1.12793.161133 1.772461.304362 1.933594.429688zm-4.753418-38.215332v-.483399l.939941-.832519-.026855.429687zm1.503906 3.73291v-.2417l.241699-.241699h.483399v.241699zm8.029785 2.497558.241699-.241699v-.268555l-.241699-.993652h-.483398l.483398 1.262207-.241699.241699zm-.805664 33.273926.214844-.107422h.107422c0-.125325-.214844-.519206-.644532-1.18164.107422-.214844.214844-.322266.322266-.322266h.966797l.214844.107422.107421-.214844c-.125325-.304362-1.37858-.769857-3.759765-1.396484l-.53711.107422c.286459.411783.429688.734049.429688.966796 0 .429688-.39388.644532-1.181641.644532v.107422c0 .107421.322266.250651.966797.429687 1.32487.286458 2.25586.572917 2.792969.859375zm-1.181641-1.074219h-.107422c-.161132 0-.268554-.214843-.322265-.644531.107422-.214844.214844-.322266.322265-.322266.214844.053711.322266.268555.322266.644532v.107422c0 .143229-.071614.214843-.214844.214843zm7.519532.859375c.78776-.107422 1.18164-.286458 1.18164-.537109l-.537109-.107422h-.644531c-.125326 0-.196941.071615-.214844.214844v.107422zm8.271484 3.544922c.286458 0 .429687-.107422.429687-.322265v-.107422c-.268554-.895183-.626627-1.539714-1.074218-1.933594 0-.19694.071614-.411784.214843-.644531.161133 0 .304362.035807.429688.107422.375977-.071615.59082-.107422.644531-.107422.143229 0 .214844.071614.214844.214843l.537109-.107421c.214844.107421.322266.214843.322266.322265-.143229 1.038412-.214844 1.611328-.214844 1.71875v.53711c0 .143229.071615.214843.214844.214843h.107422c.179036-1.217448.465495-1.826172.859375-1.826172.214844-.572916.39388-.930989.537109-1.074218.125326 0 .304362.071614.53711.214843.017903-.089518.411783-.232747 1.18164-.429687 0-.161133-.322265-.304362-.966797-.429688l-.537109.214844c-.501302-.358073-3.258464-.572916-8.271484-.644531v.214844c0 .071614.035807.107422.107421.107422l1.503907.966796.214843-.322265.644532.107422.322265-.214844h.214844l.322266.214844c.358073 0 .537109.179036.537109.537109v.107422l-.107422.537109-.429687-.322265h-.107422l-.214844.107422c0 .125325.071615.304362.214844.537109.161133 0 .304362-.035807.429687-.107422l.214844.107422c0 1.002604.322266 1.503906.966797 1.503906zm-12.783203-2.792969.107422-.214843v-.107422c0-.125326-.322266-.304362-.966797-.53711h-.214844l-.214844.107422c0 .143229.429688.393881 1.289063.751953zm1.396484 1.181641c.787761-.107422 1.181641-.250651 1.181641-.429687l-.107422-.214844c-.644531-.250651-.966797-.429688-.966797-.53711-.519206 0-.805664.107422-.859375.322266v.537109c.107422.214844.214844.322266.322266.322266zm25.78125.107422.214844-.107422c0-.78776-.823568-1.181641-2.470703-1.181641-.143229.071615-.250651.107422-.322266.107422l.107422.214844c.537109 0 .93099.214844 1.181641.644531l.751953-.107422c.358073.179037.537109.322266.537109.429688zm-17.617187.322266.751953-.751954-.751953-.751953-.644532.644532h-.214843l-.214844-.107422-.107422.214843v.107422h.322266c.429687 0 .716146.214844.859375.644532zm-5.048828-.751954v-.214843c0-.125326-.071615-.19694-.214844-.214844-.125326 0-.19694.071615-.214844.214844v.214843zm-6.230469 2.470704c.39388-.071615.680338-.107422.859375-.107422v-.214844c-.161133 0-.698242-.286458-1.611328-.859375.501302-.572917.751953-.895182.751953-.966797-.107422-.214844-.214844-.322266-.322266-.322266h-.429687c-.501302 0-.751953.250651-.751953.751954 0 .286458.035807.429687.107421.429687 0 .859375.465495 1.289063 1.396485 1.289063zm26.586914.026855c.143229 0 .214844-.071615.214844-.214844v-.107422c-.071615 0-.179037-.035807-.322266-.107421-.304362.214843-.555013.322265-.751953.322265v.107422zm-24.223633-.026855v-.214844c-.071614 0-.179036-.035807-.322266-.107422l-.214843.107422c0 .143229.071614.214844.214843.214844zm22.827149.026855v-.322266h-.322266v.322266zm7.734375.859375.214843-.322266v-.214843c0-.107422-.107422-.214844-.322265-.322266h-.107422c-.429688.035807-.644531.143229-.644531.322266v.322265c.304362 0 .59082.071615.859375.214844zm-10.366211-.349121v-.214844c0-.143229-.071615-.214844-.214844-.214844-.143229.017904-.214844.089519-.214844.214844.017904.143229.089518.214844.214844.214844zm8.754882.456543c.053711 0 .161133-.107422.322266-.322266 0-.214843-.322266-.39388-.966797-.537109l-.214844.322266v.107421c.125326.286459.375977.429688.751954.429688zm-12.890625-.107422.214844-.107422c-.071614-.125325-.107422-.268555-.107422-.429687h-.214843c-.14323.017903-.214844.089518-.214844.214843v.107422c.017903.143229.089518.214844.214844.214844zm-2.846679.725098v-.429688c-.214844-.268555-.322266-.483398-.322266-.644531h-.107422v.107422c0 .644531.107422.966797.322266.966797zm11.010742.241699c.214844-.161133.322266-.268555.322266-.322266-.14323-.268554-.53711-.555013-1.181641-.859375-.089518.304362-.626628.590821-1.611328.859375 0 .143229.071614.214844.214844.214844h1.503906zm1.289062-.107422.53711-.107422v-.107422c0-.125325-.214844-.268554-.644531-.429687-.429688.214844-.680339.322265-.751954.322265v.107422c0 .143229.071615.214844.214844.214844zm9.990235 0v-.322266h-.322266v.322266zm.429687.322266c.143229 0 .214844-.071615.214844-.214844s-.071615-.214844-.214844-.214844h-.107422v.429688zm12.514649 1.047363v-.107422c-.268555-.572917-.626628-.859375-1.074219-.859375l-.107422.214844v.322265c0 .214844.39388.358073 1.181641.429688zm-9.815477-24.123477.031574.090751c.209868.623514.436794 1.296069.680778 2.017664l.003648.012585-1.721129.70609c-.302372-.286458-.470357-.714377-.503954-1.283757l-.0063-.220149c0-.460824.489525-.895656 1.468573-1.304496zm-10.83423-.234433-1.853028-.778809-1.47705.402832h-1.477051l-.375977-.402832c.755209-3.256836 1.32376-5.082638 1.705655-5.477406l.000681-.000352-.095008-.000757.751953-3.168946h1.101075l.375976 2.792969-1.433996.295734.923742-.000324c.608724 0 1.209001 1.993633 1.800829 5.980899zm10.83423.234433-.071939-.216919c-.816731-2.428668-1.360542-4.07269-1.631432-4.932065l-.349121-1.503906-.241699-.751953v-1.879883l-4.323731-13.964844h.349121l-.349121-1.101074h-9.560547l-.375976-.375977-1.477051.375977c-.555013 1.503906-1.047363 2.255859-1.477051 2.255859l.375977.375977-4.968262 15.46875-.510254 1.853027c-.179036 2.023112-1.011556 4.538574-2.497558 7.546387h.375976c-1.969401 4.458008-2.954101 7.224121-2.954101 8.29834l-.778809 2.255859h9.42627l.214308-.247555.000535-.155277.375977-.349121 1.853027-4.511719h8.88916l1.450196.375977c1.110026 3.258463 1.870931 4.887695 2.282715 4.887695h6.606445l.375976-.402832v.402832l.349121-.402832h.402833l.349121.402832h1.853027l.375977-.402832-1.477051-4.86084c-.7683-2.255859-1.443731-4.244721-2.026294-5.966584l-.119765-.352299 1.420961-.582972c1.969401-.143229 3.616537-.358073 4.941406-.644532.716146.071615 1.306966.107422 1.772461.107422h.510254c.913086 0 1.709798-.071614 2.390137-.214843.161133.071614.286458.107421.375976.107421l.886231-.107421v-.107422c0-.143229-.250651-.250651-.751953-.322266-.447591.071615-.698242.107422-.751953.107422-.143229 0-.232748-.071615-.268555-.214844-.501302 0-1.262207-.035807-2.282715-.107422-.143229 0-.349121.071615-.617676.214844-.751953-.089518-1.127929-.268555-1.127929-.537109-.483399.465495-.948894.751953-1.396485.859375-.304362 0-.519205-.214844-.644531-.644532.125326-.304362.340169-.519205.644531-.644531h.2417c.375976 0 .716145.071615 1.020507.214844.161133-.232747.2417-.447591.2417-.644531-.089519 0-.214844-.035808-.375977-.107422-3.616536.179036-5.424805.39388-5.424805.644531-.527768.144786-.986697.293227-1.376787.445324zm21.152781 13.998965c4.726563-1.110026 7.089844-2.11263 7.089844-3.007812v-1.530762l-.510254-6.713867.751953-.778809v-.751953h-.751953l-2.175293.751953.698242.778809v.725097l-2.175293-.966796-2.927246.698242-1.879882.053711-1.503907-.053711-2.255859-2.739258.053711.751953h-1.477051l.725098-.751953-.993653-5.236816v-3.786622c1.450196-3.867187 4.135743-5.863444 8.056641-5.988769v.751953l.725098-.751953h.725097l4.135743 1.181641.537109-1.933594-.725098-.778809.725098-.725097v-.751954l.080566-5.773925h-1.47705v1.47705h-.725098v-1.47705l.725098-.751953-.725098-.751954-.751953.751954-5.45166-.2417-.751954.751953-.725097-.751953h-.725098c-6.767578 1.32487-11.109212 4.833985-13.024902 10.527344l-.939942 7.492676h.751954l-.751954.778808v.751954c.322266 12.138671 6.203614 18.395996 17.644043 18.771972zm-14.501953-26.533203h-1.477051v-.725098l1.477051-1.450195v.725098l-.751953.725097zm63.085645 15.817871c.107422 0 .214844-.107422.322265-.322265v-.53711h-.214843c-.161133 0-.268555.179037-.322266.53711.071615.143229.107422.250651.107422.322265zm-1.71875.322266c.143229-.017904.214844-.089518.214844-.214844-.017904-.143229-.089519-.214844-.214844-.214844l-.107422.214844v.214844zm-.751953.322265.214843-.322265c-.017903-.143229-.089518-.214844-.214843-.214844h-.214844c0 .071615-.035807.179037-.107422.322266zm-2.041016.53711c.358073-.071615.537109-.250651.537109-.53711-.143229-.017903-.214843-.089518-.214843-.214843-.035808 0-.286459.143229-.751953.429687h-.107422v.214844h.107422l.214843-.107422c0 .143229.071615.214844.214844.214844zm-1.611328.537109c.375976-.107422.698242-.322265.966797-.644531-.143229-.322266-.286459-.501302-.429688-.537109h-.107422c-.501302.358072-.751953.680338-.751953.966796zm-20.195313-.107422c.196941-.143229.698243-.250651 1.503907-.322265.143229.071614.250651.107422.322265.107422l.107422-.214844v-.322266h-.322265c-.608724 0-1.074219-.071614-1.396485-.214844l-1.262957.210836v.604l.141741.073633c.049235.025363.100708.051473.154419.078328l.322266-.214843h.214844c.125325 0 .19694.071614.214843.214843zm19.44336.107422c.143229-.071614.250651-.107422.322265-.107422v-.214843h-.429687v.322265zm-20.302735 1.396485c0-.071615.179037-.14323.53711-.214844.125325.071614.268554.107422.429687.107422.19694 0 .411784-.071615.644532-.214844.125325 0 .304362.071615.537109.214844.358073-.053711.537109-.161133.537109-.322266l-.214843-.322266-1.074219.322266c-.214844 0-.322266-.143229-.322266-.429687l-.537109.107421c-.214844 0-.322266-.071614-.322266-.214843-.107422 0-.223795.044759-.349121.134277l-.054461.042652v.704l.025457.008524c.055143.022916.10957.048698.163281.077344zm-21.188964.080566.107421-.214844v-.322265c0-.214844-.39388-.358073-1.18164-.429688v.107422c.268555.572917.626627.859375 1.074219.859375zm34.589843 1.611328h-.107422c0-.161133-.107421-.375976-.322265-.644531v-.429688h.107422c.214843 0 .322265.322266.322265.966797zm3.867188 3.759766-.751953-.751953.751953-.751954c.143229.429688.429687.644532.859375.644532h.322265v.107422l-.107421.214843-.214844-.107422h-.214844zm18.288574 2.470703c.214844 0 .429688-.53711.644531-1.611328l-.107422-.53711h-.429687c-.429688.250651-.644531.680339-.644531 1.289063 0 .519206.107422.805664.322265.859375zm-13.239746-.966797c.125325 0 .19694-.071615.214844-.214844v-.107422l-.214844-.322265c-.60597.082632-.978874.20764-1.118713.375023l-.00992.013074.000703.068446-.039703.004554-.007016.019441c-.004661.018433-.006992.03729-.006992.056571l.53711.107422zm4.645996 2.067871c.501302 0 .751953-.250651.751953-.751953 0-.286458-.035807-.429688-.107422-.429688 0-.859375-.465494-1.289062-1.396484-1.289062-.39388.071615-.680339.107422-.859375.107422v.214844c.179036 0 .716146.286458 1.611328.859375-.501302.572916-.751953.895182-.751953.966796.107422.214844.214844.322266.322266.322266zm-2.792969-2.148437.214844-.107422c0-.143229-.071615-.214844-.214844-.214844h-.322265v.214844c.071614 0 .179036.035807.322265.107422zm-1.18164 3.007812c.537109 0 .823567-.107422.859375-.322266v-.537109c-.107422-.214844-.214844-.322266-.322266-.322266h-.429687c-.787761.107422-1.181641.250651-1.181641.429688l.107422.214844c.644531.250651.966797.429687.966797.537109zm-2.792969-.429687c.125325 0 .19694-.071615.214844-.214844v-.214844h-.429688v.214844c0 .125325.071615.19694.214844.214844zm5.371094 1.289062.214843-.107422c0-.143229-.429687-.39388-1.289062-.751953l-.107422.214844v.107422c0 .125325.322266.304362.966797.537109zm3.222656 2.792969.537109-.107422c-.286458-.411784-.429687-.73405-.429687-.966797 0-.429687.39388-.644531 1.18164-.644531v-.107422c0-.107422-.322265-.250651-.966796-.429688-1.32487-.286458-2.25586-.572916-2.792969-.859375l-.214844.107422h-.107422c0 .125326.214844.519206.644531 1.181641-.107421.214844-.214843.322266-.322265.322266h-.966797l-.214844-.107422-.107422.214843c.125326.304362 1.378581.769857 3.759766 1.396485zm-1.181641-1.074219c-.214843-.053711-.322265-.268555-.322265-.644531v-.107422c0-.143229.071614-.214844.214843-.214844h.107422c.179037 0 .286459.214844.322266.644531-.107422.214844-.214844.322266-.322266.322266zm5.048828 1.826172c.214844-.107422.322266-.214844.322266-.322266v-.429687c0-.59082-.107422-1.056315-.322266-1.396485-1.127929-.161132-1.772461-.304362-1.933593-.429687h-.429688l.966797.644531c.73405 0 1.163737.250651 1.289063.751953 0 .071615-.107422.429688-.322266 1.074219.161133 0 .304362.035807.429687.107422zm-33.184988-9.649977.007.025.33375.332985-.00075.124015.078576.054108c.40338.257228 1.07568.385842 2.016901.385842.143229-.071615.250651-.107422.322265-.107422l-.107422-.214844c-.537109 0-.930989-.214844-1.18164-.644531l-.751953.107422c-.223796-.123088-.377655-.225195-.461579-.306321l-.015148-.015254zm18.199 2.19.000637.262711 3.478363-.317711.01396-.034588.02504-.038412.000703-.978918h-1.047363l-10.178223-18.020019c0-.948893 1.172689-3.186849 3.518067-6.713867l4.887695-9.533692c-.017904-.232747.214844-.814616.698242-1.745605h-1.047363v-.375977l-1.826172.161133h-.698242l-.349121.375977-.268555-.161133h-2.121582l-.349121-.375977v.375977l-.349121.053711-2.819824-.053711-.349121.322265-.349122-.322265c-.501302.179036-.9847.926513-1.450195 2.242431s-1.262207 2.564698-2.390137 3.746338c-2.631835 5.138347-4.261067 7.841797-4.887695 8.110352h-.349121l-.375977-3.518066.375977-2.121583-.375977-.322265v-.375977l.375977-.375976-.375977-.349121v-1.745606h-.698242v-3.544922h.698242l-.349121-1.745605h-.698242c0 .626627-.349121.859375-1.047363.698242v-1.074219l-5.532227.080567h-.349121l-.349121-.349121-1.047363.349121.349121.349121-1.047363-.429688-.349121 2.497559h.349121l-.080567 2.094726v.349121l.349121.375977h-.349121l.349121.349121-.349121 1.047363.2417.349122v.349121l-.2417 2.497558h.349121l-.349121 1.745606v4.968261l.349121 1.745606-.349121.349121.349121 2.094727v4.243164l.349121.375976h-.349121l.349121 1.047363-.349121 2.121582v.349122l.098594.107882-.018027-.000461c-.119358 0-.188983.049733-.208876.149197l-.005968.065647v.322266c0 .071614.047743.143229.143229.214844l.023642.016507.316527 4.763766v3.168945h6.311036l.349121-.322265.349121.322265h.698242l.349121-.322265.349121.322265h1.772461l-.349121-1.020507v-.349122l.349121-.375976-.00075-.225106-.016666-.012879c-.1494-.116109-.252113-.254548-.308138-.415316l-.008196-.028805-.015371-.016136.008371-.008864-.012816-.045334c-.00747-.03394-.013073-.068773-.016808-.104499l-.005602-.109858.214843-.107422c0 .02238.01119.048116.03357.07721l.026813.030903.10075-.108113-.00075-4.355887-.142121-.051632c-.113151-.034375-.229167-.057292-.348047-.06875l-.180469-.008594h-.214843v-.214844h.537109c.107422-.134277.209808-.243378.307159-.327301l.041212-.032879v-.866l-.126813-.069596c-.322266-.179037-.501302-.31033-.53711-.393881l-.006714-.029093.670637-.11143.00075-.855367-.349121-4.216308.349121-1.42334 1.047363 1.047363c1.309205 2.651978 2.940115 5.573209 4.892731 8.763695l.390156.635957-.153492-.000238v.214844c0 .143229.071615.214844.214844.214844.071614-.008952.125325-.031332.161133-.067139l.001515-.002311.184048.294597c.815362 1.304915 1.682197 2.65291 2.600505 4.043986l.463443.699128h7.70752l.285484-.263711-.274616-.006236c-3.913745-.088721-6.140127-.284575-6.679146-.587564l-.045589-.028719-.53711.214844c-.644531-.125326-.966797-.268555-.966797-.429688.769857-.19694 1.163737-.340169 1.181641-.429687.232747.143229.411784.214843.537109.214843.14323-.143229.322266-.501302.53711-1.074218.39388 0 .680338-.608724.859375-1.826172h.107422c.143229 0 .214843.071614.214843.214843v.53711c0 .107422-.071614.680338-.214843 1.71875 0 .107422.107421.214844.322265.322265l.53711-.107421c0 .143229.071614.214843.214843.214843.053711 0 .268555-.035807.644532-.107422.125325.071615.268554.107422.429687.107422.143229-.232747.214844-.447591.214844-.644531-.447591-.39388-.805664-1.038411-1.074219-1.933594v-.107422c0-.214843.143229-.322265.429688-.322265.644531 0 .966796.501302.966796 1.503906l.214844.107422c.125326-.071615.268555-.107422.429688-.107422.143229.232747.214843.411784.214843.537109l-.214843.107422h-.107422l-.429688-.322265-.107422.537109v.107422c0 .358073.179037.537109.53711.537109l.322265.214844h.214844l.322266-.214844.644531.107422.214844-.322265 1.503906.966796c.071615 0 .107422.035808.107422.107422v.214844c-.406461-.005806-.798092-.012555-1.174892-.020244zm24.873098.558121 6.015625-.322265.322265-.322266.322266.322266c1.253255-5.013021 2.094727-7.519531 2.524414-7.519531l-.322266-.322266 1.584473-5.15625h-.322265l.644531-1.369629h-.322266l.644531-.671387-.322265-.349121 1.906738-6.821289h-.322266l-.322265-.322265-.000348-.007118.268902-.100304-.000902-.267696.376879-.000859c.017904 0 .035807-.002238.053711-.006714l.053711-.020141 1.71875 6.176757c2.416992 9.435222 4.073079 15.07487 4.968262 16.918946h.375976l1.772461-.375977v.375977l.349121-.375977h.349121l.375977.375977h.349121l4.27002-.214844.349121.375976h.349121c.358073 0 1.306966-2.99886 2.846679-8.996582h-.349121c.716146-1.450195 1.781413-5.165201 3.195801-11.145019h.725098l-.349121-1.530762 1.423339-4.61914h-.375976l2.148437-10.366211v-.375977l-.725097-.805664h-8.540039c0 1.790365-.232748 2.685547-.698242 2.685547l.349121.402832v.402832l-1.42334 6.499023h.349121l-1.047363 2.712403.349121 1.154785c-.411784 0-1.002604 1.665039-1.772461 4.995117l.349121.375977-1.074219.375976-1.074219-1.154785v-.375977l.375977-.375976v-.402832l-1.074219-3.813477-.725098-1.557617h.375977l-3.920898-12.675781-.402832 1.396484h-.161133l.29541-1.074219v-.322265h-1.557617l-1.906739.322265-1.584472-.322265h-1.584473l-2.175293.134277c-.572916 3.544922-1.092122 5.317383-1.557617 5.317383l.29541.349121-2.121582 7.17041-.134277 1.396485h-.617676l-.966797 3.383789h.322266l-1.262207 3.4375-1.047364-3.4375-.322265-.322266.322265-.349121-.107421-1.71875h.322265l-.939941-2.041016v-.349121l.322265-.349121c.626628 0 .492351-.214844-.402832-.644531l-.644531-.698242.322266-1.047364c0-.322265-.420736-.653483-1.262207-.993652l.537109-.349121.322266-.349121v-.349121h-.644532v-.671387h.644532l-.725098-3.410644c-.268555-2.739258-1.118978-4.108887-2.551269-4.108887l-3.38379.322265h-.29541l-.322265-.322265v.322265h-.322266l-.322266-.322265h-1.584472l-1.557617.322265-.322266-.322265-.322266.993652h.644532c.19694 1.32487.510253 2.01416.939941 2.067871 0 1.378581.026855 2.291667.080566 2.739258v.349121l-.29541.349121h.617676v.671387l-.322266.349121c.644532 2.041016 1.101075 3.294271 1.369629 3.759766h-1.262207l.939942.698242 1.262207 3.383789v.698242l-.322266.322266.644531.698242v.349121l-.322265.322266c.411784 0 .438639.349121.080566 1.047363h.644531v.671387c.859375 4.995117 1.52181 7.492676 1.987305 7.492676v.375976l-.322266.322266 2.84668 7.546386h-.29541l1.262207 2.390137c0 .555013.528158.886231 1.584473.993652zm11.359863-22.612304.939941-1.020508-.000902.403691-.267652-.000859-.000348.368859zm61.447461-21.135254c.214844 0 .465495-.179037.751953-.537109h.53711v-.214844h-.214844c-.304362 0-.590821-.071615-.859375-.214844 0 .071615-.179037.143229-.53711.214844-.125325-.071615-.268554-.107422-.429687-.107422-.19694 0-.411784.071614-.644531.214844-.125326 0-.304362-.071615-.53711-.214844-.358073.053711-.537109.161133-.537109.322266l.214844.322265 1.074218-.322265c.214844 0 .322266.143229.322266.429687l.537109-.107422c.214844 0 .322266.071615.322266.214844zm-11.279297.751953c.107422 0 .214844-.107422.322266-.322266v-.214843c0-.071615-.143229-.214844-.429688-.429688-.286458.071615-.429687.250651-.429687.537109.107422.286459.214844.429688.322265.429688zm1.503906-.214844c.14323 0 .214844-.107422.214844-.322265-.071614-.14323-.107422-.250651-.107422-.322266h-.214843c-.14323.017904-.214844.089518-.214844.214844v.429687zm-10.205078.214844v-.322266h-.107422c-.143229.071615-.250651.107422-.322265.107422v.214844zm-1.289062.859375c.501302-.358073.751953-.680339.751953-.966797l-.322266-.214844c-.375976.107422-.698242.322266-.966797.644532.14323.322265.286459.501302.429688.537109zm20.410156-.107422 1.933594-.322265c0-.107422-.322266-.322266-.966797-.644532l-.322266.214844h-.214843c-.125326 0-.196941-.071615-.214844-.214844-.19694.143229-.698242.250651-1.503906.322266-.14323-.071615-.250652-.107422-.322266-.107422l-.107422.214844v.322265h.322266c.608724 0 1.074218.071615 1.396484.214844zm-21.914062.214844c.05371 0 .304362-.143229.751953-.429688h.107422v-.214843h-.107422l-.214844.107422c0-.14323-.071615-.214844-.214844-.214844-.358073.071614-.537109.250651-.537109.537109.143229.017904.214844.089518.214844.214844zm-1.503907.322265c0-.071614.035808-.179036.107422-.322265l-.322265-.214844-.214844.322266c.017903.143229.089518.214843.214844.214843zm-.966797.214844.107422-.214844v-.214843h-.107422c-.143229.017903-.214843.089518-.214843.214843.017903.14323.089518.214844.214843.214844zm-1.826171.751953c.161132 0 .268554-.179036.322265-.537109-.071614-.143229-.107422-.250651-.107422-.322266h-.107422c-.107421 0-.214843.107422-.322265.322266v.537109zm-3.276368 41.330567.456543-.429688.025715-.569254 6.607586.3007 3.088379-.322266 5.290527.107422.429688.456543 2.229004-.805664.429687.456543 2.658692.053711.456543-.402832-.402832-1.342774v-.429687l.456543-.429688v-.456543l-.429688-.456543.510254-2.631836.080566-2.202148-.429687-.456543.456543-.429688v-.859375l-2.202149-.080566-2.175293-.483398-.456543.429687-.429687-.456543-.456543.510254-3.518066-.080566-.161133-.026856-.456543.429688-.429688-.456543-3.518066-.080567.053711-3.73291 1.342773.134277v.456543l3.088379-.375976 8.996582.214844.241699-2.175293-.429687-.456543v-.456543l.456543-.429688h-.429688v-.429687l.456543-.429688.026856-.456543-.429688-.456543.429688.026856c-.017904-3.061524-.322266-4.601237-.913086-4.619141l-9.882813-.241699-.429687-.456543-.456543.429687-.886231-.026855-.429687-.456543c-.304362-2.11263-.161133-3.133138.429687-3.061523l8.190918-.134278 1.289063.456543.456543-.429687.456543.026855.429687.456543 1.772461-.402832-.00066-7.577555.087568-.034851c.588085-.23797.890333-.430807.906745-.578512v-.107422c0-.053711-.286459-.268554-.859375-.644531l-.134938.000316.00066-1.020824-1.772461-.483398-.429687.429687-.187988-.026855-.429688-.456543-.456543.429687-6.149902-.322265-.456543-.026856-.429688.429688-1.772461-.214844-1.315918-.026856-7.036132-.107421-.026856.456543c-3.330078-.286459-5.013021.017903-5.048828.913085l-.053711 1.933594.429688.429688h-.429688l-.026855.429687.429687.456543-.026855.886231-.456543.429687.429687.456543-.053711 2.927246-.107422 9.694824c-.125325 8.683269.071615 14.28711.590821 16.811524l-.483399 1.289062c1.951498.34017 2.918294.805664 2.900391 1.396485zm1.987305-36.362305c-.161133 0-.304362-.035807-.429687-.107422-.250652.071615-.393881.107422-.429688.107422-.107422 0-.250651-.071614-.429687-.214844h-.107422l-.322266.214844c-.214844-.053711-.322266-.340169-.322266-.859375v-.107422l.214844-.322265c.161133 0 .304362.035807.429688.107421l.429687-.107421c.143229 0 .214844.035807.214844.107421.644531.34017.966797.555013.966797.644532v.214843zm19.873047.644531c-.859375-.089518-1.289063-.304362-1.289063-.644531 0-.071614.035808-.179036.107422-.322266.572917-.071614.966797-.214843 1.181641-.429687l.079906.000316v1.365zm3.330078-.214843c.286458-.107422.429688-.214844.429688-.322266v-.107422c0-.053711-.107422-.161133-.322266-.322266-.143229.053711-.537109.125326-1.181641.214844 0-.143229-.071614-.214844-.214843-.214844h-.429688v.429688c0 .053711.107422.161133.322266.322266l.214843-.107422h1.074219c.071615 0 .107422.035807.107422.107422zm2.148438.107421v-.322265c0-.143229-.071615-.214844-.214844-.214844h-.214844v.322266c.017904.143229.089518.214843.214844.214843zm10.3125 4.833985.107421-.53711c0-.429687-.143229-1.002604-.429687-1.71875h-.107422c0 .680339-.071615 1.074219-.214844 1.181641-.161133 0-.304362-.035807-.429687-.107422h-.107422c.411784.716146.698242 1.110026.859375 1.181641zm22.775585-13.347168c.214844 0 .465495-.179037.751954-.537109h.537109v-.214844h-.214844c-.304362 0-.59082-.071615-.859375-.214844 0 .071615-.179036.143229-.537109.214844-.125326-.071615-.268555-.107422-.429688-.107422-.19694 0-.411784.071614-.644531.214844-.125325 0-.304362-.071615-.537109-.214844-.358073.053711-.53711.161133-.53711.322266l.214844.322265 1.074219-.322265c.214844 0 .322265.143229.322265.429687l.53711-.107422c.214844 0 .322265.071615.322265.214844zm-11.279296.751953c.107421 0 .214843-.107422.322265-.322266v-.214843c0-.071615-.143229-.214844-.429687-.429688-.286459.071615-.429688.250651-.429688.537109.107422.286459.214844.429688.322266.429688zm1.503906-.214844c.143229 0 .214844-.107422.214844-.322265-.071615-.14323-.107422-.250651-.107422-.322266h-.214844c-.143229.017904-.214844.089518-.214844.214844v.429687zm-10.205078.214844v-.322266h-.107422c-.143229.071615-.250651.107422-.322266.107422v.214844zm-1.289063.859375c.501302-.358073.751953-.680339.751953-.966797l-.322265-.214844c-.375977.107422-.698242.322266-.966797.644532.143229.322265.286458.501302.429687.537109zm20.410156-.107422 1.933594-.322265c0-.107422-.322265-.322266-.966797-.644532l-.322265.214844h-.214844c-.125326 0-.19694-.071615-.214844-.214844-.19694.143229-.698242.250651-1.503906.322266-.143229-.071615-.250651-.107422-.322266-.107422l-.107422.214844v.322265h.322266c.608724 0 1.074219.071615 1.396484.214844zm-21.914062.214844c.053711 0 .304362-.143229.751953-.429688h.107422v-.214843h-.107422l-.214844.107422c0-.14323-.071614-.214844-.214843-.214844-.358073.071614-.53711.250651-.53711.537109.143229.017904.214844.089518.214844.214844zm-1.503906.322265c0-.071614.035807-.179036.107422-.322265l-.322266-.214844-.214844.322266c.017904.143229.089518.214843.214844.214843zm-.966797.214844.107422-.214844v-.214843h-.107422c-.143229.017903-.214844.089518-.214844.214843.017904.14323.089518.214844.214844.214844zm-1.826172.751953c.161133 0 .268555-.179036.322266-.537109-.071615-.143229-.107422-.250651-.107422-.322266h-.107422c-.107422 0-.214844.107422-.322266.322266v.537109zm-3.276367 41.330567.456543-.429688.025441-.569254 6.60786.3007 3.088378-.322266 5.290528.107422.429687.456543 2.229004-.805664.429688.456543 2.658691.053711.456543-.402832-.402832-1.342774v-.429687l.456543-.429688v-.456543l-.429688-.456543.510254-2.631836.080567-2.202148-.429688-.456543.456543-.429688v-.859375l-2.202148-.080566-2.175293-.483398-.456543.429687-.429688-.456543-.456543.510254-3.518066-.080566-.161133-.026856-.456543.429688-.429687-.456543-3.518067-.080567.053711-3.73291 1.342774.134277v.456543l3.088379-.375976 8.996582.214844.241699-2.175293-.429688-.456543v-.456543l.456543-.429688h-.429687v-.429687l.456543-.429688.026855-.456543-.429687-.456543.429687.026856c-.017903-3.061524-.322265-4.601237-.913086-4.619141l-9.882812-.241699-.429688-.456543-.456543.429687-.88623-.026855-.429688-.456543c-.304362-2.11263-.161132-3.133138.429688-3.061523l8.190918-.134278 1.289062.456543.456543-.429687.456543.026855.429688.456543 1.772461-.402832-.000934-7.577555.087841-.034851c.588085-.23797.890333-.430807.906745-.578512v-.107422c0-.053711-.286458-.268554-.859375-.644531l-.135211.000316.000934-1.020824-1.772461-.483398-.429688.429687-.187988-.026855-.429687-.456543-.456543.429687-6.149903-.322265-.456543-.026856-.429687.429688-1.772461-.214844-1.315918-.026856-7.036133-.107421-.026855.456543c-3.330079-.286459-5.013021.017903-5.048829.913085l-.053711 1.933594.429688.429688h-.429688l-.026855.429687.429688.456543-.026856.886231-.456543.429687.429688.456543-.053711 2.927246-.107422 9.694824c-.125326 8.683269.071614 14.28711.59082 16.811524l-.483398 1.289062c1.951497.34017 2.918294.805664 2.90039 1.396485zm1.987304-36.362305c-.161132 0-.304362-.035807-.429687-.107422-.250651.071615-.39388.107422-.429688.107422-.107421 0-.250651-.071614-.429687-.214844h-.107422l-.322266.214844c-.214843-.053711-.322265-.340169-.322265-.859375v-.107422l.214844-.322265c.161132 0 .304362.035807.429687.107421l.429688-.107421c.143229 0 .214843.035807.214843.107421.644532.34017.966797.555013.966797.644532v.214843zm19.873047.644531c-.859375-.089518-1.289062-.304362-1.289062-.644531 0-.071614.035807-.179036.107422-.322266.572916-.071614.966797-.214843 1.18164-.429687l.079633.000316v1.365zm3.330078-.214843c.286459-.107422.429688-.214844.429688-.322266v-.107422c0-.053711-.107422-.161133-.322266-.322266-.143229.053711-.537109.125326-1.18164.214844 0-.143229-.071615-.214844-.214844-.214844h-.429688v.429688c0 .053711.107422.161133.322266.322266l.214844-.107422h1.074219c.071614 0 .107421.035807.107421.107422zm2.148438.107421v-.322265c0-.143229-.071615-.214844-.214844-.214844h-.214844v.322266c.017904.143229.089519.214843.214844.214843zm10.3125 4.833985.107422-.53711c0-.429687-.143229-1.002604-.429688-1.71875h-.107422c0 .680339-.071614 1.074219-.214843 1.181641-.161133 0-.304362-.035807-.429688-.107422h-.107422c.411784.716146.698243 1.110026.859375 1.181641zm27.233594 19.899902c.107422 0 .214843-.107422.322265-.322265v-.53711h-.214843c-.161133 0-.268555.179037-.322266.53711.071615.143229.107422.250651.107422.322265zm-1.71875.322266c.143229-.017904.214843-.089518.214843-.214844-.017903-.143229-.089518-.214844-.214843-.214844l-.107422.214844v.214844zm-.751953.322265.214843-.322265c-.017903-.143229-.089518-.214844-.214843-.214844h-.214844c0 .071615-.035807.179037-.107422.322266zm-2.041016.53711c.358073-.071615.537109-.250651.537109-.53711-.143229-.017903-.214843-.089518-.214843-.214843-.035808 0-.286459.143229-.751954.429687h-.107421v.214844h.107421l.214844-.107422c0 .143229.071615.214844.214844.214844zm-1.611328.537109c.375976-.107422.698242-.322265.966797-.644531-.143229-.322266-.286459-.501302-.429688-.537109h-.107422c-.501302.358072-.751953.680338-.751953.966796zm-20.195313-.107422c.19694-.143229.698243-.250651 1.503907-.322265.143229.071614.250651.107422.322265.107422l.107422-.214844v-.322266h-.322266c-.608723 0-1.074218-.071614-1.396484-.214844l-1.262461.210836v.604l.141245.073633c.049235.025363.100708.051473.154419.078328l.322266-.214843h.214844c.125325 0 .19694.071614.214843.214843zm19.44336.107422c.143229-.071614.250651-.107422.322265-.107422v-.214843h-.429687v.322265zm-20.302735 1.396485c0-.071615.179037-.14323.53711-.214844.125325.071614.268554.107422.429687.107422.19694 0 .411784-.071615.644531-.214844.125326 0 .304362.071615.53711.214844.358073-.053711.537109-.161133.537109-.322266l-.214844-.322266-1.074218.322266c-.214844 0-.322266-.143229-.322266-.429687l-.537109.107421c-.214844 0-.322266-.071614-.322266-.214843-.107422 0-.223795.044759-.349121.134277l-.053965.042652v.704l.024961.008524c.055143.022916.10957.048698.163281.077344zm-21.188964.080566.107421-.214844v-.322265c0-.214844-.39388-.358073-1.18164-.429688v.107422c.268554.572917.626627.859375 1.074219.859375zm34.589843 1.611328h-.107422c0-.161133-.107421-.375976-.322265-.644531v-.429688h.107422c.214843 0 .322265.322266.322265.966797zm3.867188 3.759766-.751953-.751953.751953-.751954c.143229.429688.429687.644532.859375.644532h.322265v.107422l-.107421.214843-.214844-.107422h-.214844zm18.288574 2.470703c.214844 0 .429687-.53711.644531-1.611328l-.107422-.53711h-.429687c-.429688.250651-.644531.680339-.644531 1.289063 0 .519206.107421.805664.322265.859375zm-13.239746-.966797c.125325 0 .19694-.071615.214844-.214844v-.107422l-.214844-.322265c-.60597.082632-.978874.20764-1.118713.375023l-.009424.013074.000207.068446-.039207.004554-.007512.019441c-.004661.018433-.006992.03729-.006992.056571l.53711.107422zm4.645996 2.067871c.501302 0 .751953-.250651.751953-.751953 0-.286458-.035807-.429688-.107422-.429688 0-.859375-.465495-1.289062-1.396484-1.289062-.39388.071615-.680339.107422-.859375.107422v.214844c.179036 0 .716146.286458 1.611328.859375-.501302.572916-.751953.895182-.751953.966796.107422.214844.214844.322266.322265.322266zm-2.792969-2.148437.214844-.107422c0-.143229-.071615-.214844-.214844-.214844h-.322265v.214844c.071614 0 .179036.035807.322265.107422zm-1.18164 3.007812c.537109 0 .823567-.107422.859375-.322266v-.537109c-.107422-.214844-.214844-.322266-.322266-.322266h-.429688c-.78776.107422-1.18164.250651-1.18164.429688l.107422.214844c.644531.250651.966797.429687.966797.537109zm-2.792969-.429687c.125325 0 .19694-.071615.214844-.214844v-.214844h-.429688v.214844c0 .125325.071615.19694.214844.214844zm5.371094 1.289062.214843-.107422c0-.143229-.429687-.39388-1.289062-.751953l-.107422.214844v.107422c0 .125325.322266.304362.966797.537109zm3.222656 2.792969.537109-.107422c-.286458-.411784-.429687-.73405-.429687-.966797 0-.429687.39388-.644531 1.18164-.644531v-.107422c0-.107422-.322265-.250651-.966797-.429688-1.324869-.286458-2.255859-.572916-2.792968-.859375l-.214844.107422h-.107422c0 .125326.214844.519206.644531 1.181641-.107422.214844-.214843.322266-.322265.322266h-.966797l-.214844-.107422-.107422.214843c.125326.304362 1.378581.769857 3.759766 1.396485zm-1.181641-1.074219c-.214844-.053711-.322265-.268555-.322265-.644531v-.107422c0-.143229.071614-.214844.214843-.214844h.107422c.179037 0 .286459.214844.322266.644531-.107422.214844-.214844.322266-.322266.322266zm5.048828 1.826172c.214844-.107422.322266-.214844.322266-.322266v-.429687c0-.59082-.107422-1.056315-.322266-1.396485-1.127929-.161132-1.772461-.304362-1.933593-.429687h-.429688l.966797.644531c.734049 0 1.163737.250651 1.289062.751953 0 .071615-.107421.429688-.322265 1.074219.161133 0 .304362.035807.429687.107422zm-32.944492-9.908977-.241.26.006.022.335254.334985-.000254.125015.07808.053108c.40338.257228 1.07568.385842 2.016901.385842.143229-.071615.250651-.107422.322265-.107422l-.107422-.214844c-.537109 0-.930989-.214844-1.18164-.644531l-.751953.107422c-.223796-.123088-.377655-.225195-.461579-.306321zm0 0 .100254-.108113-.000254-4.355887-.142617-.051632c-.113151-.034375-.229167-.057292-.348047-.06875l-.180469-.008594h-.214843v-.214844h.537109c.107422-.134277.209808-.243378.307159-.327301l.041708-.032879v-.866l-.127309-.069596c-.322266-.179037-.501302-.31033-.53711-.393881l-.006714-.029093.671133-.11143.000254-.855367-.349121-4.216308.349121-1.42334 1.047363 1.047363c1.309204 2.651978 2.940115 5.573209 4.892731 8.763695l.390652.635957-.153988-.000238v.214844c0 .143229.071614.214844.214844.214844.071614-.008952.125325-.031332.161132-.067139l.002012-.002311.183552.294597c.815362 1.304915 1.682197 2.65291 2.600505 4.043986l.463443.699128h7.70752l.28598-.263711-.275113-.006236c-3.913744-.088721-6.140126-.284575-6.679145-.587564l-.04559-.028719-.537109.214844c-.644531-.125326-.966797-.268555-.966797-.429688.769857-.19694 1.163737-.340169 1.181641-.429687.232747.143229.411784.214843.537109.214843.143229-.143229.322266-.501302.53711-1.074218.39388 0 .680338-.608724.859375-1.826172h.107421c.14323 0 .214844.071614.214844.214843v.53711c0 .107422-.071614.680338-.214844 1.71875 0 .107422.107422.214844.322266.322265l.53711-.107421c0 .143229.071614.214843.214843.214843.053711 0 .268555-.035807.644531-.107422.125326.071615.268555.107422.429688.107422.143229-.232747.214844-.447591.214844-.644531-.447591-.39388-.805664-1.038411-1.074219-1.933594v-.107422c0-.214843.143229-.322265.429687-.322265.644532 0 .966797.501302.966797 1.503906l.214844.107422c.125326-.071615.268555-.107422.429688-.107422.143229.232747.214843.411784.214843.537109l-.214843.107422h-.107422l-.429688-.322265-.107422.537109v.107422c0 .358073.179037.537109.53711.537109l.322265.214844h.214844l.322266-.214844.644531.107422.214844-.322265 1.503906.966796c.071615 0 .107422.035808.107422.107422v.214844c-.406461-.005806-.798092-.012555-1.174893-.020244l-.033744-.000768.000141.262711 3.478859-.317711.013464-.034588.025743-.038412v-.978918h-1.047363l-10.178223-18.020019c0-.948893 1.172689-3.186849 3.518067-6.713867l4.887695-9.533692c-.017904-.232747.214844-.814616.698242-1.745605h-1.047363v-.375977l-1.826172.161133h-.698242l-.349121.375977-.268555-.161133h-2.121582l-.349121-.375977v.375977l-.349121.053711-2.819824-.053711-.349122.322265-.349121-.322265c-.501302.179036-.9847.926513-1.450195 2.242431s-1.262207 2.564698-2.390137 3.746338c-2.631836 5.138347-4.261067 7.841797-4.887695 8.110352h-.349121l-.375977-3.518066.375977-2.121583-.375977-.322265v-.375977l.375977-.375976-.375977-.349121v-1.745606h-.698242v-3.544922h.698242l-.349121-1.745605h-.698242c0 .626627-.349121.859375-1.047363.698242v-1.074219l-5.532227.080567h-.349121l-.349121-.349121-1.047363.349121.349121.349121-1.047363-.429688-.349121 2.497559h.349121l-.080567 2.094726v.349121l.349121.375977h-.349121l.349121.349121-.349121 1.047363.241699.349122v.349121l-.241699 2.497558h.349121l-.349121 1.745606v4.968261l.349121 1.745606-.349121.349121.349121 2.094727v4.243164l.349121.375976h-.349121l.349121 1.047363-.349121 2.121582v.349122l.09909.107882-.018523-.000461c-.119358 0-.188983.049733-.208876.149197l-.005968.065647v.322266c0 .071614.047743.143229.143229.214844l.023138.016507.317031 4.763766v3.168945h6.311036l.349121-.322265.349121.322265h.698242l.349121-.322265.349121.322265h1.772461l-.349121-1.020507v-.349122l.349121-.375976-.000254-.224106-.017162-.013879c-.1494-.116109-.252113-.254548-.308138-.415316l-.0097-.030805-.013867-.014136.007867-.007864-.012312-.046334c-.00747-.03394-.013073-.068773-.016808-.104499l-.005602-.109858.214843-.107422c0 .02238.01119.048116.03357.07721z" transform="translate(-417 -764)"/></svg>