<!-- by TradingView --><svg width="18" height="18" viewBox="0 0 18 18" fill="none" xmlns="http://www.w3.org/2000/svg">
<rect width="18" height="18" fill="black"/>
<path fill-rule="evenodd" clip-rule="evenodd" d="M9.15661 4.00707V3.40906H8.84339V4.00867C7.59465 4.08022 6.5534 4.92632 6.19267 6.07391L5.86904 5.75028L5.64756 5.97176L5.98033 6.30453C4.90645 6.68373 4.11699 7.66533 4.01786 8.84339H3.48828V9.15661H4.00797C4.03414 10.4329 4.86867 11.5107 6.0204 11.8988L5.70318 12.2463L5.93449 12.4574L6.25113 12.1106C6.65664 13.1724 7.65622 13.9406 8.84339 14.0088V14.5789H9.15661V14.0104C10.3573 13.9541 11.3707 13.182 11.78 12.1113L12.0141 12.3337L12.2298 12.1066L12.0107 11.8984C13.1618 11.51 13.9957 10.4325 14.0219 9.15661H14.6064V8.84339H14.012C13.9118 7.65197 13.1054 6.66149 12.0129 6.29186L12.3455 5.95925L12.124 5.73777L11.8258 6.03602C11.4512 4.89842 10.4051 4.06578 9.15661 4.00707ZM8.84339 4.30922C7.72433 4.38066 6.79354 5.14453 6.47486 6.177C6.63448 6.15035 6.79842 6.13648 6.96561 6.13648C7.16822 6.13648 7.36607 6.15685 7.55724 6.19565L8.84339 4.9095V4.30922ZM9.15661 4.9095V4.30744C10.2893 4.36677 11.2343 5.13519 11.5558 6.17714C11.3959 6.1504 11.2317 6.13648 11.0643 6.13648C10.8619 6.13648 10.6642 6.15681 10.4733 6.19552L9.15661 4.9095ZM8.84339 5.33376L7.89254 6.28461C8.03693 6.33221 8.17639 6.39062 8.30999 6.4589C8.17011 6.49752 8.03488 6.54735 7.90533 6.60735C7.61316 6.49692 7.29644 6.43648 6.96561 6.43648C6.83556 6.43648 6.70768 6.44582 6.58263 6.46387L7.20211 7.08334C7.12605 7.15501 7.05424 7.23113 6.9871 7.31129L6.37033 6.69453C6.36154 6.7825 6.35704 6.87174 6.35704 6.96203C6.35704 7.19365 6.38663 7.41814 6.44215 7.63202C6.47529 7.75967 6.51768 7.8836 6.56856 8.00303C6.51419 8.13518 6.47022 8.2727 6.43765 8.41457C6.35558 8.26923 6.28545 8.11627 6.22857 7.957L5.28559 8.84339H6.37574C6.37236 8.89808 6.37065 8.95321 6.37065 9.00874C6.37065 9.05836 6.37202 9.10766 6.37472 9.15661H5.29339L6.22063 10.0839C6.27887 9.9163 6.35175 9.75559 6.43774 9.60327C6.47033 9.74518 6.51434 9.88274 6.56875 10.0149C6.43268 10.3345 6.35739 10.6862 6.35739 11.0554C6.35739 11.2037 6.36954 11.3492 6.39288 11.4909L7.04663 10.7748C7.11647 10.8527 7.19087 10.9263 7.26939 10.9954L6.60036 11.7281C6.71977 11.7446 6.8417 11.753 6.96561 11.753C7.37539 11.753 7.76352 11.6603 8.11015 11.4947C8.24404 11.5435 8.38298 11.5818 8.52598 11.6085C8.37526 11.7023 8.21549 11.7829 8.04829 11.8486L8.84339 12.6744V11.6482C8.90035 11.6519 8.9578 11.6538 9.01568 11.6538C9.06296 11.6538 9.10994 11.6525 9.15661 11.6501V12.6744L9.98213 11.8489C9.81485 11.7831 9.65502 11.7025 9.50424 11.6087C9.64733 11.582 9.78638 11.5438 9.92036 11.495C10.2668 11.6604 10.6547 11.753 11.0643 11.753C11.1721 11.753 11.2785 11.7466 11.383 11.7341L10.6791 11.0654C10.7605 10.9994 10.838 10.9287 10.911 10.8537L11.6304 11.5372C11.659 11.3809 11.6739 11.2199 11.6739 11.0554C11.6739 10.6862 11.5987 10.3345 11.4626 10.0149C11.517 9.88277 11.561 9.74522 11.5936 9.6033C11.6951 9.78314 11.7784 9.97466 11.8408 10.1753L12.8148 9.15661H11.6566C11.6593 9.10766 11.6607 9.05836 11.6607 9.00874C11.6607 8.95321 11.659 8.89808 11.6556 8.84339H12.8029L11.8044 7.95042C11.7472 8.11172 11.6765 8.26659 11.5935 8.41365C11.5609 8.27179 11.5169 8.13429 11.4624 8.00216C11.5132 7.88299 11.5554 7.75936 11.5885 7.63202C11.644 7.41814 11.6736 7.19365 11.6736 6.96203C11.6736 6.85625 11.6674 6.75191 11.6554 6.64935L11.0209 7.28382C10.9527 7.20461 10.8799 7.12949 10.8029 7.05887L11.4038 6.45797C11.2926 6.44379 11.1793 6.43648 11.0643 6.43648C10.7337 6.43648 10.4173 6.49681 10.1254 6.60704C9.99571 6.54704 9.86038 6.49723 9.72041 6.45863C9.85402 6.39038 9.9935 6.33199 10.1379 6.28442L9.15661 5.33376V6.3674C9.10994 6.36495 9.06296 6.36371 9.01568 6.36371C8.9578 6.36371 8.90035 6.36557 8.84339 6.36924V5.33376ZM13.7108 8.84339C13.6126 7.79633 12.9071 6.92581 11.9501 6.58767C11.9656 6.71028 11.9736 6.83522 11.9736 6.96203C11.9736 7.18898 11.948 7.41013 11.8995 7.62269L13.2298 8.84339H13.7108ZM13.2298 9.15661H13.7218C13.6958 10.2978 12.9506 11.2613 11.9217 11.6117C11.956 11.4315 11.9739 11.2456 11.9739 11.0554C11.9739 10.8675 11.9564 10.6836 11.9229 10.5054L11.932 10.5141L13.2298 9.15661ZM9.15661 13.71C10.2225 13.6543 11.1221 12.9708 11.4927 12.0222C11.3528 12.0425 11.2098 12.053 11.0643 12.053C10.8005 12.053 10.5448 12.0185 10.3015 11.9538L9.15661 13.0986V13.71ZM8.84339 13.0986V13.7082C7.79131 13.6409 6.90569 12.9616 6.53876 12.0225C6.67814 12.0426 6.82066 12.053 6.96561 12.053C7.22957 12.053 7.48545 12.0185 7.72898 11.9536L8.84339 13.0986ZM4.30804 9.15661C4.33411 10.2984 5.08005 11.2623 6.10972 11.6122C6.07537 11.4319 6.05739 11.2458 6.05739 11.0554C6.05739 10.8353 6.08142 10.6209 6.12701 10.4145L4.86912 9.15661H4.30804ZM4.86912 8.84339H4.31906C4.4173 7.79604 5.12317 6.92532 6.08054 6.58738C6.06503 6.71008 6.05704 6.83512 6.05704 6.96203C6.05704 7.18985 6.08282 7.41181 6.13168 7.62511L4.86912 8.84339ZM8.74291 7.00982C9.11586 6.97355 9.52177 7.03569 9.95808 7.23042C9.73194 7.23218 9.51247 7.26347 9.30337 7.32072C9.11507 7.28551 8.93737 7.27912 8.77015 7.29539C8.40564 7.33084 8.08084 7.47493 7.79621 7.67946C7.78873 7.85962 7.78872 8.05088 7.81774 8.23281C7.8253 8.2802 7.83474 8.32639 7.84635 8.3711C7.77746 8.47337 7.71559 8.58089 7.66144 8.69297C7.59769 8.56031 7.55953 8.41848 7.53719 8.27842C7.49947 8.04193 7.50524 7.7998 7.51559 7.59682L7.51901 7.5298L7.57216 7.48949C7.90138 7.23987 8.29245 7.05363 8.74291 7.00982ZM8.09596 7.90644C8.80929 8.06965 9.29175 8.49608 9.52571 8.74605C9.54721 8.74557 9.61283 8.67246 9.70334 8.38381C9.49718 8.10174 8.94553 7.78178 8.69547 7.65705C8.64698 7.6527 8.26943 7.72332 8.09596 7.90644ZM7.87384 9.8867C8.05111 9.17027 8.48396 8.69265 8.73663 8.46198C8.73663 8.44027 8.66567 8.37243 8.38182 8.27474C8.09798 8.47664 7.76903 9.02644 7.64004 9.2761C7.63466 9.32495 7.69631 9.70758 7.87384 9.8867ZM9.23669 9.51933C9.48828 9.28746 9.9189 8.8078 10.0928 8.09054C10.2712 8.2688 10.3346 8.65114 10.3295 8.70001C10.2016 8.95028 9.87526 9.50164 9.59236 9.70488C9.30806 9.60854 9.23679 9.54104 9.23669 9.51933ZM9.82963 10.1068C9.12359 9.91399 8.659 9.4678 8.43547 9.20828C8.41397 9.20786 8.34541 9.27817 8.24316 9.5628C8.4376 9.85323 8.97569 10.1959 9.22043 10.331C9.2687 10.3374 9.64881 10.2826 9.82963 10.1068ZM9.21954 10.9852C8.84747 11.0297 8.4403 10.9765 7.99989 10.7914C8.2259 10.7847 8.44461 10.7486 8.6524 10.6867C8.84145 10.7178 9.01927 10.7202 9.18612 10.7003C9.54978 10.6568 9.87139 10.5056 10.1515 10.2948C10.1551 10.1146 10.151 9.92334 10.118 9.74209C10.1094 9.69482 10.099 9.6488 10.0864 9.60431C10.153 9.50055 10.2126 9.39169 10.2643 9.27844C10.3309 9.40971 10.3722 9.55072 10.3975 9.6903C10.4404 9.92591 10.4398 10.1681 10.4339 10.3713L10.4319 10.4383L10.3796 10.4798C10.0559 10.7366 9.66895 10.9315 9.21954 10.9852ZM7.32164 7.82087C7.09217 8.24315 6.99617 8.64619 7.00012 9.02447C7.00488 9.48133 7.15528 9.89062 7.37351 10.2431L7.40874 10.3L7.47459 10.3092C7.67402 10.3369 7.91248 10.3634 8.14908 10.3457C8.28923 10.3351 8.43248 10.3089 8.56885 10.2561C8.46287 10.192 8.36205 10.1206 8.26701 10.0426C8.22187 10.0504 8.17547 10.056 8.12803 10.0596C7.94601 10.0732 7.75727 10.0569 7.58011 10.034C7.40257 9.73017 7.28811 9.39115 7.28426 9.02145C7.28249 8.85182 7.30397 8.67359 7.35482 8.48714C7.31618 8.27192 7.30405 8.04849 7.32164 7.82087ZM10.8241 9.9244C10.9929 9.47401 11.0322 9.06146 10.976 8.68751C10.9081 8.23579 10.7026 7.8517 10.4378 7.53342L10.395 7.48203L10.3286 7.48224C10.1273 7.48287 9.88748 7.49025 9.65564 7.54116C9.51834 7.57132 9.38015 7.61751 9.25242 7.689C9.36623 7.73748 9.47595 7.794 9.58085 7.85787C9.62443 7.84373 9.66959 7.8317 9.71604 7.82149C9.89439 7.78232 10.0835 7.77192 10.2621 7.76964C10.4799 8.04543 10.6401 8.365 10.6951 8.73054C10.7203 8.89819 10.7236 9.07763 10.6991 9.26932C10.7671 9.47699 10.81 9.69653 10.8241 9.9244Z" fill="white"/>
</svg>
