<svg xmlns="http://www.w3.org/2000/svg" viewBox="0 0 600 754"><path d="M44 289c-92 146-28 353 87 426s330 44 423-102c47-75 24-175-48-221-88-56-163-6-168-2 1-7 14-95-73-151-72-46-173-25-221 50zm111 72 50 32-2 4a110 110 0 0 0 186 119l2-4 51 32-3 4a169 169 0 0 1-235 52 169 169 0 0 1-52-235l3-4zm150-114c62 74 183 74 240 26s79-168 17-241a90 90 0 0 0-125-12c-44 37-30 85-29 89-3-2-48-24-92 13a90 90 0 0 0-11 125zm57-46 25-22 2 3a61 61 0 0 0 94-79l-2-2 25-22 2 3a94 94 0 0 1-11 133 94 94 0 0 1-134-12l-1-2z" fill="#ffbbd0"/></svg>
