<svg width="158" height="32" viewBox="0 0 158 32" fill="none" xmlns="http://www.w3.org/2000/svg">
<path d="M7.25628 1.47932C7.25628 1.09002 7.25627 -7.4252e-08 8.73874 -7.4252e-08C10.0652 -7.4252e-08 10.4553 0.467153 10.4553 1.47932V3.19221H19.3501C19.7402 3.19221 20.8325 3.19221 20.8325 4.59367C20.8325 5.99513 19.7402 5.99513 19.3501 5.99513H10.4553V10.0438H16.3071C18.1797 10.0438 19.272 10.6667 19.272 13.0024V18.9197C19.272 21.2555 18.2577 21.8783 16.3071 21.8783H2.96493C1.01432 21.8783 -2.38112e-06 21.2555 -2.38112e-06 18.9197V13.1582C-2.38112e-06 10.8224 1.01432 10.1995 2.96493 10.1995H7.25628V1.47932ZM16.2291 13.7032C16.2291 13.0803 15.917 12.8467 15.3708 12.8467H3.97925C3.43308 12.8467 3.12098 13.0803 3.12098 13.7032V18.2968C3.12098 18.9197 3.43308 19.2311 3.97925 19.2311H15.3708C15.917 19.2311 16.2291 18.9197 16.2291 18.2968V13.7032Z" transform="translate(114.462 1.63501)" fill="#FF41BE"/>
<path d="M3.66715 1.16788C3.66715 1.40146 3.43308 3.0365 3.43308 3.42579C3.35505 4.51582 3.27703 5.83942 3.27703 7.16302C3.27703 11.056 4.21332 15.1825 5.85183 15.1825C6.55405 15.1825 7.25628 13.7032 7.72442 12.6131C8.42664 10.9781 8.58269 10.5888 9.36293 10.5888C10.0652 10.5888 11.0014 11.056 11.0014 12.0681C11.0014 12.6131 10.2992 14.326 9.75305 15.2603C8.58269 17.4404 7.41233 18.764 5.61777 18.764C2.41876 18.764 -4.76224e-06 14.2482 -4.76224e-06 6.92944C-4.76224e-06 4.3601 0.312093 2.02433 0.390118 1.47932C0.546166 0.778589 0.624191 -1.48504e-07 1.95061 -1.48504e-07C2.5748 -1.48504e-07 3.66715 0.155718 3.66715 1.16788ZM18.8039 4.90511C19.8962 7.16302 20.7545 10.1217 20.7545 12.8467C20.7545 13.5474 20.7545 14.871 19.038 14.871C17.6335 14.871 17.5555 13.9367 17.4775 12.9246C17.1654 9.10949 16.2291 6.61801 15.0587 4.67153C14.5125 3.81509 14.3565 3.58151 14.3565 3.11436C14.3565 2.41363 15.0587 1.7129 15.917 1.7129C16.3851 1.79075 17.2434 1.79075 18.8039 4.90511Z" transform="translate(137.245 4.43787)" fill="#FF41BE"/>
<path d="M65.3065 0H2.9764e-07L5.22764 5.13869L65.3065 0Z" transform="translate(21.5352 26.8613)" fill="#FF41BE"/>
<path d="M11.8597 0.467153V1.24574C10.6113 0.467153 9.59701 7.4252e-08 8.03652 7.4252e-08C3.43308 7.4252e-08 5.95279e-07 4.12652 5.95279e-07 9.26521C5.95279e-07 14.4039 3.5111 18.5304 8.03652 18.5304C9.51898 18.5304 10.6113 18.0633 11.8597 17.2847V18.0633H15.839V0.467153H11.8597ZM8.03652 14.326C5.77381 14.326 4.1353 12.146 4.1353 9.34307C4.1353 6.54015 5.77381 4.3601 8.03652 4.3601C10.2992 4.3601 11.8597 6.54015 11.8597 9.34307C11.9377 12.146 10.2992 14.326 8.03652 14.326Z" transform="translate(15.7607 5.37231)" fill="#FF41BE"/>
<path d="M10.6113 0V10.3552C10.6113 12.3017 9.28491 13.9367 7.3343 13.9367C5.38369 13.9367 4.05727 12.3017 4.05727 10.3552V0H0V10.3552C0 14.6375 2.8869 18.0633 7.17825 18.0633C9.12886 18.0633 10.6113 16.9732 10.6113 16.9732V17.5961H14.6686V0H10.6113Z" transform="translate(49.1558 5.83948)" fill="#FF41BE"/>
<path d="M4.05727 18.0633V7.70803C4.05727 5.76156 5.38369 4.12652 7.3343 4.12652C9.28491 4.12652 10.6113 5.76156 10.6113 7.70803V18.0633H14.6686V7.70803C14.6686 3.42579 11.7817 0 7.49035 0C5.53974 0 4.05727 1.09002 4.05727 1.09002V0.389294H1.19056e-06V18.0633H4.05727Z" transform="translate(93.1611 5.45007)" fill="#FF41BE"/>
<path d="M4.21332 22.1119V15.2603H7.17825L12.3279 22.1119H17.5555L11.3135 13.8589C13.2642 12.4574 14.5125 10.1995 14.5125 7.63017C14.5125 3.42579 11.0795 -3.7126e-08 6.86615 -3.7126e-08H0V22.0341H4.21332V22.1119ZM4.21332 4.28224H6.94418C8.81676 4.28224 10.3773 5.83942 10.3773 7.70803C10.3773 9.57664 8.81676 11.1338 6.94418 11.1338H4.21332V4.28224Z" transform="translate(0 1.40149)" fill="#FF41BE"/>
<path d="M9.36293 17.9854C8.97281 18.219 8.58269 18.4526 8.03652 18.4526C7.41232 18.4526 6.16393 17.9854 6.16393 16.2725V8.72019H9.59701V4.43796H6.16393V-3.7126e-08H2.10666V4.43796H-2.38112e-06V8.64234H2.10666V16.2725C2.10666 20.2433 5.07159 22.5791 8.11454 22.5791C9.20689 22.5791 10.7674 22.1898 12.0158 21.4891L9.36293 17.9854Z" transform="translate(65.3066 1.40149)" fill="#FF41BE"/>
<path d="M7.6464 14.1703L14.5906 5.83942H8.97281L4.1353 11.9903V0H0V23.5134H4.1353V16.2725L10.0652 23.5134H15.6829L7.6464 14.1703Z" transform="translate(33.9409)" fill="#FF41BE"/>
<path d="M7.95849 0C3.27703 0 1.19056e-06 4.04866 1.19056e-06 9.26521C1.19056e-06 14.7153 4.21332 18.5304 8.34862 18.5304C10.4553 18.5304 13.1861 17.8297 15.4488 14.5596L11.9377 12.5353C9.20688 16.5839 4.60344 14.5596 4.05727 10.5109H15.6049C16.6192 4.12652 12.4839 0 7.95849 0ZM11.4696 6.92944H4.21332C5.07159 2.80292 10.6894 2.56934 11.4696 6.92944Z" transform="translate(75.9956 5.45007)" fill="#FF41BE"/>
</svg>
