<svg width="175" height="32" viewBox="0 0 175 32" fill="none" xmlns="http://www.w3.org/2000/svg">
<path d="M65.1289 0H2.96831e-07L5.21343 5.13869L65.1289 0Z" transform="translate(21.4762 26.8613)" fill="#BF0000"/>
<path d="M14.0062 7.08516C12.9947 4.90511 11.3606 3.73723 9.4153 3.73723C6.45843 3.73723 4.20187 6.92944 4.20187 10.9002C4.20187 14.9489 6.45843 18.0633 9.4153 18.0633C11.3606 18.0633 12.9947 16.8954 14.084 14.6375L17.43 16.6618C15.7181 20.0876 13.1503 21.8005 9.4153 21.8005C3.89062 21.8005 -2.37464e-06 17.2847 -2.37464e-06 10.9002C-2.37464e-06 4.67153 4.04624 -3.7126e-08 9.4931 -3.7126e-08C13.0725 -3.7126e-08 15.7181 1.79075 17.43 5.13869L14.0062 7.08516Z" transform="translate(113.762 2.18005)" fill="#BF0000"/>
<path d="M11.7497 15.6496C10.6603 16.8954 9.33749 17.5961 7.62562 17.5961C3.42375 17.5961 2.37464e-06 13.6253 2.37464e-06 8.79805C2.37464e-06 3.9708 3.50155 -1.48504e-07 7.85904 -1.48504e-07C9.4931 -1.48504e-07 10.7381 0.622871 11.7497 1.94647L12.2944 0.389294H15.7181V17.2068H12.2944L11.7497 15.6496ZM4.04624 8.72019C4.04624 11.5231 5.75811 13.781 7.93686 13.781C10.1934 13.781 11.8275 11.6788 11.8275 8.72019C11.8275 5.76156 10.1934 3.65937 7.93686 3.65937C5.6803 3.65937 4.04624 5.91727 4.04624 8.72019Z" transform="translate(132.125 6.3844)" fill="#BF0000"/>
<path d="M3.50155 1.94647C4.59093 0.70073 6.3028 2.97008e-07 8.40373 2.97008e-07V3.73723C6.53624 3.89294 5.44686 4.43796 4.66874 5.60584C4.20186 6.30657 3.96843 7.16302 3.96843 8.01946V17.2068H-2.37464e-06V0.467153H3.19031L3.50155 1.94647Z" transform="translate(150.333 6.30658)" fill="#BF0000"/>
<path d="M11.7497 20.8662C10.6603 22.1119 9.33748 22.8127 7.62561 22.8127C3.42374 22.8127 -2.37464e-06 18.8419 -2.37464e-06 14.0146C-2.37464e-06 9.18735 3.50156 5.21655 7.85905 5.21655C9.49311 5.21655 10.7381 5.83942 11.7497 7.16302V0H15.7181V22.3455H12.2944L11.7497 20.8662ZM4.04624 13.9367C4.04624 16.7397 5.75811 18.9976 7.93686 18.9976C10.1934 18.9976 11.8275 16.8954 11.8275 13.9367C11.8275 10.9781 10.1934 8.87591 7.93686 8.87591C5.6803 8.87591 4.04624 11.1338 4.04624 13.9367Z" transform="translate(159.282 1.16791)" fill="#BF0000"/>
<path d="M11.8275 0.467153V1.24574C10.5825 0.467153 9.57092 7.4252e-08 8.01467 7.4252e-08C3.42374 7.4252e-08 5.93661e-07 4.12652 5.93661e-07 9.26521C5.93661e-07 14.4039 3.50156 18.5304 8.01467 18.5304C9.49311 18.5304 10.5825 18.0633 11.8275 17.2847V18.0633H15.7959V0.467153H11.8275ZM8.01467 14.326C5.75811 14.326 4.12405 12.146 4.12405 9.34307C4.12405 6.54015 5.75811 4.3601 8.01467 4.3601C10.2712 4.3601 11.8275 6.54015 11.8275 9.34307C11.9053 12.146 10.2712 14.326 8.01467 14.326Z" transform="translate(15.7181 5.37225)" fill="#BF0000"/>
<path d="M10.5825 0V10.3552C10.5825 12.3017 9.25967 13.9367 7.31436 13.9367C5.36905 13.9367 4.04624 12.3017 4.04624 10.3552V0H0V10.3552C0 14.6375 2.87906 18.0633 7.15873 18.0633C9.10404 18.0633 10.5825 16.9732 10.5825 16.9732V17.5961H14.6287V0H10.5825Z" transform="translate(49.0219 5.83942)" fill="#BF0000"/>
<path d="M4.04624 18.0633V7.70803C4.04624 5.76156 5.36906 4.12652 7.31436 4.12652C9.25967 4.12652 10.5825 5.76156 10.5825 7.70803V18.0633H14.6287V7.70803C14.6287 3.42579 11.7497 0 7.46999 0C5.52468 0 4.04624 1.09002 4.04624 1.09002V0.389294H1.18732e-06V18.0633H4.04624Z" transform="translate(92.908 5.45013)" fill="#BF0000"/>
<path d="M4.20187 22.1119V15.2603H7.15874L12.2944 22.1119H17.5078L11.2828 13.8589C13.2281 12.4574 14.4731 10.1995 14.4731 7.63017C14.4731 3.42579 11.0494 -3.7126e-08 6.84749 -3.7126e-08H0V22.0341H4.20187V22.1119ZM4.20187 4.28224H6.9253C8.7928 4.28224 10.349 5.83942 10.349 7.70803C10.349 9.57664 8.7928 11.1338 6.9253 11.1338H4.20187V4.28224Z" transform="translate(0 1.40143)" fill="#BF0000"/>
<path d="M9.33748 17.9854C8.94842 18.219 8.55936 18.4526 8.01467 18.4526C7.39217 18.4526 6.14718 17.9854 6.14718 16.2725V8.72019H9.57092V4.43796H6.14718V-3.7126e-08H2.10093V4.43796H-2.37464e-06V8.64233H2.10093V16.2725C2.10093 20.2433 5.0578 22.5791 8.09248 22.5791C9.18186 22.5791 10.7381 22.1898 11.9831 21.489L9.33748 17.9854Z" transform="translate(65.1289 1.40143)" fill="#BF0000"/>
<path d="M7.62561 14.1703L14.5509 5.83942H8.94842L4.12405 11.9903V0H0V23.5134H4.12405V16.2725L10.0378 23.5134H15.6403L7.62561 14.1703Z" transform="translate(33.8484)" fill="#BF0000"/>
<path d="M7.93686 0C3.26812 0 1.18732e-06 4.04866 1.18732e-06 9.26521C1.18732e-06 14.7153 4.20187 18.5304 8.32592 18.5304C10.4269 18.5304 13.1503 17.8297 15.4068 14.5596L11.9053 12.5353C9.18186 16.5839 4.59093 14.5596 4.04624 10.5109H15.5625C16.574 4.12652 12.45 0 7.93686 0ZM11.4384 6.92944H4.20187C5.05781 2.80292 10.6603 2.56934 11.4384 6.92944Z" transform="translate(75.7892 5.45013)" fill="#BF0000"/>
</svg>
