<?xml version="1.0" encoding="UTF-8"?>
<svg width="156px" height="32px" viewBox="0 0 156 32" version="1.1" xmlns="http://www.w3.org/2000/svg" xmlns:xlink="http://www.w3.org/1999/xlink">
    <!-- Generator: Sketch 51.3 (57544) - http://www.bohemiancoding.com/sketch -->
    <title>Artboard</title>
    <desc>Created with Sketch.</desc>
    <defs></defs>
    <g id="Artboard" stroke="none" stroke-width="1" fill="none" fill-rule="evenodd">
        <g id="Group" transform="translate(1.000000, 0.000000)" fill="#BF0000">
            <polygon id="Fill-1" points="21.0630857 26.2650667 26.1381333 31.3401143 84.7781333 26.2650667"></polygon>
            <path d="M23.2682667,19.2864762 C21.0671238,19.2864762 19.4556952,17.1188571 19.4556952,14.3813333 C19.4556952,11.6453333 21.0671238,9.47771429 23.2682667,9.47771429 C25.4716952,9.47771429 27.025219,11.6453333 27.025219,14.3813333 C27.025219,17.1188571 25.4716952,19.2864762 23.2682667,19.2864762 Z M26.9650286,5.736 L26.9650286,6.5032381 C25.7817905,5.74971429 24.721219,5.31161905 23.2682667,5.31161905 C18.8042667,5.31161905 15.4130286,9.38171429 15.4130286,14.3813333 C15.4130286,19.3817143 18.8042667,23.4495238 23.2682667,23.4495238 C24.721219,23.4495238 25.7817905,23.0137143 26.9650286,22.2586667 L26.9650286,23.0251429 L30.8888381,23.0251429 L30.8888381,5.736 L26.9650286,5.736 Z" id="Fill-2"></path>
            <path d="M58.3973333,5.73622857 L58.3973333,15.892419 C58.3973333,17.7979429 57.0891429,19.4063238 55.1820952,19.4063238 C53.2773333,19.4063238 51.967619,17.7979429 51.967619,15.892419 L51.967619,5.73622857 L48.0438095,5.73622857 L48.0438095,15.892419 C48.0438095,20.0592762 50.8940952,23.4497524 55.0624762,23.4497524 C56.992381,23.4497524 58.3973333,22.3823238 58.3973333,22.3823238 L58.3973333,23.0253714 L62.3211429,23.0253714 L62.3211429,5.73622857 L58.3973333,5.73622857 Z" id="Fill-4"></path>
            <path d="M94.9594667,23.0252952 L94.9594667,12.8691048 C94.9594667,10.963581 96.268419,9.3552 98.1747048,9.3552 C100.079467,9.3552 101.389181,10.963581 101.389181,12.8691048 L101.389181,23.0252952 L105.31299,23.0252952 L105.31299,12.8691048 C105.31299,8.70148571 102.462705,5.31100952 98.2943238,5.31100952 C96.364419,5.31100952 94.9594667,6.3792 94.9594667,6.3792 L94.9594667,5.73615238 L91.0356571,5.73615238 L91.0356571,23.0252952 L94.9594667,23.0252952 Z" id="Fill-6"></path>
            <path d="M4.10384762,5.52860952 L6.78194286,5.52860952 C8.62499048,5.52860952 10.1320381,7.02727619 10.1320381,8.87413333 C10.1320381,10.7255619 8.62499048,12.2234667 6.78194286,12.2234667 L4.10384762,12.2234667 L4.10384762,5.52860952 Z M4.10384762,23.0249905 L4.10384762,16.3270857 L7.00670476,16.3270857 L12.0314667,23.0249905 L17.1689905,23.0249905 L11.0966095,14.9427048 C12.989181,13.5842286 14.2318476,11.3754667 14.2318476,8.87413333 C14.2318476,4.76518095 10.8908952,1.4280381 6.78194286,1.4280381 L0.000228571429,1.4280381 L0.000228571429,23.0249905 L4.10384762,23.0249905 Z" id="Fill-8"></path>
            <path d="M72.8969905,18.9341714 C72.5449905,19.1734095 72.1000381,19.3600762 71.5849905,19.3600762 C70.9442286,19.3600762 69.7350857,18.8701714 69.7350857,17.2381714 L69.7350857,9.83931429 L73.0905143,9.83931429 L73.0905143,5.73645714 L69.7350857,5.73645714 L69.7350857,1.42712381 L65.8112762,1.42712381 L65.8112762,5.73645714 L63.7358476,5.73645714 L63.7358476,9.83931429 L65.8112762,9.83931429 L65.8112762,17.2983619 C65.8097524,21.1589333 68.7187048,23.465219 71.644419,23.465219 C72.7354667,23.465219 74.2486095,23.1078857 75.4836571,22.3764571 L72.8969905,18.9341714 Z" id="Fill-10"></path>
            <polygon id="Fill-12" points="40.6440381 13.840381 47.3747048 5.736 41.8745143 5.736 37.1667048 11.7588571 37.1667048 -0.000380952381 33.1263238 -0.000380952381 33.1263238 23.0251429 37.1667048 23.0251429 37.1667048 15.9234286 42.9541333 23.0251429 48.4520381 23.0251429"></polygon>
            <path d="M85.3858286,12.149181 L78.3191619,12.149181 C79.1450667,8.09965714 84.6216381,7.86727619 85.3858286,12.149181 M81.9603048,5.29737143 C77.4185905,5.29737143 74.1614476,9.28822857 74.1614476,14.3808 C74.1614476,19.7354667 78.2505905,23.4657524 82.3504,23.4657524 C84.4197333,23.4657524 87.0719238,22.7556571 89.2997333,19.5952762 L85.8338286,17.5937524 C83.1534476,21.5449905 78.6864,19.5396571 78.1705905,15.588419 L89.4734476,15.5914667 C90.4403048,9.38118095 86.4250667,5.29737143 81.9603048,5.29737143" id="Fill-15"></path>
            <path d="M119.249295,18.9378286 L117.372724,18.9378286 L117.372724,13.8643048 L119.314819,13.8643048 C121.293486,13.8643048 123.548724,14.0822095 123.548724,16.4349714 C123.548724,18.6277333 121.353676,18.9378286 119.249295,18.9378286 Z M117.372724,5.50925714 L119.217295,5.50925714 C121.138057,5.50925714 122.993295,5.69668571 122.993295,7.67382857 C122.993295,9.49935238 121.043581,9.9664 119.157867,9.9664 L117.372724,9.9664 L117.372724,5.50925714 Z M124.942248,12.0105905 L124.942248,11.9473524 C127.354438,11.1412571 128.75101,9.62354286 128.75101,6.90506667 C128.75101,3.18925714 125.746819,1.42773333 121.725486,1.42773333 L111.792533,1.42773333 L111.792533,23.0254476 L120.888914,23.0254476 C124.757105,23.0254476 129.301105,21.9389714 129.301105,16.774019 C129.301105,14.1431619 127.819962,12.5972571 124.942248,12.0105905 Z" id="Fill-17"></path>
            <path d="M132.633143,23.0253714 L137.433143,23.0253714 L137.433143,8.34346667 L132.633143,8.34346667 L132.633143,23.0253714 Z M132.633143,6.22765714 L137.433143,6.22765714 L137.433143,1.42765714 L132.633143,1.42765714 L132.633143,6.22765714 Z" id="Fill-19"></path>
            <path d="M153.967695,18.867581 C153.062552,19.219581 151.678171,19.6401524 150.227505,19.6401524 C147.295695,19.6401524 145.400838,17.8694857 145.400838,15.1289143 C145.400838,12.3517714 147.206552,10.4858667 149.895314,10.4858667 C151.242362,10.4858667 152.4736,10.8157714 153.770362,11.5251048 L154.240457,11.7818667 L154.654171,7.62567619 L154.374552,7.54262857 C153.098362,7.16472381 151.411505,6.7312 149.672838,6.7312 C143.968457,6.7312 140.424838,9.94872381 140.424838,15.1289143 C140.424838,21.2302476 145.419124,23.3940571 149.696457,23.3940571 C151.800838,23.3940571 153.128076,23.0710095 154.299124,22.7860571 L154.668648,22.6953905 L154.420267,18.691581 L153.967695,18.867581 Z" id="Fill-21"></path>
        </g>
    </g>
</svg>