<svg width="190" height="32" viewBox="0 0 190 32" fill="none" xmlns="http://www.w3.org/2000/svg">
<path d="M17.7198 18.6083C15.6122 20.7883 13.0362 21.8783 9.91373 21.8783C4.13723 21.8783 4.76445e-06 17.3625 4.76445e-06 10.9781C4.76445e-06 4.82725 4.13722 3.7126e-08 9.44536 3.7126e-08C12.802 3.7126e-08 15.6902 1.86861 17.4076 5.13869L13.9729 7.16302C12.9581 4.98297 11.3188 3.81509 9.3673 3.81509C6.40099 3.81509 4.21528 6.92944 4.21528 10.9781C4.21528 15.1046 6.55711 18.1411 9.91373 18.1411C11.553 18.1411 12.88 17.5961 13.8168 16.5839V13.8589H9.75761V10.1217H17.7198V18.6083Z" transform="translate(114.047 2.10217)" fill="#BF0000"/>
<path d="M18.2662 10.9013C18.2662 17.4414 14.5974 21.8015 9.13312 21.8015C3.66886 21.8015 -4.76445e-06 17.4414 -4.76445e-06 10.9013C-4.76445e-06 4.36111 3.66886 0.00100831 9.21117 0.00100831C14.5974 -0.0768506 18.2662 4.36111 18.2662 10.9013ZM4.29334 10.9013C4.29334 15.3392 6.16681 18.0643 9.13312 18.0643C12.0994 18.0643 13.9729 15.2613 13.9729 10.9013C13.9729 6.30758 12.1775 3.73823 9.05505 3.73823C6.08874 3.66038 4.29334 6.30758 4.29334 10.9013Z" transform="translate(133.796 2.17896)" fill="#BF0000"/>
<path d="M-4.76445e-06 20.944V-3.7126e-08H6.63517C10.8504 -3.7126e-08 14.129 3.11436 14.129 7.08516C14.129 9.88808 13.0362 11.8346 10.9285 12.8467L16.1586 20.944H11.0846L7.10353 14.1703H3.9811V20.944H-4.76445e-06ZM3.9811 10.4331H6.55711C8.35251 10.4331 9.83566 8.87591 9.83566 7.08516C9.83566 5.21655 8.35251 3.73723 6.55711 3.73723H3.9811V10.4331Z" transform="translate(154.092 2.56934)" fill="#BF0000"/>
<path d="M13.2703 16.7397H5.54232L4.29334 20.944H-2.38223e-06L6.79129 -3.7126e-08H12.0994L18.8907 20.944H14.5974L13.2703 16.7397ZM12.0214 13.0024L9.3673 3.89294L6.79129 13.0024H12.0214Z" transform="translate(171.109 2.56934)" fill="#BF0000"/>
<path d="M65.3369 0H2.97778e-07L5.23007 5.13869L65.3369 0Z" transform="translate(21.5448 26.8613)" fill="#BF0000"/>
<path d="M11.8652 0.467153V1.24574C10.6163 0.467153 9.60148 7.4252e-08 8.04026 7.4252e-08C3.43468 7.4252e-08 5.95557e-07 4.12652 5.95557e-07 9.26521C5.95557e-07 14.4039 3.51274 18.5304 8.04026 18.5304C9.52342 18.5304 10.6163 18.0633 11.8652 17.2847V18.0633H15.8463V0.467153H11.8652ZM8.04026 14.326C5.7765 14.326 4.13722 12.146 4.13722 9.34307C4.13722 6.54015 5.7765 4.3601 8.04026 4.3601C10.304 4.3601 11.8652 6.54015 11.8652 9.34307C11.9433 12.146 10.304 14.326 8.04026 14.326Z" transform="translate(15.7683 5.37231)" fill="#BF0000"/>
<path d="M10.6163 0V10.3552C10.6163 12.3017 9.28924 13.9367 7.33772 13.9367C5.3862 13.9367 4.05916 12.3017 4.05916 10.3552V0H0V10.3552C0 14.6375 2.88825 18.0633 7.18159 18.0633C9.13311 18.0633 10.6163 16.9732 10.6163 16.9732V17.5961H14.6754V0H10.6163Z" transform="translate(49.1783 5.83948)" fill="#BF0000"/>
<path d="M4.05916 18.0633V7.70803C4.05916 5.76156 5.3862 4.12652 7.33772 4.12652C9.28924 4.12652 10.6163 5.76156 10.6163 7.70803V18.0633H14.6754V7.70803C14.6754 3.42579 11.7872 0 7.49384 0C5.54232 0 4.05916 1.09002 4.05916 1.09002V0.389294H1.19111e-06V18.0633H4.05916Z" transform="translate(93.2046 5.45007)" fill="#BF0000"/>
<path d="M4.21528 22.1119V15.2603H7.1816L12.3336 22.1119H17.5637L11.3188 13.8589C13.2703 12.4574 14.5193 10.1995 14.5193 7.63017C14.5193 3.42579 11.0846 -3.7126e-08 6.86935 -3.7126e-08H0V22.0341H4.21528V22.1119ZM4.21528 4.28224H6.94741C8.82087 4.28224 10.3821 5.83942 10.3821 7.70803C10.3821 9.57664 8.82087 11.1338 6.94741 11.1338H4.21528V4.28224Z" transform="translate(0 1.40149)" fill="#BF0000"/>
<path d="M9.3673 17.9854C8.97699 18.219 8.58669 18.4526 8.04026 18.4526C7.41578 18.4526 6.1668 17.9854 6.1668 16.2725V8.72019H9.60148V4.43796H6.1668V-3.7126e-08H2.10764V4.43796H-2.38223e-06V8.64233H2.10764V16.2725C2.10764 20.2433 5.07395 22.5791 8.11832 22.5791C9.21117 22.5791 10.7724 22.1898 12.0214 21.489L9.3673 17.9854Z" transform="translate(65.3369 1.40149)" fill="#BF0000"/>
<path d="M7.64996 14.1703L14.5974 5.83942H8.97699L4.13722 11.9903V0H0V23.5134H4.13722V16.2725L10.0698 23.5134H15.6902L7.64996 14.1703Z" transform="translate(33.9565)" fill="#BF0000"/>
<path d="M7.9622 0C3.27855 0 1.19111e-06 4.04866 1.19111e-06 9.26521C1.19111e-06 14.7153 4.21528 18.5304 8.35251 18.5304C10.4601 18.5304 13.1923 17.8297 15.456 14.5596L11.9433 12.5353C9.21117 16.5839 4.60559 14.5596 4.05916 10.5109H15.6122C16.627 4.12652 12.4897 0 7.9622 0ZM11.4749 6.92944H4.21529C5.07396 2.80292 10.6943 2.56934 11.4749 6.92944Z" transform="translate(76.0312 5.45007)" fill="#BF0000"/>
</svg>
