<svg width="211" height="32" viewBox="0 0 211 32" fill="none" xmlns="http://www.w3.org/2000/svg">
<path d="M6.32263 9.42093C4.21509 10.9781 1.56114 11.9903 0.780571 12.3017L0 9.26521C3.12228 8.25304 4.83954 7.16302 5.54206 6.618L6.32263 9.42093ZM9.99131 11.6788H6.55679V1.55718H9.44491C9.60102 1.16788 9.67908 1.09002 9.99131 3.7126e-08H13.1916C13.0355 0.545012 12.8014 1.01217 12.6452 1.55718H16.5481V11.6788H12.9575V12.8467H22.6365V15.5718H15.2992C16.8603 16.6618 19.4362 18.0633 22.9488 19.1533L21.3096 22.0341C20.0607 21.489 16.1578 19.7762 12.9575 16.6618V22.4234H10.0694V16.8954C7.02513 19.6983 3.66869 21.1776 1.6392 22.0341L0.0780618 19.1533C4.44926 17.9075 7.02513 16.2725 7.96182 15.5718H0.390285V12.8467H10.0694V11.6788H9.99131ZM1.95143 0.934307C3.43451 1.63504 4.99565 2.6472 6.24456 3.73723L4.52731 6.15085C3.2784 4.90511 1.95143 4.04866 0.390285 3.27007L1.95143 0.934307ZM9.28878 3.81509V5.52798H13.8161V3.81509H9.28878ZM9.28878 7.47445V9.26521H13.8161V7.47445H9.28878ZM18.1092 6.38443C19.2801 6.92944 21.4657 8.17518 23.1829 9.6545L21.3096 12.3017C20.3729 11.2895 19.0459 10.1995 16.5481 8.79805L18.1092 6.38443ZM22.6365 2.72506C21.6218 3.9708 19.9826 5.45012 18.8118 6.38443L16.9384 4.20438C19.2801 2.33577 20.1387 1.3236 20.6071 0.778589L22.6365 2.72506Z" transform="translate(114.354 1.71289)" fill="#BF0000"/>
<path d="M9.91324 7.78589C9.9913 7.08516 9.9913 6.77372 9.9913 5.91728V2.80292H0.468345V3.7126e-08H22.7927V2.80292H13.0355V5.83942C13.0355 6.69586 13.0355 6.92944 12.9575 7.78589H22.0901V10.5888H13.66C14.9089 14.5596 18.8118 17.0511 23.1049 18.6083L21.3096 21.6448C16.47 19.5426 13.0355 16.3504 11.6305 12.7689C9.52297 17.674 5.15177 20.1655 1.79531 21.6448L-2.38211e-06 18.6083C4.29314 17.3625 7.88377 15.0268 9.28879 10.5888H1.0928V7.78589H9.91324Z" transform="translate(138.707 2.49152)" fill="#BF0000"/>
<path d="M7.88376 12.6131C6.94707 13.0024 6.40068 13.3139 5.69817 13.5474V20.1655C5.69817 21.0998 5.46399 22.3455 3.20033 22.3455H0.780573L0.390288 19.3869H2.1856C2.81006 19.3869 2.88811 19.309 2.88811 18.764V14.4818C2.10754 14.7153 1.6392 14.871 0.390288 15.1825L2.38211e-06 12.146C0.780573 11.9903 1.32697 11.8346 2.88811 11.4453V6.69586H0.156114V3.9708H2.88811V7.4252e-08H5.69817V4.04866H7.88376V6.69586H5.69817V10.5888C6.79097 10.1995 7.18125 10.0438 7.72765 9.81022L7.88376 12.6131ZM21.4657 22.5012C19.5923 21.8783 17.719 20.944 16.3139 19.854L17.8751 18.0633H12.4111L13.9722 19.6983C11.8647 21.4891 8.89851 22.1898 8.03988 22.4234L6.79096 19.9319C7.64959 19.7762 10.3035 19.309 12.1769 18.0633H8.66433V7.16302H22.0121V18.0633H18.0312C19.7484 19.1533 21.2315 19.5426 22.8707 19.9319L21.4657 22.5012ZM21.5437 6.15085H9.13268V0.70073H21.5437V6.15085ZM19.202 9.26521H11.4744V10.4331H19.202V9.26521ZM19.202 12.146H11.4744V13.3139H19.202V12.146ZM19.202 15.0268H11.4744V16.2725H19.202V15.0268ZM18.6556 2.80292H11.9427V4.28224H18.6556V2.80292Z" transform="translate(163.373 1.86865)" fill="#BF0000"/>
<path d="M2.26366 11.5231C1.71726 12.2238 1.56114 12.3796 1.01474 13.0024L-4.76422e-06 9.03163C2.88811 5.45012 3.51257 1.16788 3.66869 -3.7126e-08L6.63485 0.311436C6.47873 1.40146 6.16651 3.50365 5.15177 6.15085V22.3455H2.26366V11.5231ZM5.69816 18.8419C6.94708 18.1411 9.4449 16.7397 11.7866 13.3917H6.47873V10.6667H13.1136V8.72019H7.88376V0.70073H21.4657V8.72019H16.0017V10.6667H22.6365V13.3139H17.4067C19.2801 16.2725 21.3096 17.7518 23.0268 18.9197L21.3096 21.5669C20.2948 20.7883 17.8751 18.9976 16.0017 15.6496V22.3455H13.1916V15.7275C10.6938 19.3869 8.50822 20.7883 7.49348 21.4112L5.69816 18.8419ZM10.6938 3.27007V6.22871H18.5776V3.27007H10.6938Z" transform="translate(187.259 1.79071)" fill="#BF0000"/>
<path d="M65.3338 0H2.97764e-07L5.22982 5.13869L65.3338 0Z" transform="translate(21.5438 26.8613)" fill="#BF0000"/>
<path d="M11.8647 0.467153V1.24574C10.6158 0.467153 9.60102 7.4252e-08 8.03988 7.4252e-08C3.43451 7.4252e-08 5.95528e-07 4.12652 5.95528e-07 9.26521C5.95528e-07 14.4039 3.51257 18.5304 8.03988 18.5304C9.52296 18.5304 10.6158 18.0633 11.8647 17.2847V18.0633H15.8456V0.467153H11.8647ZM8.03988 14.326C5.77622 14.326 4.13702 12.146 4.13702 9.34307C4.13702 6.54015 5.77622 4.3601 8.03988 4.3601C10.3035 4.3601 11.8647 6.54015 11.8647 9.34307C11.9427 12.146 10.3035 14.326 8.03988 14.326Z" transform="translate(15.7675 5.37225)" fill="#BF0000"/>
<path d="M10.6158 0V10.3552C10.6158 12.3017 9.28879 13.9367 7.33736 13.9367C5.38594 13.9367 4.05896 12.3017 4.05896 10.3552V0H0V10.3552C0 14.6375 2.88811 18.0633 7.18125 18.0633C9.13267 18.0633 10.6158 16.9732 10.6158 16.9732V17.5961H14.6747V0H10.6158Z" transform="translate(49.1759 5.83942)" fill="#BF0000"/>
<path d="M4.05897 18.0633V7.70803C4.05897 5.76156 5.38594 4.12652 7.33737 4.12652C9.28879 4.12652 10.6158 5.76156 10.6158 7.70803V18.0633H14.6747V7.70803C14.6747 3.42579 11.7866 0 7.49348 0C5.54205 0 4.05897 1.09002 4.05897 1.09002V0.389294H1.19106e-06V18.0633H4.05897Z" transform="translate(93.2001 5.45013)" fill="#BF0000"/>
<path d="M4.21508 22.1119V15.2603H7.18125L12.333 22.1119H17.5628L11.3183 13.8589C13.2697 12.4574 14.5186 10.1995 14.5186 7.63017C14.5186 3.42579 11.0841 -3.7126e-08 6.86902 -3.7126e-08H0V22.0341H4.21508V22.1119ZM4.21508 4.28224H6.94708C8.82045 4.28224 10.3816 5.83942 10.3816 7.70803C10.3816 9.57664 8.82045 11.1338 6.94708 11.1338H4.21508V4.28224Z" transform="translate(0 1.40143)" fill="#BF0000"/>
<path d="M9.36685 17.9854C8.97656 18.219 8.58628 18.4526 8.03988 18.4526C7.41542 18.4526 6.16651 17.9854 6.16651 16.2725V8.72019H9.60102V4.43796H6.16651V-3.7126e-08H2.10754V4.43796H-2.38211e-06V8.64233H2.10754V16.2725C2.10754 20.2433 5.07371 22.5791 8.11793 22.5791C9.21073 22.5791 10.7719 22.1898 12.0208 21.489L9.36685 17.9854Z" transform="translate(65.3337 1.40143)" fill="#BF0000"/>
<path d="M7.64959 14.1703L14.5967 5.83942H8.97656L4.13702 11.9903V0H0V23.5134H4.13702V16.2725L10.0694 23.5134H15.6895L7.64959 14.1703Z" transform="translate(33.9548)" fill="#BF0000"/>
<path d="M7.96182 0C3.2784 0 1.19106e-06 4.04866 1.19106e-06 9.26521C1.19106e-06 14.7153 4.21508 18.5304 8.3521 18.5304C10.4596 18.5304 13.1916 17.8297 15.4553 14.5596L11.9427 12.5353C9.21073 16.5839 4.60536 14.5596 4.05897 10.5109H15.6114C16.6262 4.12652 12.4891 0 7.96182 0ZM11.4744 6.92944H4.21508C5.07371 2.80292 10.6938 2.56934 11.4744 6.92944Z" transform="translate(76.0275 5.45013)" fill="#BF0000"/>
</svg>
