<svg width="192" height="32" viewBox="0 0 192 32" fill="none" xmlns="http://www.w3.org/2000/svg">
<path d="M13.2977 7.86375H19.5188C19.9077 7.86375 21.3074 7.86375 21.3074 9.73236C21.3074 11.2895 20.2965 11.5231 19.5188 11.5231H13.2199C12.9866 13.781 12.5201 15.9611 10.4982 18.219C9.64278 19.2311 7.46537 21.2555 5.98785 21.2555C4.74362 21.2555 3.88822 20.0876 3.88822 19.1533C3.88822 18.3747 4.3548 17.9854 5.28797 17.3625C6.92102 16.2725 8.86513 14.7153 9.33172 11.4453H1.78857C0.933167 11.4453 4.74636e-06 11.1338 4.74636e-06 9.6545C4.74636e-06 7.78589 1.39975 7.78589 1.78857 7.78589H9.40948V5.45012C7.69866 5.76156 5.28797 6.15085 4.04375 6.15085C2.56622 6.15085 2.1774 4.90511 2.1774 4.12652C2.1774 2.72506 3.2661 2.56934 4.3548 2.49148C8.08748 2.10219 10.8092 1.63504 13.4532 0.778589C15.5529 0.0778589 15.7861 0 16.175 0C17.3414 0 17.9635 1.16788 17.9635 2.02433C17.9635 2.88078 17.2637 3.27007 16.175 3.65937C15.3973 3.89294 14.2309 4.28224 13.2977 4.51582V7.86375V7.86375Z" transform="translate(113.614 2.72498)" fill="#7D00BE"/>
<path d="M6.06562 8.25304C4.58809 10.6667 3.34387 12.691 2.02188 12.691C1.01094 12.691 0 11.8346 0 10.8224C0 10.2774 0.155531 9.96594 1.01094 8.87591C2.95504 6.30657 4.1215 4.12652 5.2102 1.3236C5.4435 0.778589 5.75456 -7.4252e-08 6.84326 -7.4252e-08C7.15432 -7.4252e-08 8.94289 0.155718 8.94289 1.63504C8.94289 2.33577 8.24301 3.81509 7.93195 4.59367H19.0522C20.6075 4.59367 20.9186 5.6837 20.9186 6.46229C20.9186 7.24088 20.6075 8.3309 19.0522 8.3309H14.6974C14.6197 13.3139 13.2199 16.0389 11.6646 17.9854C10.6537 19.2311 8.39854 21.4891 6.92102 21.4891C5.83232 21.4891 4.82138 20.5547 4.82138 19.3869C4.82138 18.764 5.05468 18.4526 6.06562 17.674C9.09842 15.3382 10.4982 12.691 10.6537 8.25304H6.06562V8.25304Z" transform="translate(136.476 2.80298)" fill="#7D00BE"/>
<path d="M1.86634 1.16788C2.64399 1.16788 2.95504 1.63504 3.57716 2.6472C4.82138 4.74939 5.05467 5.2944 5.05467 5.76156C5.05467 6.69586 4.04374 7.31874 3.18834 7.31874C2.41069 7.31874 2.25516 7.08516 1.39975 5.45012C1.24423 5.13869 0.466583 3.89294 0.23329 3.34793C0.0777619 3.0365 -4.74635e-06 2.80292 -4.74635e-06 2.56934C-4.74635e-06 1.55718 1.32199 1.16788 1.86634 1.16788ZM12.7533 11.5231C9.7983 15.2603 5.59903 16.6618 4.74362 16.6618C3.88821 16.6618 3.11057 15.7275 3.11057 14.7932C3.11057 13.9367 3.42163 13.781 4.97692 13.0803C7.23208 12.0681 11.5091 9.88808 12.7533 2.88078C13.0644 1.24574 13.2977 0.545012 14.5419 0.545012C15.4751 0.545012 16.4083 1.01217 16.4083 2.10219C16.4083 3.19221 15.4751 8.09732 12.7533 11.5231ZM6.68773 -1.48504e-07C7.46537 -1.48504e-07 7.85419 0.467153 8.55407 1.79075C9.02065 2.56934 9.72053 4.04866 9.72053 4.67153C9.72053 5.76156 8.63184 6.22871 7.93196 6.22871C7.07655 6.22871 6.92102 5.83942 6.14338 4.3601C5.83232 3.73723 5.52126 3.0365 5.05467 2.33577C4.89914 2.10219 4.74362 1.79075 4.74362 1.47932C4.89915 0.545012 5.91009 -1.48504e-07 6.68773 -1.48504e-07Z" transform="translate(158.95 7.55237)" fill="#7D00BE"/>
<path d="M3.96598 19.854C3.96598 20.399 3.96598 21.8005 2.02187 21.8005C0.155526 21.8005 4.74635e-06 20.6326 4.74635e-06 19.854V1.94647C4.74635e-06 1.40146 -2.22485e-06 -3.7126e-08 2.02187 -3.7126e-08C3.96598 -3.7126e-08 3.96598 1.3236 3.96598 1.94647V6.61801C6.92102 7.94161 9.7983 9.26521 12.4423 11.056C13.2977 11.601 13.842 12.146 13.842 12.9246C13.842 14.0146 13.0644 15.1046 11.8979 15.1046C11.2758 15.1046 10.8092 14.871 9.565 14.0146C7.93195 12.9246 5.52126 11.6788 3.96598 10.9781V19.854V19.854Z" transform="translate(178.158 2.56934)" fill="#7D00BE"/>
<path d="M65.0887 0H2.96647e-07L5.21021 5.13869L65.0887 0Z" transform="translate(21.4629 26.8613)" fill="#7D00BE"/>
<path d="M11.8202 0.467153V1.24574C10.5759 0.467153 9.56501 7.4252e-08 8.00972 7.4252e-08C3.42163 7.4252e-08 5.93294e-07 4.12652 5.93294e-07 9.26521C5.93294e-07 14.4039 3.49939 18.5304 8.00972 18.5304C9.48724 18.5304 10.5759 18.0633 11.8202 17.2847V18.0633H15.7861V0.467153H11.8202ZM8.00972 14.326C5.75456 14.326 4.12151 12.146 4.12151 9.34307C4.12151 6.54015 5.75456 4.3601 8.00972 4.3601C10.2649 4.3601 11.8202 6.54015 11.8202 9.34307C11.8979 12.146 10.2649 14.326 8.00972 14.326Z" transform="translate(15.7085 5.37231)" fill="#7D00BE"/>
<path d="M10.5759 0V10.3552C10.5759 12.3017 9.25395 13.9367 7.30984 13.9367C5.36574 13.9367 4.04374 12.3017 4.04374 10.3552V0H0V10.3552C0 14.6375 2.87728 18.0633 7.15431 18.0633C9.09842 18.0633 10.5759 16.9732 10.5759 16.9732V17.5961H14.6197V0H10.5759Z" transform="translate(48.9915 5.83948)" fill="#7D00BE"/>
<path d="M4.04374 18.0633V7.70803C4.04374 5.76156 5.36574 4.12652 7.30984 4.12652C9.25395 4.12652 10.5759 5.76156 10.5759 7.70803V18.0633H14.6197V7.70803C14.6197 3.42579 11.7424 0 7.46537 0C5.52126 0 4.04374 1.09002 4.04374 1.09002V0.389294H1.18659e-06V18.0633H4.04374Z" transform="translate(92.8508 5.45007)" fill="#7D00BE"/>
<path d="M4.19927 22.1119V15.2603H7.15431L12.2868 22.1119H17.497L11.2758 13.8589C13.2199 12.4574 14.4642 10.1995 14.4642 7.63017C14.4642 3.42579 11.0425 -3.7126e-08 6.84326 -3.7126e-08H0V22.0341H4.19927V22.1119ZM4.19927 4.28224H6.92102C8.78736 4.28224 10.3426 5.83942 10.3426 7.70803C10.3426 9.57664 8.78736 11.1338 6.92102 11.1338H4.19927V4.28224Z" transform="translate(0 1.40149)" fill="#7D00BE"/>
<path d="M9.33171 17.9854C8.94289 18.219 8.55407 18.4526 8.00972 18.4526C7.38761 18.4526 6.14338 17.9854 6.14338 16.2725V8.72019H9.56501V4.43796H6.14338V-3.7126e-08H2.09964V4.43796H-2.37318e-06V8.64234H2.09964V16.2725C2.09964 20.2433 5.05468 22.5791 8.08748 22.5791C9.17618 22.5791 10.7315 22.1898 11.9757 21.4891L9.33171 17.9854Z" transform="translate(65.0886 1.40149)" fill="#7D00BE"/>
<path d="M7.6209 14.1703L14.5419 5.83942H8.94289L4.12151 11.9903V0H0V23.5134H4.12151V16.2725L10.0316 23.5134H15.6306L7.6209 14.1703Z" transform="translate(33.8276)" fill="#7D00BE"/>
<path d="M7.93195 0C3.2661 0 1.18659e-06 4.04866 1.18659e-06 9.26521C1.18659e-06 14.7153 4.19927 18.5304 8.32078 18.5304C10.4204 18.5304 13.1422 17.8297 15.3973 14.5596L11.8979 12.5353C9.17618 16.5839 4.58809 14.5596 4.04374 10.5109H15.5529C16.5638 4.12652 12.4423 0 7.93195 0ZM11.4313 6.92944H4.19927C5.05468 2.80292 10.6537 2.56934 11.4313 6.92944Z" transform="translate(75.7424 5.45007)" fill="#7D00BE"/>
</svg>
