<svg width="193" height="32" viewBox="0 0 193 32" fill="none" xmlns="http://www.w3.org/2000/svg">
<path d="M12.0771 6.07299C10.9863 9.10949 8.72668 13.3139 2.96084 15.7275C2.02583 16.1168 1.71417 16.1946 1.4025 16.1946C0.623332 16.1946 -4.75566e-06 15.3382 -4.75566e-06 14.5596C-4.75566e-06 13.8589 0.233755 13.781 1.71417 13.0024C4.59709 11.6788 8.64876 9.57664 10.0513 2.10219C10.285 0.70073 10.4409 0 11.6096 0C12.155 0 13.1679 0.233577 13.1679 1.3236C13.2459 1.55718 12.9342 3.89294 12.0771 6.07299Z" transform="translate(139.783 8.1752)" fill="#F59600"/>
<path d="M4.36334 2.18426C4.36334 3.43 3.35042 4.36431 2.18167 4.36431C0.935001 4.36431 -2.37783e-06 3.35214 -2.37783e-06 2.18426C-2.37783e-06 0.938518 1.01292 0.00421057 2.18167 0.00421057C3.42834 -0.0736483 4.36334 0.938518 4.36334 2.18426Z" transform="translate(136.511 10.4289)" fill="#F59600"/>
<path d="M4.36334 2.18426C4.36334 3.43 3.35042 4.36431 2.18167 4.36431C0.935001 4.36431 -2.37783e-06 3.35214 -2.37783e-06 2.18426C-2.37783e-06 0.938518 1.01292 0.00421057 2.18167 0.00421057C3.42834 -0.0736483 4.36334 0.938518 4.36334 2.18426Z" transform="translate(142.354 10.4289)" fill="#F59600"/>
<path d="M8.25918 7.63017V8.79805H11.4538C11.6875 8.79805 12.6225 8.79805 12.6225 9.73236C12.6225 10.6667 11.6875 10.6667 11.4538 10.6667H8.25918V11.9124H12.5446C12.9342 11.9124 13.7134 11.9903 13.7134 13.0024C13.7134 13.8589 13.2459 14.0925 12.5446 14.0925H1.24667C0.77917 14.0925 -2.37783e-06 14.0146 -2.37783e-06 13.0024C-2.37783e-06 12.2238 0.389586 11.9124 1.24667 11.9124H5.53209V10.6667H2.25959C1.32459 10.6667 1.16875 10.1217 1.16875 9.73236C1.16875 8.79805 2.10375 8.79805 2.3375 8.79805H5.53209V7.63017H3.19459C2.96084 7.63017 2.25958 7.63017 2.10375 7.0073C1.94791 7.0073 1.87 7.08516 1.55833 7.08516C0.389581 7.08516 0.311672 6.22871 0.311672 5.83942V4.59367C0.311672 2.25791 0.857087 1.79075 3.19459 1.79075H5.37626V1.16788C5.37626 0.778589 5.45417 0 6.62292 0C7.71376 0 8.10335 0.311436 8.10335 1.16788V1.79075H10.2071C12.5446 1.79075 13.09 2.25791 13.09 4.59367V5.76156C13.09 6.07299 13.09 7.0073 11.8433 7.0073C11.6096 7.0073 11.5317 7.0073 11.3759 6.92944C11.1421 7.55231 10.5188 7.55231 10.285 7.55231H8.25918V7.63017ZM12.3888 19.3869C12.3888 21.5669 11.9213 22.0341 9.66169 22.0341H4.12959C1.87 22.0341 1.4025 21.5669 1.4025 19.3869V17.8297C1.4025 15.6496 1.87 15.1825 4.12959 15.1825H9.66169C11.8434 15.1825 12.3888 15.5718 12.3888 17.8297V19.3869ZM5.53209 5.06083C5.53209 4.74939 5.68793 4.12652 6.54501 4.04866H3.50625C3.03875 4.04866 2.80501 4.28224 2.80501 4.74939V5.6837C2.88292 5.6837 3.03876 5.6837 3.19459 5.6837H5.53209V5.06083ZM9.66169 17.9075C9.66169 17.5961 9.50584 17.3625 9.11626 17.3625H4.83084C4.44125 17.3625 4.20751 17.5961 4.20751 17.9075V19.2311C4.20751 19.6204 4.36334 19.854 4.83084 19.854H9.11626C9.50584 19.854 9.66169 19.6204 9.66169 19.2311V17.9075ZM10.5188 5.6837C10.6746 5.6837 10.6746 5.6837 10.9083 5.6837V4.74939C10.9083 4.28224 10.6746 4.04866 10.2071 4.04866H7.24626C7.63584 4.12652 8.33709 4.28224 8.33709 5.06083V5.6837H10.5188ZM16.83 15.9611C16.83 16.3504 16.83 17.2068 15.5054 17.2068C14.2588 17.2068 14.1808 16.5061 14.1808 15.9611V2.88078C14.1808 2.49148 14.1809 1.55718 15.5054 1.55718C16.83 1.55718 16.83 2.41363 16.83 2.88078V15.9611ZM18.6221 1.47932C18.6221 1.01217 18.7 0.0778588 20.0246 0.0778588C21.2713 0.0778588 21.4271 0.778589 21.4271 1.47932V19.5426C21.4271 20.1655 21.4271 21.6448 20.1025 22.1119C19.5571 22.2676 18.7779 22.3455 16.9079 22.3455C15.8171 22.3455 14.5704 22.3455 14.5704 20.6326C14.5704 19.1533 15.7392 19.1533 16.0509 19.1533C16.7521 19.1533 17.9988 19.1533 18.1546 19.1533C18.6221 19.0754 18.7 18.6083 18.7 18.219V1.47932H18.6221Z" transform="translate(171.573 1.94647)" fill="#F59600"/>
<path d="M3.2725 20.3212C3.2725 20.7883 3.2725 21.9562 1.63625 21.9562C-4.6442e-06 21.9562 2.37783e-06 20.8662 2.37783e-06 20.3212V1.63504C2.37783e-06 1.16788 -4.6442e-06 -7.4252e-08 1.63625 -7.4252e-08C3.2725 -7.4252e-08 3.2725 1.09002 3.2725 1.63504V6.92944C6.15543 8.17518 9.03834 9.57664 11.7654 11.2895C13.1679 12.146 13.6354 12.5353 13.6354 13.3139C13.6354 14.1703 13.0121 15.1825 11.9992 15.1825C11.4538 15.1825 11.2979 15.0268 9.81751 14.0925C7.01251 12.2238 4.05167 10.9002 3.2725 10.5888V20.3212Z" transform="translate(156.458 2.41364)" fill="#F59600"/>
<path d="M12.4667 5.13869C14.2588 7.63017 16.1288 10.1995 20.2584 15.3382C21.8167 17.2847 21.9725 17.4404 21.9725 18.0633C21.9725 19.0754 21.0375 19.854 20.1804 19.854C19.5571 19.854 19.3234 19.854 15.3496 14.6375C13.7133 12.4574 11.1421 8.79805 9.58376 6.61801C9.42793 6.38443 9.19418 6.07299 8.88252 6.07299C8.57085 6.07299 8.33709 6.38443 6.23334 9.26521C5.22042 10.5888 3.66209 12.7689 3.03876 13.5474C2.72709 13.8589 2.41542 14.2482 1.71416 14.2482C0.779163 14.2482 -2.37783e-06 13.3917 -2.37783e-06 12.5353C-2.37783e-06 11.9903 0.155833 11.8345 1.4025 10.2774C3.11667 8.17518 3.97375 7.0073 5.99959 4.20438C6.77875 3.11436 7.63584 2.18005 8.96043 2.18005C10.3629 2.18005 10.8304 2.72506 12.4667 5.13869ZM21.3492 3.58151C21.3492 5.52798 19.7909 7.16302 17.765 7.16302C15.8171 7.16302 14.1808 5.52798 14.1808 3.58151C14.1808 1.55718 15.8171 -7.4252e-08 17.765 -7.4252e-08C19.7129 -7.4252e-08 21.3492 1.55718 21.3492 3.58151ZM16.2067 3.58151C16.2067 4.43796 16.83 5.13869 17.765 5.13869C18.6221 5.13869 19.3234 4.51582 19.3234 3.58151C19.3234 2.6472 18.6221 2.02433 17.765 2.02433C16.9079 2.02433 16.2067 2.72506 16.2067 3.58151Z" transform="translate(113.915 2.80292)" fill="#F59600"/>
<path d="M65.2163 0H2.97229e-07L5.22042 5.13869L65.2163 0Z" transform="translate(21.5049 26.8613)" fill="#F59600"/>
<path d="M11.8434 0.467153V1.24574C10.5967 0.467153 9.58376 7.4252e-08 8.02543 7.4252e-08C3.42834 7.4252e-08 5.94458e-07 4.12652 5.94458e-07 9.26521C5.94458e-07 14.4039 3.50625 18.5304 8.02543 18.5304C9.50585 18.5304 10.5967 18.0633 11.8434 17.2847V18.0633H15.8171V0.467153H11.8434ZM8.02543 14.326C5.76584 14.326 4.12959 12.146 4.12959 9.34307C4.12959 6.54015 5.76584 4.3601 8.02543 4.3601C10.285 4.3601 11.8434 6.54015 11.8434 9.34307C11.9213 12.146 10.285 14.326 8.02543 14.326Z" transform="translate(15.7393 5.37225)" fill="#F59600"/>
<path d="M10.5967 0V10.3552C10.5967 12.3017 9.2721 13.9367 7.32418 13.9367C5.37626 13.9367 4.05167 12.3017 4.05167 10.3552V0H0V10.3552C0 14.6375 2.88292 18.0633 7.16834 18.0633C9.11626 18.0633 10.5967 16.9732 10.5967 16.9732V17.5961H14.6484V0H10.5967Z" transform="translate(49.0879 5.83942)" fill="#F59600"/>
<path d="M4.05167 18.0633V7.70803C4.05167 5.76156 5.37626 4.12652 7.32418 4.12652C9.2721 4.12652 10.5967 5.76156 10.5967 7.70803V18.0633H14.6484V7.70803C14.6484 3.42579 11.7654 0 7.48001 0C5.53209 0 4.05167 1.09002 4.05167 1.09002V0.389294H1.18892e-06V18.0633H4.05167Z" transform="translate(93.0322 5.45013)" fill="#F59600"/>
<path d="M4.20751 22.1119V15.2603H7.16834L12.3109 22.1119H17.5313L11.2979 13.8589C13.2459 12.4574 14.4925 10.1995 14.4925 7.63017C14.4925 3.42579 11.0642 -3.7126e-08 6.85668 -3.7126e-08H0V22.0341H4.20751V22.1119ZM4.20751 4.28224H6.93459C8.8046 4.28224 10.3629 5.83942 10.3629 7.70803C10.3629 9.57664 8.8046 11.1338 6.93459 11.1338H4.20751V4.28224Z" transform="translate(0 1.40143)" fill="#F59600"/>
<path d="M9.35001 17.9854C8.96043 18.219 8.57085 18.4526 8.02543 18.4526C7.40209 18.4526 6.15542 17.9854 6.15542 16.2725V8.72019H9.58376V4.43796H6.15542V-3.7126e-08H2.10375V4.43796H-2.37783e-06V8.64234H2.10375V16.2725C2.10375 20.2433 5.06459 22.5791 8.10334 22.5791C9.19418 22.5791 10.7525 22.1898 11.9992 21.4891L9.35001 17.9854Z" transform="translate(65.2163 1.40143)" fill="#F59600"/>
<path d="M7.63584 14.1703L14.5704 5.83942H8.96043L4.12959 11.9903V0H0V23.5134H4.12959V16.2725L10.0513 23.5134H15.6613L7.63584 14.1703Z" transform="translate(33.894)" fill="#F59600"/>
<path d="M7.94751 0C3.2725 0 1.18892e-06 4.04866 1.18892e-06 9.26521C1.18892e-06 14.7153 4.2075 18.5304 8.33709 18.5304C10.4408 18.5304 13.1679 17.8297 15.4275 14.5596L11.9213 12.5353C9.19418 16.5839 4.59709 14.5596 4.05167 10.5109H15.5834C16.5963 4.12652 12.4667 0 7.94751 0ZM11.4538 6.92944H4.20751C5.06459 2.80292 10.6746 2.56934 11.4538 6.92944Z" transform="translate(75.8906 5.45013)" fill="#F59600"/>
</svg>
