<svg width="184" height="32" viewBox="0 0 184 32" fill="none" xmlns="http://www.w3.org/2000/svg">
<path d="M12.9818 19.5426C12.9818 20.2433 12.9818 21.5669 11.2716 21.5669C9.56147 21.5669 9.56146 20.399 9.56146 19.5426V8.72019C5.90789 12.4574 1.24376 15.1825 0.621879 15.1825C0.233202 15.1825 4.7446e-06 14.7932 4.7446e-06 14.5596C4.7446e-06 14.1703 0.233204 14.0146 0.46641 13.9367C5.51922 10.6667 9.09505 5.52798 10.6498 1.3236H1.01056C0.699614 1.3236 0.155473 1.24574 0.155473 0.70073C0.155473 0.0778589 0.699614 -7.4252e-08 1.01056 -7.4252e-08H21.6882C21.9991 -7.4252e-08 22.5433 0.0778589 22.5433 0.622871C22.5433 1.24574 21.9991 1.3236 21.6882 1.3236H14.692C13.9924 2.80292 13.3705 3.89294 12.9818 4.51582V19.5426ZM20.6776 15.1825C20.0557 15.1825 19.6671 14.871 19.4339 14.326C18.5788 12.691 17.4127 10.4331 14.4588 7.16302C14.3033 6.92944 14.1479 6.77372 14.1479 6.54015C14.1479 6.22871 14.4588 5.91727 14.8475 5.91727C15.3139 5.91727 18.2678 8.25304 19.0452 8.95377C20.4444 10.1217 22.621 12.146 22.621 13.1582C22.5433 14.0925 21.6105 15.1825 20.6776 15.1825Z" transform="translate(113.572 2.80298)" fill="#F59600"/>
<path d="M12.9041 6.85158C12.5931 6.85158 12.049 6.77372 12.049 6.22871C12.049 5.60584 12.5931 5.52798 12.9041 5.52798H14.3033V1.94647C14.3033 1.16788 14.3033 0.077859 15.7803 0.077859C17.335 0.077859 17.335 1.16788 17.335 1.94647V5.60584H19.6671C20.5222 5.60584 22.1546 5.60584 22.1546 8.01946C22.1546 8.09732 21.9991 15.1825 21.6105 18.6083C21.2218 21.8783 19.9003 22.3455 17.8792 22.3455H15.4694C15.2362 22.3455 14.6143 22.2676 14.6143 21.6448C14.6143 21.0219 15.1584 20.944 15.4694 20.944H16.7131C17.6459 20.944 18.1124 20.7883 18.3456 19.0754C18.812 16.1168 18.8897 8.64234 18.8897 7.78589C18.8897 7.08516 18.7342 6.92944 18.0346 6.92944H17.1795C16.9463 12.5353 16.9463 14.1703 15.5471 16.9732C14.0701 20.0876 11.4271 22.4234 10.9607 22.4234C10.6498 22.4234 10.3388 22.1119 10.3388 21.7226C10.3388 21.4891 10.4166 21.4112 10.8052 20.944C11.0384 20.7105 11.1939 20.4769 11.3494 20.2433C8.86185 20.944 1.71018 22.1898 1.01056 22.1898C0.155471 22.1898 -2.3723e-06 21.3333 -2.3723e-06 20.944C-2.3723e-06 20.399 0.233204 19.9319 0.777352 19.854C1.08829 19.7762 4.04224 19.6983 5.0528 19.6204V17.5961H1.0883C0.777359 17.5961 0.233206 17.5182 0.233206 16.9732C0.233206 16.3504 0.777359 16.2725 1.0883 16.2725H5.0528V14.5596H2.95395C1.71018 14.5596 0.855092 14.0925 0.855092 12.7689V8.87591C0.855092 7.39659 1.86565 7.08516 2.95395 7.08516H5.0528V5.52798H1.0883C0.777359 5.52798 0.233206 5.45012 0.233206 4.82725C0.233206 4.20438 0.777359 4.12652 1.0883 4.12652H5.0528V2.56934C4.27545 2.6472 2.95395 2.6472 2.4098 2.6472C1.24377 2.6472 0.699624 2.6472 0.699624 1.94647C0.699624 1.55718 0.932823 1.3236 1.55471 1.3236C2.56527 1.24574 5.05281 1.16788 8.00675 0.545012C8.39543 0.467153 10.1834 -3.7126e-08 10.4166 -3.7126e-08C11.2716 -3.7126e-08 11.5826 0.778589 11.5826 1.16788C11.5826 1.79075 11.4271 2.18005 7.92901 2.33577V4.04866H11.6603C11.8935 4.04866 12.5154 4.12652 12.5154 4.74939C12.5154 5.37226 11.9713 5.45012 11.6603 5.45012H7.92901V6.92944H10.1056C11.3494 6.92944 12.2045 7.39659 12.2045 8.72019V12.6131C12.2045 14.0146 11.1162 14.4039 10.1056 14.4039H7.92901V16.0389H11.4271C11.6603 16.0389 12.2822 16.1168 12.2822 16.7397C12.2822 17.3625 11.7381 17.3625 11.4271 17.3625H7.92901V19.1533C8.47316 19.0754 11.2716 18.6861 11.5048 18.6861C11.8158 18.6861 11.9713 18.8419 12.049 18.9197C13.7592 15.9611 14.1478 13.0803 14.1478 6.69586H12.9041V6.85158ZM5.28601 8.3309H4.19772C3.65357 8.3309 3.57583 8.48662 3.57583 8.95377V10.0438H5.28601V8.3309ZM5.28601 11.3674H3.57583V12.6131C3.57583 13.0803 3.65357 13.236 4.19772 13.236H5.28601V11.3674ZM7.92901 10.0438H9.6392V8.95377C9.6392 8.48662 9.48373 8.3309 9.01732 8.3309H7.92901V10.0438ZM7.92901 13.236H9.01732C9.56147 13.236 9.6392 13.0803 9.6392 12.6131V11.3674H7.92901V13.236Z" transform="translate(137.747 1.79077)" fill="#F59600"/>
<path d="M2.64301 3.65937C2.33207 3.65937 1.86566 3.58151 1.86566 3.0365C1.86566 2.41363 2.4098 2.33577 2.64301 2.33577H9.79467C9.79467 1.16788 9.79467 1.09002 9.95014 0.778589C10.1056 0.311436 10.8052 7.4252e-08 11.5048 7.4252e-08C13.215 7.4252e-08 13.215 1.09002 13.215 2.33577H20.8331C21.0663 2.33577 21.6105 2.41363 21.6105 2.95864C21.6105 3.58151 21.0663 3.65937 20.8331 3.65937H17.1795C17.9569 3.9708 18.4233 4.43796 18.4233 5.06083C18.4233 6.07299 16.5577 6.92944 15.0029 7.47445H21.7659C21.9991 7.47445 22.5433 7.55231 22.5433 8.09732C22.5433 8.7202 21.9991 8.79805 21.7659 8.79805H5.44148C4.89733 8.79805 4.74187 9.03163 4.74187 9.49878V11.1338C4.74187 16.0389 3.80904 18.0633 3.10942 19.309C2.48753 20.399 1.32151 22.0341 0.699624 22.0341C0.233211 22.0341 -2.3723e-06 21.7226 -2.3723e-06 21.4112C-2.3723e-06 21.1776 0.466408 20.3212 0.544144 20.0876C0.855085 19.2311 1.47698 17.129 1.47698 13.1582V9.81022C1.47698 8.56448 2.09886 7.47445 3.96451 7.47445H6.91846C6.68526 7.31874 6.68525 7.24088 6.29658 6.46229C5.9079 5.60584 5.51922 5.06083 5.28601 4.74939C5.13054 4.51582 5.0528 4.3601 5.0528 4.20438C5.0528 3.89294 5.20828 3.73723 5.28601 3.65937H2.64301ZM11.7381 20.3212V17.2847H7.30714C7.07393 17.2847 6.52978 17.2068 6.52978 16.5839C6.52978 16.0389 7.07393 15.8832 7.30714 15.8832H11.7381V13.1582H8.70637C7.92901 14.1703 6.29658 16.2725 5.75243 16.2725C5.36375 16.2725 5.0528 15.9611 5.0528 15.6496C5.0528 15.5718 5.36375 14.871 5.44148 14.7932C5.75242 14.0925 6.29657 12.7689 6.76298 10.4331C6.84072 9.96594 6.99619 9.18735 8.16222 9.18735C8.93958 9.18735 10.1056 9.57664 10.1056 10.5109C10.1056 10.9002 9.87241 11.3674 9.6392 11.8346H11.8158V11.3674C11.8158 10.3552 11.8158 9.18735 13.526 9.18735C15.1584 9.18735 15.1584 10.3552 15.1584 11.3674V11.9124H20.3667C20.5999 11.9124 21.144 11.9903 21.144 12.6131C21.144 13.236 20.5999 13.3139 20.3667 13.3139H15.0029V16.0389H19.2007C19.4339 16.0389 19.978 16.1168 19.978 16.7397C19.978 17.3625 19.4339 17.4404 19.2007 17.4404H15.0029V20.4769H21.6882C21.9214 20.4769 22.4656 20.5547 22.4656 21.1776C22.4656 21.8005 21.9214 21.8005 21.6882 21.8005H4.89733C4.66413 21.8005 4.11998 21.7226 4.11998 21.0998C4.11998 20.5547 4.66413 20.4769 4.89733 20.4769H11.7381V20.3212ZM6.45204 3.65937C7.61808 4.04866 8.39543 4.43796 8.62864 4.51581C9.6392 5.06083 9.95014 5.37226 9.95014 5.99513C9.95014 6.38443 9.79467 6.92944 9.17278 7.39659H13.7592C13.6814 7.24088 13.6037 7.16302 13.6037 6.92944C13.6037 6.77372 13.6814 6.61801 13.7592 6.46229C14.1479 5.91728 14.3033 5.60584 14.6143 4.90511C15.0807 3.89294 15.1584 3.73723 15.4694 3.58151H6.45204V3.65937Z" transform="translate(161.457 1.86853)" fill="#F59600"/>
<path d="M65.0646 0H2.96537e-07L5.20828 5.13869L65.0646 0Z" transform="translate(21.4551 26.8613)" fill="#F59600"/>
<path d="M11.8158 0.467153V1.24574C10.572 0.467153 9.56146 7.4252e-08 8.00675 7.4252e-08C3.42036 7.4252e-08 5.93075e-07 4.12652 5.93075e-07 9.26521C5.93075e-07 14.4039 3.4981 18.5304 8.00675 18.5304C9.48373 18.5304 10.572 18.0633 11.8158 17.2847V18.0633H15.7803V0.467153H11.8158ZM8.00675 14.326C5.75242 14.326 4.11998 12.146 4.11998 9.34307C4.11998 6.54015 5.75242 4.3601 8.00675 4.3601C10.2611 4.3601 11.8158 6.54015 11.8158 9.34307C11.8935 12.146 10.2611 14.326 8.00675 14.326Z" transform="translate(15.7026 5.37231)" fill="#F59600"/>
<path d="M10.572 0V10.3552C10.572 12.3017 9.25052 13.9367 7.30713 13.9367C5.36375 13.9367 4.04224 12.3017 4.04224 10.3552V0H0V10.3552C0 14.6375 2.87621 18.0633 7.15166 18.0633C9.09505 18.0633 10.572 16.9732 10.572 16.9732V17.5961H14.6143V0H10.572Z" transform="translate(48.9731 5.83948)" fill="#F59600"/>
<path d="M4.04224 18.0633V7.70803C4.04224 5.76156 5.36375 4.12652 7.30714 4.12652C9.25052 4.12652 10.572 5.76156 10.572 7.70803V18.0633H14.6143V7.70803C14.6143 3.42579 11.7381 0 7.4626 0C5.51922 0 4.04224 1.09002 4.04224 1.09002V0.389294H1.18615e-06V18.0633H4.04224Z" transform="translate(92.8162 5.45007)" fill="#F59600"/>
<path d="M4.19772 22.1119V15.2603H7.15166L12.2822 22.1119H17.4905L11.2716 13.8589C13.215 12.4574 14.4588 10.1995 14.4588 7.63017C14.4588 3.42579 11.0384 -3.7126e-08 6.84072 -3.7126e-08H0V22.0341H4.19772V22.1119ZM4.19772 4.28224H6.91846C8.78411 4.28224 10.3388 5.83942 10.3388 7.70803C10.3388 9.57664 8.78411 11.1338 6.91846 11.1338H4.19772V4.28224Z" transform="translate(0 1.40149)" fill="#F59600"/>
<path d="M9.32825 17.9854C8.93958 18.219 8.5509 18.4526 8.00675 18.4526C7.38487 18.4526 6.1411 17.9854 6.1411 16.2725V8.72019H9.56146V4.43796H6.1411V-3.7126e-08H2.09886V4.43796H-2.3723e-06V8.64233H2.09886V16.2725C2.09886 20.2433 5.0528 22.5791 8.08449 22.5791C9.17278 22.5791 10.7275 22.1898 11.9713 21.489L9.32825 17.9854Z" transform="translate(65.0647 1.40149)" fill="#F59600"/>
<path d="M7.61808 14.1703L14.5365 5.83942H8.93958L4.11998 11.9903V0H0V23.5134H4.11998V16.2725L10.0279 23.5134H15.6248L7.61808 14.1703Z" transform="translate(33.8149)" fill="#F59600"/>
<path d="M7.92902 0C3.26489 0 1.18615e-06 4.04866 1.18615e-06 9.26521C1.18615e-06 14.7153 4.19771 18.5304 8.31769 18.5304C10.4166 18.5304 13.1373 17.8297 15.3916 14.5596L11.8935 12.5353C9.17278 16.5839 4.58639 14.5596 4.04224 10.5109H15.5471C16.5577 4.12652 12.4377 0 7.92902 0ZM11.4271 6.92944H4.19772C5.05281 2.80292 10.6498 2.56934 11.4271 6.92944Z" transform="translate(75.7144 5.45007)" fill="#F59600"/>
</svg>
