<svg width="207" height="42" viewBox="0 0 207 42" fill="none" xmlns="http://www.w3.org/2000/svg">
<path d="M112.2 34.74H28.57L35.23 41.4L112.2 34.74Z" fill="#BF0000"/>
<path d="M36.32 7.8V8.81C34.77 7.82 33.37 7.25 31.47 7.25C25.61 7.25 21.16 12.59 21.16 19.15C21.16 25.71 25.61 31.05 31.47 31.05C33.38 31.05 34.77 30.48 36.32 29.49V30.5H41.47V7.8H36.32ZM31.46 25.58C28.57 25.58 26.46 22.74 26.46 19.14C26.46 15.55 28.58 12.7 31.46 12.7C34.35 12.7 36.39 15.55 36.39 19.14C36.4 22.74 34.36 25.58 31.46 25.58Z" fill="#BF0000"/>
<path d="M77.57 7.8V21.13C77.57 23.63 75.85 25.74 73.35 25.74C70.85 25.74 69.13 23.63 69.13 21.13V7.8H63.98V21.13C63.98 26.6 67.72 31.05 73.19 31.05C75.72 31.05 77.57 29.65 77.57 29.65V30.49H82.72V7.8H77.57Z" fill="#BF0000"/>
<path d="M125.56 30.49V17.16C125.56 14.66 127.28 12.55 129.78 12.55C132.28 12.55 134 14.66 134 17.16V30.49H139.15V17.16C139.15 11.69 135.41 7.24001 129.94 7.24001C127.41 7.24001 125.56 8.64 125.56 8.64V7.8H120.41V30.49H125.56Z" fill="#BF0000"/>
<path d="M6.30998 30.49V21.7H10.12L16.72 30.49H23.46L15.49 19.88C17.97 18.1 19.6 15.2 19.6 11.91C19.6 6.52 15.21 2.14 9.81999 2.14H0.919998V30.49H6.30998V30.49ZM6.30998 7.52H9.81999C12.24 7.52 14.22 9.49 14.22 11.91C14.22 14.34 12.24 16.31 9.81999 16.31H6.30998V7.52Z" fill="#BF0000"/>
<path d="M96.6 25.12C96.14 25.43 95.55 25.68 94.88 25.68C94.04 25.68 92.45 25.04 92.45 22.9V13.19H96.85V7.8H92.45V2.14999H87.3V7.8H84.58V13.19H87.3V22.98C87.3 28.05 91.12 31.07 94.96 31.07C96.39 31.07 98.38 30.6 100 29.64L96.6 25.12Z" fill="#BF0000"/>
<path d="M54.27 18.43L63.1 7.8H55.89L49.71 15.7V0.270004H44.4V30.49H49.71V21.17L57.3 30.49H64.52L54.27 18.43Z" fill="#BF0000"/>
<path d="M108.5 7.22C102.54 7.22 98.26 12.46 98.26 19.14C98.26 26.17 103.63 31.06 109.01 31.06C111.73 31.06 115.21 30.13 118.13 25.98L113.58 23.35C110.06 28.54 104.2 25.9 103.52 20.72H118.35C119.63 12.58 114.36 7.22 108.5 7.22ZM112.99 16.21H103.71C104.8 10.9 111.99 10.59 112.99 16.21Z" fill="#BF0000"/>
<path d="M166.24 12.15C165.46 9.37999 163.65 7.8 161.16 7.8C157.4 7.8 153.77 11.87 152.86 17.04C151.95 22.21 154.18 26.24 157.91 26.24C160.41 26.24 162.73 24.7 164.64 21.83L168.45 24.46C165.44 28.91 161.75 31.03 157.03 31.03C149.91 31.03 145.94 25.25 147.39 17.03C148.81 8.99 155.06 3 162.08 3C166.63 3 169.72 5.26001 171.08 9.57001L166.24 12.15Z" fill="#BF0000"/>
<path d="M184.32 28.54C182.66 30.18 180.73 31.04 178.58 31.04C173.17 31.04 169.69 25.94 170.79 19.71C171.89 13.48 177.3 8.42 182.84 8.42C184.93 8.42 186.43 9.24 187.43 10.92L188.46 8.94H192.91L189.11 30.5H184.66L184.32 28.54ZM175.92 19.71C175.28 23.34 176.99 26.25 179.76 26.25C182.63 26.25 185.2 23.55 185.87 19.75C186.55 15.92 184.94 13.21 182.03 13.21C179.26 13.21 176.56 16.08 175.92 19.71Z" fill="#BF0000"/>
<path d="M200.26 10.91C201.91 9.3 204.33 8.41 206.96 8.41L206.12 13.2C203.66 13.37 202.17 14.06 200.88 15.56C200.14 16.45 199.65 17.51 199.44 18.67L197.36 30.48H192.23L196.03 8.92H200.14L200.26 10.91Z" fill="#BF0000"/>
</svg>
