<svg width="180" height="33" viewBox="0 0 180 33" fill="none" xmlns="http://www.w3.org/2000/svg">
<g clip-path="url(#clip0)">
<path d="M85.1127 27.2898H21.2574L26.3432 32.4961L85.1127 27.2898Z" fill="#00B900"/>
<path d="M27.1679 6.23024V7.01978C25.9842 6.24587 24.9152 5.80029 23.4642 5.80029C18.9893 5.80029 15.5911 9.97468 15.5911 15.1028C15.5911 20.2309 18.9893 24.4053 23.4642 24.4053C24.9228 24.4053 25.9842 23.9597 27.1679 23.1858V23.9753H31.1006V6.23024H27.1679ZM23.4642 20.1292C21.2573 20.1292 19.6461 17.9092 19.6461 15.095C19.6461 12.2886 21.265 10.0607 23.4642 10.0607C25.6712 10.0607 27.229 12.2886 27.229 15.095C27.229 17.9092 25.6712 20.1292 23.4642 20.1292Z" fill="#00B900"/>
<path d="M58.6756 6.23022V16.6506C58.6756 18.6049 57.3621 20.2543 55.453 20.2543C53.5439 20.2543 52.2305 18.6049 52.2305 16.6506V6.23022H48.2977V16.6506C48.2977 20.9266 51.1537 24.4052 55.3308 24.4052C57.2628 24.4052 58.6756 23.3108 58.6756 23.3108V23.9675H62.6083V6.23022H58.6756Z" fill="#00B900"/>
<path d="M95.3225 23.9675V13.5472C95.3225 11.5929 96.636 9.94342 98.5451 9.94342C100.454 9.94342 101.768 11.5929 101.768 13.5472V23.9675H105.7V13.5472C105.7 9.27114 102.844 5.79248 98.6673 5.79248C96.7353 5.79248 95.3225 6.88689 95.3225 6.88689V6.23024H91.3898V23.9675H95.3225Z" fill="#00B900"/>
<path d="M4.25861 23.9675V17.0961H7.16807L12.2081 23.9675H17.355L11.2688 15.6734C13.1626 14.2819 14.4074 12.0149 14.4074 9.44308C14.4074 5.2296 11.055 1.80566 6.93898 1.80566H0.142609V23.9675H4.25861ZM4.25861 6.01914H6.93898C8.78698 6.01914 10.299 7.55913 10.299 9.4509C10.299 11.3505 8.78698 12.8905 6.93898 12.8905H4.25861V6.01914Z" fill="#00B900"/>
<path d="M73.2076 19.7696C72.8563 20.0119 72.4058 20.2074 71.8941 20.2074C71.2527 20.2074 70.0385 19.7071 70.0385 18.0342V10.4437H73.3985V6.2302H70.0385V1.81348H66.1058V6.2302H64.0287V10.4437H66.1058V18.0889C66.1058 22.0522 69.0229 24.413 71.9552 24.413C73.0472 24.413 74.5669 24.0456 75.804 23.2952L73.2076 19.7696Z" fill="#00B900"/>
<path d="M40.8828 14.5401L47.6257 6.23036H42.1123L37.393 12.406V0.343994H33.3457V23.9676H37.393V16.682L43.1966 23.9676H48.7101L40.8828 14.5401Z" fill="#00B900"/>
<path d="M82.2949 5.77686C77.7436 5.77686 74.4753 9.87308 74.4753 15.095C74.4753 20.5905 78.576 24.4131 82.6844 24.4131C84.7615 24.4131 87.4189 23.6861 89.6487 20.4419L86.1742 18.386C83.4862 22.4432 79.0113 20.3794 78.492 16.3301H89.8168C90.7942 9.96688 86.7698 5.77686 82.2949 5.77686ZM85.7236 12.8045H78.6371C79.4695 8.65359 84.96 8.41907 85.7236 12.8045Z" fill="#00B900"/>
<path d="M112.191 23.9675V2.91577H124.921V5.48763H114.864V12.1557H123.951V14.7276H114.864V23.9675H112.191Z" fill="#00B900"/>
<path d="M133.245 24.2959C131.893 24.2959 130.664 23.9207 129.572 23.1703C128.48 22.4198 127.609 21.3879 126.975 20.0668C126.341 18.7457 126.021 17.237 126.021 15.5485C126.021 13.8365 126.334 12.32 126.975 11.0145C127.609 9.70902 128.472 8.67715 129.572 7.9267C130.664 7.17625 131.893 6.80884 133.245 6.80884C134.489 6.80884 135.612 7.12153 136.597 7.7469C137.582 8.37228 138.331 9.22436 138.819 10.3031L139.109 7.13716H141.332V23.9676H139.109L138.819 20.8017C138.323 21.857 137.582 22.7012 136.597 23.3422C135.612 23.9754 134.489 24.2959 133.245 24.2959ZM133.733 21.7241C134.703 21.7241 135.566 21.4661 136.33 20.9502C137.093 20.4342 137.697 19.7072 138.132 18.7692C138.575 17.8311 138.796 16.7601 138.796 15.5485C138.796 14.3134 138.575 13.2424 138.132 12.3122C137.689 11.3897 137.086 10.6705 136.33 10.1546C135.566 9.63867 134.703 9.3807 133.733 9.3807C132.764 9.3807 131.901 9.63867 131.137 10.1546C130.373 10.6705 129.77 11.3897 129.335 12.3122C128.892 13.2346 128.671 14.3134 128.671 15.5485C128.671 16.7601 128.892 17.8311 129.335 18.7692C129.778 19.7072 130.373 20.4264 131.137 20.9502C131.901 21.4661 132.764 21.7241 133.733 21.7241Z" fill="#00B900"/>
<path d="M144.172 23.9676V7.13716H146.395L146.685 10.3344C147.112 9.25563 147.723 8.39573 148.525 7.76254C149.319 7.12153 150.198 6.80884 151.167 6.80884C152.244 6.80884 153.206 7.16843 154.069 7.89543L153.168 10.5376C152.435 9.89664 151.671 9.58395 150.877 9.58395C150.106 9.58395 149.403 9.84192 148.785 10.3579C148.159 10.8738 147.67 11.5773 147.303 12.4529C146.937 13.3362 146.754 14.3212 146.754 15.4234V23.9676H144.172Z" fill="#00B900"/>
<path d="M155.772 23.9676V7.13716H157.994L158.284 10.2406C158.819 9.18527 159.544 8.34883 160.446 7.73127C161.347 7.11371 162.347 6.80884 163.447 6.80884C164.691 6.80884 165.76 7.15279 166.654 7.83289C167.547 8.51299 168.196 9.50578 168.601 10.8034C169.12 9.59177 169.876 8.62243 170.877 7.90325C171.877 7.17625 172.984 6.81666 174.214 6.81666C175.932 6.81666 177.299 7.45767 178.322 8.73187C179.346 10.0061 179.857 11.8588 179.857 14.2743V23.9754H177.276V14.3994C177.276 12.7734 176.94 11.5304 176.276 10.6705C175.611 9.81065 174.71 9.3807 173.565 9.3807C172.687 9.3807 171.908 9.63867 171.228 10.1546C170.548 10.6705 170.022 11.3585 169.647 12.2183C169.273 13.0782 169.082 14.0085 169.082 15.0247V23.9676H166.501V14.3994C166.501 12.7734 166.165 11.5304 165.501 10.6705C164.836 9.81065 163.943 9.3807 162.828 9.3807C161.927 9.3807 161.14 9.64649 160.476 10.1702C159.812 10.7018 159.285 11.3897 158.911 12.234C158.536 13.0782 158.346 14.0085 158.346 15.0247V23.9676H155.772Z" fill="#00B900"/>
</g>
<defs>
<clipPath id="clip0">
<rect width="180" height="32.8" fill="white" transform="translate(0 0.100098)"/>
</clipPath>
</defs>
</svg>
