<svg width="177" height="32" viewBox="0 0 177 32" fill="none" xmlns="http://www.w3.org/2000/svg">
<path d="M5.20811 -2.97008e-07H0.855057C0.38866 -2.97008e-07 2.37222e-06 0.389294 2.37222e-06 0.856447C2.37222e-06 1.3236 0.38866 1.71289 0.855057 1.71289H5.20811C5.6745 1.71289 6.06317 1.3236 6.06317 0.856447C6.06317 0.467153 5.6745 -2.97008e-07 5.20811 -2.97008e-07Z" transform="translate(134.711 13.9368)" fill="#FF41BE"/>
<path d="M1.59105 0.347887C1.28011 -0.041407 0.735992 -0.119266 0.347327 0.192169C-0.0413376 0.503604 -0.119068 1.04862 0.191864 1.43791L5.78863 8.75664C6.09956 9.14594 6.64369 9.2238 7.03235 8.91236C7.42102 8.60093 7.49876 8.05591 7.18783 7.66662L1.59105 0.347887Z" transform="translate(154.963 14.8347)" fill="#FF41BE"/>
<path d="M11.4586 0.131387C11.0699 -0.10219 10.5258 -0.0243309 10.2149 0.364963L3.37435 10.7202L1.66423 7.91727C1.43103 7.52798 0.886897 7.37226 0.420499 7.60584C0.0318347 7.83941 -0.123626 8.38443 0.109572 8.85158L2.44156 12.5888V20.3747C2.44156 20.8418 2.83022 21.2311 3.29661 21.2311C3.84075 21.2311 4.15168 20.8418 4.15168 20.3747V12.5888L11.5363 1.29927C12.0027 0.909975 11.925 0.364963 11.4586 0.131387Z" transform="translate(165.15 2.59375)" fill="#FF41BE"/>
<path d="M10.4526 5.52798L7.26556 0.389294C7.11009 0.155718 6.95462 -3.7126e-08 6.56596 -3.7126e-08C6.17729 -3.7126e-08 5.94409 0.155718 5.78863 0.389294L0.191859 7.70803C-0.119073 8.09732 -0.0413424 8.64233 0.347322 8.95377C0.735987 9.2652 1.28012 9.18734 1.59105 8.79805L6.41049 2.49148L8.89794 6.54014C9.13114 6.92944 9.67528 7.08516 10.1417 6.85158C10.6081 6.54014 10.6858 5.99513 10.4526 5.52798Z" transform="translate(154.886 2.56934)" fill="#FF41BE"/>
<path d="M31.8705 0.186861C31.4818 0.498297 31.4041 1.04331 31.715 1.4326L38.6333 10.6978L32.5701 18.9508L25.1077 0.96545C24.8745 0.342579 24.4081 0.0311435 23.7863 0.0311435C23.2421 0.0311435 22.7757 0.26472 22.4648 0.887591L15.1579 18.9508L10.0275 11.3985H1.94333V3.84623C1.94333 2.60049 1.78786 1.74404 3.65345 1.74404C3.65345 1.74404 5.20811 1.74404 7.15143 1.74404C9.09475 1.74404 9.94981 1.8219 10.9603 2.60049C11.9709 3.37907 12.5927 4.70267 12.5927 6.41557C12.5927 8.98491 11.5822 9.60778 11.349 9.99708C11.1935 10.2307 11.0381 10.8535 11.5822 11.165C12.0486 11.3985 12.7482 11.0092 13.1369 10.3864C13.8365 9.37421 14.3029 8.12846 14.3029 6.41557C14.3029 4.31338 13.6033 2.67834 12.2818 1.58832C10.9603 0.498297 10.2607 0.109002 7.15143 0.109002H2.79838C1.86559 0.109002 1.08826 0.342579 0.621859 0.887591C0.155461 1.4326 4.74444e-06 2.05547 4.74444e-06 3.22336V20.5859C4.74444e-06 21.2088 0.4664 21.5202 0.932797 21.5202C1.3992 21.5202 1.86559 21.2866 1.86559 20.5859V13.2671C2.09879 13.2671 8.62835 13.2671 9.01702 13.2671L14.2251 20.7416C14.5361 21.1309 14.6915 21.4423 15.2357 21.4423C15.6243 21.4423 16.013 21.2087 16.1684 20.6637C16.4016 20.1966 23.5531 2.52263 23.7085 1.74404C23.864 2.44477 31.0932 20.4302 31.1709 20.6637C31.1709 20.6637 31.4818 21.4423 32.1814 21.4423C32.4924 21.4423 32.8033 21.3645 33.3474 20.6637L40.7321 10.7757L33.0365 0.420438C32.8033 -0.0467154 32.2592 -0.124574 31.8705 0.186861Z" transform="translate(113.957 2.53821)" fill="#FF41BE"/>
<path d="M65.0625 0H2.96528e-07L5.20811 5.13868L65.0625 0Z" transform="translate(21.4551 26.8613)" fill="#FF41BE"/>
<path d="M11.8154 0.467153V1.24574C10.5717 0.467153 9.56115 7.4252e-08 8.00649 7.4252e-08C3.42025 7.4252e-08 5.93055e-07 4.12652 5.93055e-07 9.2652C5.93055e-07 14.4039 3.49798 18.5304 8.00649 18.5304C9.48342 18.5304 10.5717 18.0633 11.8154 17.2847V18.0633H15.7798V0.467153H11.8154ZM8.00649 14.326C5.75224 14.326 4.11984 12.146 4.11984 9.34306C4.11984 6.54014 5.75224 4.3601 8.00649 4.3601C10.2607 4.3601 11.8154 6.54014 11.8154 9.34306C11.8931 12.146 10.2607 14.326 8.00649 14.326Z" transform="translate(15.7021 5.37231)" fill="#FF41BE"/>
<path d="M10.5717 0V10.3552C10.5717 12.3017 9.25022 13.9367 7.3069 13.9367C5.36357 13.9367 4.04211 12.3017 4.04211 10.3552V0H0V10.3552C0 14.6375 2.87612 18.0633 7.15143 18.0633C9.09475 18.0633 10.5717 16.9732 10.5717 16.9732V17.5961H14.6138V0H10.5717Z" transform="translate(48.9717 5.83948)" fill="#FF41BE"/>
<path d="M4.04211 18.0633V7.70803C4.04211 5.76156 5.36357 4.12652 7.3069 4.12652C9.25022 4.12652 10.5717 5.76156 10.5717 7.70803V18.0633H14.6138V7.70803C14.6138 3.42579 11.7377 0 7.46236 0C5.51904 0 4.04211 1.09002 4.04211 1.09002V0.389294H1.18611e-06V18.0633H4.04211Z" transform="translate(92.8125 5.45007)" fill="#FF41BE"/>
<path d="M4.19758 22.1119V15.2603H7.15143L12.2818 22.1119H17.4899L11.2713 13.8589C13.2146 12.4574 14.4583 10.1995 14.4583 7.63017C14.4583 3.42579 11.0381 -3.7126e-08 6.8405 -3.7126e-08H0V22.0341H4.19758V22.1119ZM4.19758 4.28224H6.91823C8.78382 4.28224 10.3385 5.83941 10.3385 7.70803C10.3385 9.57664 8.78382 11.1338 6.91823 11.1338H4.19758V4.28224Z" transform="translate(0 1.40149)" fill="#FF41BE"/>
<path d="M9.32795 17.9854C8.93928 18.219 8.55062 18.4525 8.00649 18.4525C7.38463 18.4525 6.1409 17.9854 6.1409 16.2725V8.72019H9.56115V4.43795H6.1409V-3.7126e-08H2.09879V4.43795H-2.37222e-06V8.64233H2.09879V16.2725C2.09879 20.2433 5.05264 22.5791 8.08422 22.5791C9.17248 22.5791 10.7271 22.1898 11.9709 21.489L9.32795 17.9854Z" transform="translate(65.0625 1.40149)" fill="#FF41BE"/>
<path d="M7.61783 14.1703L14.5361 5.83941H8.93929L4.11984 11.9903V0H0V23.5134H4.11984V16.2725L10.0275 23.5134H15.6243L7.61783 14.1703Z" transform="translate(33.814)" fill="#FF41BE"/>
<path d="M7.92876 0C3.26478 0 1.18611e-06 4.04866 1.18611e-06 9.2652C1.18611e-06 14.7153 4.19758 18.5304 8.31742 18.5304C10.4162 18.5304 13.1369 17.8297 15.3911 14.5596L11.8931 12.5353C9.17248 16.5839 4.58624 14.5596 4.04211 10.5109H15.5466C16.5571 4.12652 12.4373 0 7.92876 0ZM11.4267 6.92944H4.19758C5.05264 2.80292 10.6494 2.56934 11.4267 6.92944Z" transform="translate(75.7114 5.45007)" fill="#FF41BE"/>
</svg>
