<svg width="232" height="32" viewBox="0 0 232 32" fill="none" xmlns="http://www.w3.org/2000/svg">
<path d="M17.2169 20.2433C17.2169 20.8662 16.6716 21.4112 16.0484 21.4112C15.3472 21.4112 14.8798 20.8662 14.8798 20.2433V3.19221L9.42647 12.146C9.03695 12.7689 8.17999 12.7689 7.79047 12.146L2.33714 3.19221V20.2433C2.33714 20.8662 1.7918 21.4112 1.16857 21.4112C0.467424 21.4112 -4.75493e-06 20.8662 -4.75493e-06 20.2433V1.16788C-4.75493e-06 0.545012 0.545328 -3.7126e-08 1.16857 -3.7126e-08H2.41505C2.96038 -3.7126e-08 3.3499 0.233576 3.58362 0.70073L8.64742 9.03163L13.7112 0.70073C13.9449 0.311435 14.4124 -3.7126e-08 14.8798 -3.7126e-08H16.1263C16.8274 -3.7126e-08 17.2949 0.545012 17.2949 1.16788V20.2433H17.2169Z" transform="translate(114.442 2.56934)" fill="#F59600"/>
<path d="M15.4644 20.2254C15.6982 20.8482 15.3086 21.549 14.6075 21.7825C13.9064 21.9383 13.2052 21.6268 12.9715 21.004L11.6471 16.4103H3.85665L2.53227 21.004C2.29856 21.6268 1.59741 22.0161 0.89627 21.7825C0.195128 21.6268 -0.116484 20.9261 0.0393255 20.2254L6.11588 1.14995C6.27169 0.604935 6.73912 0.21564 7.28445 0.0599226C8.21931 -0.173654 9.07627 0.293499 9.30998 1.14995L15.4644 20.2254ZM7.75189 3.40785L4.47989 14.2302H10.946L7.75189 3.40785Z" transform="translate(133.255 2.12012)" fill="#F59600"/>
<path d="M16.2042 17.0511C16.2042 17.5961 16.0484 18.0633 15.7368 18.5304C14.1787 20.7105 11.8415 21.8005 8.95904 21.8005C3.66152 21.8005 0 17.3625 0 10.9781C0 4.59367 3.73943 -3.7126e-08 8.95904 -3.7126e-08C11.9973 -3.7126e-08 13.5554 1.09002 15.3472 3.27007C15.7368 3.81509 15.7368 4.43796 15.1914 4.90511C14.6461 5.2944 13.867 5.21654 13.3996 4.74939C12.231 3.19221 10.8288 2.33577 8.88113 2.33577C4.9859 2.33577 2.57086 5.76156 2.57086 11.1338C2.57086 16.4282 4.9859 19.6204 8.95904 19.6204C11.1404 19.6204 12.7764 18.8419 13.867 17.2847V12.9246H9.8939C9.27066 12.9246 8.72533 12.4574 8.72533 11.8346C8.72533 11.2117 9.27066 10.7445 9.8939 10.7445H15.1135C15.7367 10.7445 16.2821 11.2895 16.2821 11.9124V17.0511H16.2042Z" transform="translate(148.798 2.18005)" fill="#F59600"/>
<path d="M15.5424 20.2254C15.7761 20.8482 15.3866 21.549 14.6854 21.7825C13.9843 21.9383 13.2831 21.6268 13.0494 21.004L11.725 16.4103H3.85665L2.53227 21.004C2.29856 21.6268 1.59741 22.0161 0.896268 21.7825C0.195125 21.6268 -0.116486 20.9261 0.0393231 20.2254L6.11589 1.14995C6.2717 0.604935 6.73913 0.21564 7.28446 0.0599226C8.21932 -0.173654 9.07626 0.293499 9.30998 1.14995L15.5424 20.2254ZM7.82979 3.40785L4.5578 14.2302H11.0239L7.82979 3.40785Z" transform="translate(165.742 2.12012)" fill="#F59600"/>
<path d="M-4.75493e-06 19.2311C-4.75493e-06 18.8419 0.0779071 18.4526 0.311621 18.1411L10.0497 2.18005H1.40228C0.779045 2.18005 0.233712 1.63504 0.233712 1.09002C0.233712 0.545012 0.779045 7.4252e-08 1.40228 7.4252e-08H11.9194C12.5427 7.4252e-08 13.088 0.545012 13.088 1.09002V1.24574C13.088 1.63504 13.0101 2.02433 12.7764 2.33577L2.64876 18.6083H12.7764C13.4775 18.6083 13.9449 19.1533 13.9449 19.6983C13.9449 20.3212 13.3996 20.7883 12.7764 20.7883H1.24648C0.545333 20.7883 0.0779047 20.2433 0.0779047 19.6983V19.2311H-4.75493e-06Z" transform="translate(182.608 2.64728)" fill="#F59600"/>
<path d="M1.16858 21.8783C0.467438 21.8783 -2.37746e-06 21.3333 -2.37746e-06 20.7105V1.09002C-2.37746e-06 0.467153 0.545342 3.7126e-08 1.16858 3.7126e-08C1.79182 3.7126e-08 2.33715 0.545012 2.33715 1.09002V20.6326C2.33715 21.3333 1.79182 21.8783 1.16858 21.8783Z" transform="translate(198.423 2.10217)" fill="#F59600"/>
<path d="M11.8415 17.2068V1.16788C11.8415 0.545012 12.3869 3.7126e-08 13.0101 3.7126e-08C13.7112 3.7126e-08 14.1787 0.467153 14.1787 1.16788V20.3212C14.1787 21.1776 13.4775 21.8783 12.5427 21.8783C11.9194 21.8783 11.3741 21.5669 11.1404 21.0219L2.33714 4.3601V20.7883C2.33714 21.4112 1.7918 21.9562 1.16857 21.9562C0.467424 21.9562 -4.75493e-06 21.4112 -4.75493e-06 20.7883V1.63504C-4.75493e-06 0.70073 0.779052 3.7126e-08 1.71391 3.7126e-08C2.33715 3.7126e-08 2.96038 0.311435 3.272 0.856448L11.8415 17.2068Z" transform="translate(203.253 2.10217)" fill="#F59600"/>
<path d="M2.41504 2.33577V9.03163H9.89389C10.595 9.03163 11.0625 9.57664 11.0625 10.1217C11.0625 10.7445 10.595 11.2117 9.89389 11.2117H2.41504V18.764H10.9846C11.6857 18.764 12.1531 19.309 12.1531 19.854C12.1531 20.4769 11.6857 20.944 10.9846 20.944H1.16858C0.467438 20.944 9.50985e-06 20.399 9.50985e-06 19.854V1.16788C9.50985e-06 0.545012 0.545342 3.7126e-08 1.16858 3.7126e-08H10.7509C11.452 3.7126e-08 11.9194 0.545012 11.9194 1.09002C11.9194 1.63504 11.3741 2.18005 10.7509 2.18005H2.41504V2.33577Z" transform="translate(219.847 2.49152)" fill="#F59600"/>
<path d="M65.2062 0H2.97183e-07L5.21961 5.13869L65.2062 0Z" transform="translate(21.5024 26.8613)" fill="#F59600"/>
<path d="M11.8415 0.467153V1.24574C10.595 0.467153 9.58228 7.4252e-08 8.02419 7.4252e-08C3.42781 7.4252e-08 5.94366e-07 4.12652 5.94366e-07 9.26521C5.94366e-07 14.4039 3.50571 18.5304 8.02419 18.5304C9.50438 18.5304 10.595 18.0633 11.8415 17.2847V18.0633H15.8147V0.467153H11.8415ZM8.02419 14.326C5.76495 14.326 4.12895 12.146 4.12895 9.34307C4.12895 6.54015 5.76495 4.3601 8.02419 4.3601C10.2834 4.3601 11.8415 6.54015 11.8415 9.34307C11.9194 12.146 10.2834 14.326 8.02419 14.326Z" transform="translate(15.7373 5.37225)" fill="#F59600"/>
<path d="M10.595 0V10.3552C10.595 12.3017 9.27066 13.9367 7.32304 13.9367C5.37543 13.9367 4.05104 12.3017 4.05104 10.3552V0H0V10.3552C0 14.6375 2.88247 18.0633 7.16723 18.0633C9.11485 18.0633 10.595 16.9732 10.595 16.9732V17.5961H14.6461V0H10.595Z" transform="translate(49.0806 5.83942)" fill="#F59600"/>
<path d="M4.05104 18.0633V7.70803C4.05104 5.76156 5.37543 4.12652 7.32305 4.12652C9.27066 4.12652 10.595 5.76156 10.595 7.70803V18.0633H14.6461V7.70803C14.6461 3.42579 11.7636 0 7.47885 0C5.53124 0 4.05104 1.09002 4.05104 1.09002V0.389294H1.18873e-06V18.0633H4.05104Z" transform="translate(93.0181 5.45013)" fill="#F59600"/>
<path d="M4.20685 22.1119V15.2603H7.16723L12.3089 22.1119H17.5286L11.2962 13.8589C13.2438 12.4574 14.4903 10.1995 14.4903 7.63017C14.4903 3.42579 11.0625 -3.7126e-08 6.85561 -3.7126e-08H0V22.0341H4.20685V22.1119ZM4.20685 4.28224H6.93352C8.80323 4.28224 10.3613 5.83942 10.3613 7.70803C10.3613 9.57664 8.80323 11.1338 6.93352 11.1338H4.20685V4.28224Z" transform="translate(0 1.40143)" fill="#F59600"/>
<path d="M9.34856 17.9854C8.95904 18.219 8.56952 18.4526 8.02419 18.4526C7.40095 18.4526 6.15447 17.9854 6.15447 16.2725V8.72019H9.58228V4.43796H6.15447V-3.7126e-08H2.10343V4.43796H-2.37746e-06V8.64234H2.10343V16.2725C2.10343 20.2433 5.0638 22.5791 8.10209 22.5791C9.19275 22.5791 10.7508 22.1898 11.9973 21.4891L9.34856 17.9854Z" transform="translate(65.2065 1.40143)" fill="#F59600"/>
<path d="M7.63466 14.1703L14.5682 5.83942H8.95904L4.12895 11.9903V0H0V23.5134H4.12895V16.2725L10.0497 23.5134H15.6588L7.63466 14.1703Z" transform="translate(33.8892)" fill="#F59600"/>
<path d="M7.94628 0C3.272 0 1.18873e-06 4.04866 1.18873e-06 9.26521C1.18873e-06 14.7153 4.20685 18.5304 8.3358 18.5304C10.4392 18.5304 13.1659 17.8297 15.4251 14.5596L11.9194 12.5353C9.19275 16.5839 4.59638 14.5596 4.05104 10.5109H15.5809C16.5937 4.12652 12.4648 0 7.94628 0ZM11.452 6.92944H4.20686C5.06381 2.80292 10.6729 2.56934 11.452 6.92944Z" transform="translate(75.8789 5.45013)" fill="#F59600"/>
</svg>
