<svg width="181" height="32" viewBox="0 0 181 32" fill="none" xmlns="http://www.w3.org/2000/svg">
<path d="M20.7769 1.48504e-07L21.0103 3.27007C19.2984 3.34793 16.8083 3.42579 14.0847 4.98297C12.4506 5.91727 9.64919 8.01946 9.64919 11.2895C9.64919 15.4939 14.7072 16.4282 17.1973 16.7397L15.641 19.9319C9.72701 19.1533 6.22528 16.1168 6.22528 11.601C6.22528 9.03163 7.39253 6.618 9.26011 5.06083C9.80482 4.59367 10.8164 3.9708 11.6724 3.50365L0.233446 4.82725L-4.74951e-06 1.3236C1.55632 1.24574 3.34608 1.24574 4.27988 1.16788L20.7769 1.48504e-07ZM16.1857 6.38443C17.2752 7.70803 18.0533 9.03163 18.9871 10.9002L17.0417 12.146C16.1857 10.1995 15.4854 9.03163 14.3182 7.47445L16.1857 6.38443ZM19.5318 4.51582C20.7769 5.99513 21.4772 7.24088 22.411 9.03163L20.4656 10.1995C19.5318 8.17518 18.9093 7.16302 17.6642 5.60584L19.5318 4.51582Z" transform="translate(113.534 4.12659)" fill="#F59600"/>
<path d="M12.8396 1.47932C11.828 3.27007 10.4273 5.76156 8.55976 9.49878C9.18229 9.03163 10.0383 8.3309 11.5946 8.3309C13.54 8.3309 15.0963 9.49878 15.0963 11.6788C15.0963 12.4574 14.5516 15.9611 14.5516 16.7397C14.5516 17.4404 14.785 17.9075 15.641 17.9075C18.1311 17.9075 19.2984 13.6253 19.5318 12.7689L22.2554 14.5596C20.9325 18.4526 18.6759 21.0219 15.3298 21.0219C14.0069 21.0219 11.2055 20.5547 11.2055 16.9732C11.2055 16.4282 11.2833 15.9611 11.5946 13.3917C11.6724 12.9246 11.7502 12.3017 11.7502 12.146C11.7502 11.9903 11.7502 11.2895 10.6608 11.2895C10.0383 11.2895 8.01506 11.7567 6.53655 13.7032C5.60276 14.9489 4.43551 17.2068 2.80138 20.944L-4.74951e-06 19.3869L9.727 7.4252e-08L12.8396 1.47932Z" transform="translate(135.322 2.64722)" fill="#F59600"/>
<path d="M11.1277 17.129C14.6294 16.8175 18.4424 15.0268 18.4424 10.9781C18.4424 7.63017 15.8745 6.77372 14.3182 6.77372C12.2949 6.77372 10.3495 7.70803 8.2485 9.6545C8.17068 13.8589 8.2485 17.674 8.32632 21.0219H5.21368L5.29149 13.1582C4.27988 14.6375 3.34609 16.0389 2.4123 17.5182L4.74952e-06 15.3382C2.49012 11.9903 5.05804 8.3309 5.29149 8.09732V7.08516C3.50172 7.31874 2.95701 7.39659 1.24505 7.55231L0.933795 4.28224C2.17885 4.28224 4.12425 4.20438 5.29149 4.04866V0H8.40413C8.40413 0.778589 8.32632 5.83942 8.32632 6.15085C9.96046 4.90511 11.9837 3.89294 14.5516 3.89294C17.8977 3.89294 21.7885 5.91727 21.7885 11.2117C21.7885 17.129 16.9639 19.854 12.2949 20.399L11.1277 17.129Z" transform="translate(159.211 3.11438)" fill="#F59600"/>
<path d="M65.132 0H2.96845e-07L5.21367 5.13869L65.132 0Z" transform="translate(21.4771 26.8613)" fill="#F59600"/>
<path d="M11.828 0.467153V1.24574C10.583 0.467153 9.57137 7.4252e-08 8.01505 7.4252e-08C3.42391 7.4252e-08 5.93689e-07 4.12652 5.93689e-07 9.26521C5.93689e-07 14.4039 3.50172 18.5304 8.01505 18.5304C9.49356 18.5304 10.583 18.0633 11.828 17.2847V18.0633H15.7967V0.467153H11.828ZM8.01505 14.326C5.75839 14.326 4.12425 12.146 4.12425 9.34307C4.12425 6.54015 5.75839 4.3601 8.01505 4.3601C10.2717 4.3601 11.828 6.54015 11.828 9.34307C11.9059 12.146 10.2717 14.326 8.01505 14.326Z" transform="translate(15.7188 5.37231)" fill="#F59600"/>
<path d="M10.583 0V10.3552C10.583 12.3017 9.26011 13.9367 7.31471 13.9367C5.36931 13.9367 4.04643 12.3017 4.04643 10.3552V0H0V10.3552C0 14.6375 2.87919 18.0633 7.15907 18.0633C9.10448 18.0633 10.583 16.9732 10.583 16.9732V17.5961H14.6294V0H10.583Z" transform="translate(49.0239 5.83948)" fill="#F59600"/>
<path d="M4.04643 18.0633V7.70803C4.04643 5.76156 5.36931 4.12652 7.31471 4.12652C9.26011 4.12652 10.583 5.76156 10.583 7.70803V18.0633H14.6294V7.70803C14.6294 3.42579 11.7502 0 7.47034 0C5.52494 0 4.04643 1.09002 4.04643 1.09002V0.389294H1.18738e-06V18.0633H4.04643Z" transform="translate(92.9121 5.45007)" fill="#F59600"/>
<path d="M4.20207 22.1119V15.2603H7.15908L12.2949 22.1119H17.5086L11.2833 13.8589C13.2287 12.4574 14.4738 10.1995 14.4738 7.63017C14.4738 3.42579 11.0499 -3.7126e-08 6.84781 -3.7126e-08H0V22.0341H4.20207V22.1119ZM4.20207 4.28224H6.92563C8.79321 4.28224 10.3495 5.83942 10.3495 7.70803C10.3495 9.57664 8.79321 11.1338 6.92563 11.1338H4.20207V4.28224Z" transform="translate(0 1.40149)" fill="#F59600"/>
<path d="M9.33792 17.9854C8.94884 18.219 8.55977 18.4526 8.01505 18.4526C7.39252 18.4526 6.14747 17.9854 6.14747 16.2725V8.72019H9.57137V4.43796H6.14747V-3.7126e-08H2.10103V4.43796H-2.37476e-06V8.64233H2.10103V16.2725C2.10103 20.2433 5.05804 22.5791 8.09287 22.5791C9.18229 22.5791 10.7386 22.1898 11.9837 21.489L9.33792 17.9854Z" transform="translate(65.1323 1.40149)" fill="#F59600"/>
<path d="M7.62597 14.1703L14.5516 5.83942H8.94884L4.12425 11.9903V0H0V23.5134H4.12425V16.2725L10.0383 23.5134H15.641L7.62597 14.1703Z" transform="translate(33.8499)" fill="#F59600"/>
<path d="M7.93724 0C3.26827 0 1.18738e-06 4.04866 1.18738e-06 9.26521C1.18738e-06 14.7153 4.20207 18.5304 8.32632 18.5304C10.4273 18.5304 13.1509 17.8297 15.4076 14.5596L11.9059 12.5353C9.18229 16.5839 4.59115 14.5596 4.04643 10.5109H15.5632C16.5748 4.12652 12.4506 0 7.93724 0ZM11.439 6.92944H4.20207C5.05805 2.80292 10.6608 2.56934 11.439 6.92944Z" transform="translate(75.7927 5.45007)" fill="#F59600"/>
</svg>
