<svg width="142" height="32" viewBox="0 0 142 32" fill="none" xmlns="http://www.w3.org/2000/svg">
<path d="M12.7153 8.20903C12.6391 7.52494 12.6391 7.2209 13.1721 6.91686C13.5528 6.68884 15.4563 5.54869 19.0349 4.48456C19.4917 4.33254 19.8724 4.40855 20.1008 4.71259C20.3292 5.01663 20.4054 5.47268 20.2531 5.85273C19.9485 6.61283 19.8724 7.2209 20.1769 7.52494C20.4815 7.75297 20.7861 7.82898 21.6997 7.37292C22.918 6.76485 24.2885 5.16865 24.2123 2.58432C24.2123 1.67221 23.8316 0.988124 23.2225 0.532067C22.6134 0.152019 21.7759 -1.13263e-09 20.9383 -1.13263e-09C18.6542 -1.13263e-09 17.5121 0.532066 14.5426 1.67221C10.355 3.1924 5.10134 4.86461 2.20805 5.6247C0.989815 5.92874 -4.64718e-06 6.76485 -4.64718e-06 7.981C-4.64718e-06 9.88124 2.28418 10.4133 3.88311 9.88124C4.18767 9.80523 7.46166 8.58907 8.60375 8.43706C8.75603 8.43706 8.83217 8.51306 8.83217 8.58907C8.83217 8.74109 8.90831 10.4133 8.98445 11.0974C9.13673 14.2138 9.36515 20.2945 9.36515 20.6746C9.44129 21.5107 9.44129 24.019 10.8118 24.019C12.1062 24.019 12.7153 22.6508 13.0198 20.6746C13.4767 17.8622 13.096 13.9097 12.9437 10.7173C12.8676 9.95725 12.7153 8.20903 12.7153 8.20903Z" transform="translate(110.707)" fill="#BF0000"/>
<path d="M13.8574 -7.24883e-08C12.1062 -7.24883e-08 10.5072 3.1924 9.28901 6.00475C7.76622 9.5772 6.92869 12.7696 6.47185 13.8337C6.09115 12.7696 5.0252 9.72922 4.49222 8.66508C3.57855 6.76485 2.66487 5.32067 1.44664 5.32067C0.76139 5.32067 0 5.70071 0 6.91686C0 7.75297 0.380697 8.8171 0.761394 9.80523C0.913673 10.1093 3.19786 15.734 3.50242 16.7981C3.50242 16.7981 4.6445 20.2185 4.72064 20.5226C5.4059 22.5748 6.01501 22.8029 6.47185 22.8029C7.15711 22.8029 8.14692 22.4988 8.60376 20.4466C8.90831 19.1544 9.36515 17.6342 9.74585 16.342C10.4311 14.1378 12.1062 9.88124 13.2483 7.29691C14.1619 5.24466 15.2279 2.81235 15.2279 1.29216C15.2279 0.760095 14.9233 -7.24883e-08 13.8574 -7.24883e-08Z" transform="translate(126.772 3.19238)" fill="#BF0000"/>
<path d="M63.7287 -5.79906e-07H2.90449e-07L5.10134 5.09264L63.7287 -5.79906e-07Z" transform="translate(21.0144 26.9073)" fill="#BF0000"/>
<path d="M11.5732 0.456057V1.21615C10.355 0.456057 9.36515 1.44977e-07 7.84236 1.44977e-07C3.35013 1.44977e-07 5.80898e-07 4.0285 5.80898e-07 9.04513C5.80898e-07 14.0618 3.42627 18.0903 7.84236 18.0903C9.28901 18.0903 10.355 17.6342 11.5732 16.8741V17.6342H15.4563V0.456057H11.5732ZM7.84236 13.9857C5.63432 13.9857 4.03539 11.8575 4.03539 9.12114C4.03539 6.3848 5.63432 4.25653 7.84236 4.25653C10.0504 4.25653 11.5732 6.3848 11.5732 9.12114C11.6493 11.7815 10.0504 13.9857 7.84236 13.9857Z" transform="translate(15.3804 6.00476)" fill="#BF0000"/>
<path d="M10.355 -2.89953e-07V10.1093C10.355 12.0095 9.06059 13.6057 7.15711 13.6057C5.25362 13.6057 3.95925 12.0095 3.95925 10.1093V-2.89953e-07H0V10.1093C0 14.2898 2.81716 17.6342 7.00482 17.6342C8.90831 17.6342 10.355 16.5701 10.355 16.5701V17.1781H14.2381V-2.89953e-07H10.355Z" transform="translate(47.9678 6.46082)" fill="#BF0000"/>
<path d="M3.88311 17.7102V7.52494C3.88311 5.6247 5.17748 4.0285 7.08097 4.0285C8.98445 4.0285 10.2788 5.6247 10.2788 7.52494V17.6342H14.2381V7.52494C14.2381 3.34442 11.4209 1.44977e-07 7.23324 1.44977e-07C5.32976 1.44977e-07 3.88311 1.06413 3.88311 1.06413V0.456057H0V17.7102H3.88311Z" transform="translate(90.9866 6.00476)" fill="#BF0000"/>
<path d="M4.11153 21.5867V14.8979H7.00483L12.03 21.5867H17.1314L11.0402 13.5297C12.9437 12.1615 14.1619 9.95724 14.1619 7.44893C14.1619 3.34442 10.8118 3.62442e-08 6.70027 3.62442e-08H0V21.5107H4.11153V21.5867ZM4.11153 4.10451H6.77641C8.60375 4.10451 10.1265 5.6247 10.1265 7.44893C10.1265 9.27316 8.60375 10.7933 6.77641 10.7933H4.11153V4.10451Z" transform="translate(0 2.1283)" fill="#BF0000"/>
<path d="M9.06059 17.4822C8.67989 17.7102 8.2992 17.9382 7.76622 17.9382C7.1571 17.9382 5.93887 17.4822 5.93887 15.81V8.43705H9.28901V4.33254H5.93887V3.62442e-08H2.05576V4.33254H2.32359e-06V8.43705H2.05576V15.886C2.05576 19.7625 4.94906 22.0428 7.9185 22.0428C8.98445 22.0428 10.5072 21.6627 11.7255 20.9786L9.06059 17.4822Z" transform="translate(63.8049 2.1283)" fill="#BF0000"/>
<path d="M7.46166 13.7577L14.2381 5.70071H8.75603L4.03539 11.7055V-1.81221e-08H0V22.9549H4.03539V15.886L9.82199 22.9549H15.304L7.46166 13.7577Z" transform="translate(33.1208 0.76001)" fill="#BF0000"/>
<path d="M7.76622 1.44977e-07C3.19785 1.44977e-07 1.1618e-06 3.95249 1.1618e-06 9.04513C1.1618e-06 14.3658 4.11153 18.0903 8.14692 18.0903C10.2027 18.0903 12.8676 17.4062 15.0756 14.2138L11.6493 12.2375C8.98445 16.19 4.49222 14.2138 3.95925 10.2613H15.2279C16.2177 4.10451 12.1823 1.44977e-07 7.76622 1.44977e-07ZM11.1925 6.84085H4.11153C4.94906 2.81235 10.4311 2.58432 11.1925 6.84085Z" transform="translate(74.1597 6.00476)" fill="#BF0000"/>
</svg>
