<svg width="206" height="32" viewBox="0 0 206 32" fill="none" xmlns="http://www.w3.org/2000/svg">
<path d="M5.2142 -3.7126e-08C9.96147 -3.7126e-08 12.6853 1.94647 12.6853 5.21655C12.6853 7.94161 11.1288 9.6545 8.32716 10.0438C11.7514 10.8224 13.3857 12.3796 13.3857 15.1825C13.3857 18.9197 10.7397 21.0219 6.07027 21.0219H2.375e-06V-3.7126e-08H5.2142ZM2.33472 8.95377H4.90291C8.24934 8.95377 10.1171 7.70803 10.1171 5.52798C10.1171 3.19221 8.71629 2.25791 5.05856 2.25791H2.33472V8.95377ZM2.33472 18.6861H5.68115C9.10541 18.6861 10.8175 17.4404 10.8175 14.9489C10.8175 12.6131 8.63846 11.1338 4.98073 11.1338H2.25689V18.6861H2.33472Z" transform="translate(114.246 2.56934)" fill="#FF41BE"/>
<path d="M2.41255 2.25791V8.95377H10.6619V11.2117H2.41255V18.764H11.6736V21.0219H0V-3.7126e-08H11.4401V2.25791H2.41255Z" transform="translate(129.188 2.56934)" fill="#FF41BE"/>
<path d="M11.9071 15.9611H4.28032L2.64601 20.944H4.75e-06L6.8485 -3.7126e-08H9.26105L16.1096 20.944H13.4635L11.9071 15.9611ZM11.2845 13.7032L8.09369 3.34793L4.9029 13.7032H11.2845Z" transform="translate(142.107 2.56934)" fill="#FF41BE"/>
<path d="M14.164 13.1582C14.164 18.4526 11.6736 21.4112 7.08198 21.4112C2.49037 21.4112 -2.375e-06 18.5304 -2.375e-06 13.1582V-3.7126e-08H2.41254V13.0024C2.41254 16.8954 4.12466 19.1533 7.1598 19.1533C10.1171 19.1533 11.9071 16.8954 11.9071 13.0024V-3.7126e-08H14.3196V13.1582H14.164Z" transform="translate(159.306 2.56934)" fill="#FF41BE"/>
<path d="M8.40499 2.10219V20.944H5.99244V2.10219H-2.375e-06V-3.7126e-08H14.3974V2.10219H8.40499Z" transform="translate(174.87 2.56934)" fill="#FF41BE"/>
<path d="M8.94976 12.3796V21.0219H6.53722V12.3796L-2.375e-06 -3.7126e-08H2.64602L7.78239 9.96594L12.9188 -3.7126e-08H15.5648L8.94976 12.3796Z" transform="translate(190.435 2.56934)" fill="#FF41BE"/>
<path d="M65.1386 0H2.96875e-07L5.2142 5.13869L65.1386 0Z" transform="translate(21.4794 26.8613)" fill="#FF41BE"/>
<path d="M11.8292 0.467153V1.24574C10.5841 0.467153 9.57235 7.4252e-08 8.01587 7.4252e-08C3.42425 7.4252e-08 5.9375e-07 4.12652 5.9375e-07 9.26521C5.9375e-07 14.4039 3.50208 18.5304 8.01587 18.5304C9.49452 18.5304 10.5841 18.0633 11.8292 17.2847V18.0633H15.7983V0.467153H11.8292ZM8.01587 14.326C5.75897 14.326 4.12467 12.146 4.12467 9.34307C4.12467 6.54015 5.75897 4.3601 8.01587 4.3601C10.2728 4.3601 11.8292 6.54015 11.8292 9.34307C11.9071 12.146 10.2728 14.326 8.01587 14.326Z" transform="translate(15.7205 5.37225)" fill="#FF41BE"/>
<path d="M10.5841 0V10.3552C10.5841 12.3017 9.26105 13.9367 7.31545 13.9367C5.36985 13.9367 4.04684 12.3017 4.04684 10.3552V0H0V10.3552C0 14.6375 2.87948 18.0633 7.1598 18.0633C9.1054 18.0633 10.5841 16.9732 10.5841 16.9732V17.5961H14.6309V0H10.5841Z" transform="translate(49.0291 5.83942)" fill="#FF41BE"/>
<path d="M4.04684 18.0633V7.70803C4.04684 5.76156 5.36986 4.12652 7.31545 4.12652C9.26105 4.12652 10.5841 5.76156 10.5841 7.70803V18.0633H14.6309V7.70803C14.6309 3.42579 11.7514 0 7.4711 0C5.5255 0 4.04684 1.09002 4.04684 1.09002V0.389294H1.1875e-06V18.0633H4.04684Z" transform="translate(92.9218 5.45013)" fill="#FF41BE"/>
<path d="M4.20249 22.1119V15.2603H7.1598L12.2962 22.1119H17.5104L11.2845 13.8589C13.2301 12.4574 14.4753 10.1995 14.4753 7.63017C14.4753 3.42579 11.051 -3.7126e-08 6.84851 -3.7126e-08H0V22.0341H4.20249V22.1119ZM4.20249 4.28224H6.92633C8.79411 4.28224 10.3506 5.83942 10.3506 7.70803C10.3506 9.57664 8.79411 11.1338 6.92633 11.1338H4.20249V4.28224Z" transform="translate(0 1.40143)" fill="#FF41BE"/>
<path d="M9.33887 17.9854C8.94975 18.219 8.56063 18.4526 8.01587 18.4526C7.39327 18.4526 6.14809 17.9854 6.14809 16.2725V8.72019H9.57235V4.43796H6.14809V-3.7126e-08H2.10125V4.43796H-2.375e-06V8.64233H2.10125V16.2725C2.10125 20.2433 5.05856 22.5791 8.09369 22.5791C9.18322 22.5791 10.7397 22.1898 11.9849 21.489L9.33887 17.9854Z" transform="translate(65.1386 1.40143)" fill="#FF41BE"/>
<path d="M7.62675 14.1703L14.5531 5.83942H8.94975L4.12467 11.9903V0H0V23.5134H4.12467V16.2725L10.0393 23.5134H15.6426L7.62675 14.1703Z" transform="translate(33.8535)" fill="#FF41BE"/>
<path d="M7.93804 0C3.2686 0 1.1875e-06 4.04866 1.1875e-06 9.26521C1.1875e-06 14.7153 4.20249 18.5304 8.32716 18.5304C10.4284 18.5304 13.1522 17.8297 15.4091 14.5596L11.9071 12.5353C9.18322 16.5839 4.59161 14.5596 4.04684 10.5109H15.5648C16.5765 4.12652 12.4518 0 7.93804 0ZM11.4401 6.92944H4.2025C5.05856 2.80292 10.6619 2.56934 11.4401 6.92944Z" transform="translate(75.8005 5.45013)" fill="#FF41BE"/>
</svg>
