<?xml version="1.0" encoding="UTF-8"?>
<svg width="145px" height="32px" viewBox="0 0 145 32" version="1.1" xmlns="http://www.w3.org/2000/svg" xmlns:xlink="http://www.w3.org/1999/xlink">
    <!-- Generator: Sketch 50.2 (55047) - http://www.bohemiancoding.com/sketch -->
    <title>Logo / Rakuten24_sp_32px</title>
    <desc>Created with Sketch.</desc>
    <defs></defs>
    <g id="Logo-/-Rakuten24_sp_32px" stroke="none" stroke-width="1" fill="none" fill-rule="evenodd">
        <path d="M86.7462725,26.8181193 L26.7446111,32 L21.5517174,26.8181193 L86.7462725,26.8181193 Z M27.5913311,5.85713556 L31.6054746,5.85713556 L31.6054746,23.5102263 L27.5913311,23.5102263 L27.5913311,22.7276153 C26.3806174,23.4985572 25.2946392,23.9435408 23.8079482,23.9435408 C19.2410707,23.9435408 15.7710857,19.7901012 15.7710857,14.6844589 C15.7710857,9.57959455 19.2410707,5.42382111 23.8079482,5.42382111 C25.2946392,5.42382111 26.3806174,5.87113854 27.5913311,6.64052453 L27.5913311,5.85713556 Z M23.8079482,19.6928582 C26.0633215,19.6928582 27.6521396,17.4796094 27.6521396,14.6844589 C27.6521396,11.8908643 26.0633215,9.67761541 23.8079482,9.67761541 C21.5556933,9.67761541 19.9068463,11.8908643 19.9068463,14.6844589 C19.9068463,17.4796094 21.5556933,19.6928582 23.8079482,19.6928582 Z M59.7531259,5.85736895 L63.768049,5.85736895 L63.768049,23.5104597 L59.7531259,23.5104597 L59.7531259,22.8538755 C59.7531259,22.8538755 58.3155496,23.9437741 56.3408311,23.9437741 C52.0756574,23.9437741 49.1591861,20.4819262 49.1591861,16.2273539 L49.1591861,5.85736895 L53.1741092,5.85736895 L53.1741092,16.2273539 C53.1741092,18.1729903 54.514236,19.8152287 56.4632278,19.8152287 C58.4137788,19.8152287 59.7531259,18.1729903 59.7531259,16.2273539 L59.7531259,5.85736895 Z M97.1642573,23.5103819 L93.1493342,23.5103819 L93.1493342,5.85729115 L97.1642573,5.85729115 L97.1642573,6.51387535 C97.1642573,6.51387535 98.6018336,5.42319876 100.576552,5.42319876 C104.840946,5.42319876 107.758197,8.88504671 107.758197,13.1403969 L107.758197,23.5103819 L103.743274,23.5103819 L103.743274,13.1403969 C103.743274,11.1947606 102.403147,9.55252212 100.454155,9.55252212 C98.5028248,9.55252212 97.1642573,11.1947606 97.1642573,13.1403969 L97.1642573,23.5103819 Z M4.19890792,23.5100707 L0,23.5100707 L0,1.45848821 L6.93919038,1.45848821 C11.1435555,1.45848821 14.5620871,4.86588013 14.5620871,9.06132868 C14.5620871,11.6153167 13.2905648,13.8705745 11.3540466,15.2576475 L17.5674324,23.5100707 L12.3106118,23.5100707 L7.16917141,16.6711706 L4.19890792,16.6711706 L4.19890792,23.5100707 Z M4.19890792,5.64537938 L4.19890792,12.4811677 L6.93919038,12.4811677 C8.82503484,12.4811677 10.3670771,10.951731 10.3670771,9.06132868 C10.3670771,7.17559397 8.82503484,5.64537938 6.93919038,5.64537938 L4.19890792,5.64537938 Z M74.5894751,19.3330594 L77.2354264,22.8478075 C75.9724797,23.5946332 74.4242006,23.9587107 73.3078181,23.9587107 C70.3141667,23.9587107 67.3376665,21.604654 67.3392257,17.662815 L67.3392257,10.0467495 L65.2148246,10.0467495 L65.2148246,5.85674659 L67.3392257,5.85674659 L67.3384461,1.45825483 L71.3541487,1.45825483 L71.3541487,5.85674659 L74.7874927,5.85674659 L74.7874927,10.0467495 L71.3541487,10.0467495 L71.3541487,17.6013575 C71.3541487,19.2669342 72.5905891,19.7671518 73.2470096,19.7671518 C73.774017,19.7671518 74.2285218,19.5773336 74.5894751,19.3330594 Z M41.5875869,14.1321191 L49.576894,23.5102263 L43.9513241,23.5102263 L38.0295075,16.2582383 L38.0295075,23.5102263 L33.8953061,23.5102263 L33.8953061,0 L38.0295075,0 L38.0295075,12.0067778 L42.8466356,5.85713556 L48.4745443,5.85713556 L41.5875869,14.1321191 Z M83.8632458,5.40927357 C88.4316826,5.40927357 92.5401573,9.57904999 91.5508491,15.9200663 L79.9855318,15.9169545 C80.5133187,19.9513688 85.0840943,21.9989157 87.8267155,17.9645015 L91.373101,20.0081587 C89.0927806,23.2350677 86.379784,23.960111 84.2623994,23.960111 C80.0666098,23.960111 75.8832938,20.1513003 75.8832938,14.6839143 C75.8832938,9.4841409 79.2160698,5.40927357 83.8632458,5.40927357 Z M87.3683127,12.4053182 C86.5863772,8.03327653 80.9818564,8.27054925 80.1367735,12.4053182 L87.3683127,12.4053182 Z M114.407144,19.9701173 C115.073699,17.9731366 116.994625,15.3646926 119.155667,13.5279683 L120.543349,12.3299355 C122.917221,10.2800547 123.583777,9.37530662 123.583777,8.20372392 C123.583777,6.81976268 122.43621,5.86133646 120.809971,5.86133646 C119.155667,5.86133646 117.848283,6.76686253 117.154442,8.39043032 L114.167028,6.18107118 C115.500918,3.59907716 117.901296,2.13498776 120.782686,2.13498776 C124.944173,2.13498776 127.852069,4.58395346 127.852069,8.04424553 C127.852069,10.0412261 126.784801,11.6111158 123.343661,14.672323 L122.116576,15.7637775 C120.595582,17.1212887 119.475302,18.5060278 118.861759,19.7834108 L128.011886,19.7834108 L128.011886,23.5105375 L114.407144,23.5105375 L114.407144,19.9701173 Z M142.492037,19.1982418 L142.492037,23.5103819 L138.491147,23.5103819 L138.491147,19.1982418 L129.607642,19.1982418 L129.607642,15.5512434 L136.889855,2.56114513 L142.492037,2.56114513 L142.492037,15.5512434 L145,15.5512434 L145,19.1982418 L142.492037,19.1982418 Z M133.982739,15.5512434 L138.491147,15.5512434 L138.491147,7.05921365 L133.982739,15.5512434 Z" id="Combined-Shape" fill="#BF0000"></path>
    </g>
</svg>