<svg width="183" height="32" viewBox="0 0 183 32" fill="none" xmlns="http://www.w3.org/2000/svg">
<path d="M2.87881 -2.97008e-07C3.65687 -2.97008e-07 4.35713 0.311435 4.90177 0.856447C5.44641 1.40146 5.75764 2.10219 5.75764 2.88078C5.75764 3.65937 5.44641 4.3601 4.90177 4.90511C4.35713 5.45012 3.65687 5.76155 2.87881 5.76155C2.10075 5.76155 1.40051 5.45012 0.855867 4.90511C0.311226 4.3601 -2.37445e-06 3.65937 -2.37445e-06 2.88078C-2.37445e-06 1.3236 1.32269 -2.97008e-07 2.87881 -2.97008e-07Z" transform="translate(131.647 13.1582)" fill="#E60039"/>
<path d="M23.0305 11.7567L23.1083 15.1825V15.2603H23.0305H1.86734H1.78953C1.3227 15.2603 0.855869 15.1046 0.544646 14.7932C0.233422 14.4817 -4.74889e-06 14.0146 -4.74889e-06 13.5474C-4.74889e-06 12.6131 0.778063 11.8345 1.71173 11.8345H1.78953H9.3367V9.42092C8.94767 9.42092 6.22446 9.42092 6.22446 9.42092C6.22446 9.42092 6.22447 9.42092 6.14666 9.42092C5.67983 9.42092 5.21299 9.2652 4.90177 8.87591C4.59054 8.56447 4.43494 8.09732 4.43494 7.63017C4.43494 6.69586 5.21299 5.91727 6.14666 5.91727H6.22446H9.41451V3.50365C8.94767 3.50365 5.4464 3.50365 5.4464 3.50365H5.36861C4.90177 3.50365 4.43493 3.34793 4.12371 2.95864C3.81248 2.6472 3.65688 2.18005 3.65688 1.71289C3.65688 0.778588 4.43494 -1.48504e-07 5.36861 -1.48504e-07C5.36861 -1.48504e-07 5.3686 -1.48504e-07 5.4464 -1.48504e-07H19.1402H19.218V0.077859V3.42579V3.50365H19.1402H13.3048V5.91727H16.1058H16.1836V5.99513V6.07299C15.8724 6.46228 15.7168 7.0073 15.7168 7.70803C15.7168 8.25304 15.7946 8.79805 16.1058 9.2652L16.1836 9.34306H16.1058H13.3048V11.7567H23.0305V11.7567Z" transform="translate(115.464 8.33093)" fill="#E60039"/>
<path d="M20.0294 9.49878C20.0294 13.3917 18.2399 15.8053 16.6837 17.1289C14.8164 18.764 12.3266 19.6983 9.91463 19.6983C8.43632 19.6983 6.958 19.3869 5.63531 18.764C4.46822 18.219 3.37894 17.4404 2.52307 16.4282C0.811344 14.5596 -0.20013 12.0681 0.0332875 10.0438C0.0332875 9.96593 0.266707 2.10219 0.266707 1.94647C0.266707 1.3236 0.500123 0.778588 0.811346 0.467153C1.12257 0.155718 1.58941 -7.4252e-08 2.21185 -7.4252e-08C2.8343 -7.4252e-08 3.30114 0.155718 3.61236 0.545012C3.92358 0.856447 4.0792 1.40146 4.00139 2.02433C4.00139 2.10219 3.84577 9.10948 3.84577 9.18734C3.76796 11.1338 4.31261 12.7689 5.4797 14.0146C6.8024 15.4161 8.66973 15.9611 9.91463 15.9611C12.0154 15.9611 13.4159 14.9489 14.2718 14.0925C15.4388 12.8467 16.1391 11.056 16.0613 9.49878C16.0613 9.03163 16.2169 8.56447 16.5281 8.25304C16.9172 7.86374 17.4618 7.55231 18.0064 7.55231C18.5511 7.55231 19.0179 7.70803 19.4069 8.09732C19.796 8.48661 20.0294 9.03163 20.0294 9.49878Z" transform="translate(162.971 3.58154)" fill="#E60039"/>
<path d="M5.75763 10.1216L18.1288 15.9611C18.5178 16.1168 18.5178 16.1168 18.5956 16.1168H18.6734H18.7512C19.3737 16.4282 19.7627 17.1289 19.7627 17.8297C19.7627 18.3747 19.5293 18.8418 19.218 19.2311C18.829 19.6204 18.3622 19.7761 17.8175 19.7761C17.6619 19.7761 17.4285 19.7761 17.2729 19.6983H17.1951C17.0395 19.6204 16.8839 19.6204 16.8061 19.5426C16.1836 19.2311 1.86734 12.5353 1.3227 12.3017C1.16709 12.2238 1.01148 12.146 0.933675 12.0681C0.389034 11.7567 -4.74889e-06 11.056 -4.74889e-06 10.3552C-4.74889e-06 9.57664 0.389027 8.95377 1.01147 8.48661H1.08928L1.16708 8.40876C1.16708 8.40876 1.16709 8.40876 1.24489 8.40876L17.3507 0.155718C17.5841 0.0778589 17.8175 1.48504e-07 18.1288 1.48504e-07C18.6734 1.48504e-07 19.1402 0.233577 19.5293 0.545012C19.9183 0.934306 20.0739 1.40146 20.0739 1.94647C20.0739 2.72506 19.6071 3.34793 18.6734 3.81508L5.75763 10.1216Z" transform="translate(140.751 3.34796)" fill="#E60039"/>
<path d="M0.778058 4.67153C0.233418 4.12652 0 3.50365 0 2.72506C0 1.24574 1.24489 -7.4252e-08 2.7232 -7.4252e-08C3.42346 -7.4252e-08 4.12371 0.311435 4.66835 0.778588C5.21299 1.3236 5.44641 1.94647 5.44641 2.72506C5.44641 3.42579 5.13519 4.12652 4.66835 4.67153C4.12371 5.21654 3.50126 5.45012 2.7232 5.45012C1.94515 5.52798 1.24489 5.21654 0.778058 4.67153Z" transform="translate(170.783 3.19226)" fill="#E60039"/>
<path d="M0.778061 4.67153C0.23342 4.12652 2.37445e-06 3.50365 2.37445e-06 2.72506C2.37445e-06 1.24574 1.2449 -7.4252e-08 2.72321 -7.4252e-08C3.42346 -7.4252e-08 4.12371 0.311435 4.66835 0.778588C5.21299 1.3236 5.44641 1.94647 5.44641 2.72506C5.44641 3.42579 5.13519 4.12652 4.66835 4.67153C4.12371 5.21654 3.50127 5.45012 2.72321 5.45012C1.94515 5.52798 1.2449 5.21654 0.778061 4.67153Z" transform="translate(176.853 3.19226)" fill="#E60039"/>
<path d="M25.6759 4.59367V8.95377V9.03163H25.5981H21.8634H21.7856V8.95377V4.59367H3.89029V8.95377V9.03163H3.81249H0.0778082H-2.37445e-06V8.95377V4.67153V4.59367C-2.37445e-06 3.50365 0.389029 2.72506 1.01148 2.18005C1.63392 1.71289 2.48978 1.40146 3.65687 1.40146H3.73468H10.1148C10.815 0.545012 11.7487 3.7126e-08 12.838 3.7126e-08C13.9272 3.7126e-08 14.9387 0.467153 15.5612 1.40146C15.7946 1.40146 21.9412 1.40146 21.9412 1.40146C24.431 1.47932 25.6759 2.49148 25.6759 4.59367Z" transform="translate(114.141 2.49152)" fill="#E60039"/>
<path d="M65.1235 0H2.96806e-07L5.21299 5.13868L65.1235 0Z" transform="translate(21.4746 26.8613)" fill="#E60039"/>
<path d="M11.8265 0.467153V1.24574C10.5816 0.467153 9.57012 7.4252e-08 8.014 7.4252e-08C3.42346 7.4252e-08 5.93611e-07 4.12652 5.93611e-07 9.2652C5.93611e-07 14.4039 3.50126 18.5304 8.014 18.5304C9.49231 18.5304 10.5816 18.0633 11.8265 17.2847V18.0633H15.7946V0.467153H11.8265ZM8.014 14.326C5.75763 14.326 4.12371 12.146 4.12371 9.34306C4.12371 6.54014 5.75763 4.3601 8.014 4.3601C10.2704 4.3601 11.8265 6.54014 11.8265 9.34306C11.9043 12.146 10.2704 14.326 8.014 14.326Z" transform="translate(15.7168 5.37225)" fill="#E60039"/>
<path d="M10.5816 0V10.3552C10.5816 12.3017 9.2589 13.9367 7.31375 13.9367C5.3686 13.9367 4.0459 12.3017 4.0459 10.3552V0H0V10.3552C0 14.6375 2.87881 18.0633 7.15814 18.0633C9.10328 18.0633 10.5816 16.9732 10.5816 16.9732V17.5961H14.6275V0H10.5816Z" transform="translate(49.0181 5.83942)" fill="#E60039"/>
<path d="M4.0459 18.0633V7.70803C4.0459 5.76156 5.36861 4.12652 7.31375 4.12652C9.2589 4.12652 10.5816 5.76156 10.5816 7.70803V18.0633H14.6275V7.70803C14.6275 3.42579 11.7487 0 7.46936 0C5.52422 0 4.0459 1.09002 4.0459 1.09002V0.389294H1.18722e-06V18.0633H4.0459Z" transform="translate(92.8999 5.45013)" fill="#E60039"/>
<path d="M4.20152 22.1119V15.2603H7.15814L12.2933 22.1119H17.5063L11.2818 13.8589C13.227 12.4574 14.4719 10.1995 14.4719 7.63017C14.4719 3.42579 11.0484 -3.7126e-08 6.84691 -3.7126e-08H0V22.0341H4.20152V22.1119ZM4.20152 4.28224H6.92472C8.79206 4.28224 10.3482 5.83941 10.3482 7.70803C10.3482 9.57664 8.79206 11.1338 6.92472 11.1338H4.20152V4.28224Z" transform="translate(0 1.40143)" fill="#E60039"/>
<path d="M9.3367 17.9854C8.94767 18.219 8.55864 18.4525 8.014 18.4525C7.39156 18.4525 6.14666 17.9854 6.14666 16.2725V8.72019H9.57012V4.43795H6.14666V-3.7126e-08H2.10076V4.43795H-2.37445e-06V8.64233H2.10076V16.2725C2.10076 20.2433 5.05738 22.5791 8.09181 22.5791C9.18109 22.5791 10.7372 22.1898 11.9821 21.489L9.3367 17.9854Z" transform="translate(65.124 1.40143)" fill="#E60039"/>
<path d="M7.62497 14.1703L14.5497 5.83941H8.94767L4.12371 11.9903V0H0V23.5134H4.12371V16.2725L10.037 23.5134H15.639L7.62497 14.1703Z" transform="translate(33.8457)" fill="#E60039"/>
<path d="M7.93619 0C3.26784 0 1.18722e-06 4.04866 1.18722e-06 9.2652C1.18722e-06 14.7153 4.20151 18.5304 8.32522 18.5304C10.426 18.5304 13.1492 17.8297 15.4056 14.5596L11.9043 12.5353C9.18109 16.5839 4.59054 14.5596 4.0459 10.5109H15.5612C16.5726 4.12652 12.4489 0 7.93619 0ZM11.4375 6.92944H4.20152C5.05738 2.80292 10.6594 2.56934 11.4375 6.92944Z" transform="translate(75.7827 5.45013)" fill="#E60039"/>
</svg>
