<svg width="160" height="32" viewBox="0 0 160 32" fill="none" xmlns="http://www.w3.org/2000/svg">
<path d="M1.16561 9.42092H10.3351V15.4161H8.62554V17.8297C9.55803 17.4404 10.4905 16.8175 10.9568 16.5839L11.3453 19.0754C9.94657 20.0097 7.84847 21.0219 6.1389 21.7226V15.4161H4.89558C4.66245 19.3869 3.41913 21.0219 1.70956 22.4234L-2.37145e-06 20.0876C2.33122 18.5304 2.40893 16.1168 2.48664 15.4161H1.24332V9.42092H1.16561ZM4.35163 -3.7126e-08H7.14909V1.47932H10.5682V3.89294H9.71344C9.48032 4.90511 9.48033 5.06083 9.2472 5.6837H10.8014V8.09732H0.388535V5.76156H2.17581C2.0981 5.13869 2.0204 4.59367 1.86499 3.9708H1.0102V1.55718H4.35163V-3.7126e-08V-3.7126e-08ZM3.80768 11.3674V13.4696H7.69305V11.3674H3.80768ZM4.27391 3.9708C4.35162 4.28224 4.66245 5.52798 4.66245 5.76156H6.76055C6.91597 5.2944 7.07138 4.28224 7.14909 3.9708H4.27391V3.9708ZM19.5823 15.4161V18.9976C19.5823 19.3869 19.5823 19.6204 19.8931 19.6204C20.3594 19.6204 20.4371 19.6204 20.5148 19.3869C20.5925 19.2311 20.6702 17.5961 20.6702 17.2068L23.0014 17.7518C22.846 21.0998 22.6129 22.2676 21.1364 22.2676H18.7275C18.0282 22.2676 17.1734 21.9562 17.1734 20.7105V15.3382H15.93C15.6969 19.6204 13.9096 21.0998 11.6561 22.3455L10.102 20.0097C12.2778 19.0754 13.288 18.0633 13.5211 15.4161H12.1224V9.42092H21.9135V15.4161H19.5823ZM15.6192 -3.7126e-08H18.4167V1.47932H22.0689V3.89294H21.2142C21.0587 4.67153 20.9033 5.06083 20.7479 5.6837H22.6129V8.09732H11.5007V5.76156H13.288C13.2103 5.45012 13.0549 4.51581 12.9772 3.9708H11.8115V1.55718H15.6969V-3.7126e-08H15.6192ZM14.6867 11.3674V13.4696H19.1161V11.3674H14.6867ZM15.4638 3.9708C15.6969 5.21654 15.6969 5.2944 15.7746 5.76156H18.1059C18.2613 5.06083 18.4167 4.3601 18.4944 3.9708H15.4638V3.9708Z" transform="translate(113.609 1.79077)" fill="#BF0000"/>
<path d="M4.35163 14.4818C4.19621 16.1168 3.88538 19.4647 2.40894 21.5669L-2.37145e-06 19.5426C1.24332 17.4404 1.55415 15.0268 1.63186 14.0146L4.35163 14.4818ZM21.3696 2.49148H13.3657V3.89294H20.3594V5.91728H13.3657V7.39659H20.3594V9.42093H13.3657V10.9002H21.9135C21.9135 11.9124 21.6804 16.9732 20.981 19.3869C20.6702 20.3212 19.8931 21.4891 18.5721 21.4891H14.6867L14.0651 18.6083L17.4065 18.6861C17.7173 18.6861 17.9504 18.5304 18.1836 18.1411C18.6498 17.129 18.8052 13.6253 18.8052 13.236H1.78727V7.4252e-08H21.3696V2.49148ZM4.74016 2.49148V3.89294H10.6459V2.49148H4.74016ZM4.74016 5.91728V7.39659H10.6459V5.91728H4.74016ZM4.74016 9.34307V10.8224H10.6459V9.34307H4.74016ZM7.84846 14.7932C8.47012 17.129 8.39242 20.0876 8.39242 20.5547L5.59494 20.7105C5.67265 20.1655 5.67265 19.5426 5.67265 18.6861C5.67265 16.5839 5.43953 15.4161 5.36183 14.7932H7.84846V14.7932ZM11.8115 14.4818C12.4332 15.9611 12.8995 18.3747 13.0549 19.4647L10.4128 20.0097C10.0243 16.8175 9.63574 15.5718 9.40262 14.7153L11.8115 14.4818ZM16.1632 14.0925C16.6294 14.9489 17.0957 16.1946 17.3288 17.2847L14.8421 17.9075C14.6867 17.3625 14.3759 15.8832 13.5988 14.4818L16.1632 14.0925Z" transform="translate(138.086 2.64722)" fill="#BF0000"/>
<path d="M65.0412 0H2.96431e-07L5.20641 5.13869L65.0412 0Z" transform="translate(21.4478 26.8613)" fill="#BF0000"/>
<path d="M11.8115 0.467153V1.24574C10.5682 0.467153 9.55803 7.4252e-08 8.00388 7.4252e-08C3.41913 7.4252e-08 5.92862e-07 4.12652 5.92862e-07 9.26521C5.92862e-07 14.4039 3.49684 18.5304 8.00388 18.5304C9.48032 18.5304 10.5682 18.0633 11.8115 17.2847V18.0633H15.7746V0.467153H11.8115ZM8.00388 14.326C5.75036 14.326 4.1185 12.146 4.1185 9.34307C4.1185 6.54015 5.75036 4.3601 8.00388 4.3601C10.2574 4.3601 11.8115 6.54015 11.8115 9.34307C11.8893 12.146 10.2574 14.326 8.00388 14.326Z" transform="translate(15.6968 5.37231)" fill="#BF0000"/>
<path d="M10.5682 0V10.3552C10.5682 12.3017 9.2472 13.9367 7.30451 13.9367C5.36182 13.9367 4.04079 12.3017 4.04079 10.3552V0H0V10.3552C0 14.6375 2.87518 18.0633 7.14909 18.0633C9.09178 18.0633 10.5682 16.9732 10.5682 16.9732V17.5961H14.609V0H10.5682Z" transform="translate(48.9561 5.83948)" fill="#BF0000"/>
<path d="M4.04079 18.0633V7.70803C4.04079 5.76156 5.36182 4.12652 7.30451 4.12652C9.2472 4.12652 10.5682 5.76156 10.5682 7.70803V18.0633H14.609V7.70803C14.609 3.42579 11.7338 0 7.45993 0C5.51724 0 4.04079 1.09002 4.04079 1.09002V0.389294H1.18572e-06V18.0633H4.04079Z" transform="translate(92.7822 5.45007)" fill="#BF0000"/>
<path d="M4.19621 22.1119V15.2603H7.14909L12.2778 22.1119H17.4842L11.2676 13.8589C13.2103 12.4574 14.4536 10.1995 14.4536 7.63017C14.4536 3.42579 11.0345 -3.7126e-08 6.83826 -3.7126e-08H0V22.0341H4.19621V22.1119ZM4.19621 4.28224H6.91597C8.78095 4.28224 10.3351 5.83942 10.3351 7.70803C10.3351 9.57664 8.78095 11.1338 6.91597 11.1338H4.19621V4.28224Z" transform="translate(0 1.40149)" fill="#BF0000"/>
<path d="M9.3249 17.9854C8.93637 18.219 8.54783 18.4526 8.00388 18.4526C7.38222 18.4526 6.1389 17.9854 6.1389 16.2725V8.72019H9.55803V4.43796H6.1389V-3.7126e-08H2.09811V4.43796H-2.37145e-06V8.64234H2.09811V16.2725C2.09811 20.2433 5.05099 22.5791 8.08158 22.5791C9.16949 22.5791 10.7236 22.1898 11.967 21.4891L9.3249 17.9854Z" transform="translate(65.0415 1.40149)" fill="#BF0000"/>
<path d="M7.61534 14.1703L14.5313 5.83942H8.93637L4.1185 11.9903V0H0V23.5134H4.1185V16.2725L10.0243 23.5134H15.6192L7.61534 14.1703Z" transform="translate(33.8032)" fill="#BF0000"/>
<path d="M7.92617 0C3.26372 0 1.18572e-06 4.04866 1.18572e-06 9.26521C1.18572e-06 14.7153 4.19621 18.5304 8.31471 18.5304C10.4128 18.5304 13.1326 17.8297 15.3861 14.5596L11.8893 12.5353C9.16949 16.5839 4.58474 14.5596 4.04079 10.5109H15.5415C16.5517 4.12652 12.4332 0 7.92617 0ZM11.423 6.92944H4.19621C5.05099 2.80292 10.6459 2.56934 11.423 6.92944Z" transform="translate(75.687 5.45007)" fill="#BF0000"/>
</svg>
