<?xml version="1.0" encoding="UTF-8"?>
<svg width="96px" height="35px" viewBox="0 0 96 35" version="1.1" xmlns="http://www.w3.org/2000/svg" xmlns:xlink="http://www.w3.org/1999/xlink">
    <!-- Generator: Sketch 51.3 (57544) - http://www.bohemiancoding.com/sketch -->
    <title>r_pay_yoko</title>
    <desc>Created with Sketch.</desc>
    <defs></defs>
    <g id="r_pay_yoko" stroke="none" stroke-width="1" fill="none" fill-rule="evenodd">
        <path d="M96,8.11160714 L88.630303,28.8705357 C87.7090909,31.4375 85.5212121,33 82.9878788,33 C81.1454545,33 79.6484848,32.3303571 78.2666667,30.8794643 L81.1454545,27.8660714 C81.6060606,28.4241071 82.0666667,28.6473214 82.6424242,28.6473214 C83.3333333,28.6473214 83.7939394,28.2008929 84.0242424,27.4196429 L84.1393939,26.9732143 L77,8 L82.0666667,8 L86.4424242,20.3883929 L90.8181818,8 L96,8 L96,8.11160714 Z" id="Shape" fill="#0E0046" fill-rule="nonzero"></path>
        <path d="M69.1636364,26.75 C67.8969697,28.2125 66.169697,29 64.2121212,29 C59.1454545,29 55,24.275 55,18.5375 C55,12.8 59.2606061,8.1875 64.4424242,8.1875 C66.4,8.1875 67.8969697,8.975 69.1636364,10.4375 L69.1636364,2 L74,2 L74,28.4375 L69.8545455,28.4375 L69.1636364,26.75 Z M59.7212121,18.65 C59.7212121,22.025 61.7939394,24.6125 64.4424242,24.6125 C67.0909091,24.6125 69.1636364,22.1375 69.1636364,18.65 C69.1636364,15.1625 67.2060606,12.6875 64.4424242,12.6875 C61.7939394,12.575 59.7212121,15.275 59.7212121,18.65 Z" id="Shape" fill="#0E0046" fill-rule="nonzero"></path>
        <polygon id="Shape" fill="#0E0046" fill-rule="nonzero" points="40.6666667 7.54545455 40.6666667 12.7727273 49.7777778 12.7727273 49.7777778 17.2045455 40.6666667 17.2045455 40.6666667 23.5681818 51 23.5681818 51 28 36 28 36 3 51 3 51 7.54545455"></polygon>
        <polygon id="Shape" fill="#BF0000" fill-rule="nonzero" points="4.54320988 35 0 31 32 31"></polygon>
        <path d="M10.3,28 L10.3,19.3068592 L14,19.3068592 L20.4,28 L27,28 L19.3,17.4873646 C21.7,15.7689531 23.3,12.8375451 23.3,9.60288809 C23.3,4.24548736 19,0 13.7,0 L5,0 L5,28 L10.3,28 Z M10.3,5.25631769 L13.7,5.25631769 C16.1,5.25631769 18,7.17689531 18,9.60288809 C18,12.0288809 16.1,13.9494585 13.7,13.9494585 L10.3,13.9494585 L10.3,5.25631769 Z" id="Shape" fill="#BF0000" fill-rule="nonzero"></path>
    </g>
</svg>