<svg id="レイヤー_1" data-name="レイヤー 1" xmlns="http://www.w3.org/2000/svg" viewBox="0 0 356.3 41.13"><defs><style>.cls-1{fill:none;}.cls-2{fill:#bf0000;}</style></defs><title>rgb_HokennoSogomadoguchi_v2.0</title><rect class="cls-1" x="0.05" y="1.87" width="271" height="32"/><polygon class="cls-2" points="111.32 34.47 27.7 34.47 34.36 41.13 111.32 34.47"/><path class="cls-2" d="M35.56,7.83v1a8.44,8.44,0,0,0-4.85-1.56c-5.86,0-10.31,5.34-10.31,11.9s4.45,11.91,10.31,11.91a8.45,8.45,0,0,0,4.85-1.57v1h5.15V7.83ZM30.71,25.61c-2.89,0-5-2.84-5-6.44s2.11-6.43,5-6.43,4.93,2.84,4.93,6.43S33.61,25.61,30.71,25.61Z" transform="translate(-0.12 -0.3)"/><path class="cls-2" d="M76.82,7.83V21.16a4.24,4.24,0,0,1-8.44.82,3.75,3.75,0,0,1,0-.82V7.83H63.23V21.16c0,5.47,3.74,9.92,9.21,9.92a7.82,7.82,0,0,0,4.38-1.41v.85H82V7.83Z" transform="translate(-0.12 -0.3)"/><path class="cls-2" d="M124.81,30.52V17.19a4.24,4.24,0,1,1,8.44-.82,3.75,3.75,0,0,1,0,.82V30.52h5.15V17.19c0-5.47-3.74-9.92-9.22-9.92a7.88,7.88,0,0,0-4.37,1.4V7.83h-5.15V30.52Z" transform="translate(-0.12 -0.3)"/><path class="cls-2" d="M5.56,30.52V21.73H9.35l6.59,8.79h6.75l-8-10.61A9.77,9.77,0,0,0,9,2.17H.12V30.52Zm0-23H9.07a4.4,4.4,0,0,1,.42,8.79,2.94,2.94,0,0,1-.42,0H5.56Z" transform="translate(-0.12 -0.3)"/><path class="cls-2" d="M95.85,25.15a3.09,3.09,0,0,1-1.72.56,2.55,2.55,0,0,1-2.44-2.66s0-.09,0-.13V13.21h4.4V7.83H91.7V2.17H86.55V7.83H83.83v5.38h2.72V23A7.75,7.75,0,0,0,94,31.11h.26a10.59,10.59,0,0,0,5-1.42Z" transform="translate(-0.12 -0.3)"/><polygon class="cls-2" points="53.4 18.16 62.23 7.53 55.01 7.53 48.83 15.43 48.83 0 43.53 0 43.53 30.22 48.83 30.22 48.83 20.9 56.43 30.22 63.65 30.22 53.4 18.16"/><path class="cls-2" d="M107.75,7.25c-6,0-10.24,5.24-10.24,11.92,0,7,5.37,11.93,10.75,11.93,2.71,0,6.19-.94,9.12-5.08l-4.55-2.63c-3.52,5.19-9.38,2.55-10.06-2.63h14.84C118.88,12.61,113.61,7.25,107.75,7.25Zm4.49,9H103c1.08-5.32,8.27-5.63,9.27,0Z" transform="translate(-0.12 -0.3)"/><path class="cls-2" d="M149.29,17.37a24.34,24.34,0,0,1-1.65,1.86l-1.29-5.09A24.4,24.4,0,0,0,151.08,2.5l3.78.43a38.7,38.7,0,0,1-1.89,7.5v20.9h-3.66Zm4.45,9.39a21,21,0,0,0,7.77-7h-6.77V16.32h8.54V13.79h-6.83V3.49h17.43v10.3h-7v2.53h8.53v3.44h-6.67a22.55,22.55,0,0,0,7.19,7.16l-2.22,3.38a25,25,0,0,1-6.83-7.58v8.59h-3.62v-8.5a22.63,22.63,0,0,1-7.35,7.25Zm6.4-20v3.78h10.08V6.76Z" transform="translate(-0.12 -0.3)"/><path class="cls-2" d="M190.69,10.21A18.76,18.76,0,0,1,188,11.64l-1.28-2.22a32.71,32.71,0,0,1-1.46,4.17,11.6,11.6,0,0,1,2.34,7.13c0,4.91-2.47,4.91-3.65,4.91h-1.38L182,22h1.15c.67,0,1.28-.15,1.28-1.89A8.84,8.84,0,0,0,182,14a38.75,38.75,0,0,0,2.22-7.13h-2.56V31.33h-3.38V3.57h9.14V6.86c-.18.61-.21.82-.34,1.28a22.89,22.89,0,0,0,7.65-5.45h4a22.6,22.6,0,0,0,8.11,5.57l-1.71,3.32c-.76-.39-1.43-.76-2.74-1.55v2h-4.2v1.89h7.07v9.54h-5.79c2.07,2.74,3.74,3.71,7.31,4.57l-1.59,3.53a14,14,0,0,1-8.68-6.94,14.21,14.21,0,0,1-8.93,6.82L185.78,28c2.87-.49,5.79-1.71,7.53-4.51h-5.09V13.93h6.52V12h-4.05Zm4.05,6.61h-3.26v3.6h3a12,12,0,0,0,.24-2.68Zm5.95-7.89a25.84,25.84,0,0,1-4-3.68,19,19,0,0,1-4.08,3.68Zm-2.56,9a13.61,13.61,0,0,1-.25,2.47h3.93V16.8h-3.68Z" transform="translate(-0.12 -0.3)"/><path class="cls-2" d="M223.11,26.71c5.25-1.67,8.54-4.67,8.54-9.89,0-3.26-1.53-7.74-7.35-8.51-.45,3.49-1.38,10.72-4,16.28-.6,1.28-2,4.07-4.86,4.07-3.49,0-6.85-4.51-6.85-10.4,0-8.7,6.69-13.86,14.4-13.86s13.06,5.12,13.06,12.52c0,9.5-8.07,12.51-10.34,13.37Zm-10.49-8.35c0,3.39,1.44,5.85,2.62,5.85.48,0,1-.13,2.11-3.36A58.75,58.75,0,0,0,220.14,8.5a9.79,9.79,0,0,0-7.52,9.86Z" transform="translate(-0.12 -0.3)"/><path class="cls-2" d="M242.17,20.72a39.67,39.67,0,0,1-1,8.75l-2.71-1.19a30.83,30.83,0,0,0,1-8Zm0-7.4a27.38,27.38,0,0,0-3.75-3.63L240,6.56a5.26,5.26,0,0,1,.86.7A28.19,28.19,0,0,0,243,2.66l3.26.85A45.4,45.4,0,0,1,243,9.36c.3.33.73.85,1.1,1.25A48.44,48.44,0,0,0,247,5.76L250,7c-.37.64-.64,1.1-1.13,1.89a18.46,18.46,0,0,0,5.3-6.15l3.35,1.12a23.64,23.64,0,0,1-6.3,7.71L248.82,8.9c-1.07,1.68-3.32,4.85-4.79,6.68l3-.16c-.33-1-.49-1.34-.73-1.92l2.47-.88a26.57,26.57,0,0,1,2.1,5.79l-2.74,1c-.12-.57-.18-.79-.28-1.15l-1.67.15v13H243V18.71c-3,.25-3.32.28-4,.31l-.25-3.35a16.83,16.83,0,0,0,1.74,0Zm6.18,15.39A11.7,11.7,0,0,0,249.66,26l-2.22.42a48.75,48.75,0,0,0-.37-5.66l2.56-.43a31.24,31.24,0,0,1,.55,4.08,24.08,24.08,0,0,0,.58-2.65l2.74.64a21.1,21.1,0,0,1-1.95,8ZM255,17.65c-2.65.12-3,.15-3.59.15l-.25-3.38h1.5a53.89,53.89,0,0,0,2.95-6.86l3.66.73a47.27,47.27,0,0,1-3.17,6.07c1.77,0,3,0,5.36-.19a31.33,31.33,0,0,0-2.13-3l2.74-1.62a28.5,28.5,0,0,1,5.24,7.31l-3.19,2a15.39,15.39,0,0,0-.89-1.71c-2.77.33-4.05.4-6.4.49A18.64,18.64,0,0,1,261.27,20l-1.92,2.76a19.82,19.82,0,0,0-5.7-3Zm2.41,4.84V27c0,.34,0,.73.61.73h1.13c.58,0,.82,0,1-3l3.26.7c-.42,3.38-.7,5.61-2.59,5.61h-4.2c-1,0-2.5-.34-2.5-1.83V22.46Zm8.72-11.18a20.36,20.36,0,0,1-6.31-7.5L263,2.53a17.09,17.09,0,0,0,5.09,5.67Zm-.92,9.38A33,33,0,0,1,268,28.53l-3.38,1.4a32.38,32.38,0,0,0-2.4-8Z" transform="translate(-0.12 -0.3)"/><path class="cls-2" d="M296.35,14.57a36.48,36.48,0,0,1-4.63-2.44V14.6H275.85V12a37.28,37.28,0,0,1-4.87,2.5l-2-3.84a29.15,29.15,0,0,0,12.76-8.17h3.9c1.89,2.14,5,5.21,12.77,8.17Zm-1.1,2.62V30.75H272.07V17.19Zm-3.93,3.47H275.94v6.65h15.33Zm-1.19-9.53a31.55,31.55,0,0,1-6.46-5.46,26.73,26.73,0,0,1-6.3,5.46Z" transform="translate(-0.12 -0.3)"/><path class="cls-2" d="M305.91,22.83a16,16,0,0,1-3.54,7.8l-2.86-2.38a14.79,14.79,0,0,0,3.2-6.37Zm13.89-9.6a41.29,41.29,0,0,1,7.81,5.58l-3,2.74c-.46-.49-.79-.86-1.92-1.92-4.75.42-6.67.52-8.84.58a17.14,17.14,0,0,1,4.3,2.5l-2.47,2.77a27.16,27.16,0,0,0-5.36-3.14l1.8-2c-5.09.18-5.64.21-10.94.24l-.37-3.38c.73,0,4.36,0,5.18.06a34.07,34.07,0,0,0,3.47-5.33L313.24,13a35.89,35.89,0,0,1-2.92,4.21c3.9-.06,4.39-.09,8.83-.27a26.87,26.87,0,0,0-2.62-1.59l3-2.07h-2.26c-1.37,0-2-.61-2-2V7.73h-2.92c-1.19,3.48-4.6,5.79-9.3,7.13l-1.58-3.17c2-.33,5.76-1.28,7.31-4H304.3v3.08h-3.68V4.52h11.52V2.57H316V4.52h11.64v6.13h-2.05c-.27,1.31-.76,2.59-2.34,2.59Zm-12.73,9.38h3.75v3.72c0,1,.18,1.13,1,1.13h4.72c1.1,0,1.31,0,1.62-2.87l3.5,1c-.45,5.12-2.16,5.3-3.9,5.3H310c-1,0-2.92,0-2.92-2.8ZM318.59,9.48c0,.79.06,1,1,1h1.83c.76,0,.79-.16,1.07-1.71l1.43.3V7.73h-5.36Zm5.45,12a30.24,30.24,0,0,1,4.54,7.16l-3.38,2.07A32.81,32.81,0,0,0,321,23.27Z" transform="translate(-0.12 -0.3)"/><path class="cls-2" d="M356.42,30.41H331.09V4.73h25.33ZM352.35,8.6H335.18V26.54h17.17Z" transform="translate(-0.12 -0.3)"/></svg>