<svg width="192" height="32" viewBox="0 0 192 32" fill="none" xmlns="http://www.w3.org/2000/svg">
<path d="M191.922 20.4016C190.526 22.6512 188.121 23.8924 185.173 23.8924C180.596 23.8924 177.416 20.2465 177.416 15.0491C177.416 9.92933 180.441 6.28342 184.785 6.28342C188.819 6.28342 192 9.85175 192 14.351C192 14.8164 192 15.1267 191.922 15.6697H179.898C180.053 17.609 180.519 18.9277 181.605 20.0138C182.536 21.0222 183.777 21.6428 185.096 21.6428C187.19 21.6428 188.975 20.6343 189.828 18.8502L191.922 20.4016ZM189.44 13.5752C189.207 10.4723 187.423 8.45545 184.941 8.45545C183.312 8.45545 181.838 9.30875 180.907 10.7826C180.441 11.6359 180.209 12.3341 180.053 13.5752H189.44Z" fill="#FF008C"/>
<path d="M172.839 23.5045V1.24118H175.244V23.5045H172.839Z" fill="#FF008C"/>
<path d="M167.253 4.65437V1.86176H170.046V4.65437H167.253ZM167.408 23.5045V6.74882H169.813V23.5045H167.408Z" fill="#FF008C"/>
<path d="M152.979 8.76571C154.221 7.13669 155.772 6.36097 157.789 6.36097C162.133 6.36097 165.159 9.9293 165.159 15.1267C165.159 20.324 162.133 23.8924 157.789 23.8924C155.85 23.8924 154.376 23.1942 153.057 21.6428L152.669 23.5045H150.575V1.24118H152.979V8.76571ZM152.902 15.1267C152.902 18.9277 154.919 21.7203 157.789 21.7203C160.582 21.7203 162.676 18.9277 162.676 15.2042C162.676 11.4032 160.582 8.61057 157.789 8.61057C154.919 8.61057 152.902 11.3256 152.902 15.1267Z" fill="#FF008C"/>
<path d="M148.247 15.1267C148.247 20.324 145.222 23.8924 140.8 23.8924C136.378 23.8924 133.353 20.324 133.353 15.1267C133.353 9.9293 136.378 6.36096 140.8 6.36096C145.222 6.36096 148.247 9.9293 148.247 15.1267ZM135.99 15.1267C135.99 18.9277 138.085 21.7203 140.878 21.7203C143.67 21.7203 145.765 18.9277 145.765 15.2042C145.765 11.4032 143.748 8.61057 140.878 8.61057C138.007 8.61057 135.99 11.3256 135.99 15.1267Z" fill="#FF008C"/>
<path d="M131.103 2.55994V23.4269H128.698V5.58527L122.492 15.7473L116.286 5.58527V23.5045H113.881V2.55994H117.062L122.492 11.4808L127.923 2.55994H131.103Z" fill="#FF008C"/>
<path d="M86.3419 26.7625H21.4885L26.6861 31.9599L86.3419 26.7625Z" fill="#FF008C"/>
<path d="M96.7369 23.5045V13.1098C96.7369 11.1705 98.0557 9.54146 99.9951 9.54146C101.935 9.54146 103.253 11.1705 103.253 13.1098V23.4269H107.287V13.1098C107.287 8.84331 104.417 5.43011 100.15 5.43011C98.2109 5.43011 96.7369 6.51613 96.7369 6.51613V5.89555H92.703V23.5045H96.7369Z" fill="#FF008C"/>
<path d="M83.4716 5.43011C78.817 5.43011 75.5588 9.46389 75.5588 14.6612C75.5588 20.0913 79.7479 23.8924 83.8594 23.8924C85.954 23.8924 88.6691 23.1942 90.9188 19.9362L87.4279 17.9193C84.7128 21.9531 80.1358 19.9362 79.5928 15.9024H91.074C92.16 9.61903 88.0485 5.43011 83.4716 5.43011ZM86.9625 12.4116H79.8255C80.6788 8.3003 86.1867 8.06758 86.9625 12.4116Z" fill="#FF008C"/>
<path d="M74.3176 19.3156C73.9298 19.5483 73.5419 19.781 72.9988 19.781C72.3782 19.781 71.137 19.3156 71.137 17.609V10.0845H74.5504V5.89554H71.137V1.47391H67.1031V5.89554H65.0085V10.0845H67.1031V17.6866C67.1031 21.6428 70.051 23.9699 73.0764 23.9699C74.1625 23.9699 75.714 23.5821 76.9552 22.8839L74.3176 19.3156Z" fill="#FF008C"/>
<path d="M59.5006 5.89554V16.2127C59.5006 18.152 58.1818 19.781 56.2424 19.781C54.303 19.781 52.9842 18.152 52.9842 16.2127V5.89554H49.0278V16.2127C49.0278 20.4792 51.8981 23.8924 56.1648 23.8924C58.1042 23.8924 59.5781 22.8064 59.5781 22.8064V23.4269H63.5345V5.89554H59.5006Z" fill="#FF008C"/>
<path d="M41.4255 14.1182L48.3297 5.89554H42.6667L37.9346 12.0238V3.05176e-05H33.8231V23.5045H37.9346V16.2127L43.8303 23.5045H49.4158L41.4255 14.1182Z" fill="#FF008C"/>
<path d="M27.5394 5.89555V6.67128C26.2982 5.89555 25.2897 5.43011 23.7382 5.43011C19.1612 5.43011 15.7479 9.54146 15.7479 14.6612C15.7479 19.781 19.2388 23.8924 23.7382 23.8924C25.2121 23.8924 26.2982 23.4269 27.5394 22.6512V23.4269H31.4957V5.89555H27.5394ZM23.7382 19.7035C21.4885 19.7035 19.8594 17.5314 19.8594 14.7388C19.8594 11.9462 21.4885 9.77418 23.7382 9.77418C25.9879 9.77418 27.5394 11.9462 27.5394 14.7388C27.5394 17.4539 25.9879 19.7035 23.7382 19.7035Z" fill="#FF008C"/>
<path d="M4.26667 23.5045V16.6781H7.21455L12.3345 23.5045H17.5321L11.3261 15.2818C13.2655 13.8855 14.5067 11.6359 14.5067 9.07601C14.5067 4.8871 11.0933 1.47391 6.90424 1.47391H0V23.4269H4.26667V23.5045ZM4.26667 5.66282H6.98182C8.84364 5.66282 10.3952 7.21427 10.3952 9.07601C10.3952 10.9378 8.84364 12.4892 6.98182 12.4892H4.26667V5.66282Z" fill="#FF008C"/>
</svg>
