<svg width="48" height="48" viewBox="0 0 48 48" fill="none" xmlns="http://www.w3.org/2000/svg">
<g clip-path="url(#clip0)">
<path d="M12 15.19L12.25 18.5L9.25 16.27L9.5 19.32L10.57 22.32L10.16 22.4L10.24 22.98V26.2L5 24.94L6.16 28.07L7.89 30.41L10.29 32.32L7.17 31.13L8.74 34.13L10.47 36.61H9.56L10.56 37.61L9.9 37.69L11.72 39.76L9.08 39.59C9.08 39.59 6.85 38.88 12.08 41.24C17.31 43.6 19.26 43.99 21.78 44.24C24.3 44.49 30.67 44.5 30.67 44.5C30.67 44.5 36.89 42.81 38.75 40.42C40.3664 37.9963 41.7493 35.4248 42.88 32.74L41.68 33L41.93 31.35L42.84 27.96L42.76 23.75L43.17 19.62L44 15.86L42 18.86L40.61 7.1L37.47 10.74L37.14 10.24L35.41 12.14L35.57 5.53L32.1 8.67L29.05 5.53L27.48 3.8L26.11 0L23.35 3.55L21.29 7.55L21 4.87L16.48 12.58L15.76 7.47L13.54 12.27L13.29 14.9L13.03 15.74L12.03 15.19H12Z" fill="#D21B1A"/>
<path d="M16.78 24.5495L16.95 26.6695L14.85 25.2295L15.02 27.1995L15.78 29.1095L15.49 29.1595L15.55 29.5295V31.5995L11.8 30.8095L12.62 32.8295L13.85 34.3195L15.55 35.5495L13.33 34.7895L14.44 36.6995L15.67 38.2895H15.02L15.72 38.9295L15.26 38.9795L16.54 40.3095L14.67 40.1995L16.78 41.2595L22.3 42.6095L29.59 42.0395L35.67 40.7295L38.6 35.7995L37.78 35.9595L37.9501 34.8895L38.6 32.7195L38.5401 30.0095L38.8301 27.3595L39.41 24.9695L38.01 26.8795L37.0201 19.3395L34.7901 21.6795L34.5601 21.3595L33.33 22.5795L33.4501 18.3395L30.99 20.3495L28.83 18.3395L27.72 17.2195L26.95 15.5195L26.14 15.5795L24.79 17.0595L23.33 19.6095L23.09 17.9095L19.89 22.8695L19.39 19.5795L17.81 22.6695L17.64 24.3595L17.45 24.8895L16.78 24.5495Z" fill="#E45E28"/>
<path d="M23.32 14.3799C18.76 14.9199 16.12 21.9499 13.65 25.0499C11.28 27.9999 5.9 29.4299 2.25 28.6999C2.52 30.2499 3.62 31.1599 3.07 33.0799C4.16 31.7999 6.54 30.7999 8 29.7899C9.91 28.6999 11.92 28.0599 13.74 26.7899C15.84 25.4199 16.48 23.6899 17.74 21.6799C19.0569 19.805 20.554 18.0633 22.21 16.4799" fill="#C8EF20"/>
<path d="M23.3399 14.1902C20.1499 14.6402 18.1299 17.6102 16.5399 20.1302C15.6399 21.5602 14.8299 23.0702 13.8399 24.4502C12.6954 25.9649 11.1303 27.1091 9.33992 27.7402C7.12187 28.6361 4.69966 28.9025 2.33992 28.5102C2.19992 28.5102 1.97992 28.6002 2.01992 28.7602C2.33992 30.3102 3.24992 31.4402 2.83992 33.0902C2.76992 33.3402 3.19992 33.2502 3.28992 33.1502C4.08423 32.3688 4.9993 31.7205 5.99992 31.2302C6.84992 30.7402 7.68992 30.2302 8.54992 29.7202C10.5499 28.6102 12.7999 27.8902 14.6099 26.4302C15.9016 25.196 16.9706 23.7481 17.7699 22.1502C19.1371 20.122 20.716 18.2448 22.4799 16.5502C22.6899 16.3302 22.2299 16.2302 22.0799 16.4002C20.4199 17.9928 18.9164 19.7408 17.5899 21.6202C16.4699 23.3802 15.5899 25.2702 13.8599 26.5102C11.9499 27.8702 9.69992 28.5702 7.70992 29.8002C6.09992 30.8002 4.20992 31.5802 2.91992 33.0002L3.36992 33.0602C3.78992 31.3802 2.86992 30.2102 2.54992 28.6302L2.21992 28.8802C4.05798 29.1928 5.94073 29.1233 7.75071 28.6759C9.5607 28.2286 11.2591 27.4131 12.7399 26.2802C13.8706 25.2553 14.8176 24.0445 15.5399 22.7002C16.4597 21.1032 17.461 19.5545 18.5399 18.0602C19.7499 16.4602 21.2999 14.8502 23.3799 14.5602C23.6399 14.5602 23.7399 14.1502 23.3799 14.1902H23.3399Z" fill="#1A1A1A"/>
<path d="M18.07 22.75C15.61 24.05 14.95 28.86 11.82 29.07C8.30003 29.28 6.24003 24.86 3.58003 23.4C3.18003 24.33 3.24003 25.66 2.28003 26.18C3.04003 26.55 3.96003 26.18 4.83003 26.5C5.52003 26.75 6.00003 27.5 6.53003 28.02C9.39003 30.68 12.61 31.73 15.53 28.54C16.503 27.3813 17.373 26.14 18.13 24.83" fill="#C8EF20"/>
<path d="M17.9101 22.66C16.8196 23.4277 15.9422 24.4601 15.3601 25.66C14.5701 26.97 13.6401 28.74 11.9301 28.91C8.4101 29.26 6.4501 24.82 3.7701 23.28C3.70012 23.245 3.61977 23.2369 3.54423 23.2572C3.46869 23.2775 3.40319 23.3247 3.3601 23.39C3.0001 24.29 3.0001 25.52 2.1201 26.09C2.0101 26.16 2.0101 26.28 2.1201 26.33C3.1201 26.71 4.2901 26.26 5.1701 26.97C5.8101 27.49 6.3101 28.18 6.9601 28.71C8.11929 29.7674 9.57456 30.4445 11.1301 30.65C14.7101 30.94 16.7201 27.46 18.3501 24.85C18.4901 24.64 18.0001 24.65 17.9001 24.85C16.1601 27.62 13.9001 31.45 10.0201 30.09C8.54023 29.4962 7.22858 28.5485 6.2001 27.33C5.8814 26.8978 5.45817 26.5537 4.9701 26.33C4.1501 26.03 3.2501 26.33 2.4201 26.01C2.4201 26.09 2.4201 26.18 2.4201 26.26C3.4201 25.61 3.4201 24.41 3.7901 23.39L3.3801 23.51C6.2201 25.14 8.0801 29.51 11.8601 29.19C15.2901 28.87 15.5701 24.31 18.2001 22.82C18.4901 22.67 18.0701 22.53 17.8901 22.64L17.9101 22.66Z" fill="#1A1A1A"/>
<path d="M22.1701 39.2598L26.4701 39.6898L26.0001 45.2498L26.6201 46.0298C26.7742 46.2306 26.8577 46.4766 26.8577 46.7298C26.8577 46.9829 26.7742 47.2289 26.6201 47.4298C26.0696 47.7782 25.4316 47.9632 24.7801 47.9632C24.1286 47.9632 23.4905 47.7782 22.9401 47.4298C22.6068 47.1924 22.3518 46.8611 22.2075 46.4782C22.0632 46.0953 22.0363 45.6781 22.1301 45.2798C22.0001 44.7798 21.1201 40.9998 22.1701 39.2598Z" fill="#1A1A1A"/>
<path d="M29.63 39L33.84 40L32.68 45.45C32.92 45.85 33.18 46.28 33.21 46.3C33.3375 46.5195 33.3907 46.7743 33.3619 47.0265C33.3331 47.2787 33.2237 47.5149 33.05 47.7C32.4569 47.9691 31.8001 48.0658 31.1546 47.9792C30.5092 47.8925 29.9011 47.626 29.4 47.21C29.1046 46.9342 28.8969 46.5777 28.8026 46.1847C28.7084 45.7917 28.7318 45.3797 28.87 45C28.81 44.49 28.37 40.65 29.63 39Z" fill="#1A1A1A"/>
<path d="M36.1299 35.38C36.1299 34.12 36.7799 31.26 35.1299 30.63C34.8312 30.5347 34.5133 30.5156 34.2053 30.5744C33.8973 30.6333 33.609 30.7683 33.3664 30.967C33.1239 31.1658 32.935 31.4221 32.8168 31.7126C32.6987 32.003 32.655 32.3184 32.6899 32.63C32.6899 33.35 32.6899 33.91 32.7699 34.77C32.9697 35.7184 33.0901 36.6817 33.1299 37.65C33.0499 38.45 32.5299 39.18 33.1299 39.92C33.3662 40.2189 33.6912 40.4351 34.0582 40.5374C34.4252 40.6398 34.8152 40.6231 35.1721 40.4896C35.529 40.3562 35.8343 40.113 36.0442 39.795C36.254 39.477 36.3576 39.1006 36.3399 38.72C36.1779 37.6144 36.1077 36.4973 36.1299 35.38V35.38Z" fill="#1A1A1A"/>
<path d="M22.0701 29.4297C22.0701 29.4297 17.6101 38.7297 22.4001 41.7997C25.6501 43.7997 31.5101 43.1297 33.4701 41.7997C36.6901 39.6097 35.5701 33.2397 33.3701 29.4397L22.0701 29.4297Z" fill="white"/>
<path d="M26.5701 42.9196C28.9681 43.2488 31.4095 42.8407 33.5701 41.7496C38.2301 38.7496 34.1201 29.8496 33.9101 29.3896L32.4001 30.4696C32.4001 30.4696 36.8901 42.1896 26.5701 42.9196Z" fill="#E7E6E5"/>
<path d="M21.6799 29.38C20.9926 30.8573 20.4727 32.407 20.1299 34C19.6199 36.33 19.3899 39.3 21.1299 41.22C23.1299 43.46 26.9899 43.6 29.7399 43.22C32.2999 42.9 34.7399 42.05 35.5799 39.37C36.5799 36.07 35.4099 32.12 33.7699 29.23C33.7275 29.1829 33.6746 29.1466 33.6155 29.124C33.5564 29.1014 33.4928 29.0932 33.4299 29.1H22.0999C21.6299 29.1 21.4899 29.72 22.0399 29.72H33.3399L32.9999 29.61C34.5045 32.138 35.2022 35.0649 34.9999 38C34.978 38.6626 34.8182 39.3135 34.5306 39.911C34.2431 40.5084 33.8341 41.0394 33.3299 41.47C32.3282 42.1116 31.1852 42.4995 29.9999 42.5999C27.4199 42.9599 23.5599 42.93 21.7399 40.72C20.2499 38.91 20.4699 36.2399 20.9299 34.0999C21.2569 32.504 21.7739 30.9529 22.4699 29.48C22.6599 29.06 21.8399 29 21.6799 29.38Z" fill="#1A1A1A"/>
<path d="M34.75 32.6698C32.705 33.1714 30.6055 33.4166 28.5 33.3998C25.9593 33.4283 23.4294 33.064 21 32.3198C21.2901 31.3721 21.6477 30.4464 22.07 29.5498H33.37C33.9156 30.5498 34.3772 31.5934 34.75 32.6698Z" fill="#1A1A1A"/>
<path d="M32.8501 39H28.8501C29.0301 39.15 29.2701 39.48 29.5201 39.5C29.8575 39.4899 30.1928 39.4429 30.5201 39.36L32.9501 39.02C33.0001 39 32.8801 39 32.8501 39Z" fill="#BF0000"/>
<path d="M32.42 38.4505L31.93 37.7905L31.61 37.3705L31.5 37.2205V37.1605C31.5245 37.1414 31.5449 37.1176 31.56 37.0905C31.7102 36.9224 31.8411 36.7379 31.95 36.5405C32.0315 36.306 32.0488 36.0539 32 35.8105C31.9421 35.5676 31.8179 35.3456 31.6414 35.169C31.4649 34.9925 31.2428 34.8684 31 34.8105C30.6681 34.7663 30.3319 34.7663 30 34.8105C29.78 34.8105 29.5 34.7505 29.45 35.0305C29.435 35.1968 29.435 35.3641 29.45 35.5305V38.5305C29.4486 38.5431 29.4499 38.5559 29.4537 38.568C29.4576 38.5801 29.464 38.5912 29.4725 38.6007C29.481 38.6101 29.4914 38.6177 29.5031 38.6228C29.5147 38.6279 29.5273 38.6305 29.54 38.6305H30.12C30.1327 38.6305 30.1453 38.6279 30.1569 38.6228C30.1685 38.6177 30.1789 38.6101 30.1874 38.6007C30.1959 38.5912 30.2023 38.5801 30.2062 38.568C30.2101 38.5559 30.2114 38.5431 30.21 38.5305V37.6705C30.21 37.6705 30.21 37.4305 30.21 37.4505C30.3623 37.4255 30.5177 37.4255 30.67 37.4505C30.78 37.4505 30.97 37.8105 31.08 37.9505L31.55 38.5805C31.5626 38.586 31.5762 38.5888 31.59 38.5888C31.6037 38.5888 31.6174 38.586 31.63 38.5805H32.35C32.4 38.5905 32.47 38.5105 32.42 38.4505ZM30.2 36.6105C30.2 36.4905 30.2 36.3505 30.2 36.2305V35.7305C30.194 35.6573 30.194 35.5837 30.2 35.5105C30.51 35.5105 30.89 35.4505 31.1 35.7405C31.1466 35.806 31.1788 35.8807 31.1945 35.9595C31.2103 36.0384 31.2091 36.1197 31.1912 36.1981C31.1732 36.2765 31.1389 36.3502 31.0904 36.4144C31.042 36.4785 30.9805 36.5317 30.91 36.5705C30.7437 36.6447 30.5614 36.6756 30.38 36.6605H30.2C30.2053 36.6442 30.2053 36.6267 30.2 36.6105V36.6105Z" fill="#BF0000"/>
<path d="M17.59 19.2004C15.23 18.4504 13.92 13.4604 17.29 11.3204C20.66 9.1804 24 12.4104 24 12.4104L17.59 19.2004Z" fill="#1A1A1A"/>
<path d="M40.5499 19.5604C40.5499 19.5604 42.4299 18.9004 42.1999 15.5604C41.9699 12.2204 37.7199 9.00039 33.9099 11.9104L40.5499 19.5604Z" fill="#1A1A1A"/>
<path d="M19.5001 34.79C19.9601 33.61 20.5001 30.79 22.2701 30.79C22.5869 30.8191 22.8912 30.9281 23.1545 31.1068C23.4177 31.2856 23.6312 31.5282 23.7751 31.812C23.919 32.0958 23.9885 32.4114 23.9772 32.7294C23.9658 33.0474 23.8739 33.3573 23.7101 33.63C23.4001 34.28 23.1901 34.8 22.7901 35.57C22.2329 36.362 21.7413 37.1981 21.3201 38.07C21.0801 38.84 21.2701 39.71 20.4501 40.17C20.1166 40.3398 19.7385 40.4013 19.3683 40.3461C18.9982 40.291 18.6545 40.1218 18.385 39.8622C18.1155 39.6026 17.9336 39.2654 17.8646 38.8976C17.7956 38.5298 17.843 38.1497 18.0001 37.81C18.5848 36.8477 19.0866 35.8374 19.5001 34.79Z" fill="#1A1A1A"/>
<path d="M15 23.5198C15 30.2998 21.31 32.0198 29.15 32.0698C36.99 32.1198 43.37 30.4698 43.41 23.6798C43.45 16.8898 39 11.3598 29.25 11.3098C21.4 11.2698 15 15.5898 15 23.5198Z" fill="white"/>
<path d="M43.3899 23.7502C43.395 22.549 43.2266 21.3533 42.8899 20.2002C42.3199 23.9702 42.8899 30.6702 23.4099 31.7902C25.3937 32.1055 27.4017 32.2427 29.4099 32.2002C37.1799 32.1502 43.3899 30.4402 43.3899 23.7502Z" fill="#E7E6E5"/>
<path d="M14.5699 23.6202C14.5286 24.8309 14.7883 26.0329 15.3259 27.1185C15.8634 28.204 16.662 29.1392 17.6499 29.8402C19.9535 31.2192 22.5671 31.9964 25.2499 32.1002C28.3963 32.4188 31.5699 32.3516 34.6999 31.9002C37.1958 31.6588 39.5665 30.6924 41.5199 29.1202C45.1099 25.8202 44.1099 19.4802 41.3899 15.9502C37.8499 11.3802 31.0699 10.4502 25.7099 11.4302C22.7586 11.891 20.0153 13.233 17.8399 15.2802C16.7733 16.3871 15.9355 17.6934 15.3744 19.1245C14.8133 20.5556 14.5399 22.0833 14.5699 23.6202C14.5699 23.8202 15.3699 23.6802 15.3699 23.4102C15.3274 20.7463 16.2071 18.1497 17.8599 16.0602C19.5729 14.0717 21.8678 12.6724 24.4199 12.0602C29.4199 10.7502 36.0099 11.4402 39.8099 15.3102C41.3453 16.9065 42.3661 18.9271 42.7399 21.1102C43.1599 23.3802 43.1499 25.9702 41.8199 27.9502C40.4899 29.9302 38.2199 30.8402 35.9799 31.3202C33.0774 31.8682 30.1154 32.033 27.1699 31.8102C24.3099 31.6602 21.1699 31.2902 18.7099 29.7302C17.6523 29.0583 16.7886 28.1216 16.2045 27.013C15.6204 25.9044 15.3362 24.6625 15.3799 23.4102C15.3699 23.2102 14.5599 23.3502 14.5699 23.6202Z" fill="#1A1A1A"/>
<path d="M26.0001 24.4697C26.4623 24.0715 26.8813 23.6257 27.2501 23.1397C27.5999 22.6669 27.7955 22.0977 27.8101 21.5097C27.7301 21.0497 27.7001 19.9097 26.5901 19.6897C25.9401 19.5597 25.4001 20.1597 24.8901 20.8497C24.4745 21.3758 24.1716 21.9817 24.0001 22.6297C23.8301 23.3197 23.6501 24.0397 24.0001 24.4297C24.2633 24.6942 24.6189 24.8462 24.992 24.8537C25.3651 24.8611 25.7265 24.7235 26.0001 24.4697V24.4697Z" fill="#1A1A1A"/>
<path d="M36.26 20C36.57 19.57 37.37 19.58 38 19.87C38.4575 20.1521 38.8091 20.5775 39 21.08C39.3568 21.6561 39.5408 22.3224 39.53 23C39.5182 23.3674 39.3966 23.7228 39.181 24.0204C38.9653 24.3181 38.6654 24.5443 38.32 24.67C37.73 24.75 36.88 23.29 36.72 23.07C36.3517 22.6618 36.1026 22.1602 36 21.62C35.9036 21.0661 35.9951 20.4958 36.26 20Z" fill="#1A1A1A"/>
<path d="M31.29 23.1599C31.29 23.3199 31.78 23.4699 32.4 23.4999C33.02 23.5299 33.53 23.4299 33.54 23.2699C33.55 23.1099 33.06 22.6899 32.44 22.6599C31.82 22.6299 31.29 22.9999 31.29 23.1599Z" fill="#1A1A1A"/>
<path d="M29.12 18.5201C29.05 18.6901 29.02 18.7801 28.83 18.7101C28.6804 18.6579 28.5363 18.5909 28.4 18.5101C28.1701 18.3585 27.9587 18.1807 27.77 17.9801C27.68 17.9001 27.24 18.0801 27.31 18.1401C27.82 18.6801 29.14 19.4801 29.6 18.4301C29.6 18.3701 29.18 18.4301 29.12 18.5201Z" fill="#1A1A1A"/>
<path opacity="0.12" d="M38.8799 26.3897L38.4199 26.6397L39.1899 26.3897L38.4099 26.5697L39.2199 26.4597C39.1578 26.4379 39.1048 26.3955 39.0699 26.3397C39.0648 26.3627 39.0648 26.3866 39.0699 26.4097C39.0699 26.2997 39.4299 26.2797 39.4999 26.3497L39.6199 26.2597H39.4699L39.7099 26.3297L39.4199 26.2097C39.3299 26.2097 39.4199 26.5697 39.5099 26.5297C39.7027 26.4815 39.8768 26.3771 40.0099 26.2297C40.0504 26.1365 40.0805 26.0393 40.0999 25.9397V25.9397L39.8899 25.7197C39.6774 25.6599 39.4525 25.6599 39.2399 25.7197C38.9722 25.8194 38.7171 25.9503 38.4799 26.1097C38.3823 26.1553 38.3066 26.2376 38.2692 26.3386C38.2317 26.4397 38.2356 26.5514 38.2799 26.6497C38.5969 26.6892 38.9187 26.6408 39.2099 26.5097L39.2899 26.2997C39.1503 26.3143 39.0128 26.3444 38.8799 26.3897Z" fill="#EF8E7E"/>
<path opacity="0.12" d="M38.9999 26.8097V26.8697C38.9999 26.8697 38.9999 26.8697 38.9999 26.9197H39.5699L39.6699 26.7997L39.4999 26.9997L39.9999 26.7697L39.2099 27.0297C39.1199 27.0297 39.1099 27.0997 39.2099 27.1097C39.4209 27.1548 39.639 27.1548 39.8499 27.1097C40.1135 27.0177 40.3528 26.8673 40.5499 26.6697C40.9099 26.3697 40.6299 26.2297 40.4299 26.0597L40.0999 25.9797C39.968 25.9546 39.8319 25.9614 39.7032 25.9997C39.5744 26.038 39.4567 26.1066 39.3599 26.1997L39.0299 26.4397C38.944 26.4866 38.8789 26.564 38.8474 26.6566C38.8159 26.7492 38.8204 26.8502 38.8599 26.9397C39.2566 26.92 39.6449 26.8178 39.9999 26.6397C40.0515 26.5724 40.0859 26.4934 40.0999 26.4097C40.0999 26.3597 39.6999 26.5097 39.7799 26.4797L39.2599 26.6797C39.1674 26.7102 39.0798 26.754 38.9999 26.8097V26.8097Z" fill="#EF8E7E"/>
<path opacity="0.12" d="M38.2301 26.6C38.5237 26.5016 38.8081 26.3778 39.0801 26.23C39.1311 26.1541 39.207 26.0985 39.2947 26.0729C39.3825 26.0473 39.4764 26.0534 39.5601 26.09C39.5001 26.04 39.3801 26.54 39.5001 26.47C39.6683 26.4107 39.8194 26.3112 39.9401 26.18C39.9813 26.0879 40.0082 25.9901 40.0201 25.89C39.8101 25.69 39.7601 25.59 39.4401 25.66C39.1781 25.6833 38.9232 25.758 38.6901 25.88L38.3101 26.1C38.2575 26.1209 38.2096 26.152 38.169 26.1915C38.1285 26.231 38.0961 26.2781 38.0738 26.3301C38.0515 26.3822 38.0397 26.4381 38.0391 26.4947C38.0385 26.5513 38.049 26.6074 38.0701 26.66C38.0701 26.72 38.9701 26.66 39.0701 26.51L39.1601 26.31C39.1601 26.26 38.8301 26.38 38.9001 26.36L38.4901 26.52C38.3978 26.5226 38.3079 26.5503 38.2301 26.6V26.6Z" fill="#EF8E7E"/>
<path opacity="0.12" d="M38.4999 26.7797L38.4399 26.8397L39.3799 26.5397L38.4399 26.7597L39.4399 26.5997H39.2999H39.4199L39.6299 25.9597L39.3199 26.4897C39.3239 26.5229 39.3239 26.5565 39.3199 26.5897L39.6499 26.4797L39.2799 26.5497L39.6299 26.5997L39.1899 26.4897C39.1399 26.4897 39.3099 26.8697 39.4499 26.8097C39.656 26.7618 39.8416 26.6497 39.9799 26.4897C40.2599 26.2697 39.9799 26.0897 39.8599 25.9597L39.5899 25.8797C39.471 25.8593 39.3491 25.8639 39.2321 25.8932C39.115 25.9224 39.0053 25.9757 38.9099 26.0497L38.5499 26.2697C38.2699 26.4197 38.2199 26.6197 38.3899 26.8497C38.7782 26.8319 39.156 26.7186 39.4899 26.5197C39.4899 26.4697 39.4899 26.4197 39.4899 26.3797C39.4899 26.3397 39.1099 26.4697 39.1899 26.4397L38.6799 26.6297C38.6168 26.6758 38.5567 26.7259 38.4999 26.7797V26.7797Z" fill="#EF8E7E"/>
<path opacity="0.12" d="M38.67 26.3203L38.21 26.4903L39.01 26.4103C39.01 26.2803 39.01 26.2003 39.08 26.1703C39.137 26.0873 39.2225 26.0283 39.3202 26.0043C39.4179 25.9803 39.5211 25.9931 39.61 26.0403C39.49 25.9503 39.45 26.4303 39.55 26.3803C39.7108 26.3179 39.8546 26.2185 39.97 26.0903C40.0118 25.9977 40.0421 25.9003 40.06 25.8003V25.8003C39.85 25.6003 39.8 25.5003 39.47 25.5603C39.2079 25.5836 38.9531 25.6583 38.72 25.7803L38.34 26.0003C38.2883 26.022 38.2415 26.0539 38.2023 26.094C38.1631 26.1341 38.1324 26.1817 38.1119 26.2339C38.0913 26.2861 38.0815 26.3418 38.0829 26.3979C38.0843 26.4539 38.0969 26.5092 38.12 26.5603C38.423 26.6083 38.7334 26.563 39.01 26.4303L39.1 26.2303C39.1 26.2303 38.65 26.3203 38.67 26.3203Z" fill="#EF8E7E"/>
<path opacity="0.12" d="M38.0601 26.5697L38.9501 26.1297C38.9792 26.0758 39.021 26.0297 39.0718 25.9954C39.1226 25.9611 39.1809 25.9396 39.2418 25.9327C39.3027 25.9259 39.3644 25.9338 39.4215 25.9559C39.4787 25.9781 39.5297 26.0137 39.5701 26.0597C39.4301 26.0597 39.4001 26.4397 39.4401 26.4097C39.7501 26.2097 39.8301 26.1497 39.9101 25.8097C39.8543 25.7229 39.7691 25.659 39.6701 25.6297C39.4304 25.5984 39.1868 25.6259 38.9601 25.7097C38.7101 25.7697 37.4301 26.3397 37.9601 26.7097C38.0601 26.7797 38.3401 26.6597 38.4301 26.6297C38.5201 26.5997 38.8501 26.5497 38.8701 26.4497C38.8745 26.4032 38.8745 26.3563 38.8701 26.3097C38.8701 26.2597 38.5501 26.3797 38.6201 26.3097C38.4191 26.3615 38.2293 26.4496 38.0601 26.5697Z" fill="#EF8E7E"/>
<path opacity="0.12" d="M38.8099 26.7997L38.7599 26.8697C38.6899 26.9397 38.8399 26.8697 38.8599 26.8697L39.3899 26.7897L39.8399 26.6197L39.1299 26.7897C39.0599 26.7897 39.0299 26.8397 39.1299 26.8697C39.2299 26.8997 39.5399 27.0097 39.6699 26.9497C39.9201 26.8741 40.1472 26.7365 40.3299 26.5497C40.6699 26.2797 40.3999 26.1297 40.2299 25.9597L39.9199 25.8797C39.7935 25.8497 39.6617 25.8514 39.5361 25.8845C39.4106 25.9177 39.2951 25.9813 39.1999 26.0697L38.8599 26.3097C38.6099 26.4697 38.5699 26.6597 38.7399 26.8697C39.1438 26.8457 39.5355 26.722 39.8799 26.5097C39.8799 26.5097 39.8799 26.4197 39.9299 26.3697C39.9799 26.3197 39.5199 26.4697 39.6099 26.4397L39.0799 26.6497C38.984 26.6882 38.8933 26.7386 38.8099 26.7997Z" fill="#EF8E7E"/>
<path opacity="0.12" d="M38.13 26.6697C38.4446 26.5597 38.7491 26.4225 39.04 26.2597C39.0884 26.1755 39.1672 26.1131 39.2601 26.0852C39.3531 26.0573 39.4532 26.0661 39.54 26.1097C39.46 26.0497 39.33 26.5797 39.44 26.5197C39.5303 26.4868 39.6147 26.4395 39.69 26.3797C39.94 26.1597 39.86 26.2697 39.95 25.9297C39.74 25.7497 39.7 25.6697 39.38 25.7297C39.1227 25.7666 38.8729 25.8442 38.64 25.9597L38.25 26.1697C38.1387 26.2122 38.0488 26.2972 38.0001 26.4059C37.9513 26.5146 37.9477 26.6383 37.99 26.7497C37.99 26.7497 38.99 26.7497 38.99 26.5797L39.08 26.3697C39.08 26.3697 38.73 26.4497 38.81 26.4297L38.36 26.5997C38.2808 26.6137 38.2035 26.6372 38.13 26.6697Z" fill="#EF8E7E"/>
<path opacity="0.12" d="M38.5699 26.6896L38.5099 26.7596L39.3899 26.4796L38.5199 26.6796L39.4299 26.5396H39.2999H39.3999C39.3999 26.3596 39.3999 26.1796 39.3999 25.9996L39.3399 26.5096L39.6099 25.9896C39.5099 26.1396 39.4199 26.2896 39.3099 26.4396C39.3153 26.4727 39.3153 26.5065 39.3099 26.5396L39.9399 26.3696L39.1899 26.4296C39.1099 26.4296 39.3699 26.7896 39.4699 26.7296C39.6769 26.6827 39.865 26.5747 40.0099 26.4196C40.2999 26.1896 40.0099 26.0096 39.8999 25.8696L39.6199 25.7996C39.3954 25.7855 39.1739 25.857 38.9999 25.9996L38.6499 26.2196C38.3799 26.3796 38.3399 26.5696 38.5199 26.7896C38.8731 26.7745 39.2168 26.6714 39.5199 26.4896C39.5142 26.4431 39.5142 26.3961 39.5199 26.3496C39.5199 26.2896 39.1599 26.4296 39.2299 26.4096L38.7699 26.5796C38.6977 26.6051 38.6301 26.6422 38.5699 26.6896Z" fill="#EF8E7E"/>
<path opacity="0.12" d="M37.9001 26.4302H37.8201H38.5401C38.1301 25.9202 39.9501 25.4302 39.4601 26.1002C39.4601 26.1002 39.3701 26.3402 39.4601 26.2502C39.5637 26.1799 39.6493 26.0863 39.7101 25.9769C39.7708 25.8675 39.8051 25.7453 39.8101 25.6202C39.8148 25.6039 39.8148 25.5866 39.8101 25.5702L39.5701 25.4102C39.3004 25.3947 39.0306 25.4391 38.7801 25.5402L38.4001 25.6902C38.1082 25.7906 37.8652 25.9979 37.7201 26.2702C37.5701 26.4502 37.7201 26.5402 37.8601 26.5902C38.0001 26.6402 38.5701 26.4802 38.5901 26.3702C38.6101 26.2602 38.5901 26.2802 38.5901 26.2302C38.5901 26.1802 38.3301 26.2802 38.3801 26.2302C38.2701 26.2602 38.0001 26.3102 37.9001 26.4302Z" fill="#EF8E7E"/>
<path opacity="0.12" d="M24.4201 26.3399L23.6401 26.8799L24.2301 26.5399H23.6101H23.7901L23.5701 26.4099L23.6401 26.4799L24.5101 25.8999L24.0001 25.9999L24.6101 26.1099L24.1501 25.9799V26.0399C24.2333 26.1243 24.3317 26.1921 24.4401 26.2399C24.4401 26.2399 24.7801 26.4199 24.7801 26.3699C24.7801 26.0899 24.7801 25.9799 24.4401 25.8999C24.2017 25.8197 23.9517 25.7792 23.7001 25.7799C23.4215 25.7295 23.1342 25.7906 22.9001 25.9499C22.6601 26.0499 22.9001 26.5499 23.0101 26.6199C23.2369 26.884 23.5415 27.0695 23.8801 27.1499C23.9801 27.1499 24.1301 26.8499 24.1601 26.7999C24.2656 26.6581 24.353 26.5035 24.4201 26.3399V26.3399Z" fill="#EF8E7E"/>
<path opacity="0.12" d="M25.1699 26.0002L23.9099 26.8002V26.8702L25.1799 26.4802L24.0899 26.5702L23.7899 26.6402C23.6199 26.6902 24.2299 26.7402 24.1399 26.7302C24.0499 26.7202 25.1399 26.8402 25.1399 26.7302V26.4302C25.0401 26.2396 24.8724 26.0933 24.6699 26.0202C24.373 25.9439 24.0661 25.9135 23.7599 25.9302L23.4199 26.1002C23.3777 26.1927 23.3647 26.2958 23.3825 26.3958C23.4004 26.4959 23.4483 26.5881 23.5199 26.6602C23.6699 26.9302 24.0799 27.0602 24.3399 27.1802C24.5999 27.3002 25.0899 26.1402 25.1699 26.0002Z" fill="#EF8E7E"/>
<path opacity="0.12" d="M24.15 26.4402L23.5 26.8602L23.98 26.6102L23.29 26.4202C23.3046 26.4449 23.3253 26.4656 23.35 26.4802L24.75 26.1002L24.41 25.9402L24.59 26.1402C24.59 26.1402 24.89 26.4302 24.87 26.3302C24.78 25.9502 24.8 26.0402 24.44 25.8502C24.0244 25.714 23.5827 25.6763 23.15 25.7402C23.05 25.7372 22.9515 25.7655 22.8684 25.8212C22.7852 25.8769 22.7216 25.9572 22.6863 26.0509C22.651 26.1445 22.6459 26.2469 22.6717 26.3436C22.6975 26.4403 22.7528 26.5265 22.83 26.5902C23.063 26.8696 23.3778 27.069 23.73 27.1602C23.83 27.1602 23.97 26.8702 24 26.8202L24.17 26.5302C24.17 26.5302 24.16 26.4002 24.15 26.4402Z" fill="#EF8E7E"/>
<path opacity="0.12" d="M24.5899 26.26L23.6699 27.02L24.3999 26.52L23.9999 26.65L24.2399 26.59L23.3299 26.66H23.9999L23.6199 26.55L23.8399 26.65L24.2499 26.05L23.7099 26.35H24.7099L23.9899 26.17C23.9899 26.25 24.3699 26.4 24.3899 26.41C24.4099 26.42 24.8399 26.62 24.8299 26.57C24.8299 26.21 24.8299 26.33 24.5799 26.11C24.1958 26.0059 23.7967 25.9687 23.3999 26L23.0299 26.15C22.9704 26.2444 22.9448 26.3564 22.9575 26.4673C22.9703 26.5782 23.0205 26.6815 23.0999 26.76C23.3114 27.049 23.6205 27.2515 23.9699 27.33C24.0699 27.33 24.2999 26.88 24.3199 26.84C24.4405 26.6624 24.5316 26.4666 24.5899 26.26V26.26Z" fill="#EF8E7E"/>
<path opacity="0.12" d="M24.14 26.4199L23.53 26.7899L23.97 26.5699L24.79 25.9999L24.45 25.8399L24.63 26.0399C24.63 26.0399 24.93 26.3199 24.91 26.2199C24.82 25.8499 24.84 25.9299 24.48 25.7499C24.061 25.6132 23.616 25.5756 23.18 25.6399C23.0779 25.6377 22.9777 25.6674 22.8933 25.7249C22.8089 25.7824 22.7446 25.8648 22.7093 25.9606C22.6741 26.0565 22.6696 26.1609 22.6967 26.2594C22.7237 26.3579 22.7808 26.4455 22.86 26.5099C23.0907 26.7929 23.4122 26.9872 23.77 27.0599C23.87 27.0599 23.98 26.8199 24.01 26.7599C24.0659 26.6768 24.116 26.5899 24.16 26.4999C24.16 26.4999 24.16 26.3699 24.14 26.4199Z" fill="#EF8E7E"/>
<path opacity="0.12" d="M24 26.4997L23.38 26.8697L23.83 26.6397L24.78 26.0697L24.55 25.9997L24.81 26.3697C24.86 26.4497 24.87 26.3197 24.86 26.2897C24.79 26.0997 24.77 26.0097 24.59 25.9297C24.509 25.8937 24.4254 25.8637 24.34 25.8397L23.83 25.7197C23.56 25.7197 23.28 25.7197 23.01 25.7197C22.845 25.7303 22.686 25.7856 22.55 25.8797C22.26 25.9897 22.55 26.4797 22.62 26.5597C22.8441 26.882 23.1848 27.1044 23.57 27.1797C23.67 27.1797 23.79 26.9197 23.82 26.8697L23.97 26.5997C23.97 26.5997 24 26.4397 24 26.4997Z" fill="#EF8E7E"/>
<path opacity="0.12" d="M25 26.0903L24 27.0003L24.79 26.4103L24.14 26.6803L24.63 26.5003L23.41 26.4503L24.22 26.6703L24.99 26.4903H24.05L23.91 26.5403C23.76 26.5403 24.25 26.6703 24.19 26.6603C24.13 26.6503 25.08 26.8403 25.09 26.7603C25.1 26.6803 25.09 26.5703 25.09 26.4703C24.9831 26.2921 24.8166 26.1575 24.62 26.0903C24.3195 26.0145 24.0094 25.9842 23.7 26.0003L23.34 26.1703C23.2906 26.2631 23.2718 26.3691 23.2862 26.4732C23.3005 26.5774 23.3474 26.6743 23.42 26.7503C23.5456 26.9169 23.7153 27.045 23.91 27.1203C24.0076 27.2156 24.1343 27.2755 24.27 27.2903C24.37 27.2903 24.64 26.7703 24.66 26.7303C24.8113 26.5395 24.9265 26.3226 25 26.0903V26.0903Z" fill="#EF8E7E"/>
<path opacity="0.12" d="M23.8001 26.5404L23.3201 26.8104L23.6101 26.6704C22.6101 26.5104 22.9701 26.3004 24.6701 26.0404L24.5501 25.9304L24.7501 26.3004H24.8101C24.8101 26.3004 24.8101 26.1504 24.8101 26.1204C24.6801 25.8604 24.6101 25.8604 24.3201 25.7404C23.8665 25.5853 23.3797 25.5542 22.9101 25.6504C22.3601 25.6504 22.4401 25.7804 22.3401 26.1904C22.3401 26.2904 22.4301 26.4604 22.5101 26.5504C22.7701 26.8004 23.0801 27.1404 23.5101 27.1504C23.6001 27.1504 23.7101 26.9204 23.7401 26.8704L23.8801 26.6204C23.8801 26.6204 23.8301 26.4904 23.8001 26.5404Z" fill="#EF8E7E"/>
<path opacity="0.12" d="M24.1201 26.4604L23.4101 26.9304L23.9201 26.6404L23.2101 26.4704L23.2701 26.5304L24.7101 26.1804L24.4401 26.0504L24.7201 26.3804C24.7201 26.3804 24.8601 26.4904 24.8301 26.3804C24.7301 26.0404 24.7001 26.0804 24.3801 25.9204C23.9632 25.7903 23.5229 25.7528 23.0901 25.8104C22.9279 25.8197 22.7717 25.8752 22.6401 25.9704C22.3601 26.0704 22.6401 26.5404 22.7101 26.6304C22.9308 26.947 23.263 27.1685 23.6401 27.2504C23.7401 27.2504 23.8901 26.9304 23.9201 26.8804C24.0047 26.7497 24.072 26.6085 24.1201 26.4604Z" fill="#EF8E7E"/>
<path opacity="0.12" d="M24.6099 26.2599L23.7399 26.9499L24.4199 26.4999L24.0399 26.5999H24.2599H23.3999H23.9899L23.6299 26.4799L23.8399 26.5799L24.2899 25.9399L23.7199 26.2599L24.8099 26.1999L23.9999 25.9999C23.9999 25.9999 24.3799 26.2199 24.4099 26.2399C24.4399 26.2599 24.8499 26.4399 24.8499 26.3899C24.8499 26.0299 24.8999 26.1499 24.6199 25.9299L23.8899 25.7899C23.7558 25.7618 23.6175 25.7614 23.4833 25.789C23.3491 25.8165 23.222 25.8713 23.1099 25.9499C22.8699 26.0599 23.1099 26.5199 23.2099 26.5899C23.4366 26.8443 23.7317 27.0283 24.0599 27.1199C24.1599 27.1199 24.3599 26.7199 24.3899 26.6799C24.4808 26.5499 24.5548 26.4087 24.6099 26.2599V26.2599Z" fill="#EF8E7E"/>
<path opacity="0.12" d="M23.62 26.6704L23.51 26.7804L23.61 26.7004C23.5062 26.7109 23.4017 26.69 23.31 26.6404L23 26.4504C23.06 25.3404 23.63 25.1604 24.69 25.9104L24.6 25.8104C24.66 25.9304 24.71 26.0604 24.77 26.1804C24.83 26.3004 24.84 26.1804 24.85 26.1804C24.8653 26.1316 24.8653 26.0792 24.85 26.0304C24.71 25.7204 24.69 25.7704 24.33 25.5604C23.74 25.2304 23.55 25.4204 22.87 25.5004C21.62 25.6304 22.71 27.0804 23.41 27.1104C23.52 27.1104 23.61 26.8704 23.65 26.8004C23.69 26.7304 23.73 26.5704 23.62 26.6704Z" fill="#EF8E7E"/>
<path d="M40.9099 17.45C41.3099 17.62 41.6599 17.84 42.0799 17.99C42.4999 18.14 42.9699 18.28 43.0799 18.68C42.9777 18.1719 42.7271 17.7056 42.3599 17.34C42.0199 16.97 41.8599 16.45 41.4899 16.1C41.1199 15.75 40.4899 15.89 40.0499 15.7C39.6099 15.51 37.4699 14.77 36.1699 14.43C34.4701 14.0439 32.7405 13.803 30.9999 13.71C26.2678 13.9065 21.6055 14.9216 17.2199 16.71C16.7499 16.92 16.8599 17.07 16.5899 17.46C16.0771 18.0725 15.6683 18.765 15.3799 19.51C16.2367 19.2569 17.0672 18.922 17.8599 18.51C18.8239 18.1937 19.7603 17.7991 20.6599 17.33C22.269 16.6029 23.978 16.1209 25.7299 15.9C27.8461 15.5999 29.9885 15.5295 32.1199 15.69C35.1097 15.9233 38.0607 16.5142 40.9099 17.45V17.45Z" fill="#C8EF20"/>
<path d="M40.7701 17.6205C41.1201 17.7805 41.4601 17.9605 41.7701 18.1105C42.0801 18.2605 42.5901 18.3405 42.7701 18.7405C42.8601 18.9605 43.3201 18.8505 43.2601 18.6105C43.139 18.1347 42.9098 17.6932 42.5901 17.3205C42.2301 16.8505 41.9701 16.1305 41.4401 15.8205C41.0149 15.678 40.5758 15.5808 40.1301 15.5305C39.6901 15.3905 39.2501 15.2005 38.8101 15.0505C36.7883 14.3524 34.6957 13.8795 32.5701 13.6405C30.0572 13.445 27.5291 13.627 25.0701 14.1805C22.8397 14.6168 20.6465 15.2253 18.5101 16.0005C18.0356 16.1543 17.5714 16.338 17.1201 16.5505C16.6401 16.8005 16.5501 17.1605 16.2501 17.5505C15.7961 18.1164 15.4288 18.7466 15.1601 19.4205C15.1528 19.4499 15.153 19.4808 15.1608 19.5101C15.1686 19.5394 15.1836 19.5663 15.2046 19.5883C15.2255 19.6102 15.2517 19.6265 15.2806 19.6357C15.3096 19.6448 15.3404 19.6464 15.3701 19.6405C16.3469 19.3708 17.2948 19.0057 18.2001 18.5505C19.3601 18.1305 20.4301 17.5505 21.5701 17.0705C24.2244 16.0956 27.0449 15.6538 29.8701 15.7705C33.581 15.7568 37.2671 16.3757 40.7701 17.6005C40.9801 17.6805 41.3301 17.3705 41.0401 17.2605C37.6687 16.0723 34.1246 15.4473 30.5501 15.4105C27.8479 15.3296 25.1493 15.6669 22.5501 16.4105C21.4021 16.8185 20.28 17.296 19.1901 17.8405C18.5901 18.0905 17.9601 18.2705 17.3601 18.5305C16.7576 18.8745 16.1119 19.1368 15.4401 19.3105C15.5101 19.3805 15.5901 19.4505 15.6601 19.5305C15.8891 18.9252 16.2094 18.3586 16.6101 17.8505C16.8182 17.4686 17.0964 17.1293 17.4301 16.8505C17.8189 16.6586 18.2238 16.5014 18.6401 16.3805C20.4453 15.7283 22.2929 15.2004 24.1701 14.8005C26.654 14.1624 29.2176 13.8896 31.7801 13.9905C33.6678 14.1187 35.5357 14.454 37.3501 14.9905C38.2701 15.2805 39.1801 15.7005 40.1201 15.9405C40.3401 16.0005 40.6101 15.9405 40.8201 16.0405C41.3801 16.2305 41.5601 16.6005 41.8201 17.0405C42.2554 17.5407 42.5944 18.117 42.8201 18.7405L43.3101 18.6105C43.0101 17.8705 41.7201 17.6105 41.0601 17.2805C40.8301 17.1905 40.4801 17.5005 40.7701 17.6205Z" fill="#1A1A1A"/>
</g>
<defs>
<clipPath id="clip0">
<rect width="48" height="48" fill="white"/>
</clipPath>
</defs>
</svg>
