<?xml version="1.0" encoding="utf-8"?>
<!-- Generator: Adobe Illustrator 25.4.1, SVG Export Plug-In . SVG Version: 6.00 Build 0)  -->
<svg version="1.1" xmlns="http://www.w3.org/2000/svg" xmlns:xlink="http://www.w3.org/1999/xlink" x="0px" y="0px"
	 viewBox="0 0 1462.3 403.2" style="enable-background:new 0 0 1462.3 403.2;" xml:space="preserve">
<style type="text/css">
	.st0{fill:#3F342F;}
	.st1{fill:#C23B33;}
	.st2{display:none;}
	.st3{display:inline;}
	.st4{opacity:0.6;fill:#84D4F0;}
	.st5{fill:#010101;}
	.st6{font-family:'OracleSans-Regular';}
	.st7{font-size:15px;}
</style>
<g id="Layer_1">
	<g>
		<path class="st0" d="M154.5,374.4v15.3c-7.5,4.2-16.4,7.6-26.7,10.1c-10.3,2.5-21,3.7-32.1,3.7c-30.4,0-53.9-9.6-70.6-28.7
			C8.4,355.7,0,328.7,0,293.7c0-22.1,3.8-41,11.5-56.8c7.7-15.8,18.7-27.9,33.2-36.5c14.4-8.6,31.6-12.8,51.6-12.8
			c9,0,18.2,1.3,27.5,3.9c9.3,2.6,16.8,5.9,22.3,9.9v15.3c-9.2-4.8-17.7-8.3-25.5-10.5c-7.8-2.2-15.6-3.3-23.5-3.3
			c-25.2,0-44.7,7.9-58.7,23.8c-13.9,15.9-20.9,38.2-20.9,67c0,30.2,6.9,53.5,20.8,69.9c13.8,16.4,33.4,24.7,58.8,24.7
			c9.6,0,19-1.2,28.3-3.5C134.6,382.5,144.3,379,154.5,374.4z"/>
		<path class="st0" d="M190.3,400.4V198.3l-14.4-7.8v-6.6H207v216.5H190.3z"/>
		<path class="st0" d="M311.7,403.2c-21.5,0-38.3-6.8-50.5-20.3C249.1,369.4,243,350.4,243,326c0-24.6,6.1-43.7,18.2-57.4
			c12.1-13.6,28.9-20.5,50.5-20.5c21.5,0,38.3,6.8,50.5,20.5c12.1,13.7,18.2,32.8,18.2,57.4c0,24.4-6,43.4-18,56.9
			C350.2,396.5,333.4,403.2,311.7,403.2z M311.7,388.8c16.7,0,29.5-5.4,38.3-16.1c8.8-10.8,13.3-26.3,13.3-46.7
			c0-20.6-4.5-36.3-13.4-47.1c-8.9-10.9-21.7-16.3-38.2-16.3c-16.5,0-29.3,5.4-38.2,16.3c-8.9,10.9-13.4,26.6-13.4,47.1
			c0,20.4,4.4,35.9,13.3,46.7C282.2,383.5,294.9,388.8,311.7,388.8z"/>
		<path class="st0" d="M414.9,343.6V251h16.7v92c0,30.4,12.9,45.6,38.6,45.6c10.8,0,20.7-3.5,29.7-10.5c9-7,15.9-16.5,20.5-28.4V251
			h16.7v149.3h-12.4l-3.7-27.1c-6,9.4-13.5,16.8-22.6,22.1c-9.1,5.3-19.5,7.9-31,7.9c-16.9,0-29.9-5.1-38.9-15.4
			C419.4,377.5,414.9,362.8,414.9,343.6z"/>
		<path class="st0" d="M691.1,400.4l-3.5-25.7c-5.8,8.5-13.3,15.3-22.5,20.6c-9.2,5.3-19.1,7.9-29.7,7.9c-19.6,0-34.9-6.8-45.8-20.5
			c-11-13.6-16.4-32.7-16.4-57.1c0-24.6,5.5-43.7,16.6-57.2c11.1-13.5,26.6-20.3,46.6-20.3c9.2,0,18.3,2,27.1,5.9
			c8.8,3.9,16.6,9.2,23.4,15.7v-85.9h16.7v216.5H691.1z M590.5,325.7c0,19.8,4.1,35.3,12.3,46.4c8.2,11.1,19.6,16.7,34.2,16.7
			c11,0,20.9-3.4,30-10.2c9-6.8,15.8-15.5,20.2-26.1v-66c-6.5-7.7-14-13.6-22.5-17.7c-8.5-4.1-17.2-6.2-26.2-6.2
			c-15.2,0-27,5.4-35.3,16.3C594.6,289.7,590.5,305.3,590.5,325.7z"/>
		<g>
			<path class="st0" d="M803.8,400.4l-50.2-209.6h17.9l42.7,178.8L866,202.3h15.6L934.1,371l42.7-180.2H994l-50.2,209.6h-16.4
				l-53.6-172.7l-53.6,172.7H803.8z"/>
			<path class="st0" d="M1073.6,403.2c-21.5,0-38.3-6.8-50.5-20.3c-12.1-13.5-18.2-32.5-18.2-56.9c0-24.6,6.1-43.7,18.2-57.4
				c12.1-13.6,28.9-20.5,50.5-20.5c21.5,0,38.3,6.8,50.5,20.5c12.1,13.7,18.2,32.8,18.2,57.4c0,24.4-6,43.4-18,56.9
				C1112.2,396.5,1095.3,403.2,1073.6,403.2z M1073.6,388.8c16.7,0,29.5-5.4,38.3-16.1c8.8-10.8,13.3-26.3,13.3-46.7
				c0-20.6-4.5-36.3-13.4-47.1c-8.9-10.9-21.7-16.3-38.2-16.3c-16.5,0-29.3,5.4-38.2,16.3c-8.9,10.9-13.4,26.6-13.4,47.1
				c0,20.4,4.4,35.9,13.3,46.7C1044.1,383.5,1056.9,388.8,1073.6,388.8z"/>
			<path class="st0" d="M1178.3,400.4V251h12.4l3.5,27.4c4-8.6,9.9-15.6,17.6-20.8c7.7-5.2,16.1-7.8,25.4-7.8c3.3,0,6.1,0.3,8.6,0.9
				v14.4h-6.9c-10.8,0-20.1,3.9-28,11.7c-7.9,7.8-13.2,18.7-15.9,32.7v90.8H1178.3z"/>
			<path class="st0" d="M1279.2,400.4V198.3l-14.4-7.8v-6.6h31.1v216.5H1279.2z"/>
			<path class="st0" d="M1449.9,400.4l-3.5-25.7c-5.8,8.5-13.3,15.3-22.5,20.6c-9.2,5.3-19.1,7.9-29.7,7.9
				c-19.6,0-34.9-6.8-45.8-20.5c-11-13.6-16.4-32.7-16.4-57.1c0-24.6,5.5-43.7,16.6-57.2c11.1-13.5,26.6-20.3,46.6-20.3
				c9.2,0,18.3,2,27.1,5.9c8.8,3.9,16.6,9.2,23.4,15.7v-85.9h16.7v216.5H1449.9z M1349.2,325.7c0,19.8,4.1,35.3,12.3,46.4
				c8.2,11.1,19.6,16.7,34.2,16.7c11,0,20.9-3.4,30-10.2c9-6.8,15.8-15.5,20.2-26.1v-66c-6.5-7.7-14-13.6-22.5-17.7
				c-8.5-4.1-17.2-6.2-26.2-6.2c-15.2,0-27,5.4-35.3,16.3C1353.4,289.7,1349.2,305.3,1349.2,325.7z"/>
		</g>
	</g>
	<g>
		<path class="st1" d="M369.6,72.2H426l-29.8-48.1l-54.7,86.8h-25L383.1,6.8c2.8-4.2,7.7-6.8,13-6.8c5.2,0,10,2.5,12.8,6.6
			l66.8,104.3h-24.9l-11.7-19.4h-57.1L369.6,72.2 M628.3,91.5V1.1h-21.2v99.4c0,2.7,1.1,5.4,3.1,7.3c2,2.1,4.8,3.2,7.7,3.2h96.3
			l12.5-19.4H628.3 M278.7,75.4c20.6,0,37.1-16.7,37.1-37.2c0-20.5-16.5-37.1-37.1-37.1h-92.4v109.9h21.1V20.5h69.9
			c9.8,0,17.8,7.9,17.8,17.7c0,9.8-8,17.8-17.8,17.8L217.7,56l63.1,54.9h30.7l-42.4-35.6H278.7 M56.3,110.9h63.9
			c30.4,0,54.8-24.5,54.8-54.9c0-30.4-24.5-55-54.8-55H56.3c-30.4,0-55,24.6-55,55C1.3,86.4,25.9,110.9,56.3,110.9 M118.7,91.6h-61
			c-19.6,0-35.5-16-35.5-35.6c0-19.7,15.9-35.6,35.5-35.6h61c19.7,0,35.6,15.9,35.6,35.6C154.3,75.7,138.4,91.6,118.7,91.6
			 M519.9,110.9h65.2l12.3-19.3h-76.1c-19.7,0-35.6-16-35.6-35.6c0-19.7,15.9-35.6,35.6-35.6h61.9l12.5-19.4h-75.9
			c-30.4,0-55,24.6-55,55C464.9,86.4,489.6,110.9,519.9,110.9 M778.3,91.6c-16.3,0-30-10.9-34.2-25.9h90.3l12.4-19.4H744.1
			c4.2-15,18-25.9,34.2-25.9h62l12.4-19.4h-75.8c-30.3,0-54.9,24.6-54.9,55c0,30.3,24.6,54.9,54.9,54.9h65.2l12.4-19.3H778.3"/>
	</g>
</g>
<g id="clearspace" class="st2">
	<g class="st3">
		<rect x="-125.3" y="401.9" class="st4" width="216.3" height="216.3"/>
	</g>
	<g class="st3">
		<rect x="3.1" y="0.8" class="st4" width="216.3" height="216.3"/>
		<text transform="matrix(1 0 0 1 27.1025 23.6614)" class="st5 st6 st7">1x</text>
	</g>
</g>
<g id="guides" class="st2">
</g>
<g id="Layer_4">
</g>
</svg>
