<svg width="173" height="32" viewBox="0 0 173 32" fill="none" xmlns="http://www.w3.org/2000/svg">
<path d="M6.86075 7.4252e-08V3.65937H11.3826V7.39659H6.86075V15.8832C6.86075 16.6618 7.32853 17.1289 8.0302 17.1289C8.80983 17.1289 9.35557 16.6618 9.90131 15.6496L13.0978 17.5182C11.6165 20.0097 10.1352 20.8662 7.64038 20.8662C5.45742 20.8662 3.66426 19.6983 3.11852 18.0633C2.9626 17.5961 2.88463 16.6618 2.88463 15.7275V7.47445H0V3.73722H2.88463V7.4252e-08H6.86075Z" transform="translate(114.216 3.03656)" fill="#BF0000"/>
<path d="M15.7485 8.79805C15.7485 13.9367 12.4741 17.5961 7.87427 17.5961C3.27445 17.5961 -2.37924e-06 13.8589 -2.37924e-06 8.79805C-2.37924e-06 3.65937 3.27445 2.97008e-07 7.87427 2.97008e-07C12.4741 0.0778591 15.7485 3.73722 15.7485 8.79805ZM3.97612 8.87591C3.97612 11.601 5.61334 13.7032 7.87427 13.7032C10.1352 13.7032 11.7724 11.6788 11.7724 8.87591C11.7724 6.07299 10.1352 4.04866 7.87427 4.04866C5.69131 3.9708 3.97612 6.07299 3.97612 8.87591Z" transform="translate(127.626 6.30652)" fill="#BF0000"/>
<path d="M6.86075 7.4252e-08V3.65937H11.3826V7.39659H6.86075V15.8832C6.86075 16.6618 7.32853 17.1289 8.0302 17.1289C8.80983 17.1289 9.35557 16.6618 9.90131 15.6496L13.0978 17.5182C11.6165 20.0097 10.1352 20.8662 7.64038 20.8662C5.45742 20.8662 3.66426 19.6983 3.11852 18.0633C2.9626 17.5961 2.88463 16.6618 2.88463 15.7275V7.47445H0V3.73722H2.88463V7.4252e-08H6.86075Z" transform="translate(143.842 3.03656)" fill="#BF0000"/>
<path d="M15.7485 8.79805C15.7485 13.9367 12.4741 17.5961 7.87427 17.5961C3.27445 17.5961 -2.37924e-06 13.8589 -2.37924e-06 8.79805C-2.37924e-06 3.65937 3.27445 2.97008e-07 7.87427 2.97008e-07C12.4741 0.0778591 15.7485 3.73722 15.7485 8.79805ZM3.97612 8.87591C3.97612 11.601 5.61334 13.7032 7.87427 13.7032C10.1352 13.7032 11.7724 11.6788 11.7724 8.87591C11.7724 6.07299 10.1352 4.04866 7.87427 4.04866C5.69131 3.9708 3.97612 6.07299 3.97612 8.87591Z" transform="translate(157.251 6.30652)" fill="#BF0000"/>
<path d="M65.2551 0H2.97406e-07L5.22353 5.13868L65.2551 0Z" transform="translate(21.5181 26.8613)" fill="#BF0000"/>
<path d="M11.8504 0.467153V1.24574C10.603 0.467153 9.58946 7.4252e-08 8.0302 7.4252e-08C3.43038 7.4252e-08 5.94811e-07 4.12652 5.94811e-07 9.2652C5.94811e-07 14.4039 3.50834 18.5304 8.0302 18.5304C9.5115 18.5304 10.603 18.0633 11.8504 17.2847V18.0633H15.8265V0.467153H11.8504ZM8.0302 14.326C5.76927 14.326 4.13204 12.146 4.13204 9.34306C4.13204 6.54014 5.76927 4.3601 8.0302 4.3601C10.2911 4.3601 11.8504 6.54014 11.8504 9.34306C11.9284 12.146 10.2911 14.326 8.0302 14.326Z" transform="translate(15.749 5.37231)" fill="#BF0000"/>
<path d="M10.603 0V10.3552C10.603 12.3017 9.27761 13.9367 7.32853 13.9367C5.37945 13.9367 4.05408 12.3017 4.05408 10.3552V0H0V10.3552C0 14.6375 2.88463 18.0633 7.1726 18.0633C9.12168 18.0633 10.603 16.9732 10.603 16.9732V17.5961H14.6571V0H10.603Z" transform="translate(49.1167 5.83948)" fill="#BF0000"/>
<path d="M4.05408 18.0633V7.70803C4.05408 5.76156 5.37946 4.12652 7.32853 4.12652C9.27761 4.12652 10.603 5.76156 10.603 7.70803V18.0633H14.6571V7.70803C14.6571 3.42579 11.7724 0 7.48446 0C5.53538 0 4.05408 1.09002 4.05408 1.09002V0.389294H1.18962e-06V18.0633H4.05408Z" transform="translate(93.0874 5.45007)" fill="#BF0000"/>
<path d="M4.21001 22.1119V15.2603H7.1726L12.3182 22.1119H17.5417L11.3046 13.8589C13.2537 12.4574 14.5011 10.1995 14.5011 7.63017C14.5011 3.42579 11.0708 -3.7126e-08 6.86075 -3.7126e-08H0V22.0341H4.21001V22.1119ZM4.21001 4.28224H6.93871C8.80983 4.28224 10.3691 5.83941 10.3691 7.70803C10.3691 9.57664 8.80983 11.1338 6.93871 11.1338H4.21001V4.28224Z" transform="translate(0 1.40149)" fill="#BF0000"/>
<path d="M9.35557 17.9854C8.96575 18.219 8.57594 18.4525 8.0302 18.4525C7.40649 18.4525 6.15908 17.9854 6.15908 16.2725V8.72019H9.58946V4.43795H6.15908V-3.7126e-08H2.105V4.43795H-2.37924e-06V8.64233H2.105V16.2725C2.105 20.2433 5.0676 22.5791 8.10816 22.5791C9.19964 22.5791 10.7589 22.1898 12.0063 21.489L9.35557 17.9854Z" transform="translate(65.2549 1.40149)" fill="#BF0000"/>
<path d="M7.64038 14.1703L14.5791 5.83941H8.96575L4.13204 11.9903V0H0V23.5134H4.13204V16.2725L10.0572 23.5134H15.6706L7.64038 14.1703Z" transform="translate(33.9146)" fill="#BF0000"/>
<path d="M7.95223 0C3.27445 0 1.18962e-06 4.04866 1.18962e-06 9.2652C1.18962e-06 14.7153 4.21001 18.5304 8.34205 18.5304C10.4471 18.5304 13.1758 17.8297 15.4367 14.5596L11.9283 12.5353C9.19964 16.5839 4.59982 14.5596 4.05408 10.5109H15.5926C16.6061 4.12652 12.4741 0 7.95223 0ZM11.4606 6.92944H4.21001C5.0676 2.80292 10.6809 2.56934 11.4606 6.92944Z" transform="translate(75.936 5.45007)" fill="#BF0000"/>
</svg>
