<svg width="182" height="32" viewBox="0 0 182 32" fill="none" xmlns="http://www.w3.org/2000/svg">
<path d="M1.24712 -7.4252e-08H18.395C19.4862 -7.4252e-08 20.4216 0.311435 20.9672 1.16788C21.2789 1.63504 21.4348 2.18005 21.4348 2.80292C21.4348 3.42579 21.2789 4.20438 20.8892 4.98297C19.2524 8.25304 16.0566 11.6788 12.5491 14.1703C13.4845 15.2603 14.3419 16.4282 15.0434 17.5961C15.1992 17.8297 15.2772 18.219 15.2772 18.4525C15.2772 18.9976 14.9654 19.5426 14.5757 19.9319C14.2639 20.1654 13.9521 20.2433 13.5624 20.2433C13.0168 20.2433 12.5491 20.0097 12.1594 19.4647C9.899 16.1168 6.85915 12.3796 3.89725 9.57664C3.58547 9.2652 3.42957 8.87591 3.42957 8.56447C3.42957 8.09732 3.66341 7.63017 4.05314 7.31873C4.36492 7.08516 4.75463 6.92944 5.14436 6.92944C5.53408 6.92944 5.84587 7.08516 6.15764 7.31873C7.71654 8.64233 9.11955 10.1217 10.4446 11.601C13.3286 9.73236 16.0566 6.92944 17.3817 4.3601C17.5376 4.12652 17.5376 3.89294 17.5376 3.73722C17.5376 3.34793 17.2258 3.19221 16.7582 3.19221H1.16918C0.467674 3.19221 4.75738e-06 2.41362 4.75738e-06 1.55718C0.0779496 0.70073 0.545612 -7.4252e-08 1.24712 -7.4252e-08Z" transform="translate(113.878 3.58167)" fill="#FF41BE"/>
<path d="M1.24712 -7.4252e-08H18.395C19.4862 -7.4252e-08 20.4216 0.311435 20.9672 1.16788C21.279 1.63504 21.4348 2.18005 21.4348 2.80292C21.4348 3.42579 21.2789 4.20438 20.8892 4.98297C19.2524 8.25304 16.0566 11.6788 12.5491 14.1703C13.4845 15.2603 14.3419 16.4282 15.0434 17.5961C15.1992 17.8297 15.2772 18.219 15.2772 18.4525C15.2772 18.9976 14.9654 19.5426 14.5757 19.9319C14.2639 20.1654 13.9521 20.2433 13.5624 20.2433C13.0168 20.2433 12.5491 20.0097 12.1594 19.4647C9.899 16.1168 6.85914 12.3796 3.89724 9.57664C3.58546 9.2652 3.42958 8.87591 3.42958 8.56447C3.42958 8.09732 3.66341 7.63017 4.05314 7.31873C4.36492 7.08516 4.75464 6.92944 5.14436 6.92944C5.53409 6.92944 5.84587 7.08516 6.15765 7.31873C7.71654 8.64233 9.11955 10.1217 10.4446 11.601C13.3286 9.73236 16.0566 6.92944 17.3817 4.3601C17.5376 4.12652 17.5376 3.89294 17.5376 3.73722C17.5376 3.34793 17.2258 3.19221 16.7581 3.19221H1.16917C0.467665 3.19221 -4.75738e-06 2.41362 -4.75738e-06 1.55718C-4.75738e-06 0.70073 0.545614 -7.4252e-08 1.24712 -7.4252e-08Z" transform="translate(137.105 3.58167)" fill="#FF41BE"/>
<path d="M8.72982 -5.94016e-07H2.18246C0.623564 -5.94016e-07 2.37869e-06 0.622871 2.37869e-06 2.02433V4.82725C2.37869e-06 6.22871 0.701509 6.85158 2.18246 6.85158H8.72982C10.2887 6.85158 10.9123 6.22871 10.9123 4.82725V2.02433C10.9902 0.622871 10.2887 -5.94016e-07 8.72982 -5.94016e-07ZM8.3401 2.6472V4.28224C8.3401 4.67153 8.18421 4.74939 7.79449 4.74939H3.19573C2.80601 4.74939 2.65012 4.67153 2.65012 4.28224V2.6472C2.65012 2.25791 2.80601 2.18005 3.19573 2.18005H7.79449C8.26216 2.10219 8.3401 2.25791 8.3401 2.6472Z" transform="translate(161.58 16.9733)" fill="#FF41BE"/>
<path d="M2.65013 14.2482V0.934306C2.65013 0.389294 2.10451 7.4252e-08 1.32507 7.4252e-08C0.545616 7.4252e-08 4.75738e-06 0.389294 4.75738e-06 0.934306V14.2482C4.75738e-06 14.7932 0.545616 15.1825 1.32507 15.1825C2.18246 15.1825 2.65013 14.7932 2.65013 14.2482Z" transform="translate(174.676 3.42578)" fill="#FF41BE"/>
<path d="M11.3799 1.79075H8.26215V0.934306C8.26215 0.389294 7.71654 -3.7126e-08 6.93709 -3.7126e-08C6.0797 -3.7126e-08 5.61203 0.311435 5.61203 0.934306V1.79075H2.2604C0.779449 1.79075 0.155892 2.41362 0.155892 3.81508V5.45012C0.155892 6.15085 0.545609 6.46229 1.403 6.46229C1.63684 6.46229 1.79273 6.46228 2.02656 6.38443C2.02656 6.46228 2.02656 6.54014 2.02656 6.618C2.02656 7.08516 2.2604 7.63017 2.88396 7.63017H5.76792V8.79805H2.02656C1.5589 8.79805 1.24712 9.18734 1.24712 9.81021C1.24712 10.4331 1.5589 10.8224 2.02656 10.8224H5.76792V12.0681H0.779453C0.311784 12.0681 4.75738e-06 12.4574 4.75738e-06 13.1581C4.75738e-06 13.7032 0.233839 14.1703 0.779453 14.1703H12.783C13.2506 14.1703 13.5624 13.781 13.5624 13.1581C13.5624 12.5353 13.2506 12.0681 12.783 12.0681H8.10627V10.8224H11.7697C12.2373 10.8224 12.5491 10.4331 12.5491 9.81021C12.5491 9.18734 12.2373 8.79805 11.7697 8.79805H8.10627V7.55231H11.1461C11.6917 7.55231 11.9256 7.0073 11.9256 6.54014C11.9256 6.46228 11.9256 6.30657 11.9256 6.22871C12.0815 6.22871 12.2373 6.30657 12.3932 6.30657C13.2506 6.30657 13.5624 5.99513 13.5624 5.2944V3.81508C13.5624 2.41362 12.8609 1.79075 11.3799 1.79075ZM6.85914 4.43795C6.0797 4.43795 5.68997 4.74939 5.68997 5.2944V5.60584H2.80601C2.72807 5.60584 2.72807 5.60584 2.65013 5.60584V4.51581C2.65013 4.04866 2.80601 4.04866 3.19574 4.04866H10.6784C11.0682 4.04866 11.2241 4.12652 11.2241 4.51581V5.52798C11.2241 5.60584 11.2241 5.60584 11.2241 5.6837H8.10627V5.2944C8.02832 4.74939 7.63859 4.43795 6.85914 4.43795Z" transform="translate(160.255 1.79077)" fill="#FF41BE"/>
<path d="M5.06642 3.7126e-08C4.20902 3.7126e-08 3.74136 0.389294 3.74136 1.01216V18.5304C3.74136 19.2311 3.58546 19.309 2.88396 19.309C2.33834 19.309 1.63684 19.2311 1.16917 19.1533C1.09123 19.1533 1.01329 19.1533 1.01329 19.1533C0.467672 19.1533 0.0779449 19.5426 0 20.2433C0 20.3212 0 20.4769 0 20.5547C0 21.1776 0.311784 21.6448 0.857398 21.7226C1.5589 21.8783 2.57218 21.9562 3.50752 21.9562C5.68998 21.9562 6.62531 21.0997 6.62531 19.1533V1.01216C6.39148 0.389294 5.92381 3.7126e-08 5.06642 3.7126e-08Z" transform="translate(175.375 2.10229)" fill="#FF41BE"/>
<path d="M65.2399 0H2.97336e-07L5.22231 5.13868L65.2399 0Z" transform="translate(21.512 26.8613)" fill="#FF41BE"/>
<path d="M11.8476 0.467153V1.24574C10.6005 0.467153 9.58722 7.4252e-08 8.02832 7.4252e-08C3.42957 7.4252e-08 5.94672e-07 4.12652 5.94672e-07 9.2652C5.94672e-07 14.4039 3.50752 18.5304 8.02832 18.5304C9.50927 18.5304 10.6005 18.0633 11.8476 17.2847V18.0633H15.8228V0.467153H11.8476ZM8.02832 14.326C5.76792 14.326 4.13108 12.146 4.13108 9.34306C4.13108 6.54014 5.76792 4.3601 8.02832 4.3601C10.2887 4.3601 11.8476 6.54014 11.8476 9.34306C11.9256 12.146 10.2887 14.326 8.02832 14.326Z" transform="translate(15.7444 5.37231)" fill="#FF41BE"/>
<path d="M10.5226 0V10.3552C10.5226 12.3017 9.1975 13.9367 7.24887 13.9367C5.30025 13.9367 3.97519 12.3017 3.97519 10.3552V0H-1.18934e-06V10.3552C-1.18934e-06 14.6375 2.88396 18.0633 7.17093 18.0633C9.11955 18.0633 10.6005 16.9732 10.6005 16.9732V17.5961H14.6536V0H10.5226Z" transform="translate(49.1826 5.83948)" fill="#FF41BE"/>
<path d="M4.05313 18.0633V7.70803C4.05313 5.76156 5.3782 4.12652 7.32682 4.12652C9.27544 4.12652 10.6005 5.76156 10.6005 7.70803V18.0633H14.6536V7.70803C14.6536 3.42579 11.7697 0 7.48271 0C5.53409 0 4.05313 1.09002 4.05313 1.09002V0.389294H1.18934e-06V18.0633H4.05313Z" transform="translate(93.0652 5.45007)" fill="#FF41BE"/>
<path d="M4.20902 22.1119V15.2603H7.17093L12.3153 22.1119H17.5376L11.302 13.8589C13.2506 12.4574 14.4977 10.1995 14.4977 7.63017C14.4977 3.42579 11.0682 -3.7126e-08 6.85915 -3.7126e-08H0V22.0341H4.20902V22.1119ZM4.20902 4.28224H6.93709C8.80777 4.28224 10.3667 5.83941 10.3667 7.70803C10.3667 9.57664 8.80777 11.1338 6.93709 11.1338H4.20902V4.28224Z" transform="translate(0 1.40149)" fill="#FF41BE"/>
<path d="M9.35338 17.9854C8.96366 18.219 8.57394 18.4525 8.02832 18.4525C7.40476 18.4525 6.15764 17.9854 6.15764 16.2725V8.72019H9.58722V4.43795H6.15764V-3.7126e-08H2.10451V4.43795H-2.37869e-06V8.64233H2.10451V16.2725C2.10451 20.2433 5.06642 22.5791 8.10627 22.5791C9.19749 22.5791 10.7564 22.1898 12.0035 21.489L9.35338 17.9854Z" transform="translate(65.2405 1.40149)" fill="#FF41BE"/>
<path d="M7.6386 14.1703L14.5757 5.83941H8.96366L4.13108 11.9903V0H0V23.5134H4.13108V16.2725L10.0549 23.5134H15.6669L7.6386 14.1703Z" transform="translate(33.9062)" fill="#FF41BE"/>
<path d="M7.95038 0C3.27368 0 1.18934e-06 4.04866 1.18934e-06 9.2652C1.18934e-06 14.7153 4.20902 18.5304 8.3401 18.5304C10.4446 18.5304 13.1727 17.8297 15.4331 14.5596L11.9256 12.5353C9.19749 16.5839 4.59875 14.5596 4.05313 10.5109H15.589C16.6023 4.12652 12.4712 0 7.95038 0ZM11.4579 6.92944H4.20902C5.06642 2.80292 10.6784 2.56934 11.4579 6.92944Z" transform="translate(75.9194 5.45007)" fill="#FF41BE"/>
</svg>
