<svg width="183" height="32" viewBox="0 0 183 32" fill="none" xmlns="http://www.w3.org/2000/svg">
<path d="M65.2069 0H2.97186e-07L5.21967 5.13869L65.2069 0Z" transform="translate(21.502 26.8613)" fill="#655CAC"/>
<path d="M11.8416 0.467153V1.24574C10.5951 0.467153 9.58237 7.4252e-08 8.02427 7.4252e-08C3.42784 7.4252e-08 5.94372e-07 4.12652 5.94372e-07 9.26521C5.94372e-07 14.4039 3.50575 18.5304 8.02427 18.5304C9.50447 18.5304 10.5951 18.0633 11.8416 17.2847V18.0633H15.8148V0.467153H11.8416ZM8.02427 14.326C5.76501 14.326 4.12899 12.146 4.12899 9.34307C4.12899 6.54015 5.76501 4.3601 8.02427 4.3601C10.2835 4.3601 11.8416 6.54015 11.8416 9.34307C11.9195 12.146 10.2835 14.326 8.02427 14.326Z" transform="translate(15.7369 5.37231)" fill="#655CAC"/>
<path d="M10.5172 0V10.3552C10.5172 12.3017 9.19285 13.9367 7.24521 13.9367C5.29757 13.9367 3.97318 12.3017 3.97318 10.3552V0H-1.18874e-06V10.3552C-1.18874e-06 14.6375 2.8825 18.0633 7.16731 18.0633C9.11494 18.0633 10.5951 16.9732 10.5951 16.9732V17.5961H14.6462V0H10.5172Z" transform="translate(49.1584 5.83948)" fill="#655CAC"/>
<path d="M4.12899 18.0633V7.70803C4.12899 5.76156 5.45339 4.12652 7.40102 4.12652C9.34866 4.12652 10.6731 5.76156 10.6731 7.70803V18.0633H14.6462V7.70803C14.6462 3.42579 11.7637 0 7.47892 0C5.53128 0 4.05108 1.09002 4.05108 1.09002V0.389294H2.37749e-06V18.0633H4.12899Z" transform="translate(92.9413 5.45007)" fill="#655CAC"/>
<path d="M4.2069 22.1119V15.2603H7.1673L12.3091 22.1119H17.5287L11.2963 13.8589C13.2439 12.4574 14.4904 10.1995 14.4904 7.63017C14.4904 3.42579 11.0626 -3.7126e-08 6.85568 -3.7126e-08H0V22.0341H4.2069V22.1119ZM4.2069 4.28224H6.93359C8.80332 4.28224 10.3614 5.83942 10.3614 7.70803C10.3614 9.57664 8.80332 11.1338 6.93359 11.1338H4.2069V4.28224Z" transform="translate(0 1.40149)" fill="#655CAC"/>
<path d="M9.27075 17.9854C8.88122 18.219 8.4917 18.4526 7.94636 18.4526C7.32312 18.4526 6.07663 17.9854 6.07663 16.2725V8.72019H9.50447V4.43796H6.07663V-3.7126e-08H2.10345V4.43796H2.37749e-06V8.64233H2.10345V16.2725C2.10345 20.2433 5.06385 22.5791 8.10217 22.5791C9.19285 22.5791 10.751 22.1898 11.9974 21.489L9.27075 17.9854Z" transform="translate(65.2848 1.40149)" fill="#655CAC"/>
<path d="M7.63474 14.1703L14.5683 5.83942H8.95913L4.12899 11.9903V0H0V23.5134H4.12899V16.2725L10.0498 23.5134H15.659L7.63474 14.1703Z" transform="translate(33.8889)" fill="#655CAC"/>
<path d="M7.94636 0C3.27203 0 1.18874e-06 4.04866 1.18874e-06 9.26521C1.18874e-06 14.7153 4.2069 18.5304 8.33589 18.5304C10.4393 18.5304 13.166 17.8297 15.4253 14.5596L11.9195 12.5353C9.19285 16.5839 4.59642 14.5596 4.05108 10.5109H15.5811C16.5939 4.12652 12.4649 0 7.94636 0ZM11.4521 6.92944H4.2069C5.06386 2.80292 10.6731 2.56934 11.4521 6.92944Z" transform="translate(75.88 5.45007)" fill="#655CAC"/>
<path d="M6.77778 19.854L0.311622 3.73723C0.233716 3.50365 0.155809 3.34793 0.0779031 3.11436C-2.37981e-06 2.88078 4.75497e-06 2.6472 4.75497e-06 2.41363C4.75497e-06 1.7129 0.233716 1.16788 0.701149 0.70073C1.16858 0.233577 1.79183 -3.7126e-08 2.49298 -3.7126e-08C3.03832 -3.7126e-08 3.42784 0.155718 3.81737 0.467153C4.12899 0.778589 4.44061 1.3236 4.75223 2.10219L9.11494 13.9367L13.3218 2.25791C13.6335 1.40146 13.9451 0.856448 14.2567 0.545012C14.6462 0.233577 15.1137 0.077859 15.659 0.077859C16.3601 0.077859 16.9834 0.311436 17.3729 0.70073C17.7624 1.09002 17.9962 1.63504 17.9962 2.33577C17.9962 2.56934 17.9962 2.88078 17.9183 3.19221C17.8404 3.50365 17.7625 3.73723 17.6845 4.04866L11.4521 19.854C11.1405 20.5547 10.8289 21.0998 10.4393 21.4112C10.0498 21.7226 9.58238 21.8783 8.95914 21.8783C8.4138 21.8783 7.94635 21.7226 7.63473 21.4891C7.40102 20.944 7.0894 20.4769 6.77778 19.854Z" transform="translate(113.82 2.18005)" fill="#655CAC"/>
<path d="M4.44142 12.0681C4.44142 13.1582 4.28558 13.9367 3.89599 14.4818C3.50639 15.0268 2.96094 15.2603 2.25967 15.2603C1.48047 15.2603 0.935034 15.0268 0.545436 14.4818C0.155837 13.9367 0 13.1582 0 12.0681V3.19221C0 2.10219 0.155837 1.3236 0.545436 0.778589C0.935034 0.233577 1.48047 0 2.25967 0C3.03886 0 3.58431 0.233577 3.89599 0.778589C4.28558 1.3236 4.44142 2.10219 4.44142 3.19221V12.0681Z" transform="translate(133.218 8.56445)" fill="#655CAC"/>
<path d="M4.51852 6.46229C5.06386 5.99513 5.6092 5.6837 6.23244 5.45012C6.85568 5.21655 7.47893 5.13869 8.25799 5.13869C10.2835 5.13869 11.9974 5.91727 13.3997 7.55231C14.802 9.18735 15.5032 11.1338 15.5032 13.5474C15.5032 15.8054 14.802 17.7518 13.3997 19.3869C11.9974 21.0219 10.2835 21.8005 8.33589 21.8005C7.55683 21.8005 6.85568 21.6448 6.23244 21.4112C5.6092 21.1776 4.98595 20.7105 4.59642 20.2433C4.2848 20.7105 3.97318 21.0998 3.58366 21.4112C3.19413 21.6448 2.8046 21.8005 2.33716 21.8005C1.55811 21.8005 0.934864 21.4891 0.545336 20.944C0.155809 20.399 0 19.5426 0 18.3747V3.42579C0 2.25791 0.155809 1.40146 0.545336 0.856448C0.934864 0.311436 1.4802 -3.7126e-08 2.33716 -3.7126e-08C3.19412 -3.7126e-08 3.73947 0.311436 4.12899 0.856448C4.51852 1.40146 4.67433 2.25791 4.67433 3.42579V6.46229H4.51852ZM4.12899 13.4696C4.12899 14.7932 4.44061 15.8054 5.06386 16.5839C5.6871 17.3625 6.46616 17.7518 7.47893 17.7518C8.4917 17.7518 9.27075 17.3625 9.89399 16.5839C10.5172 15.8054 10.8289 14.7932 10.8289 13.4696C10.8289 12.146 10.5172 11.1338 9.89399 10.3552C9.27075 9.57664 8.4917 9.18735 7.47893 9.18735C6.46616 9.18735 5.6871 9.57664 5.06386 10.3552C4.44061 11.1338 4.12899 12.146 4.12899 13.4696Z" transform="translate(139.84 2.18005)" fill="#655CAC"/>
<path d="M4.59642 9.6545C4.67433 10.5109 5.29757 11.2117 5.92081 11.6788C6.54406 12.146 7.32311 12.3796 8.41379 12.3796C9.27075 12.3796 10.2835 12.146 11.3742 11.601C12.4649 11.056 13.0881 10.8224 13.3997 10.8224C13.9451 10.8224 14.4125 10.9781 14.7241 11.3674C15.0358 11.6788 15.2695 12.146 15.2695 12.691C15.2695 13.7032 14.5683 14.6375 13.166 15.4161C11.7637 16.1946 10.1277 16.6618 8.18008 16.6618C5.84292 16.6618 3.89528 15.8832 2.33717 14.326C0.77906 12.7689 4.75497e-06 10.7445 4.75497e-06 8.40876C4.75497e-06 5.99513 0.779055 4.04866 2.25926 2.41363C3.73946 0.856448 5.6871 -2.97008e-07 7.86845 -2.97008e-07C10.0498 -2.97008e-07 11.8416 0.778589 13.3218 2.25791C14.802 3.73723 15.5032 5.60584 15.5032 7.78589C15.5032 8.48662 15.3474 8.95377 15.0358 9.26521C14.7241 9.57664 14.1009 9.6545 13.166 9.6545H4.59642ZM4.44062 6.85158H11.3742C11.2963 5.99513 10.9847 5.06083 10.2835 4.51581C9.66028 3.89294 8.88122 3.65937 8.02426 3.65937C7.1673 3.65937 6.31034 3.9708 5.6871 4.51581C5.06385 4.98297 4.59643 5.91728 4.44062 6.85158Z" transform="translate(155.889 7.31873)" fill="#655CAC"/>
<path d="M2.37749e-06 12.9246V3.50365C2.37749e-06 2.33577 0.155811 1.47932 0.545338 0.934307C0.934866 0.389295 1.48021 0.0778587 2.33717 0.0778587C2.8046 0.0778587 3.27203 0.233576 3.58365 0.467153C3.97318 0.70073 4.2848 1.09002 4.59642 1.55718C5.06385 1.01217 5.60919 0.622871 6.15453 0.389295C6.69987 0.155718 7.24521 2.97008e-07 7.79055 2.97008e-07C8.4138 2.97008e-07 9.03704 0.233577 9.50447 0.70073C9.9719 1.16788 10.2056 1.7129 10.2056 2.33577C10.2056 3.27007 9.34866 4.04866 7.63474 4.67153C7.0115 4.90511 6.54406 5.06083 6.23244 5.21655C5.6092 5.52798 5.21967 5.83942 5.06386 6.15085C4.90805 6.46229 4.75223 7.08516 4.75223 8.01946V12.9246C4.75223 14.0925 4.59642 14.9489 4.20689 15.4939C3.81737 16.0389 3.19412 16.3504 2.41507 16.3504C1.63601 16.3504 1.01278 16.0389 0.623249 15.4939C0.233721 14.9489 2.37749e-06 14.0925 2.37749e-06 12.9246Z" transform="translate(172.794 7.47449)" fill="#655CAC"/>
<path d="M2.37792e-06 2.41363C2.37792e-06 1.7129 0.233757 1.16788 0.701275 0.70073C1.16879 0.233577 1.79215 -3.7126e-08 2.41551 -3.7126e-08C3.11678 -3.7126e-08 3.66223 0.233577 4.12975 0.70073C4.59727 1.16788 4.83102 1.79075 4.83102 2.41363C4.83102 3.11436 4.59727 3.65937 4.12975 4.12652C3.74015 4.59367 3.19471 4.82725 2.49343 4.82725C1.79215 4.82725 1.24671 4.59367 0.701275 4.12652C0.233757 3.65937 2.37792e-06 3.11436 2.37792e-06 2.41363Z" transform="translate(133.063 2.18005)" fill="#655CAC"/>
</svg>
