<?xml version="1.0" encoding="UTF-8"?>
<svg width="140px" height="35px" viewBox="0 0 140 35" version="1.1" xmlns="http://www.w3.org/2000/svg" xmlns:xlink="http://www.w3.org/1999/xlink">
    <!-- Generator: Sketch 51.3 (57544) - http://www.bohemiancoding.com/sketch -->
    <title>r_point_yoko</title>
    <desc>Created with Sketch.</desc>
    <defs></defs>
    <g id="r_point_yoko" stroke="none" stroke-width="1" fill="none" fill-rule="evenodd">
        <polygon id="Shape" fill="#000000" fill-rule="nonzero" points="131.804762 6.47619048 131.804762 28.0190476 126.833333 28.0190476 126.833333 6.47619048 119.652381 6.47619048 119.652381 1.78095238 138.985714 1.78095238 138.985714 6.47619048"></polygon>
        <polygon id="Shape" fill="#000000" fill-rule="nonzero" points="101.147619 1.91904762 110.538095 17.9380952 110.538095 1.91904762 115.509524 1.91904762 115.509524 28.1571429 110.538095 28.1571429 101.147619 11.3095238 101.147619 28.1571429 96.1761905 28.1571429 96.1761905 1.91904762"></polygon>
        <polygon id="Shape" fill="#000000" fill-rule="nonzero" points="89.547619 28.1571429 84.5761905 28.1571429 84.5761905 1.91904762 89.547619 1.91904762"></polygon>
        <path d="M79.7428571,15.0380952 C79.7428571,23.1857143 75.1857143,28.7095238 68.2809524,28.7095238 C61.3761905,28.7095238 56.8190476,23.1857143 56.8190476,15.0380952 C56.8190476,6.89047619 61.3761905,1.36666667 68.2809524,1.36666667 C75.047619,1.36666667 79.7428571,6.89047619 79.7428571,15.0380952 Z M62.2047619,15.0380952 C62.2047619,20.5619048 64.552381,24.0142857 68.2809524,24.0142857 C72.0095238,24.0142857 74.3571429,20.5619048 74.3571429,15.0380952 C74.3571429,9.37619048 72.147619,6.06190476 68.2809524,6.06190476 C64.4142857,6.06190476 62.2047619,9.23809524 62.2047619,15.0380952 Z" id="Shape" fill="#000000" fill-rule="nonzero"></path>
        <path d="M44.9428571,1.91904762 C50.052381,1.91904762 53.9190476,5.78571429 53.9190476,10.7571429 C53.9190476,15.7285714 50.052381,19.5952381 44.9428571,19.5952381 L40.3857143,19.5952381 L40.3857143,28.0190476 L35.4142857,28.0190476 L35.4142857,1.78095238 L44.9428571,1.78095238 L44.9428571,1.91904762 Z M44.6666667,14.9 C46.8761905,14.9 48.6714286,12.9666667 48.6714286,10.6190476 C48.6714286,8.27142857 46.8761905,6.47619048 44.6666667,6.47619048 L40.5238095,6.47619048 L40.5238095,14.9 L44.6666667,14.9 Z" id="Shape" fill="#000000" fill-rule="nonzero"></path>
        <polygon id="Shape" fill="#BF0000" fill-rule="nonzero" points="4.7 34.7 0.1 30.9 32.5 30.9"></polygon>
        <path d="M10,28 L10,19.4 L13.7,19.4 L20.1,28 L26.7,28 L19,17.6 C21.4,15.9 23,13 23,9.8 C23,4.5 18.7,0.3 13.4,0.3 L4.7,0.3 L4.7,28 L10,28 Z M10,5.5 L13.4,5.5 C15.8,5.5 17.7,7.4 17.7,9.8 C17.7,12.2 15.8,14.1 13.4,14.1 L10,14.1 L10,5.5 Z" id="Shape" fill="#BF0000" fill-rule="nonzero"></path>
    </g>
</svg>