<svg width="209" height="32" viewBox="0 0 209 32" fill="none" xmlns="http://www.w3.org/2000/svg">
<path d="M64.9584 0H2.96053e-07L5.19978 5.13869L64.9584 0Z" transform="translate(21.4199 26.8613)" fill="#BF0000"/>
<path d="M11.7965 0.467153V1.24574C10.5548 0.467153 9.54586 7.4252e-08 7.99369 7.4252e-08C3.41478 7.4252e-08 5.92107e-07 4.12652 5.92107e-07 9.26521C5.92107e-07 14.4039 3.49239 18.5304 7.99369 18.5304C9.46825 18.5304 10.5548 18.0633 11.7965 17.2847V18.0633H15.7545V0.467153H11.7965ZM7.99369 14.326C5.74304 14.326 4.11326 12.146 4.11326 9.34307C4.11326 6.54015 5.74304 4.3601 7.99369 4.3601C10.2443 4.3601 11.7965 6.54015 11.7965 9.34307C11.8741 12.146 10.2443 14.326 7.99369 14.326Z" transform="translate(15.6769 5.37227)" fill="#BF0000"/>
<path d="M10.5548 0V10.3552C10.5548 12.3017 9.23543 13.9367 7.29521 13.9367C5.355 13.9367 4.03565 12.3017 4.03565 10.3552V0H0V10.3552C0 14.6375 2.87152 18.0633 7.13999 18.0633C9.08021 18.0633 10.5548 16.9732 10.5548 16.9732V17.5961H14.5904V0H10.5548Z" transform="translate(48.8934 5.83943)" fill="#BF0000"/>
<path d="M4.03565 18.0633V7.70803C4.03565 5.76156 5.355 4.12652 7.29521 4.12652C9.23543 4.12652 10.5548 5.76156 10.5548 7.70803V18.0633H14.5904V7.70803C14.5904 3.42579 11.7189 0 7.45043 0C5.51021 0 4.03565 1.09002 4.03565 1.09002V0.389294H1.18421e-06V18.0633H4.03565Z" transform="translate(92.6646 5.45012)" fill="#BF0000"/>
<path d="M4.19087 22.1119V15.2603H7.13999L12.2622 22.1119H17.4619L11.2532 13.8589C13.1935 12.4574 14.4352 10.1995 14.4352 7.63017C14.4352 3.42579 11.0204 -3.7126e-08 6.82956 -3.7126e-08H0V22.0341H4.19087V22.1119ZM4.19087 4.28224H6.90717C8.76977 4.28224 10.3219 5.83942 10.3219 7.70803C10.3219 9.57664 8.76977 11.1338 6.90717 11.1338H4.19087V4.28224Z" transform="translate(0 1.40146)" fill="#BF0000"/>
<path d="M9.31303 17.9854C8.92499 18.219 8.53695 18.4526 7.99369 18.4526C7.37282 18.4526 6.13108 17.9854 6.13108 16.2725V8.72019H9.54586V4.43796H6.13108V-3.7126e-08H2.09543V4.43796H-2.36843e-06V8.64233H2.09543V16.2725C2.09543 20.2433 5.04456 22.5791 8.0713 22.5791C9.15782 22.5791 10.71 22.1898 11.9517 21.489L9.31303 17.9854Z" transform="translate(64.9584 1.40146)" fill="#BF0000"/>
<path d="M7.60564 14.1703L14.5128 5.83942H8.92499L4.11326 11.9903V0H0V23.5134H4.11326V16.2725L10.0115 23.5134H15.5993L7.60564 14.1703Z" transform="translate(33.7598)" fill="#BF0000"/>
<path d="M7.91608 0C3.25956 0 1.18421e-06 4.04866 1.18421e-06 9.26521C1.18421e-06 14.7153 4.19086 18.5304 8.30412 18.5304C10.3996 18.5304 13.1159 17.8297 15.3665 14.5596L11.8741 12.5353C9.15781 16.5839 4.57891 14.5596 4.03565 10.5109H15.5217C16.5306 4.12652 12.4174 0 7.91608 0ZM11.4085 6.92944H4.19087C5.04456 2.80292 10.6324 2.56934 11.4085 6.92944Z" transform="translate(75.5908 5.45012)" fill="#BF0000"/>
<path d="M6.2863 9.42093C4.19087 10.9781 1.55217 11.9903 0.776086 12.3017L0 9.26521C3.10434 8.25304 4.81174 7.16302 5.51022 6.618L6.2863 9.42093ZM9.93391 11.6788H6.51912V1.55718H9.39065C9.54587 1.16788 9.62347 1.09002 9.93391 3.7126e-08H13.1159C12.9606 0.545012 12.7278 1.01217 12.5726 1.55718H16.453V11.6788H12.883V12.8467H22.5065V15.5718H15.2113C16.7635 16.6618 19.3245 18.0633 22.8169 19.1533L21.1872 22.0341C19.9454 21.489 16.065 19.7762 12.883 16.6618V22.4234H10.0115V16.8954C6.98477 19.6983 3.64761 21.1776 1.62979 22.0341L0.0776134 19.1533C4.4237 17.9075 6.98477 16.2725 7.91608 15.5718H0.388043V12.8467H10.0115V11.6788H9.93391ZM1.94022 0.934307C3.41478 1.63504 4.96695 2.6472 6.20869 3.73723L4.5013 6.15085C3.25956 4.90511 1.94022 4.04866 0.388043 3.27007L1.94022 0.934307ZM9.23542 3.81509V5.52798H13.7367V3.81509H9.23542ZM9.23542 7.47445V9.26521H13.7367V7.47445H9.23542ZM18.0052 6.38443C19.1693 6.92944 21.3424 8.17518 23.0498 9.6545L21.1872 12.3017C20.2559 11.2895 18.9365 10.1995 16.453 8.79805L18.0052 6.38443ZM22.5065 2.72506C21.4976 3.9708 19.8678 5.45012 18.7037 6.38443L16.8411 4.20438C19.1693 2.33577 20.023 1.3236 20.4887 0.778589L22.5065 2.72506Z" transform="translate(113.697 1.71289)" fill="#BF0000"/>
<path d="M9.85629 7.78589C9.9339 7.08516 9.9339 6.77372 9.9339 5.91728V2.80292H0.465654V3.7126e-08H22.6617V2.80292H12.9606V5.83942C12.9606 6.69586 12.9606 6.92944 12.883 7.78589H21.9632V10.5888H13.5815C14.8232 14.5596 18.7037 17.0511 22.9722 18.6083L21.1872 21.6448C16.3754 19.5426 12.9606 16.3504 11.5637 12.7689C9.46826 17.674 5.12217 20.1655 1.785 21.6448L-2.36843e-06 18.6083C4.26847 17.3625 7.83848 15.0268 9.23543 10.5888H1.08653V7.78589H9.85629Z" transform="translate(137.911 2.49149)" fill="#BF0000"/>
<path d="M4.96696 7.31873C3.80283 9.49878 2.87152 10.5109 2.25065 11.1338L-2.36843e-06 8.95377C0.776084 8.09732 2.87152 5.91727 4.26847 0.311436L7.2176 0.778589C6.98478 1.63504 6.75195 2.80292 6.13109 4.43796H10.0115V-3.7126e-08H13.0382V4.43796H21.42V7.31873H13.0382V11.3674H20.8767V14.1703H13.0382V18.6861H22.5065V21.5669H0.388041V18.6861H10.0115V14.1703H2.01783V11.3674H10.0115V7.31873H4.96696Z" transform="translate(162.357 1.79076)" fill="#BF0000"/>
<path d="M17.1515 8.3309H6.05347V6.69586C4.88934 7.39659 3.88043 7.94161 1.47457 8.87591L-4.73685e-06 5.99513C6.98477 3.65937 9.0026 1.24574 10.0891 7.4252e-08H13.2711C16.1426 3.11436 19.3245 4.74939 23.205 5.99513L21.6528 8.95377C19.8678 8.25304 18.7813 7.70803 17.1515 6.69586V8.3309ZM10.3219 20.0876H1.94021V9.73236H10.3219V20.0876ZM7.60564 12.3017H4.65651V17.4404H7.60564V12.3017ZM15.6769 5.76156C13.3487 4.12652 12.495 3.34793 11.6413 2.33577C10.0115 3.9708 8.925 4.82725 7.52804 5.76156H15.6769ZM14.9009 22.3455H12.1069V9.73236H21.0319V17.9854C21.0319 18.6861 21.0319 20.399 19.0141 20.399H16.1426L15.5993 17.4404H17.4619C17.85 17.4404 18.238 17.3625 18.238 16.8175V12.3017H14.8232V22.3455H14.9009Z" transform="translate(185.795 1.86861)" fill="#BF0000"/>
</svg>
