<svg width="171" height="32" viewBox="0 0 171 32" fill="none" xmlns="http://www.w3.org/2000/svg">
<path d="M-2.30499e-06 0H3.85203V13.5735L9.0636 7.35545H13.6709L7.62854 14.4076L14.1996 23.6588H9.66784L3.92756 15.4692H3.85203V23.6588H-2.30499e-06V0Z" transform="translate(110.803)" fill="#BF0000"/>
<path d="M7.17535 14.4076C9.89443 14.4076 10.3476 11.6019 10.3476 8.56872C10.3476 5.53554 9.96996 2.72986 7.17535 2.72986C4.45627 2.72986 4.00309 5.53554 4.00309 8.56872C4.07862 11.6019 4.45627 14.4076 7.17535 14.4076ZM0 8.56872C0 3.18483 2.49249 -1.44633e-07 7.17535 -1.44633e-07C11.8582 -1.44633e-07 14.3507 3.18483 14.3507 8.56872C14.3507 13.9526 11.8582 17.1374 7.17535 17.1374C2.49249 17.0616 0 13.8768 0 8.56872Z" transform="translate(124.625 6.97632)" fill="#BF0000"/>
<path d="M6.7977 21.3839C9.21467 21.3839 9.66785 18.1991 9.66785 15.545C9.66785 12.5877 9.36573 9.40284 6.7977 9.40284C4.5318 9.40284 3.7765 12.7393 3.7765 15.545C3.7765 19.6398 4.38074 21.3839 6.7977 21.3839ZM3.7765 9.32701C4.38074 8.49289 5.58922 6.9763 8.08171 6.9763C12.0093 6.9763 13.6709 10.3128 13.6709 15.545C13.6709 20.0948 12.0848 24.1137 6.7977 24.1137C2.49249 24.1137 2.30499e-06 21.6872 2.30499e-06 16.7583V0H3.7765V9.32701Z" transform="translate(141.09)" fill="#BF0000"/>
<path d="M7.25088 14.4076C9.96996 14.4076 10.4231 11.6019 10.4231 8.56872C10.4231 5.53554 10.0455 2.72986 7.25088 2.72986C4.5318 2.72986 4.07862 5.53554 4.07862 8.56872C4.07862 11.6019 4.45627 14.4076 7.25088 14.4076ZM-4.60999e-06 8.56872C-4.60999e-06 3.18483 2.49249 -1.44633e-07 7.17535 -1.44633e-07C11.8582 -1.44633e-07 14.3507 3.18483 14.3507 8.56872C14.3507 13.9526 11.8582 17.1374 7.17535 17.1374C2.49249 17.0616 -4.60999e-06 13.8768 -4.60999e-06 8.56872Z" transform="translate(156.649 6.97632)" fill="#BF0000"/>
<path d="M63.2186 0H2.88124e-07L5.06051 5.08057L63.2186 0Z" transform="translate(20.8463 26.9193)" fill="#BF0000"/>
<path d="M11.4806 0.454977V1.21327C10.2721 0.454977 9.29019 0 7.77959 0C3.32332 0 5.76248e-07 4.01896 5.76248e-07 9.0237C5.76248e-07 14.0284 3.39885 18.0474 7.77959 18.0474C9.21466 18.0474 10.2721 17.5924 11.4806 16.8341V17.5924H15.3326V0.454977H11.4806ZM7.77959 13.8768C5.58922 13.8768 4.00309 11.7536 4.00309 9.0237C4.00309 6.29384 5.58922 4.17062 7.77959 4.17062C9.96996 4.17062 11.4806 6.29384 11.4806 9.0237C11.5561 11.7536 9.96996 13.8768 7.77959 13.8768Z" transform="translate(15.2571 6.06641)" fill="#BF0000"/>
<path d="M10.1966 2.89266e-07V10.0853C10.1966 11.981 8.91255 13.5735 7.02429 13.5735C5.13604 13.5735 3.85203 11.981 3.85203 10.0853V2.89266e-07H-1.1525e-06V10.0853C-1.1525e-06 14.2559 2.79461 17.5924 6.94877 17.5924C8.83702 17.5924 10.2721 16.5308 10.2721 16.5308V17.1374H14.1996V2.89266e-07H10.1966Z" transform="translate(47.6594 6.52136)" fill="#BF0000"/>
<path d="M3.92756 17.5924V7.50711C3.92756 5.61137 5.21157 4.01896 7.09983 4.01896C8.98808 4.01896 10.2721 5.61137 10.2721 7.50711V17.5924H14.1241V7.50711C14.1241 3.33649 11.3295 0 7.17535 0C5.2871 0 3.85203 1.06161 3.85203 1.06161V0.454977H1.1525e-06V17.6682H3.92756V17.5924Z" transform="translate(90.1829 6.06641)" fill="#BF0000"/>
<path d="M4.07862 21.5355V14.8626H6.94876L11.9337 21.5355H16.9943L10.9519 13.4976C12.8401 12.1327 14.0486 9.93365 14.0486 7.43128C14.0486 3.33649 10.7253 -3.61583e-08 6.64664 -3.61583e-08H0V21.4597H4.07862V21.5355ZM4.07862 4.17062H6.72217C8.53489 4.17062 10.0455 5.6872 10.0455 7.50711C10.0455 9.32701 8.53489 10.8436 6.72217 10.8436H4.07862V4.17062Z" transform="translate(0 2.12329)" fill="#BF0000"/>
<path d="M9.0636 17.4408C8.68595 17.6682 8.3083 17.8957 7.77959 17.8957C7.17535 17.8957 5.96687 17.4408 5.96687 15.7725V8.41706H9.29019V4.32228H5.96687V7.23165e-08H2.03931V4.32228H-2.30499e-06V8.41706H2.03931V15.8483C2.03931 19.7156 4.90945 21.9905 7.85512 21.9905C8.91254 21.9905 10.4231 21.6114 11.6316 20.9289L9.0636 17.4408Z" transform="translate(63.2186 2.1991)" fill="#BF0000"/>
<path d="M7.40194 13.8009L14.1241 5.76303H8.68595L4.00309 11.7536V0H0V22.9005H4.00309V15.8483L9.74337 22.9005H15.1815L7.40194 13.8009Z" transform="translate(32.8556 0.758179)" fill="#BF0000"/>
<path d="M7.70406 0C3.17226 0 1.1525e-06 3.94313 1.1525e-06 9.0237C1.1525e-06 14.3318 4.07862 18.0474 8.08171 18.0474C10.121 18.0474 12.7646 17.3649 14.9549 14.1801L11.5561 12.2085C8.91254 16.1517 4.45627 14.1801 3.92756 10.237H15.106C16.0879 4.01896 12.0848 0 7.70406 0ZM11.1029 6.82464H4.07862C4.90945 2.80569 10.3476 2.5782 11.1029 6.82464Z" transform="translate(73.5662 6.06641)" fill="#BF0000"/>
</svg>
