<svg width="216" height="32" viewBox="0 0 216 32" fill="none" xmlns="http://www.w3.org/2000/svg">
<path d="M2.41037 20.944H-2.37286e-06V-3.7126e-08H2.41037V20.944Z" transform="translate(114.065 2.56937)" fill="#002896"/>
<path d="M2.41037 1.7129C3.42117 0.70073 5.28725 -1.48504e-07 6.99784 -1.48504e-07C10.5745 -1.48504e-07 13.0626 2.72506 13.0626 6.77372V17.2068H10.6523V6.69586C10.6523 3.9708 9.09719 2.25791 6.68683 2.25791C4.43197 2.25791 2.41037 4.3601 2.41037 6.61801V17.2068H-2.37286e-06V0.389294H2.09935L2.41037 1.7129Z" transform="translate(119.119 6.38446)" fill="#002896"/>
<path d="M2.41036 4.43796C2.41036 1.47932 3.88769 1.8563e-08 6.84234 1.8563e-08H8.16415V2.25791H6.76458C5.44276 2.25791 4.82073 2.88078 4.82073 4.20438V5.91728H8.39741V8.17518H4.82073V22.7348H2.41036V8.09732H2.37286e-06V5.91728H2.41036V4.43796Z" transform="translate(133.192 0.856445)" fill="#002896"/>
<path d="M14.9287 8.79805C14.9287 14.0146 11.8963 17.5961 7.46437 17.5961C3.0324 17.5961 0 14.0146 0 8.79805C0 3.58151 3.0324 2.97008e-07 7.46437 2.97008e-07C11.8963 0.0778592 14.9287 3.65937 14.9287 8.79805ZM2.64362 8.79805C2.64362 12.6131 4.74298 15.4161 7.54211 15.4161C10.3413 15.4161 12.4406 12.6131 12.4406 8.87591C12.4406 5.06083 10.419 2.25791 7.54211 2.25791C4.66522 2.25791 2.64362 5.06083 2.64362 8.79805Z" transform="translate(141.901 6.30658)" fill="#002896"/>
<path d="M9.2527 3.9708C8.39741 2.95864 7.15334 2.33577 5.90928 2.33577C4.27645 2.33577 3.11015 3.27007 3.11015 4.67153C3.11015 5.52798 3.42117 6.15085 4.0432 6.61801C4.35421 6.85158 4.35421 6.85158 7.15335 8.01946C10.419 9.42092 11.6631 10.9002 11.6631 13.0803C11.6631 15.8832 9.4082 17.674 5.90928 17.674C3.34341 17.674 1.39957 16.7397 2.37286e-06 14.9489L1.71058 13.3917C3.0324 14.7932 4.27646 15.4161 5.98704 15.4161C7.93089 15.4161 9.17495 14.5596 9.17495 13.0803C9.17495 12.3017 8.70843 11.4453 7.77538 10.7445C7.15335 10.2774 6.45357 9.88808 4.27646 9.03163C1.63283 7.94161 0.544276 6.618 0.544276 4.43796C0.544276 1.7129 2.64363 0 5.83154 0C7.93089 0 9.48596 0.622871 10.9633 2.10219L9.2527 3.9708Z" transform="translate(157.685 6.22873)" fill="#002896"/>
<path d="M14.54 14.1703C13.1404 16.4282 10.73 17.674 7.77538 17.674C3.18791 17.674 0 14.0146 0 8.79805C0 3.65937 3.0324 2.97008e-07 7.38661 2.97008e-07C11.4298 2.97008e-07 14.6177 3.58151 14.6177 8.09732C14.6177 8.56448 14.6177 8.87591 14.54 9.42093H2.48812C2.64363 11.3674 3.11015 12.691 4.1987 13.781C5.13175 14.7932 6.37581 15.4161 7.69762 15.4161C9.79697 15.4161 11.5853 14.4039 12.4406 12.6131L14.54 14.1703ZM12.0518 7.31873C11.8186 4.20438 10.0302 2.18005 7.54211 2.18005C5.90929 2.18005 4.43197 3.0365 3.49892 4.51582C3.0324 5.37226 2.79913 6.07299 2.64362 7.31873H12.0518Z" transform="translate(170.281 6.30658)" fill="#002896"/>
<path d="M14.54 14.1703C13.1404 16.4282 10.73 17.674 7.77538 17.674C3.1879 17.674 -2.37286e-06 14.0146 -2.37286e-06 8.79805C-2.37286e-06 3.65937 3.0324 2.97008e-07 7.38661 2.97008e-07C11.4298 2.97008e-07 14.6177 3.58151 14.6177 8.09732C14.6177 8.56448 14.6177 8.87591 14.54 9.42093H2.48812C2.64362 11.3674 3.11016 12.691 4.19871 13.781C5.13175 14.7932 6.37582 15.4161 7.69763 15.4161C9.79698 15.4161 11.5853 14.4039 12.4406 12.6131L14.54 14.1703ZM11.9741 7.31873C11.7408 4.20438 9.95249 2.18005 7.46437 2.18005C5.83154 2.18005 4.35422 3.0365 3.42117 4.51582C2.95465 5.37226 2.72138 6.07299 2.56587 7.31873H11.9741Z" transform="translate(186.376 6.30658)" fill="#002896"/>
<path d="M9.71922 22.3455L2.41037 13.5474V22.3455H0V0H2.41037V12.7689L9.01944 5.60584H12.0518L4.97624 13.3139L13.0626 22.4234H9.71922V22.3455Z" transform="translate(202.937 1.16791)" fill="#002896"/>
<path d="M65.0799 0H2.96607e-07L5.2095 5.13869L65.0799 0Z" transform="translate(21.4602 26.8613)" fill="#002896"/>
<path d="M11.8186 0.467153V1.24574C10.5745 0.467153 9.56371 7.4252e-08 8.00864 7.4252e-08C3.42117 7.4252e-08 5.93214e-07 4.12652 5.93214e-07 9.26521C5.93214e-07 14.4039 3.49892 18.5304 8.00864 18.5304C9.48596 18.5304 10.5745 18.0633 11.8186 17.2847V18.0633H15.784V0.467153H11.8186ZM8.00864 14.326C5.75378 14.326 4.12095 12.146 4.12095 9.34307C4.12095 6.54015 5.75378 4.3601 8.00864 4.3601C10.2635 4.3601 11.8186 6.54015 11.8186 9.34307C11.8963 12.146 10.2635 14.326 8.00864 14.326Z" transform="translate(15.7063 5.37225)" fill="#002896"/>
<path d="M10.5745 0V10.3552C10.5745 12.3017 9.2527 13.9367 7.30886 13.9367C5.36501 13.9367 4.04319 12.3017 4.04319 10.3552V0H0V10.3552C0 14.6375 2.87689 18.0633 7.15335 18.0633C9.09719 18.0633 10.5745 16.9732 10.5745 16.9732V17.5961H14.6177V0H10.5745Z" transform="translate(48.9849 5.83942)" fill="#002896"/>
<path d="M4.0432 18.0633V7.70803C4.0432 5.76156 5.36501 4.12652 7.30886 4.12652C9.2527 4.12652 10.5745 5.76156 10.5745 7.70803V18.0633H14.6177V7.70803C14.6177 3.42579 11.7408 0 7.46436 0C5.52052 0 4.0432 1.09002 4.0432 1.09002V0.389294H1.18643e-06V18.0633H4.0432Z" transform="translate(92.8381 5.45013)" fill="#002896"/>
<path d="M4.1987 22.1119V15.2603H7.15335L12.2851 22.1119H17.4946L11.2743 13.8589C13.2181 12.4574 14.4622 10.1995 14.4622 7.63017C14.4622 3.42579 11.041 -3.7126e-08 6.84233 -3.7126e-08H0V22.0341H4.1987V22.1119ZM4.1987 4.28224H6.92009C8.78618 4.28224 10.3413 5.83942 10.3413 7.70803C10.3413 9.57664 8.78618 11.1338 6.92009 11.1338H4.1987V4.28224Z" transform="translate(0 1.40143)" fill="#002896"/>
<path d="M9.33045 17.9854C8.94168 18.219 8.55292 18.4526 8.00864 18.4526C7.38661 18.4526 6.14255 17.9854 6.14255 16.2725V8.72019H9.56371V4.43796H6.14255V-3.7126e-08H2.09935V4.43796H-2.37286e-06V8.64233H2.09935V16.2725C2.09935 20.2433 5.05399 22.5791 8.08639 22.5791C9.17494 22.5791 10.73 22.1898 11.9741 21.489L9.33045 17.9854Z" transform="translate(65.0798 1.40143)" fill="#002896"/>
<path d="M7.61987 14.1703L14.54 5.83942H8.94168L4.12095 11.9903V0H0V23.5134H4.12095V16.2725L10.0302 23.5134H15.6285L7.61987 14.1703Z" transform="translate(33.8228)" fill="#002896"/>
<path d="M7.93088 0C3.26566 0 1.18643e-06 4.04866 1.18643e-06 9.26521C1.18643e-06 14.7153 4.1987 18.5304 8.31965 18.5304C10.419 18.5304 13.1404 17.8297 15.3952 14.5596L11.8963 12.5353C9.17494 16.5839 4.58747 14.5596 4.0432 10.5109H15.5508C16.5616 4.12652 12.4406 0 7.93088 0ZM11.4298 6.92944H4.19871C5.054 2.80292 10.6523 2.56934 11.4298 6.92944Z" transform="translate(75.7322 5.45013)" fill="#002896"/>
</svg>
