<svg width="182" height="32" viewBox="0 0 182 32" fill="none" xmlns="http://www.w3.org/2000/svg">
<path d="M2.41317 1.86861C3.34731 0.622871 4.74851 -1.48504e-07 6.38324 -1.48504e-07C8.17366 -1.48504e-07 9.57486 1.09002 10.2755 2.88078C11.4431 0.934306 13.0779 -1.48504e-07 15.1018 -1.48504e-07C18.2156 -1.48504e-07 20.1617 2.56934 20.1617 6.54015V17.2068H17.7485V6.46229C17.7485 3.81509 16.5809 2.18005 14.7126 2.18005C12.7665 2.18005 11.2874 4.04866 11.2874 6.46229V17.129H8.87426V6.46229C8.87426 3.89294 7.7066 2.18005 5.83833 2.18005C4.04791 2.18005 2.41317 4.20438 2.41317 6.46229V17.129H4.75124e-06V0.389294H2.02395L2.41317 1.86861Z" transform="translate(114.12 6.38452)" fill="#BF0000"/>
<path d="M10.5868 15.1046C9.41917 16.4282 7.78444 17.2068 5.99402 17.2068C2.41318 17.2068 -4.75124e-06 14.4818 -4.75124e-06 10.4331V-1.48504e-07H2.41318V10.4331C2.41318 13.1582 3.97007 14.871 6.38324 14.871C8.64073 14.871 10.6647 12.7689 10.6647 10.511V-1.48504e-07H13.0779V16.8175H10.9761L10.5868 15.1046Z" transform="translate(136.539 6.77368)" fill="#BF0000"/>
<path d="M9.26348 3.9708C8.40719 2.95864 7.16168 2.33577 5.91617 2.33577C4.28144 2.33577 3.11378 3.27007 3.11378 4.67153C3.11378 5.52798 3.42515 6.15085 4.04791 6.61801C4.35929 6.85158 4.35929 6.85158 7.16168 8.01946C10.4311 9.42092 11.6767 10.9002 11.6767 13.0803C11.6767 15.8832 9.41917 17.674 5.91617 17.674C3.3473 17.674 1.4012 16.7397 2.37562e-06 14.9489L1.71258 13.3917C3.03593 14.7932 4.28144 15.4161 5.99402 15.4161C7.94013 15.4161 9.18564 14.5596 9.18564 13.0803C9.18564 12.3017 8.71857 11.4453 7.78444 10.7445C7.16169 10.2774 6.46109 9.88808 4.28144 9.03163C1.63473 7.94161 0.544911 6.618 0.544911 4.43796C0.544911 1.7129 2.64671 0 5.83833 0C7.94013 0 9.49701 0.622871 10.9761 2.10219L9.26348 3.9708Z" transform="translate(151.252 6.22864)" fill="#BF0000"/>
<path d="M-4.75124e-06 2.80292V7.4252e-08H2.8024V2.80292H-4.75124e-06ZM0.155694 21.6448V4.90511H2.56886V21.7226H0.155694V21.6448Z" transform="translate(164.563 1.86853)" fill="#BF0000"/>
<path d="M11.1317 4.28224C10.3533 2.95864 8.9521 2.18005 7.39522 2.18005C4.59282 2.18005 2.49102 4.98297 2.49102 8.72019C2.49102 12.5353 4.59282 15.3382 7.39522 15.3382C8.9521 15.3382 10.3533 14.4818 11.2096 13.0803L13.0779 14.7932C11.8323 16.5839 9.73055 17.5961 7.39522 17.5961C2.95809 17.5961 0 14.0146 0 8.79805C0 3.58151 3.03593 1.48504e-07 7.39522 1.48504e-07C9.80839 1.48504e-07 11.8323 1.01217 13.0779 2.80292L11.1317 4.28224Z" transform="translate(168.922 6.46228)" fill="#BF0000"/>
<path d="M65.1557 0H2.96953e-07L5.21557 5.13869L65.1557 0Z" transform="translate(21.4854 26.8613)" fill="#BF0000"/>
<path d="M11.8323 0.467153V1.24574C10.5868 0.467153 9.57486 7.4252e-08 8.01797 7.4252e-08C3.42515 7.4252e-08 5.93905e-07 4.12652 5.93905e-07 9.26521C5.93905e-07 14.4039 3.503 18.5304 8.01797 18.5304C9.49701 18.5304 10.5868 18.0633 11.8323 17.2847V18.0633H15.8024V0.467153H11.8323ZM8.01797 14.326C5.76048 14.326 4.12575 12.146 4.12575 9.34307C4.12575 6.54015 5.76048 4.3601 8.01797 4.3601C10.2755 4.3601 11.8323 6.54015 11.8323 9.34307C11.9102 12.146 10.2755 14.326 8.01797 14.326Z" transform="translate(15.7246 5.37231)" fill="#BF0000"/>
<path d="M10.5868 0V10.3552C10.5868 12.3017 9.26348 13.9367 7.31737 13.9367C5.37126 13.9367 4.04791 12.3017 4.04791 10.3552V0H0V10.3552C0 14.6375 2.88024 18.0633 7.16168 18.0633C9.10779 18.0633 10.5868 16.9732 10.5868 16.9732V17.5961H14.6347V0H10.5868Z" transform="translate(49.0425 5.83948)" fill="#BF0000"/>
<path d="M4.04791 18.0633V7.70803C4.04791 5.76156 5.37126 4.12652 7.31737 4.12652C9.26348 4.12652 10.5868 5.76156 10.5868 7.70803V18.0633H14.6347V7.70803C14.6347 3.42579 11.7545 0 7.47306 0C5.52695 0 4.04791 1.09002 4.04791 1.09002V0.389294H1.18781e-06V18.0633H4.04791Z" transform="translate(92.9458 5.45007)" fill="#BF0000"/>
<path d="M4.2036 22.1119V15.2603H7.16168L12.2994 22.1119H17.515L11.2874 13.8589C13.2335 12.4574 14.4791 10.1995 14.4791 7.63017C14.4791 3.42579 11.0539 -3.7126e-08 6.85031 -3.7126e-08H0V22.0341H4.2036V22.1119ZM4.2036 4.28224H6.92815C8.79641 4.28224 10.3533 5.83942 10.3533 7.70803C10.3533 9.57664 8.79641 11.1338 6.92815 11.1338H4.2036V4.28224Z" transform="translate(0 1.40149)" fill="#BF0000"/>
<path d="M9.34132 17.9854C8.9521 18.219 8.56288 18.4526 8.01797 18.4526C7.39522 18.4526 6.14971 17.9854 6.14971 16.2725V8.72019H9.57486V4.43796H6.14971V-3.7126e-08H2.1018V4.43796H-2.37562e-06V8.64234H2.1018V16.2725C2.1018 20.2433 5.05988 22.5791 8.09582 22.5791C9.18564 22.5791 10.7425 22.1898 11.988 21.4891L9.34132 17.9854Z" transform="translate(65.1562 1.40149)" fill="#BF0000"/>
<path d="M7.62875 14.1703L14.5569 5.83942H8.9521L4.12575 11.9903V0H0V23.5134H4.12575V16.2725L10.0419 23.5134H15.6467L7.62875 14.1703Z" transform="translate(33.8623)" fill="#BF0000"/>
<path d="M7.94013 0C3.26946 0 1.18781e-06 4.04866 1.18781e-06 9.26521C1.18781e-06 14.7153 4.2036 18.5304 8.32935 18.5304C10.4311 18.5304 13.1557 17.8297 15.4132 14.5596L11.9102 12.5353C9.18563 16.5839 4.59282 14.5596 4.04791 10.5109H15.5689C16.5809 4.12652 12.4551 0 7.94013 0ZM11.4431 6.92944H4.2036C5.05989 2.80292 10.6647 2.56934 11.4431 6.92944Z" transform="translate(75.8198 5.45007)" fill="#BF0000"/>
</svg>
