<svg width="176" height="32" viewBox="0 0 176 32" fill="none" xmlns="http://www.w3.org/2000/svg">
<path d="M0.0777704 1.7129C0.0777704 1.24574 0.0777729 7.4252e-08 1.86655 7.4252e-08C3.7331 7.4252e-08 3.73309 1.16788 3.73309 1.7129V15.4939C3.73309 15.7275 3.73309 16.1946 4.35528 16.1946C4.35528 16.1946 9.41051 15.3382 12.9881 11.6788C14.0769 10.511 14.2324 10.2774 15.5546 7.94161C15.7101 7.70803 15.7879 7.47445 16.2545 7.47445C16.7989 7.47445 17.11 7.94161 17.11 8.25304C17.11 8.48662 16.0212 12.0681 12.9103 15.1046C8.8661 19.0754 3.18869 20.399 2.09987 20.399C0.777731 20.399 4.74688e-06 19.4647 4.74688e-06 18.3747V1.7129H0.0777704Z" transform="translate(114.015 3.0365)" fill="#F59600"/>
<path d="M4.66637 9.81022C3.49978 9.03163 2.25541 8.17518 1.01104 7.70803C0.311087 7.47445 4.74688e-06 7.31873 4.74688e-06 6.69586C4.74688e-06 6.46229 0.0777752 5.91727 0.933276 5.91727C0.933276 5.91727 3.11091 6.15085 5.133 6.77372C7.1551 7.47445 8.16615 7.70803 8.16615 8.95377C8.16615 9.96594 7.31064 10.7445 6.45514 10.7445C5.9885 10.8224 5.83297 10.6667 4.66637 9.81022ZM3.422 16.7397C9.17719 16.0389 14.3102 13.236 18.1988 7.16302C19.0543 5.83942 19.1321 5.6837 19.5988 5.6837C20.0654 5.6837 20.4542 6.07299 20.4542 6.46229C20.4542 6.69586 18.3544 11.9903 14.0769 15.5718C9.33274 19.6204 3.34423 20.5547 3.18868 20.5547C1.55545 20.5547 1.39991 18.764 1.39991 18.6083C1.32213 17.0511 2.25541 16.8954 3.422 16.7397ZM7.07732 4.20438C5.4441 2.56934 4.66637 2.10219 3.88865 1.7129C3.26646 1.40146 3.26646 1.09002 3.26646 0.856448C3.26646 0.467153 3.57755 -7.4252e-08 4.12195 -7.4252e-08C4.66636 -7.4252e-08 7.77728 1.24574 8.24392 1.47932C10.3438 2.41363 10.6549 2.95864 10.6549 3.58151C10.6549 4.59367 9.79938 5.45012 8.94388 5.45012C8.3217 5.52798 8.24392 5.37226 7.07732 4.20438Z" transform="translate(134.236 2.80286)" fill="#F59600"/>
<path d="M15.8657 17.9075C15.6323 17.9075 14.3102 18.1411 14.0769 18.219C12.2103 18.4526 11.1993 18.5304 9.09943 18.5304C4.51083 18.5304 3.49977 18.5304 3.49977 16.1946V10.0438C4.97746 9.88808 8.55501 9.42092 11.8992 8.48662C15.2435 7.55231 15.8657 7.39659 15.8657 6.38443C15.8657 5.60584 15.1657 4.67153 14.1547 4.67153C13.688 4.67153 13.4547 4.82725 12.4436 5.37226C9.56605 6.92944 6.84401 7.78589 3.57755 8.3309V1.7129C3.57755 1.16788 3.57755 -7.4252e-08 1.78877 -7.4252e-08C-2.41052e-06 -7.4252e-08 -4.74688e-06 1.24574 -4.74688e-06 1.7129V15.8054C-4.74688e-06 20.0876 1.711 20.0876 10.8104 20.0876C14.0769 20.0876 14.8546 19.9319 15.4768 19.9319C16.099 19.854 16.9545 19.7762 16.9545 18.9197C16.7212 18.219 16.2545 17.9075 15.8657 17.9075Z" transform="translate(157.801 3.19226)" fill="#F59600"/>
<path d="M2.48873 0C1.08882 0 -4.74688e-06 1.09002 -4.74688e-06 2.49148C-4.74688e-06 3.81508 1.08882 4.98297 2.48873 4.98297C3.88865 4.98297 4.97746 3.81508 4.97746 2.49148C4.97746 1.16788 3.88865 0 2.48873 0ZM2.48873 3.73723C1.78878 3.73723 1.24437 3.19221 1.24437 2.56934C1.24437 1.86861 1.78878 1.3236 2.48873 1.3236C3.18869 1.3236 3.65533 1.86861 3.65533 2.56934C3.65533 3.11436 3.18869 3.73723 2.48873 3.73723Z" transform="translate(171.023 1.94641)" fill="#F59600"/>
<path d="M65.0959 0H2.9668e-07L5.21078 5.13869L65.0959 0Z" transform="translate(21.4653 26.8613)" fill="#F59600"/>
<path d="M11.8215 0.467153V1.24574C10.5771 0.467153 9.56606 7.4252e-08 8.0106 7.4252e-08C3.422 7.4252e-08 5.9336e-07 4.12652 5.9336e-07 9.26521C5.9336e-07 14.4039 3.49978 18.5304 8.0106 18.5304C9.48828 18.5304 10.5771 18.0633 11.8215 17.2847V18.0633H15.7879V0.467153H11.8215ZM8.0106 14.326C5.75519 14.326 4.12196 12.146 4.12196 9.34307C4.12196 6.54015 5.75519 4.3601 8.0106 4.3601C10.266 4.3601 11.8215 6.54015 11.8215 9.34307C11.8992 12.146 10.266 14.326 8.0106 14.326Z" transform="translate(15.7102 5.37231)" fill="#F59600"/>
<path d="M10.5771 0V10.3552C10.5771 12.3017 9.25497 13.9367 7.31065 13.9367C5.36633 13.9367 4.04418 12.3017 4.04418 10.3552V0H0V10.3552C0 14.6375 2.87759 18.0633 7.1551 18.0633C9.09942 18.0633 10.5771 16.9732 10.5771 16.9732V17.5961H14.6213V0H10.5771Z" transform="translate(48.9968 5.83948)" fill="#F59600"/>
<path d="M4.04419 18.0633V7.70803C4.04419 5.76156 5.36633 4.12652 7.31065 4.12652C9.25497 4.12652 10.5771 5.76156 10.5771 7.70803V18.0633H14.6213V7.70803C14.6213 3.42579 11.7437 0 7.46619 0C5.52187 0 4.04419 1.09002 4.04419 1.09002V0.389294H1.18672e-06V18.0633H4.04419Z" transform="translate(92.8608 5.45007)" fill="#F59600"/>
<path d="M4.19973 22.1119V15.2603H7.1551L12.2881 22.1119H17.4989L11.2771 13.8589C13.2214 12.4574 14.4657 10.1995 14.4657 7.63017C14.4657 3.42579 11.0437 -3.7126e-08 6.84401 -3.7126e-08H0V22.0341H4.19973V22.1119ZM4.19973 4.28224H6.92178C8.78833 4.28224 10.3438 5.83942 10.3438 7.70803C10.3438 9.57664 8.78833 11.1338 6.92178 11.1338H4.19973V4.28224Z" transform="translate(0 1.40149)" fill="#F59600"/>
<path d="M9.33274 17.9854C8.94387 18.219 8.55501 18.4526 8.0106 18.4526C7.38842 18.4526 6.14405 17.9854 6.14405 16.2725V8.72019H9.56606V4.43796H6.14405V-3.7126e-08H2.09987V4.43796H-2.37344e-06V8.64233H2.09987V16.2725C2.09987 20.2433 5.05523 22.5791 8.08837 22.5791C9.17719 22.5791 10.7326 22.1898 11.977 21.489L9.33274 17.9854Z" transform="translate(65.0959 1.40149)" fill="#F59600"/>
<path d="M7.62174 14.1703L14.5435 5.83942H8.94388L4.12196 11.9903V0H0V23.5134H4.12196V16.2725L10.0327 23.5134H15.6323L7.62174 14.1703Z" transform="translate(33.8313)" fill="#F59600"/>
<path d="M7.93283 0C3.26646 0 1.18672e-06 4.04866 1.18672e-06 9.26521C1.18672e-06 14.7153 4.19973 18.5304 8.32169 18.5304C10.4216 18.5304 13.1436 17.8297 15.399 14.5596L11.8992 12.5353C9.17719 16.5839 4.58859 14.5596 4.04419 10.5109H15.5546C16.5656 4.12652 12.4437 0 7.93283 0ZM11.4326 6.92944H4.19973C5.05524 2.80292 10.6549 2.56934 11.4326 6.92944Z" transform="translate(75.7507 5.45007)" fill="#F59600"/>
</svg>
