<svg width="172" height="32" viewBox="0 0 172 32" fill="none" xmlns="http://www.w3.org/2000/svg">
<path d="M6.00273 -3.7126e-08L10.1345 13.7032L14.1883 -3.7126e-08H20.269L12.5512 20.944H7.79575L2.37907e-06 -3.7126e-08H6.00273V-3.7126e-08Z" transform="translate(114.052 2.56934)" fill="#0C9BFF"/>
<path d="M-2.37907e-06 20.944V-3.7126e-08H5.76886V20.944H-2.37907e-06Z" transform="translate(136.192 2.56934)" fill="#0C9BFF"/>
<path d="M2.37907e-06 20.944V-3.7126e-08H5.76885V7.94161L12.1614 -3.7126e-08H18.6318L10.992 9.42092L19.1775 21.0219H12.5512L7.328 13.3139L5.76885 14.9489V21.0219H2.37907e-06V20.944Z" transform="translate(145.235 2.56934)" fill="#0C9BFF"/>
<path d="M0 20.944V-3.7126e-08H5.76885V20.944H0Z" transform="translate(165.66 2.56934)" fill="#0C9BFF"/>
<path d="M65.2504 0H2.97384e-07L5.22315 5.13869L65.2504 0Z" transform="translate(21.5161 26.8613)" fill="#0C9BFF"/>
<path d="M11.8495 0.467153V1.24574C10.6022 0.467153 9.58877 7.4252e-08 8.02962 7.4252e-08C3.43013 7.4252e-08 5.94769e-07 4.12652 5.94769e-07 9.26521C5.94769e-07 14.4039 3.50809 18.5304 8.02962 18.5304C9.51082 18.5304 10.6022 18.0633 11.8495 17.2847V18.0633H15.8254V0.467153H11.8495ZM8.02962 14.326C5.76886 14.326 4.13175 12.146 4.13175 9.34307C4.13175 6.54015 5.76886 4.3601 8.02962 4.3601C10.2904 4.3601 11.8495 6.54015 11.8495 9.34307C11.9275 12.146 10.2904 14.326 8.02962 14.326Z" transform="translate(15.7473 5.37231)" fill="#0C9BFF"/>
<path d="M10.5243 0V10.3552C10.5243 12.3017 9.19899 13.9367 7.25005 13.9367C5.30111 13.9367 3.97583 12.3017 3.97583 10.3552V0H-1.18954e-06V10.3552C-1.18954e-06 14.6375 2.88443 18.0633 7.17209 18.0633C9.12103 18.0633 10.6022 16.9732 10.6022 16.9732V17.5961H14.5781V0H10.5243Z" transform="translate(49.1912 5.83948)" fill="#0C9BFF"/>
<path d="M4.13175 18.0633V7.70803C4.13175 5.76156 5.45703 4.12652 7.40597 4.12652C9.3549 4.12652 10.6802 5.76156 10.6802 7.70803V18.0633H14.656V7.70803C14.656 3.42579 11.7716 0 7.48392 0C5.53498 0 4.05379 1.09002 4.05379 1.09002V0.389294H2.37907e-06V18.0633H4.13175Z" transform="translate(93.0034 5.45007)" fill="#0C9BFF"/>
<path d="M4.20971 22.1119V15.2603H7.17209L12.3173 22.1119H17.5404L11.3038 13.8589C13.2528 12.4574 14.5001 10.1995 14.5001 7.63017C14.5001 3.42579 11.07 -3.7126e-08 6.86026 -3.7126e-08H0V22.0341H4.20971V22.1119ZM4.20971 4.28224H6.93822C8.8092 4.28224 10.3683 5.83942 10.3683 7.70803C10.3683 9.57664 8.8092 11.1338 6.93822 11.1338H4.20971V4.28224Z" transform="translate(0 1.40149)" fill="#0C9BFF"/>
<path d="M9.3549 17.9854C8.96511 18.219 8.57533 18.4526 8.02962 18.4526C7.40596 18.4526 6.15864 17.9854 6.15864 16.2725V8.72019H9.58877V4.43796H6.15864V-3.7126e-08H2.10485V4.43796H-2.37907e-06V8.64234H2.10485V16.2725C2.10485 20.2433 5.06724 22.5791 8.10758 22.5791C9.19899 22.5791 10.7581 22.1898 12.0055 21.4891L9.3549 17.9854Z" transform="translate(65.2502 1.40149)" fill="#0C9BFF"/>
<path d="M7.63984 14.1703L14.5781 5.83942H8.96511L4.13175 11.9903V0H0V23.5134H4.13175V16.2725L10.0565 23.5134H15.6695L7.63984 14.1703Z" transform="translate(33.9116)" fill="#0C9BFF"/>
<path d="M7.95167 0C3.27421 0 1.18954e-06 4.04866 1.18954e-06 9.26521C1.18954e-06 14.7153 4.2097 18.5304 8.34145 18.5304C10.4463 18.5304 13.1748 17.8297 15.4356 14.5596L11.9275 12.5353C9.19898 16.5839 4.59949 14.5596 4.05379 10.5109H15.5915C16.605 4.12652 12.4732 0 7.95167 0ZM11.4598 6.92944H4.20971C5.06724 2.80292 10.6802 2.56934 11.4598 6.92944Z" transform="translate(75.9304 5.45007)" fill="#0C9BFF"/>
</svg>
