<svg width="195" height="32" viewBox="0 0 195 32" fill="none" xmlns="http://www.w3.org/2000/svg">
<path d="M14.623 3.9708L17.6566 7.47445C16.8787 11.8346 14.8564 18.9197 5.83366 23.0462L3.65577 20.3212C12.5229 16.6618 13.7674 9.73236 14.2341 7.16302H-4.74745e-06V3.9708H14.623ZM16.1787 0.70073C17.3454 2.02433 18.1232 3.34793 19.0566 5.13869L17.4232 6.30657C16.5676 4.43796 15.8676 3.34793 14.7008 1.79075L16.1787 0.70073ZM19.6789 -1.8563e-08C20.7678 1.40146 21.4679 2.56934 22.4013 4.51582L20.6901 5.60584C19.8344 3.65937 19.29 2.72506 18.0455 1.01217L19.6789 -1.8563e-08Z" transform="translate(113.872 1.09001)" fill="#BF0000"/>
<path d="M2.48903 1.09002C3.26685 2.25791 4.27802 3.81509 5.36697 6.30657L2.87794 7.63017C2.10012 5.83942 1.3223 4.43796 4.74745e-06 2.49148L2.48903 1.09002ZM16.8787 1.3236C15.9453 8.3309 13.0674 14.326 4.8225 17.0511L2.64459 14.7153C10.4228 12.3796 13.1452 7.55231 13.923 0.778589L16.8787 1.3236ZM7.54487 -2.97008e-07C8.63382 1.7129 9.48943 3.27007 10.2672 5.2944L7.77822 6.54015C6.92262 4.43796 6.30036 3.19221 5.05585 1.24574L7.54487 -2.97008e-07Z" transform="translate(135.03 7.31874)" fill="#BF0000"/>
<path d="M3.11129 17.5182C9.10052 15.4939 14.4675 10.9781 15.9453 3.11436H8.40047C7.54486 4.59367 5.98923 6.92944 2.48903 9.81022L4.74745e-06 7.63017C1.86678 6.07299 4.3558 3.81509 6.30035 1.48504e-07H19.9122C18.4344 12.9246 11.2784 17.9075 5.28918 20.2433L3.11129 17.5182Z" transform="translate(153.308 4.1265)" fill="#BF0000"/>
<path d="M0 16.7397C4.90028 14.5596 10.5784 10.9002 13.6119 3.19221H1.71121V-1.48504e-07H18.2788C17.5788 2.72506 16.412 5.91728 14.0008 9.49878C17.8121 12.6131 20.3789 15.9611 21.1567 16.9732L18.5122 19.1533C17.4232 17.7518 15.4009 15.0268 11.9784 12.0681C10.1895 14.0146 7.23374 17.129 1.94455 19.4647L0 16.7397Z" transform="translate(173.842 4.43796)" fill="#BF0000"/>
<path d="M65.1037 0H2.96715e-07L5.2114 5.13869L65.1037 0Z" transform="translate(21.4685 26.8613)" fill="#BF0000"/>
<path d="M11.8229 0.467153V1.24574C10.5784 0.467153 9.5672 7.4252e-08 8.01156 7.4252e-08C3.42241 7.4252e-08 5.93431e-07 4.12652 5.93431e-07 9.26521C5.93431e-07 14.4039 3.5002 18.5304 8.01156 18.5304C9.48942 18.5304 10.5784 18.0633 11.8229 17.2847V18.0633H15.7898V0.467153H11.8229ZM8.01156 14.326C5.75588 14.326 4.12245 12.146 4.12245 9.34307C4.12245 6.54015 5.75588 4.3601 8.01156 4.3601C10.2672 4.3601 11.8229 6.54015 11.8229 9.34307C11.9007 12.146 10.2672 14.326 8.01156 14.326Z" transform="translate(15.7129 5.37224)" fill="#BF0000"/>
<path d="M10.5784 0V10.3552C10.5784 12.3017 9.25608 13.9367 7.31152 13.9367C5.36697 13.9367 4.04467 12.3017 4.04467 10.3552V0H0V10.3552C0 14.6375 2.87794 18.0633 7.15596 18.0633C9.10051 18.0633 10.5784 16.9732 10.5784 16.9732V17.5961H14.623V0H10.5784Z" transform="translate(49.0032 5.83943)" fill="#BF0000"/>
<path d="M4.04467 18.0633V7.70803C4.04467 5.76156 5.36697 4.12652 7.31152 4.12652C9.25608 4.12652 10.5784 5.76156 10.5784 7.70803V18.0633H14.623V7.70803C14.623 3.42579 11.7451 0 7.46709 0C5.52253 0 4.04467 1.09002 4.04467 1.09002V0.389294H1.18686e-06V18.0633H4.04467Z" transform="translate(92.8721 5.45012)" fill="#BF0000"/>
<path d="M4.20024 22.1119V15.2603H7.15596L12.2896 22.1119H17.501L11.2784 13.8589C13.223 12.4574 14.4675 10.1995 14.4675 7.63017C14.4675 3.42579 11.0451 -3.7126e-08 6.84483 -3.7126e-08H0V22.0341H4.20024V22.1119ZM4.20024 4.28224H6.92261C8.78938 4.28224 10.345 5.83942 10.345 7.70803C10.345 9.57664 8.78938 11.1338 6.92261 11.1338H4.20024V4.28224Z" transform="translate(0 1.40146)" fill="#BF0000"/>
<path d="M9.33386 17.9854C8.94495 18.219 8.55604 18.4526 8.01156 18.4526C7.38931 18.4526 6.14479 17.9854 6.14479 16.2725V8.72019H9.56721V4.43796H6.14479V-3.7126e-08H2.10012V4.43796H-2.37372e-06V8.64233H2.10012V16.2725C2.10012 20.2433 5.05584 22.5791 8.08934 22.5791C9.17829 22.5791 10.7339 22.1898 11.9785 21.489L9.33386 17.9854Z" transform="translate(65.1045 1.40144)" fill="#BF0000"/>
<path d="M7.62265 14.1703L14.5453 5.83942H8.94495L4.12245 11.9903V0H0V23.5134H4.12245V16.2725L10.0339 23.5134H15.6342L7.62265 14.1703Z" transform="translate(33.8364)" fill="#BF0000"/>
<path d="M7.93378 0C3.26685 0 1.18686e-06 4.04866 1.18686e-06 9.26521C1.18686e-06 14.7153 4.20023 18.5304 8.32269 18.5304C10.4228 18.5304 13.1452 17.8297 15.4009 14.5596L11.9007 12.5353C9.17829 16.5839 4.58915 14.5596 4.04467 10.5109H15.5564C16.5676 4.12652 12.4451 0 7.93378 0ZM11.434 6.92944H4.20024C5.05584 2.80292 10.6562 2.56934 11.434 6.92944Z" transform="translate(75.761 5.45012)" fill="#BF0000"/>
</svg>
