<?xml version="1.0" encoding="utf-8"?>
<!-- Generator: Adobe Illustrator 23.0.3, SVG Export Plug-In . SVG Version: 6.00 Build 0)  -->
<svg version="1.1" id="レイヤー_1" xmlns="http://www.w3.org/2000/svg" xmlns:xlink="http://www.w3.org/1999/xlink" x="0px"
	 y="0px" viewBox="0 0 1000 127"  width="210" height="32" style="enable-background:new 0 0 1000 127;" xml:space="preserve">
<style type="text/css">
	.st0{fill:#040000;}
</style>
<g>
	<path class="st0" d="M467.8,37.2c-6.5,0-12.3,1.7-17.3,5.1c-5,3.4-8.8,7.9-11.2,13.6l-1-17h-7.5v81.3h8.8V76.4
		c0-5.5,1.1-10.5,3.3-15.3c2.2-4.7,5.3-8.5,9.3-11.2c4-2.8,8.5-4.2,13.6-4.2c6.7,0,12,2.3,15.8,6.8c3.8,4.6,5.7,11.2,5.7,19.8v47.7
		h8.8V72.4c0-10.9-2.5-19.5-7.5-25.8C483.5,40.3,476.6,37.2,467.8,37.2 M387.1,45.4c7.1,0,12.8,2.4,17.3,7.3
		c4.5,4.9,7.3,11.6,8.3,20.2h-51.5c1.1-8.6,3.9-15.3,8.4-20.2C374.2,47.8,380,45.4,387.1,45.4 M422.1,80.1c0-8.5-1.5-16-4.4-22.6
		c-2.9-6.6-7.1-11.7-12.4-15.3c-5.4-3.6-11.4-5.4-18.1-5.4c-6.7,0-12.8,1.8-18.1,5.4c-5.4,3.6-9.5,8.7-12.5,15.3
		c-3,6.6-4.5,14.1-4.5,22.6c0,8.5,1.5,15.8,4.6,22.2c3.1,6.3,7.3,11.2,12.8,14.6c5.5,3.4,11.7,5.1,18.8,5.1c7.4,0,13.9-1.8,19.6-5.4
		c5.7-3.6,10.1-8.3,13.2-14l-6.3-6.3c-2.8,5.5-6.4,9.7-10.8,12.7c-4.4,3-9.6,4.5-15.3,4.5c-8.1,0-14.7-2.9-19.8-8.7
		c-5-5.8-7.6-13.8-7.7-24.1h61.2V80.1z M350.2,106.7c-2.4,2.2-4.7,3.9-7.1,4.9c-2.4,1-5,1.5-7.9,1.5c-4.5,0-7.9-1.5-10.2-4.5
		c-2.3-3-3.5-7.3-3.5-13V46.8h30v-8h-30V17h-8.8v21.8H298v8h14.8v49.3c0,8.5,1.8,14.8,5.5,19.1c3.7,4.3,9.2,6.4,16.5,6.4
		c7.1,0,13.2-2.1,18.5-6.4L350.2,106.7z M284.9,38.8v43.7c0,5.6-1,10.7-3.1,15.3c-2.1,4.7-5.1,8.4-9,11.2c-3.9,2.8-8.4,4.2-13.4,4.2
		c-6.8,0-12.1-2.2-15.9-6.7c-3.7-4.4-5.6-11-5.6-19.7v-48H229v48c0,10.8,2.5,19.3,7.5,25.5c5,6.2,11.9,9.3,20.7,9.3
		c6.5,0,12.2-1.7,17-5.1c4.8-3.4,8.5-7.9,10.9-13.6l1,17h7.5V38.8H284.9z M227.1,120.1l-46.9-44l43-37.3h-11.9L171.6,74V6.1h-8.8
		v114h8.8V79.6l43,40.5H227.1z M112.2,113.2c-5.5,0-10.3-1.4-14.5-4.3c-4.2-2.8-7.5-6.8-9.8-11.9c-2.3-5.1-3.5-10.9-3.5-17.6
		c0-6.6,1.1-12.5,3.5-17.6c2.3-5.1,5.6-9,9.8-11.9c4.2-2.8,9.1-4.3,14.5-4.3c5.2,0,10,1.4,14.2,4.3c4.2,2.8,7.5,6.8,9.9,11.9
		c2.4,5.1,3.5,10.9,3.5,17.4c0,6.5-1.2,12.4-3.6,17.6c-2.4,5.2-5.7,9.2-9.9,12C122.1,111.8,117.4,113.2,112.2,113.2 M141.1,38.8
		l-1,17.7c-2.5-5.9-6.3-10.6-11.5-14c-5.2-3.5-11.1-5.2-17.7-5.2c-6.7,0-12.8,1.8-18.2,5.4c-5.4,3.6-9.6,8.6-12.7,15
		c-3.1,6.4-4.6,13.7-4.6,21.8s1.5,15.4,4.6,21.8c3,6.4,7.3,11.4,12.7,15c5.4,3.6,11.5,5.4,18.2,5.4c6.6,0,12.5-1.7,17.7-5.2
		c5.2-3.5,9-8.2,11.5-14.1l1,17.7h7.6V38.8H141.1z M29.9,72.7H13.2V25.7h16.7c8.5,0,15.2,2,20.3,5.9c5.1,4,7.6,9.8,7.6,17.5
		c0,8-2.5,14-7.5,17.8C45.3,70.8,38.5,72.7,29.9,72.7 M80.8,120.1L48,77.5c6-2.5,10.7-6.1,14-10.8c3.4-4.8,5.1-10.6,5.1-17.6
		c0-10.2-3.4-18-10.2-23.4c-6.8-5.4-15.8-8.1-27.1-8.1H4v102.4h9.2V80.7H30c3.4,0,6.4-0.2,9-0.6l30.7,40H80.8z"/>
</g>
<g>
	<path class="st0" d="M967.7,37.2c-6.5,0-12.3,1.7-17.3,5.1c-5,3.4-8.8,7.9-11.2,13.6l-1-17h-7.5v81.3h8.8V76.4
		c0-5.5,1.1-10.5,3.3-15.3c2.2-4.7,5.3-8.5,9.3-11.2c4-2.8,8.5-4.2,13.6-4.2c6.7,0,12,2.3,15.8,6.8c3.8,4.6,5.7,11.2,5.7,19.8v47.7
		h8.8V72.4c0-10.9-2.5-19.5-7.5-25.8C983.4,40.3,976.5,37.2,967.7,37.2 M881.7,113.5c-5.5,0-10.4-1.4-14.7-4.3
		c-4.3-2.8-7.8-6.8-10.3-12c-2.5-5.1-3.8-11.1-3.8-17.8c0-6.7,1.3-12.7,3.8-17.8c2.5-5.1,5.9-9.1,10.3-12c4.3-2.8,9.2-4.3,14.7-4.3
		c5.5,0,10.4,1.4,14.8,4.3c4.4,2.8,7.8,6.8,10.4,12c2.5,5.1,3.8,11.1,3.8,17.8c0,6.7-1.3,12.7-3.8,17.8c-2.5,5.1-6,9.1-10.4,12
		C892.1,112.1,887.2,113.5,881.7,113.5 M881.7,122c7.3,0,13.8-1.8,19.5-5.5c5.7-3.6,10.2-8.7,13.5-15.2c3.3-6.5,4.9-13.8,4.9-21.9
		S918,64,914.7,57.5c-3.3-6.5-7.8-11.5-13.5-15.2c-5.7-3.6-12.2-5.5-19.5-5.5c-7.3,0-13.8,1.8-19.5,5.5C856.5,46,852,51,848.8,57.5
		c-3.2,6.4-4.8,13.8-4.8,22c0,8.2,1.6,15.6,4.8,22c3.2,6.4,7.7,11.5,13.4,15.1C867.9,120.2,874.4,122,881.7,122 M824.3,120.1h8.8
		V38.8h-8.8V120.1z M828.7,24.1c2.2,0,4.1-0.7,5.5-2.2c1.4-1.4,2.2-3.2,2.2-5.4c0-2.1-0.7-3.9-2.2-5.4c-1.4-1.4-3.3-2.2-5.5-2.2
		c-2.3,0-4.1,0.7-5.5,2.2c-1.4,1.4-2.2,3.2-2.2,5.4c0,2.1,0.7,3.9,2.2,5.4C824.6,23.3,826.4,24.1,828.7,24.1 M781.9,37.2
		c-6.4,0-12.1,1.7-17.1,5c-5,3.3-8.7,7.7-11.2,13.2V6.1h-8.8v114h8.8V76.4c0-5.5,1.1-10.5,3.3-15.3c2.2-4.7,5.3-8.5,9.3-11.2
		c4-2.8,8.5-4.2,13.6-4.2c6.7,0,12,2.3,15.8,6.8c3.8,4.6,5.7,11.2,5.7,19.8v47.7h8.8V72.4c0-10.9-2.5-19.5-7.5-25.8
		C797.5,40.3,790.6,37.2,781.9,37.2 M706.1,122c8.4,0,15.1-2,20.2-6.1c5.1-4.1,7.6-9.5,7.6-16.4c0-5.7-1.7-10.5-5.1-14.5
		c-3.4-4-8.5-7-15.3-8.9l-10-2.7c-5.6-1.5-9.6-3.4-12.2-5.8c-2.6-2.4-3.9-5.3-3.9-8.8c0-4,1.7-7.2,5-9.6c3.3-2.5,7.7-3.7,13.2-3.7
		c4.3,0,8.1,1,11.4,3c3.3,2,6.3,5.1,8.8,9.4l6.1-6.4c-2.5-4.6-6-8.2-10.5-10.7c-4.6-2.5-9.8-3.8-15.8-3.8c-8,0-14.5,2-19.5,6.1
		c-5,4.1-7.5,9.3-7.5,15.7c0,11.1,6.9,18.6,20.7,22.5l10,2.7c5.4,1.4,9.3,3.4,11.8,5.9c2.5,2.6,3.8,5.8,3.8,9.6
		c0,4.6-1.7,8.1-5,10.4c-3.3,2.4-7.9,3.5-13.8,3.5c-6.1,0-11.2-1.5-15.3-4.4c-4.1-2.9-7.6-7.2-10.5-12.8l-6.3,6.3
		c3.1,5.9,7.4,10.6,12.8,14.1C692.2,120.2,698.6,122,706.1,122 M628.8,113.2c-5.5,0-10.3-1.4-14.5-4.3c-4.2-2.8-7.5-6.8-9.8-11.9
		c-2.3-5.1-3.5-10.9-3.5-17.6c0-6.6,1.1-12.5,3.5-17.6c2.3-5.1,5.6-9,9.8-11.9c4.2-2.8,9.1-4.3,14.5-4.3c5.2,0,10,1.4,14.2,4.3
		c4.2,2.8,7.5,6.8,9.9,11.9c2.4,5.1,3.5,10.9,3.5,17.4c0,6.5-1.2,12.4-3.6,17.6c-2.4,5.2-5.7,9.2-9.9,12
		C638.7,111.8,634,113.2,628.8,113.2 M657.7,38.8l-1,17.7c-2.5-5.9-6.3-10.6-11.5-14c-5.2-3.5-11.1-5.2-17.7-5.2
		c-6.7,0-12.8,1.8-18.2,5.4c-5.4,3.6-9.6,8.6-12.7,15c-3.1,6.4-4.6,13.7-4.6,21.8s1.5,15.4,4.6,21.8c3,6.4,7.3,11.4,12.7,15
		c5.4,3.6,11.5,5.4,18.2,5.4c6.6,0,12.5-1.7,17.7-5.2c5.2-3.5,9-8.2,11.5-14.1l1,17.7h7.5V38.8H657.7z M587.8,25.8v-8.2h-59.4v102.4
		h9.2V72.5h45.6v-8.2h-45.6V25.8H587.8z"/>
</g>
</svg>
