<svg id="レイヤー_1" data-name="レイヤー 1" xmlns="http://www.w3.org/2000/svg" viewBox="0 0 270.68 37.56"><defs><style>.cls-1{fill:#bf1920;}.cls-2{fill:none;}.cls-3{fill:#231815;}</style></defs><polygon class="cls-1" points="101.6 31.48 25.24 31.48 31.32 37.56 101.6 31.48"/><path class="cls-1" d="M165.69,181.63v.91a7.73,7.73,0,0,0-4.43-1.42c-5.35,0-9.41,4.87-9.41,10.87s4.06,10.86,9.41,10.86a7.73,7.73,0,0,0,4.43-1.42v.91h4.7V181.63Zm-4.43,16.23c-2.64,0-4.57-2.59-4.57-5.87s1.93-5.88,4.57-5.88,4.5,2.6,4.5,5.88S163.9,197.86,161.26,197.86Z" transform="translate(-133.38 -174.75)"/><path class="cls-1" d="M203.36,181.63V193.8a3.87,3.87,0,1,1-7.7,0V181.63H191V193.8c0,5,3.42,9,8.41,9a7.2,7.2,0,0,0,4-1.28v.77h4.7V181.63Z" transform="translate(-133.38 -174.75)"/><path class="cls-1" d="M247.18,202.34V190.17a3.87,3.87,0,1,1,7.7,0v12.17h4.71V190.17c0-5-3.42-9-8.41-9a7.2,7.2,0,0,0-4,1.28v-.77h-4.7v20.71Z" transform="translate(-133.38 -174.75)"/><path class="cls-1" d="M138.29,202.34v-8h3.48l6,8H154l-7.28-9.68a8.92,8.92,0,0,0-5.17-16.2h-8.12v25.88Zm0-21h3.21a4,4,0,1,1,0,8h-3.21Z" transform="translate(-133.38 -174.75)"/><path class="cls-1" d="M220.74,197.44a2.77,2.77,0,0,1-1.57.51,2.32,2.32,0,0,1-2.22-2.54v-8.87h4v-4.92h-4v-5.16h-4.7v5.16h-2.49v4.92h2.49v8.94a7.07,7.07,0,0,0,7,7.39,9.77,9.77,0,0,0,4.6-1.3Z" transform="translate(-133.38 -174.75)"/><polygon class="cls-1" points="48.71 16.59 56.77 6.88 50.18 6.88 44.54 14.09 44.54 0 39.7 0 39.7 27.59 44.54 27.59 44.54 19.08 51.48 27.59 58.07 27.59 48.71 16.59"/><path class="cls-1" d="M231.6,181.1c-5.44,0-9.35,4.78-9.35,10.88,0,6.42,4.9,10.89,9.82,10.89,2.48,0,5.66-.85,8.33-4.64l-4.16-2.39c-3.21,4.73-8.56,2.33-9.18-2.41H240.6C241.76,186,237,181.1,231.6,181.1Zm4.11,8.21h-8.47C228.23,184.46,234.79,184.18,235.71,189.31Z" transform="translate(-133.38 -174.75)"/><rect class="cls-2" y="1.71" width="126.21" height="29.77"/><path class="cls-3" d="M305.19,191.86a5.18,5.18,0,0,1-1.51-4.51,5.62,5.62,0,0,1,2.17-3.74L317,175.08c.45.49,0,.89.46,1.35s.89.06,1.34.55,0,.88.41,1.34.89.07,1.34.56,0,.86.41,1.33.89.11,1.34.6l-9.17,7.24,9.4,9.16L316.65,203l-11.46-11.1" transform="translate(-133.38 -174.75)"/><path class="cls-3" d="M327.79,178.18a2.74,2.74,0,1,0-2.94,2.51A2.74,2.74,0,0,0,327.79,178.18Z" transform="translate(-133.38 -174.75)"/><path class="cls-3" d="M327.79,185.38a2.74,2.74,0,1,0-2.94,2.51A2.74,2.74,0,0,0,327.79,185.38Z" transform="translate(-133.38 -174.75)"/><path class="cls-3" d="M373.69,181.24c0-.56.5-.57.5-1.08s-.5-.51-.5-1.06.44-.61.45-1.14h-9.72v6h0v4.69h-.5a7.09,7.09,0,0,0-5.66,2.81,4.5,4.5,0,0,0-.74,1.13h-.2l1.8-8.18h3.74c0-.58-.46-.52-.46-1.07s.5-.56.5-1.08-.5-.5-.5-1,.5-.57.5-1.08-.5-.51-.5-1.06.44-.61.45-1.14h-2.31l.62-2.83h-6.72l-.63,2.83h-4v6.47h2.58L349.85,196h7a7.09,7.09,0,0,0,14.18-.25c0-.22,0-.42,0-.63h3.16c0-.58-.45-.52-.45-1.07s.5-.57.5-1.09-.5-.5-.5-1,.5-.56.5-1.08-.5-.5-.5-1.06.44-.6.45-1.13h-3.36v-4.22h3.36c0-.58-.45-.52-.45-1.07s.5-.56.5-1.08S373.69,181.79,373.69,181.24Zm-9.77,16.65a2.13,2.13,0,1,1,2.13-2.12A2.12,2.12,0,0,1,363.92,197.89Z" transform="translate(-133.38 -174.75)"/><path class="cls-3" d="M391.92,178.64a2.64,2.64,0,1,1,2.64,2.63A2.64,2.64,0,0,1,391.92,178.64Z" transform="translate(-133.38 -174.75)"/><path class="cls-3" d="M401.42,181.27a2.64,2.64,0,1,0-2.64-2.63A2.63,2.63,0,0,0,401.42,181.27Z" transform="translate(-133.38 -174.75)"/><path class="cls-3" d="M400.24,185.94c0-.56.5-.57.5-1.09s-.5-.51-.5-1.07.45-.61.46-1.14h-8.82l-3.63,6.24a4.12,4.12,0,1,1-2.82-.24l3.48-6h0l1.32-2.23L380.16,175c-.29.51.13.69-.15,1.17s-.73.23-1,.68.18.7-.1,1.17-.73.24-1,.69.17.7-.11,1.17-.7.3-1,.76l5.63,2.81a10.14,10.14,0,1,0,14.12,9.33,10,10,0,0,0-.66-3.59l4.76,0c0-.58-.46-.52-.46-1.07s.5-.58.5-1.1S400.24,186.5,400.24,185.94Z" transform="translate(-133.38 -174.75)"/><path class="cls-3" d="M335.37,190a6,6,0,0,0-6.12,4.72,6.35,6.35,0,0,0,3.05,7.13,9.7,9.7,0,0,0,5.52,1.09,11,11,0,0,0,3.9-1c5.55-2.36,8-8.44,5.44-13.59A10.54,10.54,0,0,0,343.1,184l2.09-7.32H329.57c0,.45.47.51.47,1.07s-.52.49-.52,1.08.52.54.52,1.11-.53.48-.53,1.07.53.54.53,1.11-.48.49-.48,1.08h6.85l-1.78,5.24c3.57-.27,7,1.29,7.09,4.59l-.12,0C341.19,192.05,339.45,190,335.37,190Zm.33,8.28a2.17,2.17,0,1,1,2.23-2.17A2.2,2.2,0,0,1,335.7,198.26Z" transform="translate(-133.38 -174.75)"/><rect class="cls-1" x="272.46" y="190.68" width="20.3" height="3.12" transform="translate(85.33 -318.28) rotate(45)"/><rect class="cls-1" x="272.46" y="190.68" width="20.3" height="3.12" transform="translate(-186.54 81.39) rotate(-45)"/></svg>