<svg xmlns="http://www.w3.org/2000/svg" viewBox="0 0 50 52"><defs><style>.kiy-2{clip-path:url(#clip-path)}.cls-5{fill:#e3a519}</style><clipPath id="clip-path"><path id="SVGID" d="M17.6,5.8A22.23,22.23,0,0,0,4.1,34.3a22.94,22.94,0,0,0,5.8,8.8L2.4,45c15.1,8.5,25.7,4.5,30.2,2.9a22.35,22.35,0,1,0-15-42.1Zm12,34.3A14.17,14.17,0,1,1,38.2,22,14.15,14.15,0,0,1,29.6,40.1Z" fill="none"></path></clipPath></defs><g id="Laag_2" data-name="Laag 2"><g id="Laag_1-2" data-name="Laag 1"><g class="kiy-2"><path fill="#f2cb08" d="M11 25.2L2.1 23.8 2.7 12.2 14.9 6.2 20.7 11.8 18.7 16.7 11 25.2z"></path></g><g class="kiy-2"><path fill="#db8d19" d="M2.2 22.8L11.8 24.5 11.4 31 3.1 32.6 0.8 28.2 2.2 22.8z"></path></g><g class="kiy-2"><path class="cls-5" d="M2.4 32.1L11.7 29.8 13.9 35.4 5.7 39.7 2.4 32.1z"></path></g><g class="kiy-2"><path fill="#ce5c1b" d="M19.4 38.8L13.6 50.8 0 44.9 5.2 39.3 13.8 33.9 19.4 38.8z"></path></g><g class="kiy-2"><path class="cls-5" d="M19 38.4L13 50 18.7 52.1 25.3 51.6 25.5 38.7 19 38.4z"></path></g><g class="kiy-2"><path fill="#a1bf35" d="M24.9 39.7L25 50.5 38.6 47.8 31 35.5 24.9 39.7z"></path></g><g class="kiy-2"><path fill="#e5e01f" d="M13.8 6.1L18.6 14.7 37.4 24.3 48.4 21.9 44.1 9.6 30.6 0 13.8 6.1z"></path></g><g class="kiy-2"><path fill="#c9d32a" d="M38.5 23.9L47.5 22 49.6 33 37.5 47.5 31.1 37.2 38.5 23.9z"></path></g><path d="M22.7,34.5h5.8s1.3-9.2,5.1-16.1,9.8-10.1,13.9-12a24.14,24.14,0,0,0-16.7,7.3A25.64,25.64,0,0,0,24,25.4c-1.5-2.2-3.8-5.8-3.8-5.8h-7Z" fill="#80b23d"></path></g></g></svg>