<svg width="32" height="32" viewBox="0 0 32 32" fill="none" xmlns="http://www.w3.org/2000/svg">
<circle cx="16" cy="16" r="14" fill="white"/>
<path fill-rule="evenodd" clip-rule="evenodd" d="M16 30C23.732 30 30 23.732 30 16C30 8.26801 23.732 2 16 2C8.26801 2 2 8.26801 2 16C2 23.732 8.26801 30 16 30ZM11.4931 19.5H10.0379L7.20517 14.8942V19.5H5.75V12.5H7.20517L10.0427 17.1154V12.5H11.4931V19.5ZM17.2117 16.4663H14.4178V18.3413H17.6967V19.5H12.9626V12.5H17.687V13.6683H14.4178V15.3365H17.2117V16.4663ZM25.2997 12.5L24.349 17.4808L23.1897 12.5H21.9577L20.7935 17.4712L19.838 12.5H18.3876L19.9544 19.5H21.4192L22.5688 14.8173L23.7184 19.5H25.1833L26.75 12.5H25.2997Z" fill="#4DC4FF"/>
</svg>
