<svg width="156" height="19" viewBox="0 0 156 19" fill="none" xmlns="http://www.w3.org/2000/svg">
<path fill-rule="evenodd" clip-rule="evenodd" d="M21.9548 0.333252H39.0805L38.3055 4.22857C38.0324 5.40066 37.2227 5.97322 35.8163 5.95736H20.8342L21.9548 0.333252ZM19.3789 16.0922L21.243 6.71232H37.2164L35.7958 13.8257C35.5007 15.4118 34.8977 16.0462 33.6539 16.1112C34.1334 16.8999 34.6834 17.6432 35.2971 18.3317H30.7544C30.6842 18.202 30.6282 18.1003 30.5802 18.0133L30.5802 18.0132L30.5802 18.0131C30.43 17.7404 30.3593 17.6122 30.1799 17.2214C30.012 16.8218 29.8514 16.476 29.6925 16.1339L29.6924 16.1338L29.6924 16.1338L29.6924 16.1337L29.6924 16.1336L29.6716 16.089H25.0217C24.4378 16.8886 23.7901 17.6392 23.085 18.3333H18.4366C19.6788 17.3816 20.1365 16.9819 20.9888 16.089L19.3789 16.0922ZM26.2386 3.87013L26.4627 2.73769H24.8938L24.6681 3.87013H26.2386ZM33.3335 9.26267L33.4566 8.6457H24.2767L24.1488 9.25633L33.3335 9.26267ZM32.8521 11.6861L32.9879 10.9597H23.8158L23.6737 11.675L32.8521 11.6861ZM32.3786 14.0509L32.5096 13.3959H23.3344L23.2018 14.0446L32.3786 14.0509ZM30.958 2.74404H29.1997L28.9756 3.87647H30.7228L30.958 2.74404ZM35.0398 3.87013L35.2639 2.73769H33.7771L33.5529 3.87013H35.0398ZM3.27125 2.30007L2.63989 5.48008H7.04994L6.82897 6.79174C4.93489 7.42774 4.27985 7.72592 3.42593 8.32227C1.60288 9.59428 0.472746 11.1835 0.122341 12.9519C-0.505863 16.1113 1.32035 18.1383 4.79283 18.1383C6.02398 18.1383 6.96944 17.7814 7.46191 17.1058C7.89123 16.511 8.20691 15.6942 8.47208 14.3223L9.40334 9.63234C9.86423 9.57207 10.2967 9.53242 10.4956 9.53242C11.8862 9.53242 13.2341 10.1494 13.7313 11.0249C13.8904 11.4009 13.9274 11.8177 13.8371 12.216C13.6625 13.027 13.2016 13.747 12.5396 14.243C11.8767 14.7204 11.2264 14.8599 9.50909 14.8996L8.85405 18.1986C9.1287 18.2176 9.30706 18.2176 9.48542 18.2176C11.3747 18.1914 13.2177 17.6265 14.7999 16.5887C16.2652 15.5801 17.2736 14.0297 17.6047 12.2763C18.3103 8.71878 15.9 6.45391 11.3511 6.45391C11.1934 6.45391 10.9321 6.46456 10.6119 6.47762L10.6118 6.47763L10.6115 6.47764C10.4863 6.48274 10.3521 6.48822 10.2115 6.49356L10.4167 5.46105H13.8244L14.4558 2.30007H11.0386L11.4063 0.452327H8.00961L7.64184 2.30007H3.27125ZM4.53239 11.0439C4.90174 10.6871 5.25372 10.5078 5.99715 10.2699L5.36579 13.4436C5.18427 14.3778 5.01381 14.6363 4.57659 14.6363C3.79844 14.6363 3.28546 13.8258 3.47171 12.8917C3.6445 12.1874 4.01226 11.5468 4.53239 11.0439ZM15.0792 1.52444H15.5023C16.4146 1.56727 18.5391 1.93999 18.8706 4.35077C18.8974 4.70922 18.8974 5.08987 18.8974 5.57837H15.5275C15.4391 3.73222 15.4091 3.45149 15.0792 1.52444ZM43.1999 10.4382C42.7454 12.8218 42.7454 12.8218 42.8653 13.0217C42.925 13.1043 43.0053 13.1697 43.0981 13.2111C43.191 13.2526 43.2931 13.2688 43.3941 13.258C43.8108 13.258 44.851 12.8202 47.0828 11.6878L46.2778 15.7417C42.9616 17.1327 42.1756 17.3912 41.2806 17.3912C40.3273 17.3912 39.5681 17.0137 39.205 16.3381C38.8183 15.6228 38.7899 14.9265 39.134 13.1977L40.9744 3.93363L45.0183 1.28494L43.2 10.438L43.1999 10.4382ZM55.6712 3.56092C54.6973 2.56647 53.9807 2.39518 50.1926 2.3476L49.4807 5.92571H51.3748C51.9083 5.94474 52.205 6.04466 52.456 6.28257C52.8664 6.72031 52.8711 7.4943 52.4765 9.58154L51.7221 13.3389L54.6531 16.66H54.6784L56.08 9.60691C56.8661 5.74648 56.7982 4.89161 55.6712 3.56092ZM63.3965 1.19394L63.4508 0.938943H60.9253C60.1156 4.9326 60.0051 5.29104 59.2869 6.28549L58.6209 9.64315C60.1803 8.78827 60.8196 8.17288 61.9939 6.46313H62.7089L61.9781 10.1396C60.8924 10.3482 59.7958 10.4944 58.6935 10.5773L58.0842 13.6368C59.3469 13.4972 59.9783 13.3989 61.3815 13.161L60.3539 18.3267H63.3403L64.4862 12.5646L66.0646 12.1872L65.8705 13.161C69.1519 11.7526 71.548 9.69073 74.2818 5.87154H74.6195L74.3591 7.18319C71.9362 10.6804 68.8915 13.1087 65.5516 14.2189L64.9076 17.4576C68.347 16.3442 70.6546 14.8343 73.3647 11.8937C72.6371 14.8549 72.042 15.5496 70.2805 15.5099H69.6065L69.0494 18.3125H70.2616C72.6039 18.3125 74.0671 17.5527 75.1294 15.8081C75.8633 14.5123 76.4568 12.525 77.044 9.46392L78.3635 2.82633H72.1651C72.7065 1.81285 72.7996 1.63522 73.3379 0.421892H70.0801C69.2246 2.74703 68.5016 4.01904 67.3968 5.15147L67.7124 3.62253H66.2572L66.9075 0.34259H63.9243L63.2756 3.62253H62.8573C63.0933 2.61895 63.1515 2.34554 63.3965 1.19394ZM66.7434 9.29978L66.7432 9.29984C65.8923 9.52595 65.7369 9.56725 65.045 9.72245L65.6921 6.46313H66.8554L66.3661 8.92784C68.0897 7.95401 68.6769 7.49723 70.3326 5.86678H71.207C70.028 7.59456 68.4653 9.02315 66.6423 10.0397L66.8001 9.2847L66.7434 9.29978ZM81.2743 2.20944L80.5261 5.24989H92.3941L92.1084 6.41087C91.2324 9.74156 90.4858 10.9628 85.7522 11.4006C84.7025 8.54568 81.0059 8.56313 81.0059 8.56313C82.167 11.5676 83.1473 14.6395 83.9418 17.7622H87.6731C87.2943 16.1254 87.1159 15.3831 86.8018 14.2602C92.6324 13.3831 95.3173 11.2134 96.539 6.31888L97.5444 2.20944H81.2743ZM109.553 9.53231H98.6005L99.3661 6.41098H115.008C113.527 12.0462 112.591 13.9193 110.382 15.6766C108.188 17.3039 106.068 17.7797 100.842 17.8226H97.2116L98.0339 14.4808H101.205C107.977 14.5552 108.149 14.0082 109.461 9.82618L109.553 9.53231ZM115.33 1.18011L105.943 1.26735C104.859 1.25724 103.793 1.54393 102.859 2.09665C101.926 2.64936 101.159 3.44721 100.643 4.40454H114.623L115.33 1.18011ZM150.973 0.861237L149.236 8.71215C148.727 10.6995 147.342 12.3822 145.574 13.1531C144.418 13.7351 143.459 14.0809 140.885 14.1047H134.841L133.926 17.8446H139.905C144.482 17.8018 147.023 17.2403 149.284 15.7716C151.967 14.0872 153.545 11.7129 154.492 7.93499L156 0.861237H150.973ZM146.773 8.06674L147.728 4.18093C145.991 3.44659 142.167 2.21582 138.573 1.22296L137.63 5.04374C140.255 5.77808 143.712 6.92161 146.773 8.06674ZM129.979 0.861237L128.819 5.57495C127.822 9.48614 127.124 11.0468 126.208 12.2363C124.652 14.7914 118.632 15.2768 118.632 15.2768L115.431 15.594L114.795 17.8446H119.609C124.502 17.7811 127.07 17.0341 129.201 15.042C131.124 13.2974 132.358 10.7232 133.769 5.57495L134.928 0.861237H129.979ZM122.962 9.1039C122.978 7.7106 122.882 6.31826 122.674 4.94054C122.081 2.91992 119.565 2.02856 118.222 1.69391C118.932 4.09785 119.273 6.59658 119.233 9.1039H122.962Z" fill="#BF0000"/>
</svg>
