<?xml version="1.0" encoding="UTF-8"?> <svg xmlns="http://www.w3.org/2000/svg" width="160" height="60" viewBox="0 0 160 60" fill="none"><path fill-rule="evenodd" clip-rule="evenodd" d="M33.7946 6.00182C33.5532 6.0046 33.3112 6.01075 33.0683 6.02001C31.3512 6.08744 29.0562 6.44589 27.2393 6.95665C25.9574 7.31316 25.085 7.8852 24.474 8.98334C24.1695 9.53291 23.8909 10.1264 24.0427 10.7321C24.1754 11.247 24.8933 11.4257 25.4703 11.5217C26.0244 11.6096 27.2861 11.6832 27.6215 11.2634C27.7662 11.0826 27.7494 10.9119 27.6296 10.6953C27.5058 10.4655 27.1854 10.2992 26.8819 10.2399C26.7439 10.2143 26.5537 10.1925 26.3659 10.171C26.0891 10.1393 25.8172 10.1081 25.7239 10.0662C25.637 10.0263 25.5452 9.9752 25.5452 9.9752C25.5457 9.97471 25.5843 9.93525 25.6201 9.90179C25.6879 9.84765 25.9296 9.74226 26.0853 9.70346C26.2135 9.67549 26.348 9.63451 26.4853 9.59269C26.5586 9.57036 26.6328 9.54779 26.7071 9.52683C28.1836 9.10801 31.1107 9.03862 32.4514 9.08765C37.6576 9.28583 42.5031 10.4748 47.4078 12.5373C52.2096 14.5578 57.6694 18.0033 60.855 22.1967C62.0589 23.7831 63.5692 26.3861 63.7519 28.5844C63.9186 30.5928 63.2908 32.5151 62.0909 33.9238C61.1824 34.9851 59.9815 35.7688 58.6727 36.3991C55.6908 37.8425 52.0639 38.1386 48.8144 38.0508C48.3881 38.0396 46.7828 37.8915 46.4025 37.8343C45.7426 37.724 44.904 37.5595 44.904 37.5595L44.6904 27.2706C44.6904 27.2706 45.7027 27.3075 46.4155 27.3504C48.2384 27.4607 52.006 28.099 53.8927 28.8652C54.2961 29.0266 54.7164 29.279 54.7544 29.6876C54.7813 30.0002 54.5386 30.2679 54.267 30.514C54.1413 30.6325 54.0055 30.7295 53.8428 30.8204L53.7331 30.88C53.4063 31.0576 52.9624 31.2987 52.9275 31.3444C52.8237 31.4844 52.8157 31.6908 52.9595 31.8072C53.3219 32.0943 54.5008 32.2556 54.8153 32.2341C55.8685 32.1739 56.9076 31.4447 57.4557 30.4599C57.9439 29.5886 57.9929 28.9224 57.6715 27.957C57.3271 26.9038 56.2628 25.9079 55.1237 25.3185C53.7421 24.6003 51.3323 24.062 50.0954 23.8618C49.129 23.7045 48.1036 23.5533 47.1742 23.5298C46.2158 23.5043 44.6595 23.5504 44.6595 23.5504C44.6595 23.5504 44.6296 22.1538 44.5688 21.2263C44.4679 19.7022 44.0566 16.7071 42.6999 15.846C42.4523 15.6877 42.1478 15.6712 41.977 15.9082C41.7135 16.2586 41.4561 17.5979 41.3962 17.9483C41.2854 18.5908 40.9398 21.6319 40.9498 22.0957C40.9588 22.5656 40.9129 23.8548 40.8859 23.8947C40.871 23.914 40.8551 23.9283 40.8332 23.9446C40.7802 23.9814 39.9136 24.1386 39.3555 24.2203C38.1715 24.396 35.3255 25.3472 34.408 25.7609C33.1602 26.3197 31.3384 27.3014 30.8292 28.6018C30.4619 29.5344 30.6005 30.3179 31.0847 31.1985C31.7076 32.3262 32.5252 33.2066 33.4347 34.0862C33.7601 34.4008 35.2296 35.6613 35.571 35.9198C36.8039 36.8555 38.2165 37.7608 39.7019 38.5106C40.1861 38.7578 40.7652 39.0376 40.7652 39.0376C40.7652 39.0376 40.8799 40.2297 40.9897 40.9162C41.1235 41.7681 41.4031 42.5119 42.1778 42.848C42.651 43.0523 43.193 43.0226 43.7041 42.9225C44.1264 42.8408 44.4171 42.6476 44.5958 42.2727C44.6627 42.1327 44.7845 41.6997 44.8034 41.5383C44.8439 41.1777 44.8412 40.667 44.8412 40.667C44.8412 40.667 46.0892 40.959 46.9277 41.1173C49.3686 41.5781 52.014 41.6219 54.3151 41.3369C57.7093 40.913 61.6646 39.626 64.2182 37.3664C64.907 36.7586 66.063 35.3377 66.5502 34.4408C66.8357 33.9188 67.1024 33.3907 67.3749 32.7522C67.4288 32.6225 67.7661 31.5692 67.83 31.1125C67.863 30.9144 68.0647 29.4107 67.9789 28.616C67.9894 28.3641 67.8897 27.8155 67.8308 27.4907C67.8112 27.3824 67.796 27.2986 67.791 27.2595C67.777 27.2442 67.6813 26.8202 67.6164 26.5321C67.5505 26.24 67.1522 25.2307 67.0594 25.0632C66.8867 24.746 66.7572 24.4595 66.6316 24.1814C66.5626 24.0286 66.4947 23.8784 66.4215 23.727C65.5509 21.9557 63.7628 19.7227 62.3253 18.2649C61.5846 17.51 60.5575 16.5671 59.7728 15.9113C59.3975 15.5915 56.9765 13.7723 56.5632 13.4934C55.2514 12.6139 52.9154 11.2676 51.436 10.5382C49.3725 9.51974 46.5493 8.40117 44.395 7.73616C40.8667 6.6377 37.4146 5.96015 33.7946 6.00182ZM40.7646 27.4383C40.7646 27.4383 40.7303 28.9592 40.7245 30.4996C40.7095 33.414 40.7854 36.3735 40.7854 36.3735C40.7854 36.3735 39.7692 36.0017 39.1583 35.7412C37.3683 34.9751 34.9425 33.3967 33.7456 32.3762C33.461 32.1321 32.4427 31.13 32.263 30.9145C31.9505 30.5396 31.673 30.181 31.7488 29.7173C31.8237 29.2739 32.6834 28.9051 33.1077 28.7539C34.5153 28.236 36.9579 27.8039 38.2587 27.6619C39.279 27.5454 40.7646 27.4383 40.7646 27.4383Z" fill="#252628"></path><path d="M112.665 24.3472C113.204 24.283 115.556 24.0161 116.539 24.0007C116.605 23.9997 116.665 23.9998 116.717 24.0011C117.997 24.0373 118.828 24.5534 119.576 25.614C119.978 26.18 120.253 26.8527 119.646 27.2173C118.713 27.7716 115.692 27.8135 115.138 27.8194C114.256 27.8282 113.037 27.8137 113.037 27.8137L112.422 29.8266C112.422 29.8266 114.587 29.8041 115.803 29.7993C116.098 29.7993 116.394 29.8148 116.559 29.849C117.18 29.9839 117.395 30.4512 117.42 31.1247C117.454 31.9126 117.302 32.2753 116.661 32.3809C116.498 32.4064 115.512 32.4246 114.494 32.4434C113.446 32.4627 112.363 32.4827 112.107 32.512C111.793 32.5452 111.46 32.5939 111.46 32.5939C111.46 32.5939 111.192 33.2802 110.958 33.9732C110.723 34.6956 110.521 35.4318 110.521 35.4318C110.521 35.4318 110.709 35.4398 110.866 35.4398C111.128 35.4418 111.394 35.4045 111.601 35.3693C112.447 35.2177 113.599 35.0433 114.704 34.8761C115.082 34.819 115.453 34.7627 115.806 34.7085C116.549 34.5922 116.924 34.5404 117.315 35.0233C117.654 35.4505 117.829 35.8082 117.853 36.3243C117.874 36.8102 117.496 37.1317 117.034 37.4778C115.571 38.5726 113.071 39.7593 111.208 39.9627C110.44 40.0473 110.19 39.9819 109.609 39.8298C109.54 39.8115 109.465 39.7919 109.384 39.7712C109.24 39.7351 108.719 39.4965 108.724 39.4711C108.724 39.4711 108.441 39.2873 108.345 39.214C108.231 39.1289 108.048 38.9449 107.914 38.7973C107.893 38.7768 107.515 38.2215 107.44 38.0505L107.402 37.9657C107.354 37.8595 107.314 37.7711 107.276 37.673C106.932 36.802 106.941 35.9447 107.131 35.0092C107.238 34.4825 107.341 34.2597 107.507 33.9026C107.616 33.6679 107.752 33.375 107.933 32.8997C107.962 32.8342 107.976 32.7776 107.986 32.7053C107.995 32.6243 107.934 32.3144 107.867 31.9786C107.799 31.6337 107.725 31.2613 107.717 31.0815C107.698 30.5399 108.128 30.1559 108.847 30.0816C108.864 30.0801 108.88 30.079 108.896 30.078C108.938 30.0752 108.974 30.0728 109.009 30.0629C109.284 29.9973 109.464 29.5001 109.617 29.0792L109.636 29.0259C109.855 28.4198 110.196 27.496 110.196 27.496C110.196 27.496 109.288 27.2906 108.801 27.1108C108.258 26.9104 107.848 26.6513 107.603 26.1635C107.308 25.5926 107.502 25.276 108.111 25.0912C108.334 25.0208 110.098 24.6895 110.655 24.6122C111.35 24.5125 112.004 24.4273 112.665 24.3472Z" fill="#252628"></path><path fill-rule="evenodd" clip-rule="evenodd" d="M72.5031 9.7031C73.4421 9.29974 74.6829 8.98548 75.8543 9.00039C76.3867 9.00717 76.9049 9.08206 77.3739 9.24733C77.8609 9.41785 78.5428 9.83999 78.8847 10.2795C78.9026 10.3027 78.9197 10.3263 78.9365 10.3496C78.9875 10.4199 79.0355 10.4862 79.0919 10.5221C79.1411 10.5544 79.2534 10.5722 79.3654 10.5899C79.4013 10.5956 79.4371 10.6013 79.4708 10.6075C79.9508 10.6917 80.6407 11.0592 80.9217 11.3038C81.4847 11.8002 81.7967 12.2742 81.9397 12.9614C82.2277 14.3429 81.4436 15.8604 80.5507 16.782C79.0197 18.3726 77.5088 19.4881 75.5509 20.2677C74.693 20.6087 73.354 20.9264 72.378 20.8371C72.2294 20.8246 72.0782 20.7988 71.9279 20.7732C71.7727 20.7467 71.6185 20.7204 71.4692 20.7091C71.3202 20.6958 70.7692 20.5549 70.7112 20.5103C70.6382 20.4564 70.5452 20.4056 70.5252 20.4249C70.4423 20.5129 70.3562 20.6834 70.2672 20.8598C70.2155 20.9622 70.1628 21.0666 70.1092 21.1579C70.0322 21.2898 69.8882 21.4604 69.7942 21.5274C69.4613 21.7761 69.1802 21.7873 68.8562 21.5C68.4062 21.098 68.1462 20.4697 68.1272 19.8607C68.1235 19.7611 68.1271 19.6582 68.1307 19.5564C68.1368 19.3853 68.1427 19.2176 68.1133 19.075C68.0597 18.8314 67.885 18.5835 67.7141 18.341C67.6201 18.2076 67.5272 18.0758 67.4563 17.9472C67.2203 17.5179 67.0294 16.7759 67.0064 16.2968C66.9234 14.8007 67.7012 13.4242 68.7112 12.336C69.7271 11.2367 71.0561 10.3233 72.5031 9.7031ZM72.766 12.735C73.038 12.5015 73.3549 12.2345 73.3549 12.2345C73.3549 12.2345 72.856 12.2874 72.575 12.3463C71.9051 12.4792 70.9222 13.1419 70.4302 13.5703C69.6202 14.2727 68.7302 15.4177 69.1312 16.4327C69.1912 16.5789 69.2823 16.7709 69.2823 16.7709C69.2823 16.7709 69.7062 16.1253 70.0622 15.634C70.7111 14.7407 71.8841 13.5023 72.766 12.735ZM78.5614 12.5244C78.7642 12.5186 78.9504 12.5631 79.1954 12.6712C79.5714 12.8346 79.8673 13.1837 79.9203 13.6435C80.0843 15.0706 78.4753 16.2826 77.3804 16.9038C76.2654 17.53 75.0654 17.9066 73.7855 17.9939C73.2845 18.0304 71.9646 18.0447 71.9266 17.8996C71.9166 17.864 72.0017 17.7331 72.1157 17.5941C72.2037 17.4797 72.3046 17.3384 72.4117 17.1884C72.5175 17.0402 72.6294 16.8836 72.7407 16.7363C73.7076 15.4705 75.4865 13.886 76.7444 13.145C77.1714 12.8963 77.3744 12.8152 77.8264 12.6792C78.1389 12.5863 78.3585 12.5302 78.5614 12.5244Z" fill="#252628"></path><path d="M71.484 24.3065C71.5909 24.0248 71.8148 23.4791 72.1958 23.4822C72.2212 23.4824 72.2472 23.4852 72.274 23.4905C72.333 23.5016 72.426 23.5289 72.505 23.5574C73.191 23.8233 73.473 24.4688 73.642 25.1753C74.034 26.8197 74.2019 30.4546 74.2659 31.8808C74.2921 32.4622 74.3117 33.0403 74.3313 33.6168L74.3313 33.6183C74.3476 34.0982 74.3639 34.5771 74.3839 35.0559L74.3931 35.2725C74.4303 36.1355 74.4765 37.2059 74.3089 37.9791C74.2419 38.2806 74.0441 38.6278 73.7591 38.8094C73.4321 39.0206 72.6911 39.0369 72.2841 38.9516C71.2792 38.7405 70.952 38.0847 70.8101 37.0767C70.4691 34.6701 70.6321 29.947 70.8341 27.9535C70.8991 27.2988 71.145 25.1896 71.484 24.3065Z" fill="#252628"></path><path d="M83.4283 23.1547C84.1327 23.0661 84.9726 23.0056 85.8623 23.0004C87.8196 22.9888 90.0171 23.2452 91.5387 24.0606C91.8811 24.2441 92.057 24.4162 91.9834 24.7851C91.8403 25.4766 91.3211 25.9217 90.6986 26.1175C90.0559 26.324 88.7357 26.4062 88.1252 26.4443L88.0928 26.4463C87.4588 26.4823 86.7935 26.5052 86.1135 26.5287C83.9303 26.604 81.5951 26.6845 79.6582 27.2181L79.6071 27.2327C79.4048 27.2905 79.1062 27.3759 79.0019 27.4933C78.6555 27.8721 79.4735 28.0147 79.8516 28.0805C79.9075 28.0903 79.9538 28.0983 79.9852 28.1052L79.9864 28.1055C80.057 28.1197 80.0727 28.1228 80.1469 28.13L85.7642 28.801C85.8337 28.8077 85.8543 28.8108 85.9122 28.8195L85.9256 28.8215C87.1441 28.9885 88.3383 29.2092 89.2511 29.6214C90.0986 30.0006 90.5973 30.4765 91.0502 31.3287C91.7402 32.62 91.7862 34.4264 91.1627 35.7949C90.6955 36.812 89.6732 37.6663 88.7409 38.1197C87.7688 38.5938 86.817 38.8184 85.7211 38.9441C83.8095 39.1554 81.7386 38.7577 80.0151 37.9168C78.9959 37.4149 77.7507 36.5514 77.122 35.4374C76.66 34.6192 76.6743 33.5588 77.2376 32.7839C78.132 31.5493 80.0488 31.2772 81.4953 31.3287C82.5972 31.3699 84.5784 31.7153 85.6262 32.0884C85.9176 32.1945 86.9858 32.6148 87.1718 32.8044C87.3027 32.9404 87.3895 33.1331 87.3302 33.3155C87.0889 34.0524 85.3154 34.4409 84.8032 34.5182C83.7156 34.6853 83.0431 34.3933 82.0369 33.9564C81.7711 33.841 81.482 33.7155 81.1559 33.5857C80.7685 33.4332 80.2521 33.264 79.8554 33.2269C79.148 33.1589 78.2924 33.3558 78.1585 34.1379C78.089 34.5409 78.5573 34.9159 78.9141 35.0716C79.7513 35.4374 80.4321 35.5662 81.2581 35.5796C83.69 35.6168 86.4246 35.2138 88.4169 33.7917C88.6919 33.597 88.9576 33.3085 88.9616 32.9468C88.9616 32.9005 88.8963 32.5108 88.7717 32.4706C88.7609 32.4657 88.7496 32.467 88.7393 32.4682C88.7321 32.469 88.7253 32.4698 88.7194 32.4684C88.6858 32.4586 88.6358 32.3883 88.5861 32.3187C88.5767 32.3054 88.5673 32.2921 88.5579 32.2793C88.5492 32.2673 88.5406 32.2557 88.5323 32.2449C88.3891 32.0687 87.8118 31.8182 87.6983 31.7698C86.3571 31.2061 83.8791 30.9319 82.6003 30.8258L82.3433 30.8037C81.0064 30.6886 79.1229 30.5264 78.6472 30.4568C78.1269 30.3826 77.5606 30.2785 77.1078 30.0735C76.657 29.8674 76.2132 29.4059 76.0803 28.8958C75.8472 27.9745 76.1467 26.843 76.6538 26.1052C77.9847 24.1761 81.0986 23.4453 83.4283 23.1547Z" fill="#252628"></path><path d="M100.207 21.0008C99.8398 20.9824 99.6226 21.2563 99.6206 21.6862C99.6176 22.0521 99.7008 22.4403 99.7899 22.8245C99.9474 23.4918 100.135 24.1881 100.323 24.8879C100.469 25.4285 100.615 25.9711 100.748 26.5039C101.025 27.5965 101.378 29.2121 101.515 30.3605C101.54 30.5513 101.558 30.7364 101.578 30.9285C101.598 31.1341 101.62 31.348 101.65 31.5849C101.684 31.8727 101.733 33.3078 101.707 33.3484C101.652 33.4528 101.531 33.4467 101.396 33.3342C101.301 33.2531 101.218 33.1278 101.132 32.997L101.119 32.9774C100.654 32.2666 100.184 31.5092 99.7052 30.7365L99.7042 30.7349C99.4163 30.2707 99.125 29.801 98.8293 29.3326C98.1242 28.2187 97.0607 26.6183 96.2518 25.4375C95.9355 24.9753 95.5331 24.5253 94.969 24.4736C94.1928 24.4073 93.812 25.5146 93.5501 26.276L93.5072 26.4004C92.5857 29.063 91.8599 33.016 92.0234 35.857C92.0714 36.7297 92.3054 38.4549 93.3376 38.8471C93.74 39.0012 93.9928 39.0661 94.3248 38.911C94.7919 38.6901 94.9154 38.2583 95.0368 37.7323C95.2021 37.0164 95.2452 35.6453 95.2693 34.8805L95.2694 34.877C95.2724 34.7823 95.2751 34.697 95.2777 34.6235C95.2796 34.513 95.3765 30.55 95.5175 29.7027C95.5391 29.5861 95.5723 29.4067 95.6556 29.432C95.7652 29.4664 95.8279 29.5353 95.8759 29.6072C95.979 29.7607 96.3468 30.4851 96.7933 31.3644C97.2964 32.3553 97.8996 33.5435 98.3359 34.3316C98.5778 34.7665 99.9966 37.3105 100.86 37.8173C101.65 38.2835 102.795 37.8529 103.37 37.3015C103.736 36.9498 104.177 36.2514 104.391 35.7324C104.976 34.3215 105.073 32.2365 104.958 30.8053C104.837 29.3326 104.574 28.0515 104.138 26.7004C104.015 26.3061 103.469 24.8992 103.331 24.6225C102.926 23.8036 101.534 21.445 100.484 21.0619C100.384 21.0248 100.292 21.005 100.207 21.0008Z" fill="#252628"></path><path fill-rule="evenodd" clip-rule="evenodd" d="M125.675 24.0004C125.211 23.9758 124.191 25.2183 124.034 25.4165C121.954 28.0217 120.099 31.2655 120.095 34.544C120.095 35.58 120.359 36.8623 120.85 37.9238C120.882 37.9871 120.882 38.0035 120.856 38.075C119.282 42.2577 118.71 44.1057 118.144 48.3079C117.983 49.5093 117.785 51.5569 118.61 52.645C119.021 53.1957 119.501 53.4938 120.049 53.786C120.47 54.0149 120.61 54.0835 120.958 53.8761C121.1 53.7831 121.14 53.7462 121.199 53.6298C121.242 53.5439 122.087 49.5278 122.384 47.9953C122.581 46.9624 123.433 43.6389 123.82 42.4047C124.044 41.6895 124.35 40.7781 124.35 40.7781C124.35 40.7781 124.649 40.7935 124.906 40.7994C126.802 40.8444 128.737 40.0893 130.385 38.9798C131.997 37.8948 133.183 36.6545 134.051 34.932C134.783 33.4883 135.122 31.5921 134.96 29.9064C134.821 28.4954 134.284 26.7555 133.051 25.9331C132.274 25.4113 131.558 25.5155 130.76 25.9344C129.754 26.4646 129.342 26.8396 128.412 27.7418C127.969 28.1698 126.431 29.7932 126.032 30.2509C125.638 30.7015 125.298 31.1195 124.825 31.7519C123.959 32.9033 122.648 34.7689 122.648 34.7689C122.648 34.7689 122.572 34.3254 122.556 33.9739C122.549 33.8513 122.707 32.895 122.77 32.6906L122.776 32.6705C123.166 31.3758 123.344 30.7871 124.146 29.3672C124.276 29.1366 124.416 28.8973 124.56 28.6511C125.216 27.5339 125.954 26.274 126.146 25.0333C126.215 24.5736 126.14 24.0228 125.675 24.0004ZM132.233 28.6692C132.354 28.6691 132.466 28.7337 132.523 28.8084C132.99 29.4326 132.907 30.8355 132.743 31.5047C132.373 32.9769 131.589 34.2357 130.464 35.1521C129.725 35.7508 128.342 36.4761 127.326 36.6497C126.848 36.7315 126.383 36.7499 126.351 36.6916C126.335 36.664 126.797 35.8416 126.95 35.6117C127.31 35.0977 127.679 34.5085 128.057 33.9033C128.431 33.3045 128.815 32.6897 129.21 32.1167C129.806 31.2472 131.053 29.5726 132.019 28.7512C132.086 28.6925 132.161 28.6693 132.233 28.6692Z" fill="#252628"></path></svg> 